<?xml version="1.0" encoding="UTF-8"?>
<!DOCTYPE svg PUBLIC "-//W3C//DTD SVG 1.1//EN" "http://www.w3.org/Graphics/SVG/1.1/DTD/svg11.dtd">
<!-- Creator: CorelDRAW 2018 (64 Bit Versión de evaluación) -->
<svg xmlns="http://www.w3.org/2000/svg" xml:space="preserve" width="106.468mm" height="16.9334mm" version="1.1" style="shape-rendering:geometricPrecision; text-rendering:geometricPrecision; image-rendering:optimizeQuality; fill-rule:evenodd; clip-rule:evenodd"
viewBox="0 0 10786.41 1715.54"
 xmlns:xlink="http://www.w3.org/1999/xlink">
 <defs>
  <style type="text/css">
   <![CDATA[
    .fil0 {fill:none}
    .fil12 {fill:#ED3237}
    .fil4 {fill:#DBA438}
    .fil8 {fill:#7A2D2E}
    .fil6 {fill:#52658C}
    .fil11 {fill:#00A859}
    .fil3 {fill:#0A5E5D}
    .fil1 {fill:#FEFEFE}
    .fil14 {fill:#FEFEFE;fill-rule:nonzero}
    .fil13 {fill:#ED3237;fill-rule:nonzero}
    .fil9 {fill:#DBA438;fill-rule:nonzero}
    .fil7 {fill:#7A2D2E;fill-rule:nonzero}
    .fil5 {fill:#52658C;fill-rule:nonzero}
    .fil10 {fill:#00A859;fill-rule:nonzero}
    .fil2 {fill:#0A5E5D;fill-rule:nonzero}
   ]]>
  </style>
 </defs>
 <g id="Capa_x0020_1">
  <metadata id="CorelCorpID_0Corel-Layer"/>
  <rect class="fil0" y="-0" width="10786.41" height="1713.44"/>
  <g id="_2166027241200">
   <circle class="fil1" cx="2472.89" cy="857.77" r="852.85"/>
   <g>
    <path class="fil2" d="M2472.89 364.62c136.18,0 259.47,55.19 348.71,144.44 89.24,89.24 144.44,212.53 144.44,348.71 0,136.18 -55.19,259.47 -144.44,348.71 -89.24,89.24 -212.53,144.44 -348.71,144.44 -136.18,0 -259.47,-55.19 -348.71,-144.44 -89.24,-89.24 -144.44,-212.53 -144.44,-348.71 0,-136.18 55.19,-259.47 144.44,-348.71 89.24,-89.24 212.53,-144.44 348.71,-144.44zm339.22 153.93c-86.81,-86.8 -206.75,-140.5 -339.22,-140.5 -132.47,0 -252.41,53.69 -339.22,140.5 -86.8,86.81 -140.5,206.75 -140.5,339.22 0,132.47 53.69,252.41 140.5,339.22 86.81,86.8 206.75,140.5 339.22,140.5 132.47,0 252.41,-53.69 339.22,-140.5 86.8,-86.81 140.5,-206.75 140.5,-339.22 0,-132.47 -53.69,-252.41 -140.5,-339.22z"/>
    <path class="fil2" d="M2472.89 0c236.86,0 451.31,96.01 606.53,251.24 155.23,155.22 251.24,369.66 251.24,606.53 0,236.86 -96.01,451.31 -251.24,606.53 -155.22,155.23 -369.66,251.23 -606.53,251.23 -236.86,0 -451.31,-96 -606.53,-251.23 -155.23,-155.22 -251.24,-369.66 -251.24,-606.53 0,-236.86 96.01,-451.31 251.24,-606.53 155.22,-155.23 369.66,-251.24 606.53,-251.24zm597.04 260.73c-152.8,-152.79 -363.88,-247.3 -597.04,-247.3 -233.16,0 -444.24,94.51 -597.04,247.3 -152.79,152.8 -247.3,363.88 -247.3,597.04 0,233.16 94.51,444.24 247.3,597.04 152.8,152.79 363.88,247.3 597.04,247.3 233.16,0 444.24,-94.51 597.04,-247.3 152.79,-152.8 247.3,-363.88 247.3,-597.04 0,-233.16 -94.51,-444.24 -247.3,-597.04z"/>
    <path class="fil3" d="M2472.89 38.41c452.53,0 819.36,366.84 819.36,819.36 0,452.53 -366.84,819.36 -819.36,819.36 -452.53,0 -819.36,-366.84 -819.36,-819.36 0,-452.53 366.84,-819.36 819.36,-819.36zm-611.68 787.37c0.47,0.23 1.05,0.27 1.77,0.1 0.72,-0.16 1.3,-0.5 1.73,-1.01 1.74,-2.05 3.59,-4.59 5.52,-7.64 1.94,-3.05 3.86,-6.51 5.77,-10.38 1.91,-3.87 3.64,-8.03 5.15,-12.49 1.51,-4.47 2.71,-9.06 3.58,-13.79 2.16,-11.6 2.47,-21.84 0.95,-30.73 -1.52,-8.87 -4.36,-16.44 -8.5,-22.69 -4.15,-6.25 -9.3,-11.25 -15.46,-14.98 -6.16,-3.73 -12.8,-6.26 -19.91,-7.58 -12.91,-2.39 -24.21,-0.96 -33.92,4.28 -9.7,5.24 -18.43,14.48 -26.19,27.71 -4.76,8.16 -8.48,14.13 -11.15,17.94 -2.67,3.8 -5.67,5.4 -8.98,4.78 -2.82,-0.53 -4.67,-2.28 -5.57,-5.26 -0.9,-2.98 -0.89,-6.98 0.04,-12 1.43,-7.74 3.63,-14.26 6.58,-19.56 2.96,-5.31 5.56,-9.45 7.83,-12.45 1.14,-1.56 0.7,-2.83 -1.35,-3.8l-33.83 -15.61c-1.57,-0.74 -2.83,-0.45 -3.76,0.86 -3.82,4.92 -7.2,10.71 -10.14,17.34 -2.95,6.65 -5.34,14.91 -7.16,24.8 -1.76,9.45 -2.02,18.23 -0.78,26.31 1.25,8.08 3.77,15.26 7.57,21.52 3.81,6.26 8.71,11.43 14.72,15.51 6,4.07 12.9,6.84 20.67,8.28 7.28,1.35 13.96,1.33 20.04,-0.06 6.08,-1.4 11.67,-3.81 16.75,-7.23 5.1,-3.43 9.68,-7.62 13.76,-12.57 4.09,-4.94 7.68,-10.24 10.78,-15.9 7.29,-13.46 13.34,-19.76 18.13,-18.86 6.63,1.23 8.87,7.57 6.75,19.04 -1.46,7.88 -3.99,15.04 -7.58,21.49 -3.6,6.45 -7.14,11.72 -10.64,15.81 -0.63,0.63 -0.8,1.3 -0.51,2.02 0.29,0.73 0.91,1.32 1.85,1.79l35.48 15.02zm54.59 -267.07l38.36 8.25c0.67,0.18 1.31,0.14 1.91,-0.12 0.61,-0.26 1.01,-0.59 1.21,-0.97l20.36 -39.43c0.47,-0.9 0.43,-1.74 -0.12,-2.51 -0.55,-0.78 -1.26,-1.23 -2.14,-1.36l-168.23 -33c-1.34,-0.35 -2.3,0.05 -2.9,1.22l-24.97 48.36c-0.61,1.17 -0.37,2.19 0.69,3.06l125.61 115.53c0.61,0.65 1.39,0.97 2.34,0.97 0.95,0 1.66,-0.46 2.13,-1.37l19.25 -37.29c0.67,-1.29 0.41,-2.41 -0.81,-3.37 -4.93,-4.01 -9.85,-8.16 -14.76,-12.41 -4.9,-4.26 -9.9,-8.43 -14.97,-12.53l17.05 -33.02zm-48.84 8.73c-3.8,-3.28 -7.07,-6.12 -9.81,-8.52 -2.75,-2.39 -6.05,-5.17 -9.92,-8.32l-0.1 0.2c-1.75,-1.73 -3.66,-3.45 -5.71,-5.17 -2.05,-1.71 -4.21,-3.49 -6.48,-5.32 -0.69,-0.52 -1.5,-1.14 -2.44,-1.87 -0.95,-0.74 -1.76,-1.37 -2.44,-1.87 0.88,0.12 1.45,0.21 1.7,0.26 0.26,0.05 0.4,0.07 0.4,0.07 -0.07,0.13 0.03,0.22 0.28,0.27 0.25,0.05 0.97,0.22 2.16,0.51l-0.32 0.07c2.88,0.67 5.88,1.28 9.01,1.82 3.12,0.55 6.05,1.11 8.77,1.7 4.12,0.82 8.33,1.76 12.61,2.83 4.28,1.06 8.56,2.04 12.84,2.94l-10.54 20.39zm151.96 -93.22c1.41,1.45 2.75,1.56 3.99,0.34l28.67 -27.9c1.14,-1.12 1.01,-2.4 -0.4,-3.85l-41.03 -42.16 38.85 -37.81c1.14,-1.11 1.07,-2.34 -0.22,-3.67l-25.88 -26.59c-1.41,-1.45 -2.68,-1.61 -3.83,-0.5l-38.85 37.81 -15.85 -16.28 41.36 -40.25c1.25,-1.22 1.24,-2.49 -0.06,-3.82l-25.88 -26.59c-1.41,-1.45 -2.74,-1.56 -3.99,-0.34l-71.74 69.82c-1.26,1.22 -1.18,2.55 0.23,4l114.63 117.78zm177.57 -250.66c-0.83,-1.66 -1.96,-2.13 -3.39,-1.41l-49.48 24.69 -8.68 -17.38 52.61 -26.26c1.56,-0.78 1.94,-2.01 1.1,-3.66l-16.57 -33.21c-0.9,-1.8 -2.14,-2.32 -3.7,-1.54l-90.74 45.3c-1.44,0.72 -1.7,1.98 -0.8,3.78l73.4 147.06c0.9,1.81 2.08,2.35 3.51,1.64l93.68 -46.77c1.43,-0.71 1.7,-1.98 0.8,-3.78l-16.57 -33.21c-0.83,-1.65 -1.97,-2.13 -3.39,-1.41l-55.55 27.72 -9.92 -19.88 49.48 -24.7c1.44,-0.71 1.7,-1.98 0.8,-3.78l-16.57 -33.21zm145.73 61.31c0.34,1.99 1.31,2.84 2.89,2.56l39.4 -6.91c1.72,-0.29 2.41,-1.45 2.06,-3.43l-21.41 -122.1 37.68 -6.61c1.72,-0.3 2.42,-1.37 2.11,-3.19l-6.5 -37.05c-0.34,-2 -1.39,-2.84 -3.1,-2.53l-119.28 20.91c-1.57,0.28 -2.19,1.41 -1.84,3.4l6.5 37.05c0.31,1.82 1.27,2.59 2.85,2.32l37.24 -6.52 21.42 122.1zm229.27 -2.17c1.73,0.23 2.74,-0.66 3,-2.66l8.99 -68.84 63.02 -85.98c0.59,-1.11 0.76,-2.15 0.52,-3.12 -0.24,-0.96 -0.93,-1.52 -2.1,-1.67l-45.73 -5.97c-1.15,-0.15 -1.96,0.33 -2.39,1.47l-17.99 34.82c-1.39,2.72 -2.69,5.17 -3.94,7.39 -1.25,2.21 -2.45,4.43 -3.63,6.66 -1.24,2.73 -2.52,5.27 -3.86,7.64 -0.49,-1.92 -0.87,-3.42 -1.18,-4.48 -0.3,-1.05 -0.55,-2.03 -0.73,-2.9 -0.17,-0.87 -0.38,-1.79 -0.63,-2.76 -0.24,-0.96 -0.53,-2.4 -0.87,-4.32 -0.41,-1.41 -0.75,-2.94 -1.05,-4.59 -0.29,-1.65 -0.7,-3.36 -1.21,-5.13l-8.48 -38.02c-0.43,-1.25 -1.07,-1.92 -1.95,-2.04l-46.38 -6.06c-1.15,-0.15 -1.98,0.21 -2.45,1.08 -0.49,0.87 -0.59,1.91 -0.3,3.14 6.19,16.77 12.27,33.51 18.25,50.25 5.97,16.74 12.04,33.56 18.21,50.49l-8.75 67.1c-0.26,2.01 0.4,3.11 1.99,3.31l39.66 5.18zm216.58 28.77c0.14,-1.04 -0.01,-1.88 -0.45,-2.53 -0.44,-0.65 -1.04,-0.96 -1.85,-0.94 -3.55,0.1 -7.97,-0.41 -13.28,-1.53 -5.31,-1.12 -10.44,-2.77 -15.38,-4.92 -12.83,-5.59 -20.99,-13.75 -24.51,-24.46 -3.52,-10.72 -2.61,-22.17 2.71,-34.35 3.1,-7.1 6.82,-12.72 11.18,-16.88 4.36,-4.16 9.05,-7.17 14.06,-9.02 5.03,-1.85 10.22,-2.56 15.6,-2.15 5.39,0.42 10.68,1.76 15.89,4.04 6.02,2.61 11.07,5.51 15.18,8.68 4.1,3.16 7.39,6.29 9.85,9.39 0.54,0.6 1.19,0.84 1.96,0.72 0.77,-0.13 1.46,-0.52 2.06,-1.18l21.85 -29.31c0.94,-1.43 1.01,-2.67 0.21,-3.76 -2.4,-3.62 -6.69,-7.65 -12.86,-12.09 -6.17,-4.44 -13.67,-8.58 -22.48,-12.42 -11.09,-4.83 -22.28,-7.61 -33.57,-8.31 -11.31,-0.71 -22.16,0.84 -32.56,4.66 -10.41,3.82 -20.01,9.96 -28.79,18.43 -8.78,8.47 -16.14,19.5 -22.06,33.08 -4.58,10.49 -7.37,21.16 -8.37,32.01 -0.99,10.86 0.14,21.28 3.42,31.24 3.28,9.97 8.98,19.25 17.07,27.83 8.1,8.58 18.97,15.85 32.58,21.79 9.22,4.02 17.54,6.64 24.95,7.85 7.43,1.22 12.88,1.67 16.35,1.35 0.54,-0.13 1.08,-0.4 1.65,-0.79 0.57,-0.4 0.92,-0.93 1.06,-1.6l8.52 -34.85zm131.22 108.65l-18.55 34.59c-0.35,0.59 -0.5,1.21 -0.42,1.86 0.09,0.66 0.28,1.13 0.61,1.44l32.25 30.47c0.74,0.7 1.56,0.89 2.45,0.59 0.9,-0.31 1.53,-0.88 1.89,-1.69l78.28 -152.51c0.71,-1.18 0.59,-2.22 -0.36,-3.12l-39.55 -37.38c-0.95,-0.9 -2,-0.96 -3.14,-0.18l-145.79 88.71c-0.79,0.42 -1.32,1.07 -1.58,1.99 -0.25,0.91 -0.02,1.71 0.72,2.41l30.5 28.83c1.05,1 2.22,1.05 3.46,0.15 5.24,-3.63 10.57,-7.21 16.02,-10.75 5.45,-3.54 10.85,-7.17 16.19,-10.92l27.01 25.52zm5.14 -49.34c4.19,-2.75 7.82,-5.11 10.89,-7.07 3.06,-1.98 6.65,-4.38 10.74,-7.22l-0.16 -0.15c2.15,-1.22 4.33,-2.56 6.54,-4.06 2.22,-1.5 4.52,-3.08 6.91,-4.76 0.68,-0.51 1.51,-1.12 2.47,-1.82 0.97,-0.71 1.79,-1.32 2.48,-1.83 -0.36,0.82 -0.61,1.34 -0.73,1.57 -0.12,0.23 -0.18,0.35 -0.18,0.35 -0.1,-0.1 -0.22,-0.03 -0.33,0.2 -0.12,0.23 -0.49,0.87 -1.08,1.94l0.02 -0.34c-1.44,2.58 -2.86,5.3 -4.24,8.16 -1.4,2.85 -2.76,5.5 -4.07,7.96 -1.92,3.74 -3.99,7.52 -6.2,11.34 -2.21,3.82 -4.33,7.66 -6.37,11.52l-16.68 -15.76zm50.27 170.38c-1.8,0.9 -2.32,2.14 -1.54,3.71l17.67 35.4c0.72,1.43 1.98,1.69 3.79,0.79l46.08 -23c0.37,1.11 0.88,2.33 1.53,3.64 0.66,1.3 1.31,2.6 1.96,3.91 4.94,9.91 10.83,18.21 17.65,24.9 6.82,6.7 14.45,11.52 22.89,14.48 6.51,2.12 13.73,2.62 21.65,1.53 7.91,-1.1 15.48,-3.45 22.71,-7.06 8.43,-4.21 15.19,-9.62 20.26,-16.23 5.08,-6.6 8.43,-13.16 10.07,-19.68 1.34,-6.36 1.38,-13.63 0.12,-21.8 -1.26,-8.17 -4.33,-17.14 -9.21,-26.92 -5.72,-11.47 -10.8,-20.79 -15.22,-27.94 -4.42,-7.16 -8.32,-13 -11.69,-17.5 -0.95,-1.15 -2.11,-1.4 -3.46,-0.72l-145.25 72.5zm134.67 -17.37c0.82,0.89 1.62,2.12 2.4,3.69 0.78,1.56 1.72,3.45 2.83,5.66 3.19,6.39 4.21,11.82 3.06,16.31 -1.14,4.48 -4.05,7.89 -8.72,10.22 -5.72,2.86 -11.13,3.03 -16.24,0.53 -5.11,-2.5 -9.22,-6.88 -12.34,-13.14 -0.85,-1.69 -1.53,-3.06 -2.06,-4.1 -0.46,-0.91 -0.87,-1.92 -1.24,-3.05l32.31 -16.12zm-51.74 180.86c-0.53,-0.05 -1.09,0.12 -1.7,0.53 -0.61,0.4 -1.03,0.91 -1.27,1.55 -0.92,2.52 -1.76,5.56 -2.5,9.1 -0.75,3.53 -1.35,7.45 -1.79,11.74 -0.45,4.29 -0.59,8.79 -0.45,13.5 0.14,4.7 0.63,9.42 1.46,14.16 2.04,11.63 5.32,21.34 9.85,29.12 4.53,7.79 9.83,13.89 15.9,18.3 6.07,4.41 12.64,7.29 19.72,8.64 7.07,1.35 14.17,1.4 21.3,0.14 12.94,-2.27 23.03,-7.55 30.29,-15.85 7.25,-8.31 12.21,-20.01 14.86,-35.12 1.61,-9.3 3.01,-16.21 4.18,-20.7 1.18,-4.5 3.42,-7.04 6.74,-7.62 2.82,-0.5 5.18,0.5 7.06,2.98 1.88,2.48 3.27,6.23 4.15,11.26 1.36,7.75 1.58,14.63 0.67,20.63 -0.91,6.01 -1.9,10.8 -2.99,14.4 -0.53,1.86 0.33,2.9 2.59,3.1l37.15 2.8c1.73,0.14 2.8,-0.56 3.21,-2.11 1.86,-5.96 3.01,-12.55 3.45,-19.81 0.44,-7.25 -0.21,-15.82 -1.96,-25.73 -1.66,-9.47 -4.48,-17.78 -8.47,-24.92 -3.98,-7.14 -8.85,-12.98 -14.61,-17.52 -5.75,-4.55 -12.16,-7.67 -19.21,-9.4 -7.05,-1.71 -14.47,-1.89 -22.26,-0.53 -7.29,1.28 -13.55,3.63 -18.76,7.06 -5.21,3.42 -9.59,7.64 -13.16,12.62 -3.57,4.99 -6.4,10.52 -8.5,16.58 -2.1,6.06 -3.62,12.28 -4.55,18.66 -2.12,15.17 -5.59,23.17 -10.39,24.01 -6.64,1.17 -10.95,-3.99 -12.97,-15.48 -1.39,-7.89 -1.52,-15.49 -0.41,-22.78 1.1,-7.29 2.59,-13.47 4.44,-18.53 0.37,-0.81 0.29,-1.5 -0.23,-2.07 -0.53,-0.58 -1.32,-0.92 -2.36,-1.03l-38.49 -1.68zm-1130.13 568.84l5.58 17.16c-9.46,3.41 -17.9,3.94 -25.31,1.62 -7.4,-2.34 -13.81,-7.37 -19.26,-15.11 -6.74,-9.59 -9,-19.78 -6.8,-30.57 2.22,-10.77 9.01,-20.16 20.37,-28.15 12.02,-8.44 23.54,-11.9 34.56,-10.37 11,1.52 20.07,7.35 27.18,17.47 6.21,8.83 8.63,17.85 7.28,27.03 -0.78,5.47 -3.5,11.04 -8.14,16.76l-13.56 -12.01c3.13,-3.47 4.83,-7.33 5.1,-11.56 0.25,-4.26 -0.98,-8.3 -3.7,-12.16 -3.77,-5.36 -8.74,-8.37 -14.92,-8.99 -6.18,-0.66 -13.57,2.05 -22.17,8.09 -9.11,6.4 -14.46,12.62 -16.02,18.61 -1.56,6.02 -0.5,11.65 3.2,16.91 2.73,3.88 6.3,6.36 10.73,7.42 4.44,1.04 9.72,0.34 15.86,-2.16zm47.64 102.52l-13.23 -13.98 9.35 -19.34 -24.32 -25.69 -19.62 8.48 -12.99 -13.72 87.61 -35.77 12.98 13.71 -39.77 86.32zm2.97 -47.77l15.28 -31.36 -31.89 13.8 16.61 17.56zm4.17 54.1l57.65 -66.78 21.62 18.67c8.2,7.07 13.25,12 15.16,14.81 2.96,4.32 4.28,9.25 3.96,14.83 -0.31,5.59 -2.78,11.04 -7.37,16.36 -3.54,4.1 -7.25,6.89 -11.14,8.42 -3.91,1.51 -7.68,2.08 -11.35,1.7 -3.66,-0.38 -6.9,-1.34 -9.71,-2.87 -3.77,-2.14 -8.69,-5.83 -14.79,-11.08l-8.76 -7.57 -21.74 25.18 -13.53 -11.67zm61.43 -43.82l-16.43 19.03 7.36 6.34c5.3,4.58 9.14,7.26 11.53,8.1 2.39,0.85 4.73,0.96 7.04,0.33 2.3,-0.62 4.31,-1.9 6.03,-3.9 2.1,-2.43 3.11,-5.06 3.07,-7.86 -0.06,-2.83 -0.99,-5.36 -2.83,-7.66 -1.35,-1.67 -4.44,-4.61 -9.29,-8.79l-6.47 -5.59zm12.19 71.03l15.6 7.83c-2.22,5.47 -2.73,10.18 -1.5,14.19 1.23,4.01 4.13,7.46 8.69,10.34 4.82,3.05 9.12,4.34 12.86,3.84 3.75,-0.5 6.49,-2.12 8.23,-4.86 1.12,-1.76 1.55,-3.59 1.32,-5.48 -0.24,-1.88 -1.37,-4.1 -3.36,-6.63 -1.36,-1.73 -4.67,-5.34 -9.93,-10.85 -6.76,-7.1 -10.84,-13.14 -12.23,-18.12 -1.96,-7 -1.05,-13.45 2.69,-19.37 2.4,-3.8 5.74,-6.7 9.97,-8.65 4.26,-1.96 8.94,-2.52 14.07,-1.69 5.15,0.82 10.56,3.03 16.28,6.66 9.31,5.9 15.03,12.41 17.11,19.54 2.1,7.13 1.06,14.2 -3.07,21.29l-15.43 -9.04c1.79,-4.27 2.18,-7.88 1.13,-10.9 -1.03,-3.01 -3.65,-5.86 -7.85,-8.52 -4.34,-2.75 -8.31,-3.99 -11.89,-3.74 -2.32,0.16 -4.09,1.21 -5.33,3.14 -1.11,1.77 -1.33,3.76 -0.63,5.95 0.87,2.82 4.42,7.4 10.63,13.75 6.21,6.34 10.47,11.57 12.8,15.61 2.33,4.07 3.47,8.33 3.41,12.8 -0.05,4.46 -1.56,9.04 -4.54,13.74 -2.71,4.28 -6.42,7.54 -11.15,9.76 -4.74,2.23 -9.85,2.89 -15.33,1.95 -5.49,-0.93 -11.48,-3.45 -17.95,-7.55 -9.42,-5.97 -15.28,-12.71 -17.58,-20.27 -2.3,-7.53 -1.3,-15.76 2.98,-24.7zm98.83 -7.6l15.86 8.25 -22.07 42.41c-3.51,6.75 -5.57,11.2 -6.22,13.38 -1,3.56 -0.76,6.97 0.75,10.21 1.52,3.26 4.46,6.02 8.83,8.3 4.43,2.3 8.25,3.13 11.47,2.47 3.21,-0.67 5.72,-2.21 7.58,-4.65 1.85,-2.44 4.39,-6.75 7.61,-12.94l22.54 -43.32 15.85 8.25 -21.41 41.15c-4.89,9.4 -8.77,15.83 -11.64,19.27 -2.88,3.43 -6.15,5.9 -9.84,7.39 -3.68,1.49 -7.83,2.01 -12.48,1.6 -4.67,-0.42 -10.08,-2.21 -16.26,-5.42 -7.45,-3.87 -12.64,-7.67 -15.59,-11.4 -2.94,-3.73 -4.82,-7.56 -5.62,-11.49 -0.8,-3.94 -0.76,-7.58 0.11,-10.99 1.3,-5.01 4.23,-11.91 8.79,-20.68l21.74 -41.79zm39.47 117.9l31.53 -81.6 16.67 6.43 -26.16 67.7 41.26 15.95 -5.37 13.91 -57.93 -22.39zm147.43 44.58l-18.76 -4.29 -2.96 -21.28 -34.5 -7.87 -11.62 17.95 -18.42 -4.2 53.03 -78.38 18.41 4.19 14.82 93.87zm-24.05 -41.39l-4.68 -34.56 -18.88 29.18 23.56 5.38zm32.66 13.75l17.45 0.6c0.26,5.9 1.77,10.39 4.57,13.53 2.8,3.13 6.87,5.05 12.22,5.76 5.65,0.76 10.09,0.13 13.28,-1.89 3.19,-2.01 5.01,-4.63 5.45,-7.84 0.27,-2.08 -0.1,-3.91 -1.1,-5.53 -1,-1.61 -2.96,-3.15 -5.83,-4.62 -1.96,-1 -6.46,-2.9 -13.55,-5.71 -9.11,-3.63 -15.34,-7.41 -18.68,-11.35 -4.7,-5.55 -6.59,-11.78 -5.65,-18.73 0.6,-4.46 2.42,-8.48 5.45,-12.03 3.04,-3.55 7.06,-6.02 12.08,-7.42 5.01,-1.4 10.85,-1.65 17.57,-0.75 10.93,1.47 18.85,4.99 23.72,10.6 4.88,5.61 6.9,12.47 6.1,20.63l-17.79 -1.76c-0.15,-4.62 -1.32,-8.07 -3.52,-10.37 -2.2,-2.31 -5.77,-3.8 -10.7,-4.47 -5.09,-0.68 -9.22,-0.15 -12.37,1.58 -2.04,1.11 -3.22,2.8 -3.53,5.08 -0.27,2.08 0.36,3.96 1.91,5.66 1.97,2.2 7.1,4.87 15.39,8.05 8.3,3.17 14.35,6.13 18.15,8.84 3.81,2.73 6.64,6.11 8.45,10.18 1.81,4.07 2.35,8.87 1.61,14.4 -0.67,5 -2.68,9.52 -6.06,13.51 -3.38,4.01 -7.75,6.74 -13.12,8.17 -5.37,1.46 -11.86,1.66 -19.46,0.65 -11.04,-1.48 -19.19,-5.17 -24.43,-11.07 -5.25,-5.89 -7.77,-13.79 -7.62,-23.69zm194.5 26.88l-10.01 13.23c-5.06,-2.36 -9.94,-5.64 -14.63,-9.85 -3.5,3.26 -7.25,5.69 -11.24,7.28 -3.97,1.6 -8.72,2.44 -14.26,2.54 -10.96,0.19 -19.28,-2.76 -24.93,-8.83 -4.38,-4.69 -6.61,-10.15 -6.72,-16.37 -0.11,-5.67 1.48,-10.79 4.79,-15.37 3.28,-4.58 8.27,-8.59 14.92,-12.04 -3.09,-3.52 -5.42,-6.89 -7,-10.1 -1.6,-3.22 -2.41,-6.27 -2.47,-9.16 -0.09,-5.34 1.97,-9.92 6.17,-13.71 4.17,-3.8 10.24,-5.77 18.12,-5.92 7.6,-0.13 13.59,1.7 17.95,5.51 4.36,3.82 6.59,8.53 6.68,14.15 0.07,3.58 -0.92,6.98 -2.97,10.22 -2.06,3.24 -6.25,6.95 -12.58,11.11l12.43 16.1c1.39,-2.56 2.56,-5.94 3.54,-10.06l15.38 3.15c-1.42,5.45 -2.68,9.45 -3.77,11.99 -1.06,2.52 -2.24,4.65 -3.5,6.36 1.91,1.73 4.4,3.62 7.43,5.68 3.04,2.06 5.26,3.41 6.67,4.06zm-46.88 -47.21l4.48 -3.6c3.3,-2.66 4.91,-5.28 4.87,-7.85 -0.04,-2.18 -0.87,-4.01 -2.52,-5.5 -1.63,-1.51 -3.82,-2.23 -6.58,-2.18 -2.66,0.04 -4.75,0.76 -6.25,2.12 -1.47,1.39 -2.2,2.96 -2.17,4.73 0.04,2.09 1.36,4.59 3.95,7.53l4.21 4.75zm-6.28 18.51c-3.82,2.05 -6.68,4.48 -8.55,7.28 -1.86,2.81 -2.78,5.66 -2.73,8.53 0.07,3.66 1.31,6.64 3.74,8.88 2.4,2.28 5.6,3.37 9.6,3.3 2.63,-0.05 5.17,-0.61 7.57,-1.7 2.43,-1.08 5.05,-2.86 7.87,-5.34l-17.51 -20.96zm117.61 27.91l-12.36 -72.25 -25.74 4.4 -2.51 -14.7 68.98 -11.79 2.51 14.7 -25.62 4.38 12.35 72.27 -17.61 3.01zm120.94 -33.91l-18.24 6.11 -13.61 -16.63 -33.55 11.25 -0.57 21.37 -17.92 6.01 4.46 -94.53 17.89 -6 61.54 72.43zm-42.07 -22.82l-21.99 -27.06 -0.92 34.74 22.92 -7.68zm51.06 19.58l-36.32 -80.4 26.03 -11.76c9.87,-4.45 16.46,-6.96 19.82,-7.51 5.16,-0.87 10.19,0.01 15.13,2.65 4.93,2.63 8.84,7.15 11.74,13.56 2.23,4.94 3.2,9.48 2.95,13.66 -0.27,4.17 -1.35,7.84 -3.23,11.01 -1.88,3.15 -4.12,5.69 -6.69,7.6 -3.53,2.51 -8.95,5.43 -16.28,8.74l-10.56 4.77 13.7 30.32 -16.28 7.36zm-13.9 -74.17l10.34 22.91 8.85 -4c6.38,-2.88 10.44,-5.23 12.21,-7.04 1.77,-1.82 2.87,-3.89 3.26,-6.25 0.41,-2.35 0.08,-4.71 -1,-7.1 -1.33,-2.94 -3.27,-4.96 -5.85,-6.1 -2.58,-1.13 -5.28,-1.36 -8.14,-0.65 -2.09,0.51 -6.04,2.08 -11.88,4.71l-7.8 3.53zm62.34 5.91c-4.88,-7.55 -7.85,-14.63 -8.92,-21.23 -0.77,-4.85 -0.65,-9.75 0.32,-14.63 0.97,-4.88 2.73,-9.18 5.24,-12.89 3.36,-4.93 8.06,-9.36 14.09,-13.26 10.93,-7.07 21.86,-9.31 32.81,-6.79 10.94,2.56 20.31,9.88 28.13,21.96 7.75,11.99 10.56,23.47 8.43,34.44 -2.13,10.98 -8.64,19.99 -19.52,27.03 -11.02,7.12 -21.97,9.43 -32.83,6.9 -10.85,-2.52 -20.11,-9.7 -27.76,-21.53zm15.1 -10.47c5.43,8.4 11.49,13.5 18.19,15.34 6.68,1.82 13.01,0.81 18.98,-3.05 5.99,-3.87 9.49,-9.2 10.56,-15.98 1.04,-6.79 -1.22,-14.48 -6.78,-23.08 -5.49,-8.5 -11.46,-13.65 -17.9,-15.4 -6.43,-1.78 -12.73,-0.67 -18.92,3.33 -6.17,3.99 -9.79,9.34 -10.83,16.01 -1.03,6.69 1.2,14.28 6.72,22.83zm91.78 -7.56l-53.93 -69.81 13.68 -10.58 64.88 24.6 -36.15 -46.8 13.07 -10.09 53.94 69.81 -14.13 10.91 -63.74 -24.03 35.46 45.89 -13.07 10.09zm69.4 -55.81l-64.04 -60.68 44.91 -47.4 10.82 10.25 -32.62 34.44 14.22 13.47 30.33 -32.02 10.83 10.25 -30.34 32.02 17.35 16.43 33.81 -35.68 10.83 10.25 -46.11 48.66zm30.66 -74.74l9.61 -14.57c5.18,2.86 9.8,3.91 13.92,3.16 4.13,-0.74 7.89,-3.22 11.3,-7.41 3.6,-4.44 5.38,-8.54 5.33,-12.32 -0.05,-3.78 -1.34,-6.7 -3.85,-8.74 -1.63,-1.32 -3.38,-1.96 -5.3,-1.95 -1.89,0.02 -4.23,0.87 -6.98,2.55 -1.87,1.14 -5.85,4.01 -11.94,8.58 -7.84,5.88 -14.32,9.21 -19.43,10 -7.18,1.12 -13.48,-0.54 -18.92,-4.95 -3.49,-2.84 -5.97,-6.49 -7.42,-10.92 -1.44,-4.46 -1.44,-9.17 -0.01,-14.17 1.42,-5.01 4.26,-10.12 8.52,-15.38 6.96,-8.56 14.1,-13.46 21.43,-14.69 7.32,-1.24 14.23,0.62 20.77,5.56l-10.79 14.25c-4.01,-2.29 -7.57,-3.09 -10.69,-2.42 -3.11,0.68 -6.25,2.94 -9.38,6.8 -3.24,3.98 -4.95,7.78 -5.13,11.38 -0.11,2.31 0.72,4.2 2.5,5.65 1.62,1.32 3.57,1.76 5.83,1.33 2.9,-0.54 7.86,-3.52 14.9,-8.93 7.03,-5.43 12.72,-9.04 17.01,-10.87 4.33,-1.82 8.68,-2.46 13.11,-1.88 4.42,0.58 8.79,2.62 13.11,6.13 3.92,3.19 6.73,7.27 8.38,12.24 1.65,4.96 1.69,10.12 0.11,15.45 -1.56,5.34 -4.77,10.98 -9.6,16.93 -7.04,8.65 -14.43,13.68 -22.2,15.06 -7.76,1.4 -15.81,-0.58 -24.18,-5.88zm-521.57 -970.74c286.96,0 519.6,232.64 519.6,519.6 0,286.96 -232.64,519.6 -519.6,519.6 -286.96,0 -519.6,-232.64 -519.6,-519.6 0,-286.96 232.64,-519.6 519.6,-519.6z"/>
    <path class="fil4" d="M2342.8 807.23l0.29 -0.06 0 4.73 0.19 -0.02 0.27 -0.03 0.09 0 0.36 -0.04 0.01 0 0.36 -0.03 0.1 -0.01 0.27 -0.02 0.2 -0.02 0.16 -0.01 0.31 -0.03 0.06 0 0.37 -0.03 0.04 0 0.32 -0.03 0.15 -0.01 0.22 -0.02 0.25 -0.02 0.12 -0.01 0.76 -0.05 0.07 0 0.3 -0.03 0.17 -0.01 0.2 -0.01 0.28 -0.02 0.09 -0.01 0.38 -0.02 0 0 0.37 -0.02 0.11 -0.01 0.27 -0.02 0.21 -0.01 0.16 -0.01 0.32 -0.02 0.06 0 0.38 -0.02 0.04 0 0.34 -0.02 0.14 -0.01 0.23 -0.01 0.25 -0.01 0.13 -0.01 0.35 -0.02 0.03 0 0.38 -0.02 0.08 0 0.3 -0.01 0.18 -0.01 0.21 -0.01 0.28 -0.01 0.1 -0.01 0.38 -0.01 0 0 0.38 -0.02 0.11 0 0.5 -0.01 0.17 -0.01 0.32 -0.01 0.07 0 0.38 -0.02 0.04 0 0.35 -0.01 0.14 0 0.24 -0.01 0.25 0 0.14 -0.01 0.36 0 0.03 -0.01 0.4 -0.01 0.07 0 0.32 0 0.18 -0.01 0.21 0 0.28 -0.01 0.11 0 0.79 -0.01 0.11 0 0.28 0 0.21 -0.01 0.18 0 0.32 0 0.07 0 0.41 0 0.03 0 0.36 -0.01 0.14 0 0.25 0 0.26 0 0.94 0 0.07 0 0.32 0 0.19 0.01 0.21 0 0.29 0 0.11 0 0.41 0c10.93,0.11 21.34,0.97 30.81,2.46 9.88,1.54 18.75,3.75 26.16,6.45 6.92,2.53 12.5,5.41 16.34,8.49 3.96,3.17 8.51,6.63 8.48,10.21 0,4.86 0.1,9.68 0.06,14.56l-0.47 56.21c3.5,0.23 7.01,0.44 10.53,0.59 4.74,0.2 9.53,0.32 14.37,0.36 18.19,0.16 35.53,-0.83 51.36,-2.78 16.4,-2.01 31.13,-5.04 43.41,-8.84 11.26,-3.5 20.32,-7.5 26.49,-11.78 5.62,-3.9 8.73,-7.95 8.77,-11.95l1.19 -131.97c-3.3,2.94 -7.31,5.7 -11.97,8.26 -6.16,3.39 -13.47,6.43 -21.76,9.09 -12.67,4.05 -27.74,7.26 -44.45,9.4 -16.06,2.05 -33.61,3.11 -52,2.94 -18.41,-0.16 -35.96,-1.53 -51.95,-3.87 -16.66,-2.43 -31.67,-5.92 -44.26,-10.19 -8.23,-2.8 -15.49,-5.98 -21.59,-9.47 -4.62,-2.64 -8.58,-5.48 -11.83,-8.49l-0.6 66.58z"/>
    <path class="fil5" d="M2783.04 941.34c-4.89,-2.43 -10.6,-4.73 -17.01,-6.87l0 0c-12.28,-4.09 -26.95,-7.43 -43.27,-9.76 -15.68,-2.24 -32.94,-3.55 -51.06,-3.71 -18.14,-0.15 -35.41,0.85 -51.11,2.81 -5.46,0.68 -10.73,1.48 -15.78,2.37l1.39 -152.33c7.73,1.08 14.41,1.75 22.71,2.37 8.72,0.66 17.78,1.03 27.09,1.12 18.94,0.16 37.05,-0.93 53.61,-3.07 17.25,-2.23 32.83,-5.57 45.94,-9.79 6.63,-2.14 12.64,-4.52 17.97,-7.11 4.15,-2.03 7.9,-4.19 11.23,-6.48l-1.71 190.44z"/>
    <path class="fil6" d="M2528.26 689.16c2.25,0.31 4.5,0.7 6.68,1.13l0 -76.66c0,-1.32 1.07,-2.38 2.38,-2.38 1.32,0 2.38,1.06 2.38,2.38l0 77.57c6.69,1.37 12.95,2.85 18.78,4.54l0 -72.88c0,-1.32 1.06,-2.38 2.38,-2.38 1.32,0 2.38,1.06 2.38,2.38l0 74.32c1.12,0.35 2.23,0.71 3.31,1.08 5.76,1.92 10.95,4.04 15.46,6.25l0 -75.54c0,-1.32 1.07,-2.38 2.38,-2.38 1.32,0 2.39,1.06 2.39,2.38l0 78.03c2.28,1.3 4.33,2.61 6.14,3.96 5.39,4.02 8.68,8.32 9.45,12.76l3.59 11.26 -0.38 -11.05 0 -91.02c0,-1.32 1.07,-2.39 2.38,-2.39 1.32,0 2.38,1.07 2.38,2.39l0 112.42c0,1.32 -1.06,2.38 -2.38,2.38 -0.58,0 -1.1,-0.2 -1.52,-0.56l0 8.13c15.85,2.24 33.27,3.55 51.58,3.72 37.29,0.33 70.98,-4.16 95.28,-11.7 6.48,-2.01 12.25,-4.18 17.18,-6.49 3.35,-1.61 6.29,-3.28 8.76,-4.99 5.61,-3.91 8.73,-7.96 8.76,-11.96l1.19 -131.97c-3.29,2.94 -7.31,5.7 -11.97,8.27 -6.16,3.38 -13.47,6.43 -21.76,9.08 -12.66,4.05 -27.74,7.26 -44.45,9.4 -16.05,2.06 -33.61,3.11 -52,2.94 -18.41,-0.16 -35.96,-1.53 -51.95,-3.87 -16.66,-2.43 -31.67,-5.92 -44.26,-10.19 -8.23,-2.8 -15.49,-5.98 -21.59,-9.47 -4.61,-2.64 -8.58,-5.48 -11.83,-8.49l-0.89 99.65 -0.22 -0.03zm242.15 -70.75c0,-1.31 1.06,-2.38 2.38,-2.38 1.32,0 2.38,1.07 2.38,2.38l0 114.02c0,1.32 -1.06,2.38 -2.38,2.38 -1.32,0 -2.38,-1.06 -2.38,-2.38l0 -114.02zm-23.53 7.51c0,-1.32 1.06,-2.38 2.38,-2.38 1.31,0 2.38,1.06 2.38,2.38l0 113.88c0,1.32 -1.07,2.38 -2.38,2.38 -1.32,0 -2.38,-1.06 -2.38,-2.38l0 -113.88zm-23.54 5.09c0,-1.32 1.06,-2.39 2.38,-2.39 1.32,0 2.38,1.07 2.38,2.39l0 113.36c0,1.32 -1.06,2.38 -2.38,2.38 -1.32,0 -2.38,-1.06 -2.38,-2.38l0 -113.36zm-23.56 3.12c0,-1.32 1.07,-2.38 2.38,-2.38 1.32,0 2.38,1.06 2.38,2.38l0 112.64c0,1.32 -1.06,2.38 -2.38,2.38 -1.31,0 -2.38,-1.06 -2.38,-2.38l0 -112.64zm-23.54 1.57c0,-1.32 1.07,-2.38 2.38,-2.38 1.32,0 2.39,1.06 2.39,2.38l0 111.97c0,1.32 -1.07,2.38 -2.39,2.38 -1.31,0 -2.38,-1.06 -2.38,-2.38l0 -111.97zm-23.55 0.3c0,-1.31 1.06,-2.38 2.38,-2.38 1.31,0 2.38,1.07 2.38,2.38l0 111.75c0,1.32 -1.07,2.38 -2.38,2.38 -1.32,0 -2.38,-1.06 -2.38,-2.38l0 -111.75zm-23.54 -0.86c0,-1.31 1.06,-2.38 2.38,-2.38 1.32,0 2.38,1.07 2.38,2.38l0 112.02c0,1.32 -1.06,2.38 -2.38,2.38 -1.32,0 -2.38,-1.06 -2.38,-2.38l0 -112.02z"/>
    <path class="fil5" d="M2608.37 539.15c-15.89,2.02 -30.17,5.06 -42.1,8.86 -10.89,3.49 -19.67,7.48 -25.65,11.76 -5.44,3.91 -8.46,7.96 -8.5,12 -0.03,4.02 2.91,8.15 8.28,12.15 5.9,4.39 14.6,8.53 25.45,12.22 11.86,4.02 26.08,7.31 41.93,9.61 15.3,2.22 32.1,3.52 49.72,3.68 17.66,0.16 34.48,-0.84 49.79,-2.79 15.9,-2.02 30.17,-5.05 42.1,-8.85 10.89,-3.49 19.67,-7.48 25.65,-11.77 5.44,-3.9 8.47,-7.96 8.5,-11.99 0.04,-4.03 -2.91,-8.15 -8.28,-12.15 -5.9,-4.39 -14.6,-8.54 -25.45,-12.23 -11.86,-4.02 -26.09,-7.3 -41.93,-9.6 -15.3,-2.23 -32.1,-3.53 -49.72,-3.68 -17.65,-0.16 -34.47,0.83 -49.79,2.78z"/>
    <path class="fil7" d="M2339.73 812.24c-1.64,0.18 -3.26,0.38 -4.86,0.61 -9.91,1.35 -18.82,3.38 -26.27,5.95 -6.94,2.39 -12.57,5.17 -16.47,8.18 -3.67,2.84 -5.85,5.94 -6.21,9.19l-2.04 0 -1.69 237.4c-3.83,0.2 -7.68,0.34 -11.54,0.44 -4.38,0.1 -8.8,0.14 -13.28,0.1 -18.11,-0.16 -35.37,-1.51 -51.07,-3.8 -16.26,-2.37 -30.84,-5.75 -42.99,-9.91 -10.97,-3.75 -19.78,-7.94 -25.72,-12.35 -5.44,-4.02 -8.42,-8.14 -8.38,-12.13l2.2 -245.66c3.27,2.35 6.98,4.58 11.09,6.68 5.29,2.71 11.28,5.2 17.86,7.45 13.03,4.45 28.54,8.07 45.73,10.61 16.51,2.43 34.6,3.86 53.56,4.03 14.99,0.13 29.46,-0.53 43.04,-1.86 13.29,-1.32 25.75,-3.27 37.04,-5.77l0 0.86z"/>
    <path class="fil8" d="M2131.41 633.66l-1.18 130.3 0.38 0 -0.01 1.67c-0.04,4.02 3,8.13 8.55,12.13 6.08,4.39 15.08,8.55 26.29,12.25 12.23,4.03 26.89,7.32 43.23,9.63 15.78,2.22 33.11,3.53 51.31,3.69 14.98,0.13 29.39,-0.52 42.83,-1.82 13.37,-1.32 25.8,-3.28 36.91,-5.81l0 -76.78 0.12 0c0.64,-4.65 4.06,-9.1 9.78,-13.2 6.24,-4.48 15.35,-8.63 26.6,-12.23l0 0c1.13,-0.36 2.27,-0.71 3.4,-1.05 0.13,0 0.98,-0.28 1.18,-0.33l0.01 -0.01c1.13,-0.32 2.27,-0.64 3.41,-0.95l0 0c0.79,-0.21 1.57,-0.42 2.35,-0.62l0.01 0c1.22,-0.31 2.44,-0.61 3.67,-0.9l0 -0.01 0.48 -0.11 0.48 -53.49c-3.29,2.94 -7.31,5.7 -11.97,8.26 -6.16,3.39 -13.47,6.43 -21.76,9.09 -12.66,4.05 -27.74,7.26 -44.45,9.4 -16.05,2.05 -33.61,3.11 -52,2.94 -18.41,-0.16 -35.96,-1.53 -51.95,-3.87 -16.66,-2.43 -31.67,-5.92 -44.26,-10.19 -8.23,-2.8 -15.49,-5.98 -21.59,-9.47 -4.61,-2.64 -8.58,-5.48 -11.82,-8.49z"/>
    <path class="fil7" d="M2212.03 580.82c-15.89,2.02 -30.17,5.06 -42.09,8.86 -10.9,3.49 -19.67,7.48 -25.66,11.76 -5.44,3.91 -8.46,7.96 -8.5,12 -0.03,4.02 2.92,8.15 8.28,12.15 5.9,4.39 14.6,8.53 25.45,12.22 11.86,4.02 26.09,7.31 41.93,9.61 15.31,2.22 32.11,3.52 49.73,3.68 17.65,0.16 34.46,-0.84 49.78,-2.79 15.9,-2.02 30.17,-5.05 42.1,-8.85 10.9,-3.49 19.67,-7.48 25.65,-11.77 5.45,-3.9 8.47,-7.96 8.5,-11.99 0.04,-4.03 -2.91,-8.15 -8.28,-12.15 -5.89,-4.39 -14.6,-8.54 -25.45,-12.22 -11.86,-4.03 -26.08,-7.31 -41.92,-9.61 -15.31,-2.22 -32.11,-3.53 -49.73,-3.68 -17.65,-0.16 -34.47,0.83 -49.79,2.78z"/>
    <path class="fil9" d="M2457.36 925.64c-4.2,-0.18 -6.49,-0.29 -10.5,-0.58l-0.7 173.01c3.76,0.25 6.4,0.4 10.17,0.55 4.32,0.17 8.66,0.28 13.04,0.32 12.82,0.11 25.25,-0.37 37.03,-1.39 11.61,-0.99 22.55,-2.49 32.59,-4.43l0 -133.92 1.03 0c0.28,-5 3.83,-9.79 10.05,-14.17 6.36,-4.48 15.62,-8.63 27.06,-12.23 6.92,-2.17 14.6,-4.09 22.9,-5.71l0.36 -27.52c-3.31,2.29 -7.06,4.45 -11.2,6.47 -5.33,2.59 -11.35,4.97 -17.97,7.11 -13.11,4.2 -28.69,7.56 -45.94,9.79 -16.56,2.14 -34.68,3.23 -53.61,3.07 -4.85,-0.05 -9.62,-0.17 -14.31,-0.37l0 0z"/>
    <path class="fil10" d="M2285.5 1076.72l0.01 -0.96 1 -120.9c1.76,1.28 3.71,2.5 5.82,3.66 3.27,1.8 6.97,3.46 11.02,4.95 8,2.94 17.55,5.35 28.12,7.02 10.15,1.61 21.26,2.55 32.89,2.66 11.64,0.11 22.76,-0.61 32.93,-2.03 10.59,-1.47 20.16,-3.69 28.24,-6.48 4.09,-1.42 7.81,-3 11.1,-4.73 1.81,-0.94 3.5,-1.95 5.06,-2.99l0 98.2 -0.52 61.94c-0.02,2.45 -1.8,4.98 -5.03,7.45 -3.65,2.81 -9.02,5.43 -15.7,7.75 -7.42,2.57 -16.33,4.62 -26.27,5.98 -9.6,1.32 -20.14,2 -31.19,1.89 -11.06,-0.11 -21.58,-0.99 -31.15,-2.49 -9.89,-1.55 -18.76,-3.78 -26.17,-6.49 -6.65,-2.45 -11.97,-5.18 -15.56,-8.04 -3.18,-2.53 -4.93,-5.1 -4.91,-7.56l0.32 -38.82z"/>
    <path class="fil11" d="M2287.1 852.39l-0.52 73.19c0.18,0.12 0.36,0.26 0.53,0.43 0.63,0.64 1.3,1.26 2.01,1.86l0 -17.18 0 -0.02c0.02,-0.88 0.37,-1.67 0.95,-2.24 0.58,-0.56 1.36,-0.91 2.24,-0.91l0 0 0.02 0 0.02 0c0.88,0.01 1.68,0.38 2.26,0.96 0.58,0.59 0.93,1.39 0.93,2.27l0 18.23 -0.01 0.02c-0.01,0.87 -0.36,1.66 -0.94,2.23 -0.15,0.15 -0.31,0.28 -0.5,0.4 2.02,1.33 4.2,2.58 6.54,3.76 0.97,0.49 1.97,0.96 2.98,1.42l0 -19.2 0.01 -0.01c0.01,-0.88 0.37,-1.67 0.94,-2.24 0.58,-0.57 1.37,-0.91 2.24,-0.91l0 -0.01 0.02 0 0.02 0.01c0.89,0.01 1.68,0.38 2.26,0.96 0.58,0.59 0.94,1.39 0.94,2.27l0 19.55 -0.01 0.02c-0.01,0.73 -0.26,1.39 -0.68,1.91 2.81,1.05 5.74,2.02 8.8,2.89l0 -19.25 0.01 -0.02c0.01,-0.88 0.36,-1.66 0.94,-2.23 0.58,-0.58 1.37,-0.92 2.24,-0.92l0.02 0 0.02 0c0.88,0.02 1.68,0.38 2.26,0.96 0.58,0.59 0.93,1.39 0.93,2.27l0 20.86c1.38,0.32 2.76,0.63 4.14,0.91 1.3,0.27 2.63,0.53 3.99,0.77l0 -19.67 0.01 -0.02c0.01,-0.87 0.37,-1.66 0.95,-2.23 0.57,-0.57 1.36,-0.91 2.24,-0.91l0 -0.01 0.02 0 0.01 0.01c0.89,0.01 1.69,0.37 2.27,0.95 0.57,0.59 0.93,1.39 0.93,2.27l0 20.65c1.39,0.19 2.79,0.37 4.18,0.55 1.3,0.15 2.59,0.29 3.92,0.42l0.01 -20.05 -0.01 0 0 -0.02 0.01 -0.02c0.01,-0.87 0.37,-1.66 0.95,-2.23 0.57,-0.57 1.36,-0.91 2.23,-0.91l0.02 0 0.02 0c0.88,0.01 1.68,0.38 2.26,0.96 0.57,0.59 0.92,1.39 0.92,2.26l0 0 -0.01 20.54c1.46,0.09 2.89,0.17 4.29,0.23l0.01 0c1.46,0.06 2.91,0.1 4.34,0.13 -0.15,-6.67 -0.48,-13.53 -0.48,-20.18 -0.01,-0.87 0.33,-1.66 0.89,-2.24 0.56,-0.58 1.34,-0.95 2.22,-0.97l0.04 0c0.88,-0.01 1.68,0.33 2.27,0.9 0.59,0.57 0.95,1.37 0.98,2.25l0.48 20.28c1.29,-0.01 2.56,-0.04 3.86,-0.07 1.24,-0.04 2.49,-0.09 3.76,-0.15 -0.22,-6.59 -0.7,-13.57 -0.7,-20.11 -0.02,-0.87 0.3,-1.66 0.86,-2.25 0.56,-0.59 1.33,-0.96 2.21,-0.99l0.04 0c0.88,-0.02 1.68,0.31 2.28,0.87l0 0.01c0.6,0.56 0.97,1.35 1,2.23l0.7 19.83c1.36,-0.11 2.69,-0.24 4,-0.37 1.4,-0.15 2.8,-0.3 4.17,-0.49l0.01 -19.73 0 0 0 -0.02 0 -0.02c0.01,-0.87 0.37,-1.66 0.95,-2.23 0.57,-0.56 1.36,-0.91 2.23,-0.91l0 0 0.02 0 0.02 0c0.88,0.01 1.68,0.38 2.26,0.96 0.57,0.59 0.93,1.39 0.93,2.26l-0.01 0 -0.01 18.74c1.27,-0.21 2.56,-0.46 3.87,-0.7 1.43,-0.28 2.87,-0.58 4.29,-0.9l0.02 -18.88 -0.01 0 0 -0.02 0.01 -0.02c0.01,-0.88 0.36,-1.66 0.94,-2.23 0.58,-0.57 1.37,-0.92 2.23,-0.92l0.02 0 0.02 0.01c0.89,0.01 1.68,0.37 2.26,0.96 0.58,0.58 0.93,1.38 0.93,2.26l-0.01 0 -0.01 17.24c1.29,-0.35 2.57,-0.73 3.86,-1.13 1.47,-0.46 2.91,-0.94 4.29,-1.43l0.01 -19.17 0 0 0 -0.02 0 -0.02c0.01,-0.88 0.37,-1.66 0.95,-2.23 0.57,-0.57 1.36,-0.91 2.23,-0.91l0 -0.01 0.02 0 0.02 0.01c0.88,0.01 1.68,0.37 2.26,0.96 0.58,0.58 0.93,1.38 0.93,2.26l-0.01 0 -0.01 16.58c2.96,-1.31 5.76,-2.75 8.39,-4.31l0.65 -0.4c-0.58,-0.59 -0.93,-1.38 -0.93,-2.26l0.01 0 0.03 -17.38 -0.01 0 0 -0.02 0.01 -0.02c0.01,-0.87 0.36,-1.66 0.94,-2.23 0.58,-0.57 1.37,-0.91 2.23,-0.91l0.03 0 0.02 0.01c0.88,0.01 1.67,0.37 2.25,0.95 0.58,0.59 0.93,1.39 0.93,2.26l-0.01 0 -0.02 15.83c0.84,-0.66 1.66,-1.34 2.44,-2.03 0.08,-0.07 0.17,-0.14 0.25,-0.2l0.62 -73.48c-1.82,1.58 -3.93,3.08 -6.31,4.49 -3.82,2.27 -8.34,4.3 -13.44,6.05 -7.78,2.68 -17.05,4.81 -27.33,6.23 -9.85,1.36 -20.64,2.05 -31.92,1.95 -11.3,-0.11 -22.07,-1.02 -31.89,-2.56 -10.26,-1.61 -19.49,-3.92 -27.23,-6.76 -5.08,-1.85 -9.56,-3.97 -13.34,-6.31 -2.11,-1.29 -3.99,-2.65 -5.64,-4.08zm-0.58 81.65l-0.04 5.58c0.72,1.77 2.28,3.57 4.57,5.35 3.67,2.85 9.11,5.56 15.9,7.96 7.44,2.64 16.36,4.8 26.33,6.31 9.64,1.47 20.21,2.33 31.29,2.43 11.11,0.11 21.7,-0.55 31.35,-1.81 9.98,-1.33 18.95,-3.31 26.42,-5.81 6.84,-2.28 12.32,-4.88 16.04,-7.66 3.28,-2.46 5.12,-4.99 5.13,-7.47l0.04 -3.8c-8.41,6.18 -19.2,10.84 -31.25,14.05 -14.53,3.87 -30.93,5.67 -47.2,5.55 -17.16,-0.13 -34.21,-2.39 -48.82,-6.6 -11.91,-3.42 -22.24,-8.17 -29.74,-14.1z"/>
    <path class="fil12" d="M2543.5 979.98l-1.02 114.74c0.16,0.06 0.33,0.14 0.5,0.22 38.11,20.09 80.94,30.24 124.53,31.39 45.47,1.2 91.8,-7.38 134.61,-24.66l0.13 -0.06 1.07 -119.3c-3.3,2.95 -7.31,5.71 -11.97,8.27 -6.16,3.39 -13.48,6.44 -21.76,9.09 -12.67,4.04 -27.75,7.26 -44.45,9.4 -16.06,2.05 -33.63,3.1 -52,2.94 -18.41,-0.16 -35.96,-1.53 -51.95,-3.87 -16.66,-2.43 -31.67,-5.92 -44.27,-10.19 -8.23,-2.8 -15.48,-5.98 -21.59,-9.47 -4.61,-2.64 -8.57,-5.48 -11.82,-8.49zm-1.12 125.36l-0.04 4.93 0.38 0.01 -0.02 1.66c-0.03,4.02 3.01,8.13 8.55,12.13 6.08,4.39 15.08,8.55 26.29,12.25 12.24,4.03 26.9,7.32 43.24,9.62 15.78,2.23 33.11,3.54 51.31,3.7 18.18,0.16 35.53,-0.83 51.36,-2.78 16.4,-2.02 31.12,-5.04 43.41,-8.84 11.26,-3.5 20.32,-7.49 26.49,-11.78 5.62,-3.9 8.73,-7.95 8.77,-11.95l0.02 -2.41c-43,16.83 -89.35,25.15 -134.88,23.95 -43.6,-1.15 -86.46,-11.02 -124.91,-30.48z"/>
    <path class="fil10" d="M2336.05 816.16c-9.81,1.32 -18.64,3.31 -26.03,5.82 -6.73,2.28 -12.12,4.87 -15.76,7.64 -3.23,2.46 -5.04,5 -5.06,7.49 -0.02,2.48 1.74,5.06 4.93,7.58 3.61,2.85 8.95,5.54 15.62,7.94 7.35,2.64 16.14,4.8 25.94,6.3 9.47,1.46 19.88,2.32 30.81,2.42 10.93,0.1 21.35,-0.56 30.85,-1.83 9.82,-1.32 18.64,-3.3 26.03,-5.81 6.73,-2.28 12.12,-4.87 15.76,-7.65 3.23,-2.46 5.04,-4.99 5.06,-7.48 0.02,-2.49 -1.73,-5.06 -4.93,-7.59 -3.61,-2.84 -8.95,-5.54 -15.62,-7.94 -7.33,-2.64 -16.13,-4.79 -25.94,-6.3 -9.47,-1.46 -19.88,-2.31 -30.81,-2.41 -10.92,-0.11 -21.35,0.55 -30.85,1.82z"/>
    <path class="fil9" d="M2424.04 690.93c-15.9,2.02 -30.18,5.05 -42.11,8.86 -10.89,3.47 -19.67,7.48 -25.65,11.76 -5.44,3.9 -8.46,7.96 -8.5,11.99 -0.03,4.03 2.91,8.16 8.28,12.15 5.9,4.39 14.6,8.54 25.45,12.23 11.86,4.02 26.09,7.3 41.93,9.6 15.31,2.23 32.1,3.53 49.72,3.69 17.65,0.15 34.47,-0.84 49.79,-2.79 15.89,-2.02 30.17,-5.05 42.1,-8.86 10.89,-3.47 19.67,-7.48 25.65,-11.76 5.44,-3.9 8.46,-7.96 8.5,-12 0.04,-4.02 -2.91,-8.15 -8.28,-12.14 -5.9,-4.39 -14.6,-8.54 -25.45,-12.23 -11.86,-4.02 -26.09,-7.31 -41.93,-9.61 -15.31,-2.22 -32.11,-3.52 -49.72,-3.68 -17.65,-0.15 -34.47,0.84 -49.78,2.79z"/>
    <path class="fil13" d="M2620.99 927.15c-16.18,2.02 -30.72,5.05 -42.85,8.85 -11.11,3.5 -20.05,7.49 -26.13,11.77 -5.54,3.9 -8.61,7.96 -8.65,11.99 -0.04,4.02 2.97,8.14 8.43,12.14 6.01,4.4 14.87,8.55 25.91,12.23 12.07,4.02 26.54,7.31 42.69,9.61 15.57,2.22 32.67,3.52 50.61,3.68 17.93,0.16 35.05,-0.84 50.68,-2.79 16.18,-2.02 30.72,-5.06 42.85,-8.86 11.11,-3.49 20.05,-7.49 26.13,-11.76 5.54,-3.91 8.61,-7.97 8.65,-11.99 0.03,-4.02 -2.97,-8.15 -8.43,-12.15 -6,-4.39 -14.86,-8.54 -25.92,-12.23 -12.06,-4.01 -26.53,-7.3 -42.68,-9.6 -15.58,-2.23 -32.67,-3.53 -50.61,-3.69 -17.93,-0.15 -35.05,0.85 -50.68,2.8z"/>
   </g>
  </g>
  <path class="fil14" d="M3905.06 167.67l0 14.2c12.89,0.79 23.46,5.32 31.56,13.68 8.15,8.41 12.22,18.73 12.22,31.09 0,13.01 -4.34,23.93 -13.01,32.73 -8.68,8.8 -19.46,13.21 -32.35,13.21 -12.49,0 -22.94,-4.47 -31.42,-13.34 -8.48,-8.87 -12.76,-19.92 -12.76,-33 0,-13.68 4.14,-25.77 12.42,-36.36 8.22,-10.58 19.39,-17.94 33.33,-22.22zm-104.92 0.4l0 13.81c12.82,0.79 23.21,5.32 31.29,13.68 8.08,8.41 12.1,18.73 12.1,31.09 0,13.01 -4.35,23.93 -13.02,32.73 -8.68,8.8 -19.46,13.21 -32.35,13.21 -12.48,0 -22.94,-4.41 -31.42,-13.27 -8.48,-8.87 -12.76,-19.93 -12.76,-33.01 0,-13.61 4.14,-25.7 12.49,-36.29 8.35,-10.52 19.59,-17.81 33.66,-21.95z"/>
  <path id="1" class="fil14" d="M4089.32 345.36l0 -69.02c15.77,0 23.67,-5.98 23.67,-18.01 0,-10.97 -6.05,-16.49 -18.22,-16.49 -12.29,0 -18.47,7.56 -18.47,22.61l0 171.83 -78.1 0 0 -163.75c0,-16.96 1.71,-30.83 5.14,-41.68 3.34,-10.85 9.2,-20.9 17.42,-30.3 9.27,-10.39 20.84,-18.61 34.71,-24.59 13.87,-6.05 28.2,-9.08 42.93,-9.08 26.76,0 49.24,9.01 67.38,26.96 18.21,17.94 27.28,40.23 27.28,66.78 0,25.83 -8.16,46.74 -24.46,62.78 -14.85,14.79 -37.34,22.16 -67.31,22.16l-11.96 -0.2z"/>
  <path id="2" class="fil14" d="M4325.18 242.28l0 77.05c-4.99,-2.77 -9.53,-4.14 -13.61,-4.14 -13.02,0 -19.52,9.99 -19.52,29.98l0 91.11 -72.18 0 0 -104.98c0,-27.75 7.57,-49.83 22.74,-66.33 15.13,-16.5 35.37,-24.72 60.61,-24.72 5.65,0 12.95,0.66 21.95,2.04z"/>
  <path id="3" class="fil14" d="M4437.6 240.25c27.28,0 50.61,9.8 70.08,29.38 19.52,19.59 29.26,43.06 29.26,70.41 0,27.74 -9.87,51.41 -29.58,70.93 -19.79,19.52 -43.58,29.25 -71.46,29.25 -27.93,0 -51.8,-9.79 -71.59,-29.38 -19.79,-19.59 -29.71,-43.19 -29.71,-70.8 0,-28.14 9.93,-51.8 29.71,-71 19.79,-19.2 44.24,-28.79 73.3,-28.79zm-1.9 71c-7.76,0 -14.26,2.83 -19.65,8.41 -5.39,5.59 -8.08,12.42 -8.08,20.58 0,7.95 2.69,14.79 8.15,20.52 5.46,5.65 11.96,8.48 19.59,8.48 7.69,0 14.26,-2.83 19.73,-8.48 5.45,-5.72 8.15,-12.56 8.15,-20.52 0,-8.16 -2.69,-14.98 -8.08,-20.58 -5.39,-5.58 -11.96,-8.41 -19.79,-8.41z"/>
  <path id="4" class="fil14" d="M4631.06 173.19l0 73.76 32.35 0 0 76.12 -32.35 0c0,15.25 2.37,25.76 7.17,31.55 4.79,5.78 13.61,8.68 26.36,8.68l0 75.66c-3.75,0.07 -6.51,0.07 -8.29,0.07 -16.3,0 -31.69,-3.82 -46.09,-11.38 -14.46,-7.56 -26.03,-17.81 -34.77,-30.77 -11.04,-16.49 -16.56,-38.46 -16.56,-65.73l0 -157.97 72.17 0z"/>
  <path id="5" class="fil14" d="M4887.51 351.87l-109.19 0c-1.51,-5.52 -2.3,-10.53 -2.3,-15.13 0,-6.37 1.11,-12.68 3.29,-18.8l36.61 0c-2.56,-14.46 -10.59,-21.69 -24.06,-21.69 -9.01,0 -16.3,3.81 -21.95,11.51 -5.65,7.62 -8.48,17.49 -8.48,29.45 0,12.48 2.69,22.54 8.15,30.3 5.46,7.69 12.62,11.57 21.5,11.57 7.16,0 14.13,-3.62 20.77,-10.85l41.02 49.37c-19.13,15.05 -40.42,22.61 -63.83,22.61 -28.47,0 -52.46,-9.59 -71.85,-28.72 -19.39,-19.2 -29.13,-42.86 -29.13,-71.19 0,-28.14 9.8,-51.93 29.39,-71.33 19.65,-19.39 43.72,-29.12 72.24,-29.12 27.87,0 51.33,9.46 70.27,28.46 19,18.94 28.47,42.28 28.47,70.08 0,2.83 -0.33,7.3 -0.92,13.48z"/>
  <path id="6" class="fil14" d="M5019.84 357.06l0 66.14c-10.38,3.75 -20.31,5.58 -29.79,5.58 -23.2,0 -42.85,-8.8 -58.89,-26.36 -16.11,-17.55 -24.13,-39.05 -24.13,-64.42 0,-27.48 9.67,-50.61 29,-69.48 19.39,-18.86 43.12,-28.27 71.32,-28.27 14.98,0 29.32,3.02 43.06,9.07 13.68,5.99 24.46,14.07 32.28,24.26 13.08,16.76 19.59,41.14 19.59,73.1l0 63.18c0,34.31 -9.74,62.11 -29.13,83.48 -19.39,21.37 -44.64,32.09 -75.79,32.09 -9.47,0 -21.44,-2.37 -35.89,-7.17l0 -65.41c9.33,4.99 18.73,7.5 28.27,7.5 12.89,0 22.81,-4.28 29.85,-12.76 7.03,-8.48 10.52,-20.71 10.52,-36.55l0 -72.24c0,-20.18 -8.02,-30.3 -24.06,-30.3 -6.84,0 -12.82,2.69 -17.94,8.02 -5.13,5.32 -7.69,11.44 -7.69,18.4 0,7.3 2.43,13.41 7.36,18.35 4.86,4.86 10.91,7.29 18.14,7.29 4.86,0 9.46,-1.19 13.94,-3.49z"/>
  <path id="7" class="fil14" d="M5216.92 244.19l0 192.09 -72.18 0 0 -192.09 72.18 0zm-35.69 -85.59c9.79,0 18.21,3.41 25.37,10.32 7.16,6.83 10.72,14.98 10.72,24.39 0,9.99 -3.35,18.28 -10.12,24.65 -6.78,6.44 -15.39,9.67 -25.97,9.67 -10.53,0 -19.2,-3.22 -25.97,-9.67 -6.78,-6.37 -10.13,-14.66 -10.13,-24.65 0,-9.4 3.56,-17.56 10.72,-24.39 7.16,-6.91 15.58,-10.32 25.38,-10.32z"/>
  <path id="8" class="fil14" d="M5447.92 351.87l-109.19 0c-1.51,-5.52 -2.3,-10.53 -2.3,-15.13 0,-6.37 1.11,-12.68 3.29,-18.8l36.61 0c-2.56,-14.46 -10.59,-21.69 -24.06,-21.69 -9.01,0 -16.3,3.81 -21.95,11.51 -5.65,7.62 -8.48,17.49 -8.48,29.45 0,12.48 2.69,22.54 8.15,30.3 5.46,7.69 12.62,11.57 21.5,11.57 7.16,0 14.13,-3.62 20.77,-10.85l41.02 49.37c-19.13,15.05 -40.42,22.61 -63.83,22.61 -28.47,0 -52.46,-9.59 -71.85,-28.72 -19.39,-19.2 -29.13,-42.86 -29.13,-71.19 0,-28.14 9.8,-51.93 29.39,-71.33 19.65,-19.39 43.72,-29.12 72.24,-29.12 27.87,0 51.33,9.46 70.27,28.46 19,18.94 28.47,42.28 28.47,70.08 0,2.83 -0.33,7.3 -0.92,13.48z"/>
  <path id="9" class="fil14" d="M5648.88 436.27l-72.18 0 0 -108.46c0,-11.04 -4.47,-16.56 -13.47,-16.56 -8.87,0 -13.34,5.52 -13.34,16.56l0 108.46 -72.18 0 0 -107.16c0,-24.97 8.29,-46.08 24.85,-63.17 16.56,-17.16 36.82,-25.7 60.88,-25.7 27.4,0 49.43,9.93 65.99,29.85 12.96,15.51 19.46,37.14 19.46,64.81l0 101.37z"/>
  <path id="10" class="fil14" d="M5809.22 173.19l72.18 0 0 160.2c0,29.45 -7.7,53.38 -23.14,71.92 -8.87,10.65 -20.18,19.13 -33.86,25.44 -13.68,6.31 -27.74,9.46 -42.14,9.46 -28.66,0 -52.85,-9.67 -72.51,-28.92 -19.65,-19.26 -29.52,-42.93 -29.52,-70.99 0,-27.09 9.8,-50.55 29.32,-70.34 19.52,-19.79 42.6,-29.71 69.36,-29.71 4.2,0 10.65,0.4 19.26,1.25l0 79.35c-5.92,-4.54 -11.83,-6.84 -17.75,-6.84 -7.5,0 -13.87,2.77 -19.2,8.22 -5.32,5.46 -8.01,12.04 -8.01,19.79 0,7.43 2.76,13.87 8.28,19.2 5.59,5.33 12.17,8.02 19.92,8.02 18.54,0 27.81,-12.83 27.81,-38.53l0 -157.51z"/>
  <path id="11" class="fil14" d="M6010.31 240.25c27.28,0 50.61,9.8 70.08,29.38 19.52,19.59 29.26,43.06 29.26,70.41 0,27.74 -9.87,51.41 -29.58,70.93 -19.79,19.52 -43.58,29.25 -71.46,29.25 -27.93,0 -51.8,-9.79 -71.59,-29.38 -19.79,-19.59 -29.71,-43.19 -29.71,-70.8 0,-28.14 9.93,-51.8 29.71,-71 19.79,-19.2 44.24,-28.79 73.3,-28.79zm-1.9 71c-7.76,0 -14.26,2.83 -19.65,8.41 -5.39,5.59 -8.08,12.42 -8.08,20.58 0,7.95 2.69,14.79 8.15,20.52 5.46,5.65 11.96,8.48 19.59,8.48 7.69,0 14.26,-2.83 19.73,-8.48 5.45,-5.72 8.15,-12.56 8.15,-20.52 0,-8.16 -2.69,-14.98 -8.08,-20.58 -5.39,-5.58 -11.96,-8.41 -19.79,-8.41z"/>
  <path id="12" class="fil14" d="M6426.89 351.87l-109.19 0c-1.51,-5.52 -2.3,-10.53 -2.3,-15.13 0,-6.37 1.11,-12.68 3.29,-18.8l36.61 0c-2.56,-14.46 -10.59,-21.69 -24.06,-21.69 -9.01,0 -16.3,3.81 -21.95,11.51 -5.65,7.62 -8.48,17.49 -8.48,29.45 0,12.48 2.69,22.54 8.15,30.3 5.46,7.69 12.62,11.57 21.5,11.57 7.16,0 14.13,-3.62 20.77,-10.85l41.02 49.37c-19.13,15.05 -40.42,22.61 -63.83,22.61 -28.47,0 -52.46,-9.59 -71.85,-28.72 -19.39,-19.2 -29.13,-42.86 -29.13,-71.19 0,-28.14 9.8,-51.93 29.39,-71.33 19.65,-19.39 43.72,-29.12 72.24,-29.12 27.87,0 51.33,9.46 70.27,28.46 19,18.94 28.47,42.28 28.47,70.08 0,2.83 -0.33,7.3 -0.92,13.48z"/>
  <polygon id="13" class="fil14" points="6528.85,173.19 6528.85,436.27 6456.66,436.27 6456.66,173.19 "/>
  <polygon id="14" class="fil14" points="6863.84,173.19 6749.27,451.26 6635.48,173.19 6726,173.19 6750.06,255.36 6776.61,173.19 "/>
  <path id="15" class="fil14" d="M6982.44 364.22l0 74.55c-5.92,0.98 -11.31,1.44 -16.17,1.44 -28.86,0 -52.85,-9.53 -72.11,-28.53 -19.26,-19 -28.86,-42.79 -28.86,-71.45 0,-27.87 9.73,-51.48 29.19,-70.87 19.39,-19.39 43.06,-29.12 70.93,-29.12 31.03,0 55.49,9.07 73.43,27.28 17.88,18.21 26.83,43.06 26.83,74.54l0 94.2 -72.18 0 0 -89.01c0,-10.12 -2.43,-18.21 -7.37,-24.25 -4.86,-5.98 -11.5,-9.01 -19.79,-9.01 -7.49,0 -14,2.77 -19.45,8.29 -5.46,5.52 -8.22,12.03 -8.22,19.58 0,7.95 2.49,14.53 7.43,19.65 4.99,5.14 11.31,7.7 18.92,7.7 6.25,0 12.1,-1.65 17.43,-5z"/>
  <polygon id="16" class="fil14" points="7179.59,173.19 7179.59,436.27 7107.4,436.27 7107.4,173.19 "/>
  <path id="17" class="fil14" d="M7312.77 240.25c27.28,0 50.61,9.8 70.08,29.38 19.52,19.59 29.26,43.06 29.26,70.41 0,27.74 -9.87,51.41 -29.58,70.93 -19.79,19.52 -43.58,29.25 -71.46,29.25 -27.93,0 -51.8,-9.79 -71.59,-29.38 -19.79,-19.59 -29.71,-43.19 -29.71,-70.8 0,-28.14 9.93,-51.8 29.71,-71 19.79,-19.2 44.24,-28.79 73.3,-28.79zm-1.9 71c-7.76,0 -14.26,2.83 -19.65,8.41 -5.39,5.59 -8.08,12.42 -8.08,20.58 0,7.95 2.69,14.79 8.15,20.52 5.46,5.65 11.96,8.48 19.59,8.48 7.69,0 14.26,-2.83 19.73,-8.48 5.45,-5.72 8.15,-12.56 8.15,-20.52 0,-8.16 -2.69,-14.98 -8.08,-20.58 -5.39,-5.58 -11.96,-8.41 -19.79,-8.41z"/>
  <path id="18" class="fil14" d="M7547.25 242.28l0 77.05c-4.99,-2.77 -9.53,-4.14 -13.61,-4.14 -13.02,0 -19.52,9.99 -19.52,29.98l0 91.11 -72.18 0 0 -104.98c0,-27.75 7.57,-49.83 22.74,-66.33 15.13,-16.5 35.37,-24.72 60.61,-24.72 5.65,0 12.95,0.66 21.95,2.04z"/>
  <path id="19" class="fil14" d="M7785.43 173.19l72.18 0 0 160.2c0,29.45 -7.7,53.38 -23.14,71.92 -8.87,10.65 -20.18,19.13 -33.86,25.44 -13.68,6.31 -27.74,9.46 -42.14,9.46 -28.66,0 -52.85,-9.67 -72.51,-28.92 -19.65,-19.26 -29.52,-42.93 -29.52,-70.99 0,-27.09 9.8,-50.55 29.32,-70.34 19.52,-19.79 42.6,-29.71 69.36,-29.71 4.2,0 10.65,0.4 19.26,1.25l0 79.35c-5.92,-4.54 -11.83,-6.84 -17.75,-6.84 -7.5,0 -13.87,2.77 -19.2,8.22 -5.32,5.46 -8.01,12.04 -8.01,19.79 0,7.43 2.76,13.87 8.28,19.2 5.59,5.33 12.17,8.02 19.92,8.02 18.54,0 27.81,-12.83 27.81,-38.53l0 -157.51z"/>
  <path id="20" class="fil14" d="M8084.14 351.87l-109.19 0c-1.51,-5.52 -2.3,-10.53 -2.3,-15.13 0,-6.37 1.11,-12.68 3.29,-18.8l36.61 0c-2.56,-14.46 -10.59,-21.69 -24.06,-21.69 -9.01,0 -16.3,3.81 -21.95,11.51 -5.65,7.62 -8.48,17.49 -8.48,29.45 0,12.48 2.69,22.54 8.15,30.3 5.46,7.69 12.62,11.57 21.5,11.57 7.16,0 14.13,-3.62 20.77,-10.85l41.02 49.37c-19.13,15.05 -40.42,22.61 -63.83,22.61 -28.47,0 -52.46,-9.59 -71.85,-28.72 -19.39,-19.2 -29.13,-42.86 -29.13,-71.19 0,-28.14 9.8,-51.93 29.39,-71.33 19.65,-19.39 43.72,-29.12 72.24,-29.12 27.87,0 51.33,9.46 70.27,28.46 19,18.94 28.47,42.28 28.47,70.08 0,2.83 -0.33,7.3 -0.92,13.48z"/>
  <path id="21" class="fil14" d="M8276.81 173.19l0 73.76 32.35 0 0 76.12 -32.35 0c0,15.25 2.37,25.76 7.17,31.55 4.79,5.78 13.61,8.68 26.36,8.68l0 75.66c-3.75,0.07 -6.51,0.07 -8.29,0.07 -16.3,0 -31.69,-3.82 -46.09,-11.38 -14.46,-7.56 -26.03,-17.81 -34.77,-30.77 -11.04,-16.49 -16.56,-38.46 -16.56,-65.73l0 -157.97 72.17 0z"/>
  <path id="22" class="fil14" d="M8344.46 246.96l72.18 0 0 108.46c0,11.04 4.47,16.56 13.47,16.56 8.87,0 13.34,-5.52 13.34,-16.56l0 -108.46 72.18 0 0 107.09c0,24.97 -8.29,46.02 -24.85,63.17 -16.56,17.16 -36.81,25.77 -60.81,25.77 -27.34,0 -49.37,-9.99 -66.06,-29.91 -12.95,-15.58 -19.46,-37.15 -19.46,-64.82l0 -101.3z"/>
  <path id="23" class="fil14" d="M8747.37 345.36l0 -69.02c15.77,0 23.67,-5.98 23.67,-18.01 0,-10.97 -6.05,-16.49 -18.22,-16.49 -12.29,0 -18.47,7.56 -18.47,22.61l0 171.83 -78.1 0 0 -163.75c0,-16.96 1.71,-30.83 5.14,-41.68 3.34,-10.85 9.2,-20.9 17.42,-30.3 9.27,-10.39 20.84,-18.61 34.71,-24.59 13.87,-6.05 28.2,-9.08 42.93,-9.08 26.76,0 49.24,9.01 67.38,26.96 18.21,17.94 27.28,40.23 27.28,66.78 0,25.83 -8.16,46.74 -24.46,62.78 -14.85,14.79 -37.34,22.16 -67.31,22.16l-11.96 -0.2z"/>
  <path id="24" class="fil14" d="M8983.23 242.28l0 77.05c-4.99,-2.77 -9.53,-4.14 -13.61,-4.14 -13.02,0 -19.52,9.99 -19.52,29.98l0 91.11 -72.18 0 0 -104.98c0,-27.75 7.57,-49.83 22.74,-66.33 15.13,-16.5 35.37,-24.72 60.61,-24.72 5.65,0 12.95,0.66 21.95,2.04z"/>
  <path id="25" class="fil14" d="M9095.65 240.25c27.28,0 50.61,9.8 70.08,29.38 19.52,19.59 29.26,43.06 29.26,70.41 0,27.74 -9.87,51.41 -29.58,70.93 -19.79,19.52 -43.58,29.25 -71.46,29.25 -27.93,0 -51.8,-9.79 -71.59,-29.38 -19.79,-19.59 -29.71,-43.19 -29.71,-70.8 0,-28.14 9.93,-51.8 29.71,-71 19.79,-19.2 44.24,-28.79 73.3,-28.79zm-1.9 71c-7.76,0 -14.26,2.83 -19.65,8.41 -5.39,5.59 -8.08,12.42 -8.08,20.58 0,7.95 2.69,14.79 8.15,20.52 5.46,5.65 11.96,8.48 19.59,8.48 7.69,0 14.26,-2.83 19.73,-8.48 5.45,-5.72 8.15,-12.56 8.15,-20.52 0,-8.16 -2.69,-14.98 -8.08,-20.58 -5.39,-5.58 -11.96,-8.41 -19.79,-8.41z"/>
  <path id="26" class="fil14" d="M9343.15 173.19l72.18 0 0 160.2c0,29.45 -7.7,53.38 -23.14,71.92 -8.87,10.65 -20.18,19.13 -33.86,25.44 -13.68,6.31 -27.74,9.46 -42.14,9.46 -28.66,0 -52.85,-9.67 -72.51,-28.92 -19.65,-19.26 -29.52,-42.93 -29.52,-70.99 0,-27.09 9.8,-50.55 29.32,-70.34 19.52,-19.79 42.6,-29.71 69.36,-29.71 4.2,0 10.65,0.4 19.26,1.25l0 79.35c-5.92,-4.54 -11.83,-6.84 -17.75,-6.84 -7.5,0 -13.87,2.77 -19.2,8.22 -5.32,5.46 -8.01,12.04 -8.01,19.79 0,7.43 2.76,13.87 8.28,19.2 5.59,5.33 12.17,8.02 19.92,8.02 18.54,0 27.81,-12.83 27.81,-38.53l0 -157.51z"/>
  <path id="27" class="fil14" d="M9453.06 246.96l72.18 0 0 108.46c0,11.04 4.47,16.56 13.47,16.56 8.87,0 13.34,-5.52 13.34,-16.56l0 -108.46 72.18 0 0 107.09c0,24.97 -8.29,46.02 -24.85,63.17 -16.56,17.16 -36.81,25.77 -60.81,25.77 -27.34,0 -49.37,-9.99 -66.06,-29.91 -12.95,-15.58 -19.46,-37.15 -19.46,-64.82l0 -101.3z"/>
  <path id="28" class="fil14" d="M9784.19 347.86l71.45 -2.69c-2.04,27.67 -12.36,50.48 -30.96,68.29 -18.6,17.82 -41.28,26.76 -67.97,26.76 -28.27,0 -52.06,-9.79 -71.53,-29.45 -19.46,-19.65 -29.19,-43.72 -29.19,-72.17 0,-27.08 9.8,-50.22 29.45,-69.49 19.65,-19.26 43.19,-28.85 70.66,-28.85 24,0 45.16,7.56 63.57,22.67 18.34,15.19 29.78,34.45 34.25,57.92l-72.97 2.69c-6.31,-8.22 -14.26,-12.29 -23.86,-12.29 -8.22,0 -14.99,2.69 -20.25,8.08 -5.26,5.39 -7.88,12.23 -7.88,20.44 0,8.35 2.76,15.31 8.35,20.97 5.58,5.65 12.55,8.48 20.9,8.48 12.16,0 20.84,-7.1 25.97,-21.37z"/>
  <path id="29" class="fil14" d="M9951.22 173.19l0 73.76 32.35 0 0 76.12 -32.35 0c0,15.25 2.37,25.76 7.17,31.55 4.79,5.78 13.61,8.68 26.36,8.68l0 75.66c-3.75,0.07 -6.51,0.07 -8.29,0.07 -16.3,0 -31.69,-3.82 -46.09,-11.38 -14.46,-7.56 -26.03,-17.81 -34.77,-30.77 -11.04,-16.49 -16.56,-38.46 -16.56,-65.73l0 -157.97 72.17 0z"/>
  <path id="30" class="fil14" d="M10110.04 240.25c27.28,0 50.61,9.8 70.08,29.38 19.52,19.59 29.26,43.06 29.26,70.41 0,27.74 -9.87,51.41 -29.58,70.93 -19.79,19.52 -43.58,29.25 -71.46,29.25 -27.93,0 -51.8,-9.79 -71.59,-29.38 -19.79,-19.59 -29.71,-43.19 -29.71,-70.8 0,-28.14 9.93,-51.8 29.71,-71 19.79,-19.2 44.24,-28.79 73.3,-28.79zm-1.9 71c-7.76,0 -14.26,2.83 -19.65,8.41 -5.39,5.59 -8.08,12.42 -8.08,20.58 0,7.95 2.69,14.79 8.15,20.52 5.46,5.65 11.96,8.48 19.59,8.48 7.69,0 14.26,-2.83 19.73,-8.48 5.45,-5.72 8.15,-12.56 8.15,-20.52 0,-8.16 -2.69,-14.98 -8.08,-20.58 -5.39,-5.58 -11.96,-8.41 -19.79,-8.41z"/>
  <path id="31" class="fil14" d="M10290.88 272.59l0 -14.13c-12.88,-0.72 -23.46,-5.26 -31.55,-13.55 -8.16,-8.28 -12.23,-18.6 -12.23,-30.96 0,-12.95 4.34,-23.86 13.02,-32.67 8.67,-8.8 19.45,-13.21 32.34,-13.21 12.49,0 22.95,4.41 31.43,13.28 8.48,8.87 12.76,19.92 12.76,33 0,13.61 -4.14,25.7 -12.43,36.29 -8.22,10.52 -19.32,17.81 -33.33,21.95zm104.92 0l0 -14.13c-12.82,-0.72 -23.2,-5.26 -31.28,-13.55 -8.08,-8.28 -12.1,-18.6 -12.1,-30.96 0,-12.95 4.34,-23.86 13.02,-32.67 8.67,-8.8 19.45,-13.21 32.34,-13.21 12.49,0 22.95,4.41 31.43,13.28 8.48,8.87 12.74,19.92 12.74,33 0,13.61 -4.13,25.7 -12.48,36.29 -8.35,10.52 -19.59,17.81 -33.67,21.95z"/>
 </g>
</svg>
