<?xml version="1.0" encoding="UTF-8"?>
<!DOCTYPE svg PUBLIC "-//W3C//DTD SVG 1.1//EN" "http://www.w3.org/Graphics/SVG/1.1/DTD/svg11.dtd">
<!-- Creator: CorelDRAW 2018 (64 Bit Versión de evaluación) -->
<svg xmlns="http://www.w3.org/2000/svg" xml:space="preserve" width="110.596mm" height="16.9334mm" version="1.1" style="shape-rendering:geometricPrecision; text-rendering:geometricPrecision; image-rendering:optimizeQuality; fill-rule:evenodd; clip-rule:evenodd"
viewBox="0 0 10346.73 1584.2"
 xmlns:xlink="http://www.w3.org/1999/xlink">
 <defs>
  <style type="text/css">
   <![CDATA[
    .fil0 {fill:none}
    .fil12 {fill:#ED3237}
    .fil4 {fill:#DBA438}
    .fil8 {fill:#7A2D2E}
    .fil6 {fill:#52658C}
    .fil11 {fill:#00A859}
    .fil3 {fill:#0A5E5D}
    .fil1 {fill:#FEFEFE}
    .fil14 {fill:#FEFEFE;fill-rule:nonzero}
    .fil13 {fill:#ED3237;fill-rule:nonzero}
    .fil9 {fill:#DBA438;fill-rule:nonzero}
    .fil7 {fill:#7A2D2E;fill-rule:nonzero}
    .fil5 {fill:#52658C;fill-rule:nonzero}
    .fil10 {fill:#00A859;fill-rule:nonzero}
    .fil2 {fill:#0A5E5D;fill-rule:nonzero}
   ]]>
  </style>
 </defs>
 <g id="Capa_x0020_1">
  <metadata id="CorelCorpID_0Corel-Layer"/>
  <rect class="fil0" x="-0" y="-0" width="9584.36" height="1582.26"/>
  <g id="_2166025170096">
   <circle class="fil1" cx="2897.49" cy="792.1" r="787.56"/>
   <g>
    <path class="fil2" d="M2897.49 336.7c125.76,0 239.6,50.97 322.01,133.38 82.41,82.41 133.38,196.26 133.38,322.01 0,125.76 -50.97,239.6 -133.38,322.01 -82.41,82.41 -196.26,133.38 -322.01,133.38 -125.76,0 -239.6,-50.97 -322.01,-133.38 -82.41,-82.41 -133.38,-196.26 -133.38,-322.01 0,-125.76 50.97,-239.6 133.38,-322.01 82.41,-82.41 196.26,-133.38 322.01,-133.38zm313.25 142.15c-80.17,-80.16 -190.92,-129.74 -313.25,-129.74 -122.33,0 -233.08,49.58 -313.25,129.74 -80.16,80.17 -129.74,190.92 -129.74,313.25 0,122.33 49.58,233.08 129.74,313.25 80.17,80.16 190.92,129.74 313.25,129.74 122.33,0 233.08,-49.58 313.25,-129.74 80.16,-80.17 129.74,-190.92 129.74,-313.25 0,-122.33 -49.58,-233.08 -129.74,-313.25z"/>
    <path class="fil2" d="M2897.49 0c218.73,0 416.76,88.66 560.09,232.01 143.34,143.33 232.01,341.36 232.01,560.09 0,218.73 -88.66,416.76 -232.01,560.09 -143.33,143.34 -341.36,232 -560.09,232 -218.73,0 -416.76,-88.65 -560.09,-232 -143.34,-143.33 -232,-341.36 -232,-560.09 0,-218.73 88.65,-416.76 232,-560.09 143.33,-143.34 341.36,-232.01 560.09,-232.01zm551.33 240.77c-141.1,-141.09 -336.02,-228.37 -551.33,-228.37 -215.31,0 -410.23,87.28 -551.33,228.37 -141.09,141.1 -228.37,336.02 -228.37,551.33 0,215.31 87.28,410.23 228.37,551.33 141.1,141.09 336.02,228.37 551.33,228.37 215.31,0 410.23,-87.28 551.33,-228.37 141.09,-141.1 228.37,-336.02 228.37,-551.33 0,-215.31 -87.28,-410.23 -228.37,-551.33z"/>
    <path class="fil3" d="M2897.49 35.47c417.88,0 756.63,338.75 756.63,756.63 0,417.88 -338.75,756.63 -756.63,756.63 -417.88,0 -756.63,-338.75 -756.63,-756.63 0,-417.88 338.75,-756.63 756.63,-756.63zm-564.85 727.09c0.43,0.22 0.97,0.25 1.64,0.09 0.66,-0.15 1.2,-0.46 1.6,-0.94 1.61,-1.89 3.31,-4.24 5.1,-7.05 1.79,-2.82 3.56,-6.02 5.33,-9.59 1.77,-3.57 3.36,-7.42 4.75,-11.54 1.39,-4.13 2.5,-8.36 3.3,-12.73 1.99,-10.71 2.28,-20.17 0.88,-28.38 -1.4,-8.2 -4.02,-15.18 -7.85,-20.96 -3.84,-5.77 -8.59,-10.38 -14.28,-13.84 -5.69,-3.44 -11.82,-5.78 -18.38,-7 -11.92,-2.21 -22.36,-0.89 -31.32,3.95 -8.95,4.84 -17.02,13.37 -24.18,25.59 -4.4,7.53 -7.83,13.05 -10.3,16.57 -2.47,3.51 -5.24,4.99 -8.29,4.42 -2.6,-0.49 -4.31,-2.1 -5.15,-4.86 -0.83,-2.75 -0.82,-6.45 0.04,-11.08 1.32,-7.15 3.35,-13.17 6.07,-18.07 2.73,-4.9 5.14,-8.73 7.23,-11.5 1.06,-1.44 0.65,-2.61 -1.24,-3.51l-31.24 -14.42c-1.45,-0.68 -2.61,-0.41 -3.47,0.8 -3.53,4.55 -6.65,9.89 -9.36,16.02 -2.72,6.14 -4.93,13.77 -6.61,22.9 -1.63,8.73 -1.86,16.83 -0.72,24.3 1.15,7.47 3.48,14.09 6.99,19.87 3.52,5.78 8.05,10.55 13.59,14.32 5.54,3.76 11.91,6.31 19.09,7.64 6.73,1.24 12.89,1.23 18.51,-0.06 5.61,-1.29 10.78,-3.52 15.47,-6.68 4.7,-3.17 8.93,-7.04 12.7,-11.61 3.78,-4.57 7.09,-9.46 9.95,-14.68 6.74,-12.43 12.32,-18.24 16.75,-17.42 6.12,1.13 8.2,6.99 6.23,17.58 -1.35,7.28 -3.69,13.89 -7,19.84 -3.32,5.96 -6.6,10.82 -9.82,14.6 -0.58,0.58 -0.74,1.2 -0.47,1.86 0.27,0.67 0.84,1.22 1.71,1.66l32.76 13.87zm50.41 -246.62l35.42 7.62c0.62,0.17 1.21,0.13 1.77,-0.11 0.56,-0.24 0.94,-0.54 1.11,-0.9l18.8 -36.41c0.43,-0.83 0.39,-1.61 -0.11,-2.32 -0.51,-0.72 -1.16,-1.13 -1.97,-1.25l-155.35 -30.47c-1.23,-0.33 -2.12,0.05 -2.68,1.12l-23.06 44.65c-0.56,1.08 -0.35,2.02 0.64,2.83l115.99 106.69c0.56,0.6 1.29,0.9 2.16,0.9 0.88,0 1.53,-0.42 1.96,-1.26l17.78 -34.44c0.62,-1.19 0.37,-2.23 -0.75,-3.12 -4.56,-3.7 -9.09,-7.53 -13.63,-11.46 -4.53,-3.93 -9.14,-7.78 -13.83,-11.57l15.75 -30.49zm-45.1 8.06c-3.51,-3.03 -6.53,-5.65 -9.06,-7.87 -2.54,-2.21 -5.59,-4.77 -9.16,-7.68l-0.09 0.19c-1.62,-1.6 -3.38,-3.19 -5.28,-4.77 -1.89,-1.58 -3.89,-3.22 -5.99,-4.91 -0.64,-0.48 -1.38,-1.06 -2.25,-1.73 -0.88,-0.68 -1.63,-1.26 -2.25,-1.73 0.81,0.11 1.34,0.2 1.57,0.24 0.24,0.05 0.36,0.07 0.36,0.07 -0.07,0.12 0.03,0.21 0.26,0.25 0.23,0.05 0.9,0.21 1.99,0.47l-0.3 0.07c2.66,0.62 5.43,1.18 8.32,1.68 2.88,0.51 5.59,1.03 8.1,1.57 3.81,0.76 7.69,1.63 11.65,2.61 3.96,0.98 7.91,1.88 11.85,2.71l-9.73 18.83zm140.32 -86.08c1.3,1.34 2.54,1.44 3.69,0.32l26.48 -25.76c1.06,-1.04 0.94,-2.22 -0.36,-3.56l-37.89 -38.93 35.88 -34.91c1.06,-1.03 0.99,-2.16 -0.21,-3.39l-23.9 -24.56c-1.3,-1.34 -2.48,-1.49 -3.54,-0.46l-35.87 34.91 -14.64 -15.03 38.19 -37.17c1.16,-1.12 1.14,-2.3 -0.06,-3.53l-23.9 -24.56c-1.3,-1.34 -2.53,-1.44 -3.69,-0.32l-66.25 64.48c-1.16,1.12 -1.09,2.36 0.22,3.7l105.86 108.77zm163.97 -231.47c-0.77,-1.53 -1.81,-1.96 -3.13,-1.3l-45.69 22.8 -8.02 -16.05 48.58 -24.25c1.44,-0.72 1.79,-1.85 1.02,-3.38l-15.31 -30.67c-0.83,-1.67 -1.97,-2.14 -3.41,-1.42l-83.8 41.83c-1.33,0.66 -1.57,1.82 -0.74,3.49l67.78 135.8c0.83,1.67 1.92,2.17 3.24,1.52l86.51 -43.18c1.32,-0.65 1.57,-1.82 0.74,-3.49l-15.31 -30.67c-0.77,-1.52 -1.81,-1.96 -3.13,-1.3l-51.3 25.6 -9.16 -18.36 45.69 -22.81c1.33,-0.65 1.57,-1.82 0.74,-3.49l-15.31 -30.67zm134.57 56.62c0.32,1.83 1.21,2.62 2.67,2.37l36.38 -6.38c1.59,-0.27 2.23,-1.34 1.9,-3.17l-19.77 -112.75 34.79 -6.1c1.59,-0.28 2.24,-1.26 1.95,-2.95l-6.01 -34.21c-0.32,-1.84 -1.28,-2.62 -2.86,-2.34l-110.15 19.31c-1.45,0.26 -2.02,1.3 -1.7,3.14l6.01 34.21c0.29,1.68 1.17,2.39 2.63,2.14l34.39 -6.02 19.78 112.75zm211.71 -2c1.6,0.22 2.53,-0.61 2.77,-2.46l8.3 -63.57 58.19 -79.4c0.54,-1.03 0.7,-1.98 0.48,-2.88 -0.22,-0.89 -0.86,-1.4 -1.94,-1.54l-42.23 -5.51c-1.07,-0.14 -1.81,0.31 -2.21,1.36l-16.62 32.15c-1.28,2.51 -2.49,4.77 -3.64,6.82 -1.15,2.04 -2.26,4.09 -3.35,6.15 -1.14,2.52 -2.33,4.86 -3.56,7.05 -0.44,-1.78 -0.8,-3.16 -1.09,-4.14 -0.28,-0.97 -0.51,-1.87 -0.67,-2.68 -0.16,-0.8 -0.36,-1.66 -0.58,-2.54 -0.22,-0.89 -0.49,-2.22 -0.8,-3.99 -0.37,-1.3 -0.69,-2.71 -0.97,-4.24 -0.27,-1.52 -0.65,-3.11 -1.11,-4.73l-7.83 -35.11c-0.39,-1.15 -0.99,-1.78 -1.8,-1.88l-42.83 -5.59c-1.07,-0.14 -1.82,0.2 -2.26,1 -0.45,0.8 -0.54,1.77 -0.28,2.9 5.72,15.48 11.33,30.95 16.85,46.4 5.51,15.46 11.11,30.99 16.81,46.63l-8.08 61.96c-0.24,1.85 0.36,2.87 1.83,3.06l36.63 4.78zm200 26.57c0.13,-0.96 -0.01,-1.74 -0.41,-2.34 -0.4,-0.6 -0.96,-0.89 -1.71,-0.87 -3.27,0.09 -7.36,-0.37 -12.26,-1.41 -4.9,-1.04 -9.64,-2.55 -14.2,-4.55 -11.84,-5.16 -19.38,-12.7 -22.63,-22.58 -3.25,-9.9 -2.41,-20.47 2.5,-31.72 2.86,-6.56 6.3,-11.75 10.33,-15.59 4.02,-3.85 8.35,-6.62 12.99,-8.33 4.64,-1.71 9.44,-2.37 14.41,-1.98 4.98,0.38 9.86,1.63 14.67,3.73 5.56,2.41 10.23,5.09 14.01,8.02 3.79,2.92 6.82,5.81 9.09,8.67 0.5,0.55 1.09,0.78 1.81,0.66 0.71,-0.12 1.35,-0.48 1.9,-1.09l20.18 -27.07c0.87,-1.32 0.94,-2.47 0.2,-3.47 -2.22,-3.34 -6.17,-7.06 -11.87,-11.16 -5.7,-4.1 -12.62,-7.92 -20.76,-11.47 -10.24,-4.46 -20.57,-7.03 -31,-7.67 -10.44,-0.65 -20.46,0.78 -30.07,4.3 -9.62,3.53 -18.48,9.2 -26.59,17.02 -8.11,7.82 -14.89,18.01 -20.37,30.55 -4.23,9.68 -6.8,19.54 -7.73,29.56 -0.92,10.03 0.13,19.65 3.16,28.85 3.03,9.21 8.29,17.78 15.76,25.7 7.48,7.92 17.51,14.63 30.09,20.12 8.51,3.71 16.19,6.13 23.04,7.25 6.86,1.12 11.89,1.54 15.1,1.24 0.5,-0.12 1,-0.36 1.52,-0.73 0.52,-0.36 0.85,-0.86 0.98,-1.48l7.87 -32.18zm121.17 100.33l-17.13 31.94c-0.33,0.54 -0.45,1.11 -0.38,1.72 0.08,0.61 0.26,1.05 0.56,1.33l29.78 28.14c0.68,0.65 1.44,0.82 2.26,0.54 0.83,-0.29 1.41,-0.81 1.75,-1.56l72.29 -140.84c0.65,-1.09 0.54,-2.05 -0.34,-2.88l-36.52 -34.52c-0.88,-0.83 -1.84,-0.89 -2.9,-0.17l-134.62 81.92c-0.73,0.38 -1.22,0.99 -1.46,1.83 -0.23,0.84 -0.02,1.58 0.66,2.23l28.17 26.63c0.97,0.93 2.05,0.97 3.2,0.14 4.84,-3.35 9.76,-6.66 14.79,-9.93 5.03,-3.27 10.02,-6.62 14.95,-10.09l24.94 23.57zm4.74 -45.56c3.87,-2.54 7.22,-4.72 10.06,-6.53 2.83,-1.82 6.14,-4.04 9.92,-6.67l-0.15 -0.14c1.98,-1.12 3.99,-2.37 6.04,-3.75 2.05,-1.38 4.17,-2.84 6.38,-4.4 0.63,-0.47 1.39,-1.04 2.28,-1.68 0.9,-0.65 1.66,-1.22 2.29,-1.69 -0.34,0.76 -0.56,1.23 -0.67,1.45 -0.11,0.22 -0.17,0.33 -0.17,0.33 -0.09,-0.09 -0.2,-0.03 -0.31,0.19 -0.11,0.22 -0.45,0.8 -1,1.79l0.02 -0.32c-1.33,2.39 -2.64,4.89 -3.92,7.53 -1.29,2.63 -2.54,5.08 -3.76,7.35 -1.78,3.45 -3.69,6.94 -5.73,10.47 -2.04,3.53 -3.99,7.07 -5.88,10.64l-15.4 -14.56zm46.42 157.34c-1.67,0.83 -2.14,1.97 -1.42,3.42l16.32 32.69c0.66,1.32 1.82,1.56 3.5,0.73l42.55 -21.24c0.35,1.03 0.81,2.15 1.41,3.36 0.61,1.2 1.21,2.4 1.81,3.61 4.57,9.15 10,16.81 16.3,23 6.3,6.18 13.34,10.64 21.13,13.37 6.02,1.96 12.68,2.42 19.99,1.41 7.31,-1.02 14.3,-3.19 20.97,-6.52 7.78,-3.89 14.02,-8.89 18.71,-14.99 4.69,-6.09 7.78,-12.15 9.3,-18.18 1.23,-5.88 1.27,-12.58 0.11,-20.13 -1.16,-7.54 -3.99,-15.83 -8.5,-24.86 -5.29,-10.59 -9.97,-19.2 -14.05,-25.8 -4.08,-6.61 -7.68,-12 -10.8,-16.16 -0.88,-1.07 -1.95,-1.29 -3.2,-0.66l-134.13 66.95zm124.36 -16.04c0.76,0.82 1.5,1.96 2.22,3.41 0.72,1.44 1.59,3.19 2.61,5.23 2.95,5.9 3.89,10.92 2.83,15.06 -1.06,4.14 -3.74,7.29 -8.06,9.44 -5.29,2.64 -10.28,2.8 -15,0.49 -4.72,-2.31 -8.51,-6.35 -11.39,-12.13 -0.79,-1.56 -1.41,-2.83 -1.9,-3.79 -0.42,-0.84 -0.8,-1.78 -1.14,-2.82l29.83 -14.88zm-47.78 167.01c-0.49,-0.05 -1.01,0.11 -1.57,0.49 -0.56,0.36 -0.95,0.84 -1.17,1.43 -0.85,2.33 -1.63,5.14 -2.31,8.4 -0.69,3.26 -1.24,6.88 -1.66,10.84 -0.41,3.96 -0.54,8.12 -0.41,12.47 0.13,4.34 0.58,8.7 1.35,13.08 1.88,10.74 4.91,19.7 9.09,26.89 4.18,7.19 9.07,12.83 14.68,16.9 5.6,4.07 11.68,6.74 18.21,7.98 6.53,1.24 13.09,1.29 19.67,0.13 11.95,-2.1 21.26,-6.97 27.97,-14.63 6.7,-7.67 11.27,-18.48 13.72,-32.44 1.49,-8.59 2.78,-14.97 3.86,-19.11 1.09,-4.15 3.16,-6.5 6.22,-7.04 2.6,-0.46 4.78,0.46 6.52,2.75 1.74,2.29 3.02,5.75 3.84,10.39 1.25,7.16 1.46,13.51 0.62,19.05 -0.84,5.55 -1.76,9.97 -2.76,13.29 -0.49,1.72 0.31,2.68 2.39,2.86l34.31 2.58c1.6,0.13 2.58,-0.51 2.97,-1.95 1.72,-5.5 2.78,-11.59 3.19,-18.29 0.4,-6.7 -0.2,-14.61 -1.81,-23.76 -1.53,-8.75 -4.14,-16.42 -7.82,-23.01 -3.68,-6.6 -8.18,-11.98 -13.49,-16.18 -5.31,-4.2 -11.23,-7.08 -17.74,-8.68 -6.51,-1.58 -13.36,-1.75 -20.55,-0.49 -6.74,1.18 -12.51,3.35 -17.33,6.52 -4.81,3.16 -8.86,7.05 -12.15,11.66 -3.29,4.61 -5.91,9.71 -7.85,15.31 -1.94,5.59 -3.34,11.34 -4.2,17.23 -1.96,14.01 -5.16,21.4 -9.6,22.17 -6.13,1.08 -10.11,-3.69 -11.97,-14.3 -1.28,-7.29 -1.4,-14.3 -0.37,-21.04 1.02,-6.74 2.39,-12.44 4.1,-17.11 0.35,-0.75 0.27,-1.38 -0.22,-1.91 -0.49,-0.53 -1.22,-0.85 -2.18,-0.95l-35.54 -1.55zm-1043.61 525.29l5.15 15.85c-8.74,3.15 -16.53,3.64 -23.37,1.5 -6.83,-2.16 -12.75,-6.8 -17.78,-13.95 -6.22,-8.86 -8.31,-18.26 -6.28,-28.23 2.05,-9.94 8.32,-18.62 18.81,-26 11.1,-7.79 21.74,-10.99 31.91,-9.58 10.16,1.4 18.53,6.78 25.1,16.13 5.73,8.16 7.97,16.48 6.73,24.96 -0.72,5.05 -3.23,10.2 -7.51,15.47l-12.52 -11.09c2.89,-3.21 4.46,-6.77 4.71,-10.67 0.23,-3.93 -0.91,-7.66 -3.41,-11.23 -3.48,-4.95 -8.07,-7.73 -13.78,-8.3 -5.71,-0.61 -12.53,1.89 -20.47,7.48 -8.41,5.91 -13.35,11.66 -14.79,17.19 -1.44,5.56 -0.46,10.76 2.96,15.61 2.52,3.58 5.82,5.88 9.91,6.85 4.1,0.96 8.97,0.32 14.64,-1.99zm43.99 94.67l-12.22 -12.91 8.64 -17.86 -22.46 -23.73 -18.12 7.83 -11.99 -12.67 80.91 -33.03 11.98 12.66 -36.73 79.71zm2.74 -44.11l14.11 -28.96 -29.45 12.74 15.34 16.21zm3.85 49.96l53.23 -61.67 19.96 17.24c7.57,6.53 12.24,11.08 14,13.68 2.73,3.99 3.95,8.54 3.66,13.7 -0.29,5.16 -2.56,10.2 -6.8,15.11 -3.27,3.79 -6.7,6.36 -10.29,7.77 -3.6,1.39 -7.09,1.92 -10.48,1.57 -3.38,-0.36 -6.37,-1.23 -8.96,-2.65 -3.48,-1.97 -8.03,-5.38 -13.66,-10.23l-8.09 -6.99 -20.08 23.25 -12.49 -10.78zm56.73 -40.46l-15.17 17.57 6.79 5.86c4.89,4.23 8.44,6.71 10.65,7.48 2.21,0.79 4.37,0.89 6.5,0.31 2.12,-0.57 3.98,-1.76 5.57,-3.6 1.94,-2.25 2.87,-4.67 2.83,-7.26 -0.06,-2.61 -0.92,-4.95 -2.61,-7.07 -1.24,-1.54 -4.1,-4.26 -8.58,-8.12l-5.98 -5.16zm11.25 65.59l14.41 7.23c-2.05,5.05 -2.52,9.4 -1.38,13.11 1.13,3.7 3.82,6.89 8.03,9.55 4.45,2.82 8.42,4 11.87,3.55 3.46,-0.46 6,-1.96 7.6,-4.49 1.04,-1.63 1.43,-3.31 1.22,-5.06 -0.22,-1.74 -1.26,-3.79 -3.11,-6.12 -1.25,-1.6 -4.31,-4.93 -9.17,-10.02 -6.24,-6.56 -10.01,-12.13 -11.29,-16.74 -1.81,-6.46 -0.97,-12.42 2.49,-17.89 2.22,-3.51 5.3,-6.18 9.21,-7.99 3.93,-1.81 8.25,-2.33 12.99,-1.56 4.75,0.76 9.75,2.8 15.03,6.15 8.6,5.44 13.88,11.46 15.8,18.05 1.94,6.59 0.98,13.12 -2.83,19.66l-14.25 -8.35c1.66,-3.94 2.01,-7.28 1.05,-10.07 -0.95,-2.78 -3.37,-5.41 -7.25,-7.87 -4,-2.54 -7.67,-3.69 -10.98,-3.45 -2.14,0.15 -3.78,1.11 -4.92,2.9 -1.03,1.64 -1.23,3.47 -0.58,5.49 0.8,2.6 4.08,6.83 9.81,12.7 5.73,5.86 9.66,10.68 11.82,14.42 2.15,3.76 3.21,7.69 3.15,11.82 -0.05,4.12 -1.44,8.35 -4.19,12.69 -2.5,3.95 -5.93,6.96 -10.3,9.01 -4.38,2.06 -9.09,2.67 -14.15,1.8 -5.07,-0.86 -10.6,-3.19 -16.58,-6.97 -8.7,-5.51 -14.11,-11.74 -16.23,-18.72 -2.12,-6.95 -1.2,-14.56 2.75,-22.81zm91.26 -7.02l14.64 7.62 -20.38 39.16c-3.24,6.23 -5.15,10.35 -5.74,12.36 -0.92,3.28 -0.7,6.44 0.69,9.43 1.4,3.01 4.12,5.56 8.16,7.66 4.09,2.12 7.62,2.89 10.59,2.28 2.97,-0.62 5.29,-2.04 7,-4.29 1.71,-2.25 4.05,-6.23 7.03,-11.95l20.82 -40 14.63 7.62 -19.77 38c-4.52,8.68 -8.1,14.62 -10.75,17.79 -2.66,3.17 -5.68,5.44 -9.08,6.82 -3.4,1.38 -7.23,1.85 -11.53,1.48 -4.31,-0.38 -9.31,-2.04 -15.02,-5.01 -6.88,-3.57 -11.68,-7.08 -14.4,-10.52 -2.71,-3.44 -4.45,-6.98 -5.19,-10.61 -0.74,-3.64 -0.7,-7 0.1,-10.15 1.2,-4.63 3.91,-11 8.12,-19.09l20.08 -38.59zm36.45 108.87l29.11 -75.35 15.39 5.94 -24.16 62.51 38.1 14.73 -4.96 12.85 -53.49 -20.68zm136.14 41.16l-17.33 -3.96 -2.73 -19.65 -31.86 -7.27 -10.73 16.58 -17.01 -3.88 48.97 -72.38 17 3.87 13.69 86.69zm-22.21 -38.22l-4.32 -31.91 -17.44 26.94 21.76 4.97zm30.16 12.7l16.11 0.55c0.24,5.44 1.64,9.6 4.22,12.49 2.58,2.89 6.34,4.66 11.28,5.32 5.22,0.7 9.32,0.12 12.26,-1.75 2.95,-1.85 4.63,-4.28 5.03,-7.24 0.25,-1.92 -0.09,-3.61 -1.02,-5.11 -0.93,-1.49 -2.73,-2.91 -5.38,-4.27 -1.81,-0.93 -5.97,-2.68 -12.51,-5.28 -8.41,-3.35 -14.16,-6.84 -17.25,-10.48 -4.34,-5.13 -6.08,-10.88 -5.22,-17.3 0.55,-4.12 2.24,-7.83 5.03,-11.1 2.81,-3.27 6.52,-5.56 11.15,-6.85 4.63,-1.29 10.02,-1.52 16.22,-0.69 10.09,1.36 17.41,4.61 21.9,9.79 4.51,5.18 6.37,11.52 5.63,19.05l-16.43 -1.63c-0.14,-4.27 -1.22,-7.46 -3.25,-9.58 -2.03,-2.13 -5.33,-3.51 -9.88,-4.13 -4.7,-0.63 -8.51,-0.14 -11.42,1.46 -1.88,1.03 -2.98,2.58 -3.26,4.69 -0.25,1.92 0.34,3.66 1.77,5.23 1.81,2.03 6.56,4.5 14.21,7.44 7.66,2.93 13.25,5.66 16.76,8.17 3.52,2.52 6.13,5.64 7.8,9.4 1.67,3.76 2.17,8.2 1.49,13.29 -0.62,4.62 -2.48,8.79 -5.59,12.48 -3.12,3.7 -7.16,6.22 -12.12,7.54 -4.96,1.35 -10.96,1.53 -17.97,0.6 -10.2,-1.37 -17.72,-4.77 -22.56,-10.23 -4.85,-5.44 -7.18,-12.73 -7.04,-21.87zm179.61 24.82l-9.24 12.22c-4.67,-2.18 -9.18,-5.21 -13.51,-9.09 -3.23,3.01 -6.7,5.26 -10.38,6.73 -3.67,1.48 -8.06,2.25 -13.17,2.35 -10.12,0.18 -17.8,-2.54 -23.02,-8.16 -4.04,-4.33 -6.1,-9.37 -6.2,-15.12 -0.1,-5.24 1.37,-9.96 4.43,-14.19 3.03,-4.23 7.63,-7.93 13.78,-11.11 -2.85,-3.25 -5.01,-6.36 -6.46,-9.33 -1.48,-2.98 -2.23,-5.79 -2.27,-8.46 -0.09,-4.93 1.81,-9.16 5.69,-12.66 3.85,-3.51 9.46,-5.33 16.74,-5.46 7.02,-0.12 12.55,1.57 16.58,5.09 4.02,3.53 6.08,7.88 6.17,13.07 0.07,3.3 -0.85,6.45 -2.74,9.44 -1.9,2.99 -5.77,6.42 -11.62,10.26l11.48 14.87c1.28,-2.37 2.37,-5.48 3.27,-9.29l14.2 2.91c-1.31,5.03 -2.48,8.73 -3.48,11.07 -0.98,2.33 -2.07,4.29 -3.23,5.88 1.77,1.6 4.06,3.34 6.86,5.25 2.81,1.9 4.86,3.15 6.16,3.75zm-43.29 -43.6l4.14 -3.32c3.05,-2.46 4.54,-4.87 4.5,-7.25 -0.04,-2.01 -0.8,-3.7 -2.33,-5.08 -1.51,-1.39 -3.53,-2.06 -6.07,-2.01 -2.46,0.04 -4.39,0.7 -5.77,1.96 -1.36,1.28 -2.03,2.73 -2,4.37 0.04,1.93 1.25,4.24 3.65,6.95l3.89 4.39zm-5.8 17.09c-3.53,1.89 -6.17,4.14 -7.9,6.73 -1.72,2.59 -2.56,5.23 -2.52,7.88 0.07,3.38 1.21,6.13 3.45,8.2 2.22,2.1 5.17,3.12 8.87,3.05 2.43,-0.05 4.77,-0.56 6.99,-1.57 2.25,-1 4.66,-2.64 7.27,-4.93l-16.17 -19.36zm108.61 25.77l-11.41 -66.72 -23.77 4.06 -2.32 -13.57 63.7 -10.89 2.32 13.57 -23.66 4.04 11.4 66.73 -16.26 2.78zm111.69 -31.31l-16.84 5.64 -12.56 -15.35 -30.99 10.38 -0.52 19.73 -16.55 5.55 4.12 -87.3 16.52 -5.54 56.82 66.88zm-38.85 -21.07l-20.31 -24.99 -0.85 32.08 21.16 -7.09zm47.15 18.08l-33.54 -74.24 24.03 -10.86c9.11,-4.11 15.2,-6.43 18.3,-6.93 4.76,-0.8 9.41,0.01 13.97,2.45 4.56,2.43 8.17,6.6 10.84,12.52 2.06,4.57 2.96,8.76 2.72,12.61 -0.25,3.85 -1.24,7.24 -2.98,10.17 -1.74,2.91 -3.81,5.26 -6.17,7.02 -3.26,2.32 -8.26,5.01 -15.03,8.07l-9.75 4.41 12.65 28 -15.03 6.79zm-12.84 -68.49l9.55 21.15 8.18 -3.7c5.89,-2.66 9.64,-4.83 11.27,-6.5 1.64,-1.68 2.65,-3.59 3.01,-5.77 0.37,-2.17 0.07,-4.35 -0.93,-6.56 -1.23,-2.71 -3.02,-4.58 -5.4,-5.63 -2.38,-1.05 -4.87,-1.25 -7.51,-0.6 -1.93,0.47 -5.58,1.92 -10.97,4.35l-7.2 3.26zm57.56 5.45c-4.51,-6.97 -7.25,-13.51 -8.23,-19.61 -0.71,-4.48 -0.6,-9 0.3,-13.51 0.9,-4.51 2.52,-8.48 4.84,-11.9 3.11,-4.56 7.45,-8.64 13.01,-12.25 10.09,-6.53 20.19,-8.6 30.3,-6.27 10.1,2.37 18.76,9.12 25.98,20.28 7.16,11.07 9.75,21.68 7.78,31.8 -1.96,10.14 -7.98,18.46 -18.03,24.96 -10.18,6.58 -20.29,8.71 -30.32,6.37 -10.02,-2.33 -18.57,-8.95 -25.63,-19.88zm13.94 -9.66c5.01,7.76 10.61,12.47 16.79,14.16 6.17,1.68 12.01,0.75 17.52,-2.82 5.53,-3.57 8.77,-8.49 9.75,-14.75 0.96,-6.27 -1.12,-13.37 -6.26,-21.31 -5.07,-7.85 -10.58,-12.6 -16.53,-14.22 -5.94,-1.65 -11.76,-0.62 -17.48,3.08 -5.7,3.69 -9.04,8.63 -10,14.78 -0.95,6.17 1.1,13.19 6.2,21.08zm84.75 -6.98l-49.8 -64.47 12.63 -9.77 59.91 22.72 -33.38 -43.21 12.07 -9.32 49.81 64.47 -13.05 10.08 -58.86 -22.19 32.74 42.38 -12.07 9.32zm64.08 -51.54l-59.14 -56.03 41.47 -43.77 9.99 9.47 -30.12 31.8 13.14 12.44 28.01 -29.57 10 9.47 -28.02 29.57 16.03 15.17 31.22 -32.95 10 9.47 -42.58 44.93zm28.31 -69.02l8.88 -13.45c4.78,2.64 9.05,3.61 12.85,2.92 3.82,-0.68 7.29,-2.98 10.43,-6.84 3.32,-4.1 4.97,-7.89 4.92,-11.38 -0.05,-3.49 -1.23,-6.18 -3.56,-8.07 -1.51,-1.22 -3.12,-1.81 -4.89,-1.8 -1.75,0.02 -3.91,0.8 -6.45,2.36 -1.73,1.06 -5.4,3.7 -11.03,7.92 -7.24,5.43 -13.22,8.5 -17.94,9.23 -6.63,1.04 -12.45,-0.5 -17.48,-4.57 -3.22,-2.62 -5.51,-6 -6.85,-10.09 -1.33,-4.12 -1.33,-8.47 -0.01,-13.09 1.31,-4.63 3.93,-9.35 7.87,-14.2 6.43,-7.91 13.02,-12.43 19.79,-13.57 6.76,-1.14 13.14,0.57 19.18,5.14l-9.96 13.16c-3.7,-2.11 -6.99,-2.85 -9.87,-2.24 -2.87,0.63 -5.77,2.71 -8.66,6.28 -2.99,3.68 -4.57,7.18 -4.73,10.51 -0.1,2.13 0.66,3.88 2.31,5.22 1.5,1.22 3.29,1.63 5.38,1.23 2.68,-0.5 7.26,-3.25 13.76,-8.24 6.49,-5.01 11.75,-8.35 15.71,-10.04 3.99,-1.68 8.02,-2.27 12.11,-1.74 4.08,0.53 8.12,2.42 12.11,5.66 3.62,2.95 6.21,6.72 7.74,11.3 1.52,4.58 1.56,9.35 0.1,14.27 -1.44,4.93 -4.41,10.14 -8.87,15.63 -6.5,7.99 -13.32,12.63 -20.5,13.91 -7.17,1.29 -14.6,-0.53 -22.33,-5.43zm-481.64 -896.42c264.99,0 479.82,214.83 479.82,479.82 0,264.99 -214.83,479.82 -479.82,479.82 -264.99,0 -479.82,-214.83 -479.82,-479.82 0,-264.99 214.83,-479.82 479.82,-479.82z"/>
    <path class="fil4" d="M2777.37 745.43l0.27 -0.06 0 4.37 0.18 -0.02 0.25 -0.03 0.08 0 0.34 -0.04 0.01 0 0.34 -0.03 0.09 -0.01 0.25 -0.02 0.19 -0.02 0.15 -0.01 0.29 -0.03 0.06 0 0.35 -0.03 0.04 0 0.3 -0.03 0.14 -0.01 0.21 -0.02 0.23 -0.02 0.11 -0.01 0.7 -0.05 0.07 0 0.28 -0.03 0.16 -0.01 0.19 -0.01 0.26 -0.02 0.08 -0.01 0.36 -0.02 0 0 0.35 -0.02 0.1 -0.01 0.25 -0.02 0.2 -0.01 0.15 -0.01 0.3 -0.02 0.06 0 0.36 -0.02 0.04 0 0.32 -0.02 0.13 -0.01 0.22 -0.01 0.23 -0.01 0.12 -0.01 0.33 -0.02 0.03 0 0.36 -0.02 0.07 0 0.28 -0.01 0.17 -0.01 0.2 -0.01 0.26 -0.01 0.09 -0.01 0.36 -0.01 0 0 0.36 -0.02 0.1 0 0.46 -0.01 0.16 -0.01 0.3 -0.01 0.07 0 0.36 -0.02 0.04 0 0.33 -0.01 0.13 0 0.22 -0.01 0.23 0 0.13 -0.01 0.34 0 0.03 -0.01 0.36 -0.01 0.07 0 0.3 0 0.17 -0.01 0.2 0 0.26 -0.01 0.1 0 0.73 -0.01 0.1 0 0.26 0 0.2 -0.01 0.17 0 0.3 0 0.07 0 0.37 0 0.03 0 0.34 -0.01 0.13 0 0.23 0 0.24 0 0.87 0 0.07 0 0.3 0 0.18 0.01 0.2 0 0.27 0 0.1 0 0.37 0c10.09,0.1 19.7,0.9 28.45,2.27 9.12,1.42 17.32,3.46 24.16,5.96 6.39,2.34 11.54,5 15.09,7.84 3.66,2.93 7.86,6.12 7.83,9.43 0,4.49 0.09,8.93 0.06,13.44l-0.43 51.9c3.23,0.22 6.47,0.4 9.72,0.54 4.38,0.19 8.8,0.3 13.27,0.34 16.79,0.15 32.81,-0.77 47.43,-2.56 15.15,-1.85 28.75,-4.65 40.09,-8.17 10.39,-3.23 18.77,-6.92 24.46,-10.88 5.19,-3.6 8.06,-7.34 8.1,-11.04l1.09 -121.86c-3.05,2.71 -6.75,5.27 -11.06,7.62 -5.69,3.13 -12.44,5.94 -20.1,8.39 -11.7,3.74 -25.62,6.71 -41.04,8.68 -14.83,1.89 -31.04,2.87 -48.02,2.71 -17,-0.15 -33.2,-1.41 -47.97,-3.57 -15.38,-2.25 -29.25,-5.46 -40.87,-9.41 -7.6,-2.58 -14.3,-5.52 -19.94,-8.75 -4.27,-2.44 -7.92,-5.06 -10.93,-7.84l-0.55 61.48z"/>
    <path class="fil5" d="M3183.9 869.27c-4.52,-2.25 -9.79,-4.37 -15.71,-6.34l0 0c-11.34,-3.78 -24.89,-6.86 -39.96,-9.01 -14.48,-2.07 -30.41,-3.27 -47.15,-3.42 -16.76,-0.14 -32.7,0.79 -47.2,2.59 -5.03,0.63 -9.91,1.37 -14.58,2.19l1.28 -140.67c7.14,1 13.3,1.62 20.97,2.19 8.06,0.61 16.42,0.95 25.02,1.04 17.49,0.15 34.21,-0.86 49.51,-2.83 15.93,-2.06 30.32,-5.15 42.43,-9.04 6.12,-1.97 11.68,-4.17 16.6,-6.57 3.84,-1.87 7.3,-3.87 10.37,-5.99l-1.58 175.86z"/>
    <path class="fil6" d="M2948.63 636.39c2.08,0.29 4.15,0.65 6.17,1.05l0 -70.79c0,-1.22 0.99,-2.2 2.2,-2.2 1.22,0 2.2,0.98 2.2,2.2l0 71.63c6.17,1.26 11.96,2.63 17.35,4.19l0 -67.3c0,-1.22 0.98,-2.2 2.2,-2.2 1.22,0 2.2,0.98 2.2,2.2l0 68.63c1.04,0.33 2.06,0.65 3.06,1 5.32,1.78 10.11,3.73 14.29,5.77l0 -69.75c0,-1.22 0.98,-2.2 2.2,-2.2 1.21,0 2.2,0.98 2.2,2.2l0 72.06c2.1,1.2 3.99,2.41 5.67,3.66 4.98,3.71 8.02,7.68 8.73,11.78l3.31 10.39 -0.36 -10.21 0 -84.05c0,-1.22 0.99,-2.21 2.2,-2.21 1.22,0 2.2,0.99 2.2,2.21l0 103.82c0,1.22 -0.98,2.2 -2.2,2.2 -0.53,0 -1.02,-0.19 -1.4,-0.51l0 7.5c14.63,2.07 30.72,3.27 47.63,3.43 34.44,0.31 65.54,-3.85 87.99,-10.81 5.99,-1.85 11.32,-3.86 15.87,-6 3.1,-1.49 5.81,-3.03 8.09,-4.61 5.18,-3.61 8.06,-7.35 8.09,-11.05l1.09 -121.86c-3.04,2.71 -6.75,5.27 -11.06,7.63 -5.69,3.12 -12.44,5.94 -20.1,8.38 -11.69,3.74 -25.62,6.71 -41.04,8.68 -14.82,1.9 -31.04,2.87 -48.02,2.71 -17,-0.15 -33.2,-1.41 -47.97,-3.57 -15.38,-2.25 -29.25,-5.46 -40.87,-9.41 -7.6,-2.58 -14.3,-5.52 -19.94,-8.75 -4.26,-2.44 -7.92,-5.06 -10.93,-7.84l-0.82 92.02 -0.21 -0.03zm223.61 -65.33c0,-1.21 0.98,-2.2 2.2,-2.2 1.22,0 2.2,0.99 2.2,2.2l0 105.29c0,1.22 -0.98,2.2 -2.2,2.2 -1.22,0 -2.2,-0.98 -2.2,-2.2l0 -105.29zm-21.73 6.93c0,-1.22 0.98,-2.2 2.2,-2.2 1.21,0 2.2,0.98 2.2,2.2l0 105.16c0,1.22 -0.99,2.2 -2.2,2.2 -1.22,0 -2.2,-0.98 -2.2,-2.2l0 -105.16zm-21.74 4.7c0,-1.22 0.98,-2.21 2.2,-2.21 1.22,0 2.2,0.99 2.2,2.21l0 104.68c0,1.22 -0.98,2.2 -2.2,2.2 -1.22,0 -2.2,-0.98 -2.2,-2.2l0 -104.68zm-21.76 2.88c0,-1.22 0.99,-2.2 2.2,-2.2 1.22,0 2.2,0.98 2.2,2.2l0 104.01c0,1.22 -0.98,2.2 -2.2,2.2 -1.21,0 -2.2,-0.98 -2.2,-2.2l0 -104.01zm-21.73 1.45c0,-1.22 0.98,-2.2 2.2,-2.2 1.21,0 2.2,0.98 2.2,2.2l0 103.4c0,1.22 -0.99,2.2 -2.2,2.2 -1.22,0 -2.2,-0.98 -2.2,-2.2l0 -103.4zm-21.76 0.28c0,-1.21 0.98,-2.2 2.2,-2.2 1.21,0 2.2,0.99 2.2,2.2l0 103.19c0,1.22 -0.99,2.2 -2.2,2.2 -1.22,0 -2.2,-0.98 -2.2,-2.2l0 -103.19zm-21.74 -0.8c0,-1.21 0.98,-2.2 2.2,-2.2 1.22,0 2.2,0.99 2.2,2.2l0 103.44c0,1.22 -0.98,2.2 -2.2,2.2 -1.22,0 -2.2,-0.98 -2.2,-2.2l0 -103.44z"/>
    <path class="fil5" d="M3022.6 497.87c-14.67,1.86 -27.86,4.67 -38.88,8.19 -10.06,3.22 -18.17,6.9 -23.69,10.86 -5.02,3.61 -7.81,7.35 -7.85,11.08 -0.03,3.71 2.69,7.52 7.64,11.22 5.44,4.05 13.48,7.88 23.5,11.28 10.96,3.71 24.08,6.75 38.72,8.88 14.13,2.05 29.64,3.25 45.92,3.4 16.31,0.15 31.84,-0.78 45.98,-2.57 14.68,-1.86 27.86,-4.66 38.88,-8.18 10.06,-3.22 18.17,-6.9 23.69,-10.87 5.02,-3.6 7.82,-7.35 7.85,-11.07 0.04,-3.72 -2.69,-7.52 -7.64,-11.22 -5.44,-4.05 -13.48,-7.89 -23.5,-11.29 -10.96,-3.71 -24.09,-6.75 -38.72,-8.87 -14.13,-2.06 -29.64,-3.26 -45.92,-3.4 -16.3,-0.15 -31.83,0.77 -45.98,2.56z"/>
    <path class="fil7" d="M2774.54 750.05c-1.52,0.17 -3.01,0.36 -4.49,0.56 -9.15,1.24 -17.38,3.12 -24.26,5.49 -6.41,2.21 -11.61,4.77 -15.21,7.55 -3.39,2.62 -5.4,5.48 -5.73,8.49l-1.88 0 -1.56 219.23c-3.54,0.19 -7.09,0.32 -10.66,0.4 -4.04,0.09 -8.13,0.13 -12.26,0.09 -16.73,-0.15 -32.66,-1.39 -47.16,-3.51 -15.02,-2.19 -28.48,-5.31 -39.7,-9.15 -10.13,-3.46 -18.26,-7.33 -23.75,-11.4 -5.02,-3.71 -7.77,-7.51 -7.74,-11.2l2.03 -226.85c3.02,2.17 6.45,4.23 10.24,6.17 4.88,2.5 10.41,4.8 16.49,6.88 12.03,4.11 26.35,7.46 42.24,9.8 15.24,2.25 31.94,3.56 49.45,3.72 13.85,0.12 27.21,-0.49 39.74,-1.72 12.28,-1.22 23.78,-3.02 34.2,-5.33l0 0.8z"/>
    <path class="fil8" d="M2582.16 585.15l-1.09 120.32 0.36 0 -0.01 1.54c-0.04,3.71 2.77,7.5 7.9,11.2 5.61,4.05 13.92,7.9 24.28,11.31 11.29,3.72 24.83,6.76 39.92,8.9 14.58,2.05 30.58,3.26 47.39,3.41 13.84,0.12 27.14,-0.48 39.55,-1.68 12.35,-1.22 23.83,-3.03 34.08,-5.36l0 -70.9 0.11 0c0.59,-4.29 3.75,-8.4 9.03,-12.19 5.76,-4.14 14.17,-7.97 24.57,-11.29l0 0c1.05,-0.34 2.1,-0.65 3.14,-0.97 0.12,0 0.91,-0.26 1.09,-0.31l0.01 -0.01c1.05,-0.3 2.1,-0.59 3.15,-0.88l0 0c0.73,-0.2 1.45,-0.38 2.17,-0.57l0.01 0c1.12,-0.29 2.25,-0.56 3.39,-0.83l0 -0.01 0.44 -0.1 0.44 -49.4c-3.04,2.71 -6.75,5.27 -11.06,7.62 -5.69,3.13 -12.44,5.94 -20.1,8.39 -11.69,3.74 -25.62,6.71 -41.04,8.68 -14.82,1.89 -31.04,2.87 -48.02,2.71 -17,-0.15 -33.2,-1.41 -47.97,-3.57 -15.38,-2.25 -29.25,-5.46 -40.87,-9.41 -7.6,-2.58 -14.3,-5.52 -19.94,-8.75 -4.26,-2.44 -7.92,-5.06 -10.92,-7.84z"/>
    <path class="fil7" d="M2656.61 536.35c-14.67,1.86 -27.86,4.67 -38.87,8.19 -10.07,3.22 -18.17,6.9 -23.7,10.86 -5.02,3.61 -7.81,7.35 -7.85,11.08 -0.03,3.71 2.69,7.52 7.64,11.22 5.44,4.05 13.48,7.88 23.5,11.28 10.96,3.71 24.09,6.75 38.72,8.88 14.14,2.05 29.65,3.25 45.93,3.4 16.3,0.15 31.82,-0.78 45.97,-2.57 14.68,-1.86 27.86,-4.66 38.88,-8.18 10.07,-3.22 18.17,-6.9 23.69,-10.87 5.03,-3.6 7.82,-7.35 7.85,-11.07 0.04,-3.72 -2.69,-7.52 -7.64,-11.22 -5.44,-4.05 -13.48,-7.89 -23.5,-11.28 -10.96,-3.72 -24.08,-6.75 -38.71,-8.88 -14.14,-2.05 -29.65,-3.26 -45.93,-3.4 -16.3,-0.15 -31.83,0.77 -45.98,2.56z"/>
    <path class="fil9" d="M2883.15 854.77c-3.88,-0.17 -6,-0.27 -9.69,-0.53l-0.65 159.76c3.47,0.23 5.91,0.36 9.39,0.51 3.99,0.16 8,0.26 12.04,0.3 11.83,0.1 23.31,-0.35 34.19,-1.28 10.72,-0.92 20.83,-2.3 30.1,-4.09l0 -123.67 0.95 0c0.26,-4.62 3.54,-9.04 9.28,-13.09 5.88,-4.14 14.43,-7.97 24.99,-11.29 6.39,-2 13.48,-3.78 21.14,-5.28l0.34 -25.41c-3.06,2.11 -6.52,4.11 -10.35,5.98 -4.92,2.39 -10.48,4.59 -16.6,6.57 -12.11,3.88 -26.49,6.98 -42.43,9.04 -15.3,1.97 -32.02,2.98 -49.51,2.83 -4.48,-0.05 -8.89,-0.16 -13.21,-0.35l0 0z"/>
    <path class="fil10" d="M2724.46 994.29l0.01 -0.89 0.93 -111.65c1.63,1.18 3.42,2.31 5.37,3.38 3.02,1.67 6.44,3.2 10.18,4.57 7.39,2.71 16.2,4.94 25.97,6.48 9.37,1.49 19.63,2.36 30.37,2.46 10.75,0.1 21.02,-0.56 30.41,-1.87 9.78,-1.36 18.62,-3.41 26.07,-5.99 3.78,-1.31 7.21,-2.77 10.25,-4.37 1.67,-0.87 3.23,-1.8 4.67,-2.76l0 90.68 -0.48 57.2c-0.02,2.26 -1.67,4.6 -4.64,6.88 -3.37,2.59 -8.33,5.01 -14.49,7.16 -6.86,2.38 -15.09,4.27 -24.27,5.52 -8.87,1.22 -18.6,1.84 -28.81,1.75 -10.22,-0.1 -19.93,-0.92 -28.77,-2.3 -9.13,-1.43 -17.33,-3.49 -24.17,-6 -6.14,-2.26 -11.06,-4.78 -14.37,-7.43 -2.94,-2.34 -4.56,-4.71 -4.53,-6.98l0.29 -35.85z"/>
    <path class="fil11" d="M2725.93 787.13l-0.48 67.58c0.17,0.11 0.34,0.24 0.49,0.39 0.58,0.59 1.2,1.16 1.85,1.72l0 -15.87 0 -0.02c0.02,-0.81 0.35,-1.54 0.88,-2.07 0.53,-0.51 1.25,-0.84 2.07,-0.84l0 0 0.02 0 0.02 0c0.81,0.01 1.55,0.36 2.09,0.89 0.53,0.54 0.86,1.28 0.86,2.1l0 16.83 -0.01 0.02c-0.01,0.8 -0.34,1.53 -0.87,2.06 -0.14,0.14 -0.29,0.26 -0.46,0.36 1.86,1.23 3.88,2.39 6.04,3.47 0.9,0.45 1.81,0.89 2.75,1.31l0 -17.73 0.01 -0.01c0.01,-0.81 0.35,-1.54 0.87,-2.07 0.53,-0.52 1.26,-0.84 2.07,-0.84l0 -0.01 0.02 0 0.02 0.01c0.82,0.01 1.55,0.36 2.09,0.89 0.53,0.54 0.87,1.28 0.87,2.1l0 18.06 -0.01 0.02c-0.01,0.67 -0.24,1.28 -0.63,1.77 2.59,0.97 5.3,1.86 8.13,2.67l0 -17.78 0.01 -0.02c0.01,-0.81 0.34,-1.53 0.87,-2.06 0.53,-0.53 1.26,-0.85 2.07,-0.85l0.02 0 0.02 0c0.81,0.02 1.55,0.36 2.09,0.89 0.53,0.54 0.86,1.28 0.86,2.1l0 19.26c1.27,0.3 2.54,0.58 3.83,0.84 1.2,0.25 2.43,0.49 3.69,0.71l0 -18.17 0.01 -0.02c0.01,-0.8 0.35,-1.53 0.88,-2.06 0.52,-0.52 1.25,-0.84 2.07,-0.84l0 -0.01 0.02 0 0.02 0.01c0.81,0.01 1.55,0.35 2.09,0.88 0.52,0.54 0.86,1.28 0.86,2.1l0 19.07c1.28,0.18 2.57,0.35 3.87,0.51 1.19,0.14 2.39,0.27 3.61,0.38l0.01 -18.51 -0.01 0 0 -0.02 0.01 -0.02c0.01,-0.8 0.35,-1.53 0.88,-2.06 0.52,-0.52 1.25,-0.84 2.06,-0.84l0.02 0 0.02 0c0.81,0.01 1.55,0.36 2.09,0.89 0.52,0.54 0.85,1.28 0.85,2.09l0 0 -0.01 18.96c1.35,0.08 2.67,0.16 3.97,0.22l0 0c1.35,0.06 2.69,0.09 4,0.12 -0.14,-6.16 -0.44,-12.49 -0.44,-18.64 -0.01,-0.8 0.31,-1.53 0.82,-2.07 0.51,-0.53 1.23,-0.88 2.05,-0.9l0.04 0c0.81,-0.01 1.55,0.31 2.1,0.83 0.54,0.52 0.89,1.26 0.91,2.08l0.44 18.73c1.19,-0.01 2.37,-0.04 3.56,-0.07 1.14,-0.04 2.3,-0.08 3.47,-0.14 -0.21,-6.08 -0.65,-12.53 -0.65,-18.57 -0.02,-0.8 0.28,-1.53 0.8,-2.08 0.51,-0.54 1.23,-0.89 2.04,-0.92l0.04 0c0.81,-0.02 1.55,0.29 2.1,0.8l0 0.01c0.55,0.51 0.9,1.24 0.93,2.06l0.65 18.31c1.25,-0.1 2.49,-0.22 3.7,-0.35 1.29,-0.14 2.58,-0.28 3.85,-0.45l0.01 -18.22 0 0 0 -0.02 0 -0.02c0.01,-0.8 0.35,-1.53 0.88,-2.06 0.52,-0.51 1.25,-0.84 2.06,-0.84l0 0 0.02 0 0.02 0c0.81,0.01 1.55,0.36 2.09,0.89 0.52,0.54 0.86,1.28 0.86,2.09l-0.01 0 -0.01 17.31c1.17,-0.2 2.37,-0.42 3.57,-0.65 1.32,-0.26 2.65,-0.53 3.96,-0.83l0.02 -17.44 -0.01 0 0 -0.02 0.01 -0.02c0.01,-0.81 0.34,-1.53 0.87,-2.06 0.53,-0.52 1.26,-0.85 2.06,-0.85l0.02 0 0.02 0.01c0.82,0.01 1.55,0.35 2.09,0.89 0.53,0.53 0.86,1.27 0.86,2.09l-0.01 0 -0.01 15.92c1.19,-0.33 2.38,-0.67 3.56,-1.05 1.36,-0.42 2.69,-0.87 3.96,-1.32l0.01 -17.7 0 0 0 -0.02 0 -0.02c0.01,-0.81 0.35,-1.53 0.88,-2.06 0.52,-0.52 1.25,-0.84 2.06,-0.84l0 -0.01 0.02 0 0.02 0.01c0.81,0.01 1.55,0.35 2.09,0.89 0.53,0.53 0.86,1.27 0.86,2.09l-0.01 0 -0.01 15.31c2.73,-1.21 5.32,-2.54 7.75,-3.98l0.6 -0.36c-0.53,-0.54 -0.86,-1.27 -0.86,-2.09l0.01 0 0.03 -16.05 -0.01 0 0 -0.02 0.01 -0.02c0.01,-0.8 0.34,-1.53 0.87,-2.06 0.53,-0.52 1.26,-0.84 2.06,-0.84l0.03 0 0.02 0.01c0.81,0.01 1.54,0.35 2.08,0.88 0.53,0.54 0.86,1.28 0.86,2.09l-0.01 0 -0.02 14.62c0.78,-0.61 1.53,-1.23 2.25,-1.87 0.07,-0.07 0.16,-0.13 0.23,-0.19l0.57 -67.86c-1.68,1.46 -3.63,2.84 -5.83,4.14 -3.53,2.1 -7.7,3.97 -12.41,5.59 -7.18,2.48 -15.75,4.44 -25.24,5.75 -9.09,1.25 -19.06,1.89 -29.48,1.8 -10.43,-0.1 -20.38,-0.94 -29.45,-2.37 -9.48,-1.49 -18,-3.62 -25.15,-6.24 -4.69,-1.71 -8.83,-3.67 -12.32,-5.83 -1.95,-1.19 -3.69,-2.45 -5.21,-3.77zm-0.53 75.4l-0.04 5.15c0.66,1.64 2.1,3.29 4.22,4.94 3.39,2.63 8.41,5.14 14.68,7.35 6.87,2.44 15.11,4.43 24.31,5.83 8.91,1.36 18.66,2.15 28.9,2.25 10.26,0.1 20.04,-0.51 28.95,-1.67 9.22,-1.23 17.49,-3.06 24.41,-5.36 6.31,-2.1 11.37,-4.51 14.8,-7.07 3.03,-2.27 4.72,-4.61 4.73,-6.89l0.04 -3.51c-7.77,5.71 -17.73,10.01 -28.86,12.98 -13.42,3.57 -28.56,5.24 -43.59,5.13 -15.85,-0.12 -31.59,-2.21 -45.08,-6.09 -11,-3.16 -20.54,-7.54 -27.47,-13.02z"/>
    <path class="fil12" d="M2962.7 904.95l-0.94 105.96c0.15,0.06 0.31,0.13 0.46,0.21 35.2,18.55 74.74,27.93 115,28.98 41.99,1.1 84.77,-6.81 124.31,-22.77l0.12 -0.06 0.99 -110.17c-3.05,2.72 -6.75,5.28 -11.06,7.63 -5.69,3.13 -12.45,5.95 -20.1,8.39 -11.7,3.73 -25.62,6.71 -41.04,8.68 -14.83,1.89 -31.05,2.86 -48.02,2.71 -17,-0.15 -33.2,-1.41 -47.97,-3.57 -15.38,-2.25 -29.25,-5.46 -40.88,-9.41 -7.6,-2.58 -14.3,-5.52 -19.94,-8.75 -4.26,-2.44 -7.91,-5.06 -10.92,-7.84zm-1.04 115.76l-0.04 4.56 0.36 0.01 -0.02 1.53c-0.03,3.71 2.78,7.5 7.9,11.2 5.61,4.05 13.92,7.9 24.28,11.31 11.3,3.72 24.84,6.76 39.93,8.89 14.58,2.06 30.57,3.27 47.39,3.41 16.78,0.15 32.81,-0.77 47.43,-2.56 15.15,-1.86 28.74,-4.65 40.09,-8.17 10.39,-3.23 18.77,-6.91 24.46,-10.88 5.19,-3.6 8.06,-7.34 8.1,-11.04l0.02 -2.23c-39.7,15.54 -82.51,23.22 -124.55,22.12 -40.27,-1.07 -79.84,-10.18 -115.34,-28.15z"/>
    <path class="fil10" d="M2771.13 753.67c-9.06,1.22 -17.21,3.06 -24.03,5.37 -6.21,2.1 -11.19,4.5 -14.56,7.05 -2.98,2.27 -4.65,4.62 -4.67,6.91 -0.02,2.29 1.61,4.67 4.56,7 3.33,2.63 8.26,5.12 14.43,7.33 6.78,2.44 14.9,4.43 23.95,5.82 8.75,1.35 18.36,2.14 28.45,2.24 10.09,0.09 19.71,-0.51 28.49,-1.69 9.07,-1.22 17.21,-3.05 24.03,-5.36 6.21,-2.1 11.19,-4.5 14.56,-7.06 2.98,-2.27 4.65,-4.61 4.67,-6.9 0.02,-2.3 -1.6,-4.67 -4.56,-7.01 -3.33,-2.62 -8.26,-5.12 -14.43,-7.33 -6.77,-2.44 -14.89,-4.43 -23.95,-5.82 -8.75,-1.35 -18.36,-2.13 -28.45,-2.23 -10.09,-0.1 -19.71,0.51 -28.49,1.68z"/>
    <path class="fil9" d="M2852.39 638.03c-14.68,1.86 -27.87,4.66 -38.89,8.19 -10.06,3.21 -18.17,6.9 -23.69,10.86 -5.02,3.6 -7.81,7.35 -7.85,11.07 -0.03,3.72 2.69,7.53 7.64,11.22 5.44,4.05 13.48,7.89 23.5,11.29 10.96,3.71 24.09,6.75 38.72,8.87 14.14,2.06 29.65,3.26 45.93,3.41 16.29,0.14 31.82,-0.78 45.97,-2.57 14.67,-1.86 27.86,-4.66 38.88,-8.19 10.06,-3.21 18.17,-6.9 23.69,-10.86 5.02,-3.6 7.81,-7.35 7.85,-11.08 0.04,-3.71 -2.69,-7.52 -7.64,-11.21 -5.44,-4.05 -13.48,-7.89 -23.5,-11.29 -10.96,-3.71 -24.09,-6.75 -38.72,-8.88 -14.14,-2.05 -29.65,-3.25 -45.92,-3.4 -16.3,-0.14 -31.83,0.78 -45.97,2.57z"/>
    <path class="fil13" d="M3034.26 856.16c-14.94,1.86 -28.37,4.66 -39.57,8.18 -10.26,3.23 -18.51,6.91 -24.13,10.87 -5.12,3.6 -7.95,7.35 -7.99,11.07 -0.04,3.71 2.74,7.51 7.78,11.21 5.55,4.06 13.73,7.9 23.92,11.29 11.14,3.71 24.51,6.75 39.42,8.88 14.38,2.05 30.17,3.25 46.74,3.4 16.56,0.15 32.37,-0.78 46.8,-2.57 14.94,-1.86 28.37,-4.67 39.57,-8.19 10.26,-3.22 18.51,-6.91 24.13,-10.86 5.12,-3.61 7.95,-7.36 7.99,-11.07 0.03,-3.71 -2.74,-7.52 -7.78,-11.22 -5.54,-4.05 -13.72,-7.89 -23.93,-11.29 -11.13,-3.7 -24.5,-6.75 -39.41,-8.87 -14.39,-2.06 -30.17,-3.26 -46.74,-3.41 -16.56,-0.14 -32.37,0.79 -46.8,2.58z"/>
   </g>
  </g>
  <path class="fil14" d="M6230.68 339.55l0 18.77c17.03,1.04 31.01,7.04 41.7,18.07 10.77,11.11 16.16,24.75 16.16,41.09 0,17.2 -5.73,31.61 -17.2,43.26 -11.47,11.64 -25.72,17.46 -42.75,17.46 -16.5,0 -30.31,-5.91 -41.52,-17.64 -11.2,-11.73 -16.85,-26.32 -16.85,-43.61 0,-18.07 5.47,-34.05 16.42,-48.04 10.85,-13.98 25.62,-23.71 44.04,-29.36zm-138.63 0.52l0 18.24c16.93,1.04 30.66,7.04 41.34,18.07 10.68,11.11 15.99,24.75 15.99,41.09 0,17.2 -5.73,31.61 -17.2,43.26 -11.46,11.64 -25.71,17.46 -42.74,17.46 -16.5,0 -30.31,-5.82 -41.52,-17.55 -11.21,-11.72 -16.85,-26.32 -16.85,-43.61 0,-17.98 5.47,-33.96 16.5,-47.95 11.03,-13.9 25.89,-23.54 44.48,-29.01z"/>
  <path id="1" class="fil14" d="M6474.16 574.34l0 -91.21c20.85,0 31.28,-7.91 31.28,-23.8 0,-14.51 -7.99,-21.81 -24.06,-21.81 -16.24,0 -24.41,9.99 -24.41,29.88l0 227.07 -103.19 0 0 -216.38c0,-22.41 2.25,-40.73 6.77,-55.07 4.43,-14.33 12.16,-27.63 23.01,-40.04 12.25,-13.72 27.54,-24.59 45.87,-32.49 18.33,-7.99 37.26,-11.98 56.72,-11.98 35.35,0 65.06,11.9 89.04,35.62 24.06,23.71 36.05,53.16 36.05,88.25 0,34.14 -10.77,61.76 -32.31,82.95 -19.64,19.54 -49.34,29.27 -88.95,29.27l-15.81 -0.26z"/>
  <path id="2" class="fil14" d="M6785.82 438.13l0 101.81c-6.6,-3.65 -12.59,-5.47 -17.98,-5.47 -17.2,0 -25.8,13.21 -25.8,39.61l0 120.4 -95.37 0 0 -138.72c0,-36.65 9.98,-65.84 30.05,-87.64 19.98,-21.81 46.73,-32.66 80.09,-32.66 7.47,0 17.11,0.86 29.01,2.69z"/>
  <path id="3" class="fil14" d="M6934.36 435.45c36.05,0 66.88,12.94 92.59,38.83 25.8,25.89 38.66,56.9 38.66,93.03 0,36.65 -13.03,67.93 -39.09,93.72 -26.15,25.8 -57.59,38.66 -94.42,38.66 -36.92,0 -68.44,-12.94 -94.59,-38.83 -26.15,-25.89 -39.26,-57.07 -39.26,-93.55 0,-37.18 13.12,-68.44 39.26,-93.82 26.15,-25.36 58.46,-38.04 96.86,-38.04zm-2.53 93.81c-10.24,0 -18.84,3.73 -25.97,11.12 -7.12,7.38 -10.68,16.42 -10.68,27.19 0,10.51 3.56,19.54 10.78,27.1 7.2,7.47 15.8,11.2 25.88,11.2 10.17,0 18.85,-3.73 26.06,-11.2 7.2,-7.56 10.77,-16.6 10.77,-27.1 0,-10.77 -3.56,-19.81 -10.68,-27.19 -7.12,-7.39 -15.81,-11.12 -26.15,-11.12z"/>
  <path id="4" class="fil14" d="M7190 346.84l0 97.47 42.74 0 0 100.59 -42.74 0c0,20.15 3.12,34.04 9.47,41.69 6.34,7.64 17.98,11.47 34.83,11.47l0 99.98c-4.95,0.08 -8.6,0.08 -10.94,0.08 -21.55,0 -41.87,-5.04 -60.89,-15.02 -19.11,-9.99 -34.4,-23.55 -45.95,-40.66 -14.59,-21.8 -21.89,-50.81 -21.89,-86.86l0 -208.74 95.38 0z"/>
  <path id="5" class="fil14" d="M7528.86 582.94l-144.28 0c-2,-7.3 -3.04,-13.89 -3.04,-19.97 0,-8.43 1.47,-16.76 4.34,-24.85l48.38 0c-3.39,-19.1 -13.98,-28.67 -31.79,-28.67 -11.9,0 -21.54,5.04 -29.01,15.2 -7.47,10.08 -11.21,23.11 -11.21,38.92 0,16.5 3.56,29.79 10.78,40.04 7.2,10.16 16.67,15.29 28.4,15.29 9.47,0 18.67,-4.77 27.45,-14.33l54.21 65.24c-25.28,19.89 -53.43,29.88 -84.35,29.88 -37.61,0 -69.31,-12.68 -94.94,-37.96 -25.62,-25.37 -38.49,-56.64 -38.49,-94.08 0,-37.18 12.95,-68.62 38.83,-94.25 25.97,-25.62 57.76,-38.48 95.46,-38.48 36.83,0 67.84,12.51 92.85,37.61 25.11,25.02 37.62,55.85 37.62,92.6 0,3.73 -0.44,9.64 -1.22,17.8z"/>
  <path id="6" class="fil14" d="M7703.72 589.8l0 87.38c-13.72,4.96 -26.84,7.39 -39.35,7.39 -30.67,0 -56.64,-11.65 -77.83,-34.84 -21.28,-23.19 -31.88,-51.6 -31.88,-85.13 0,-36.31 12.77,-66.88 38.31,-91.81 25.62,-24.93 56.98,-37.35 94.25,-37.35 19.81,0 38.74,3.99 56.89,11.98 18.07,7.91 32.31,18.59 42.65,32.05 17.29,22.15 25.89,54.37 25.89,96.59l0 83.47c0,45.35 -12.85,82.09 -38.48,110.32 -25.62,28.23 -58.98,42.39 -100.15,42.39 -12.52,0 -28.32,-3.12 -47.43,-9.47l0 -86.43c12.33,6.6 24.75,9.9 37.35,9.9 17.03,0 30.14,-5.64 39.44,-16.85 9.29,-11.21 13.89,-27.36 13.89,-48.29l0 -95.46c0,-26.67 -10.59,-40.05 -31.79,-40.05 -9.04,0 -16.93,3.56 -23.72,10.6 -6.77,7.04 -10.16,15.12 -10.16,24.32 0,9.64 3.22,17.72 9.73,24.23 6.43,6.43 14.42,9.65 23.98,9.65 6.43,0 12.51,-1.56 18.41,-4.6z"/>
  <path id="7" class="fil14" d="M7964.13 440.66l0 253.81 -95.37 0 0 -253.81 95.37 0zm-47.16 -113.1c12.94,0 24.06,4.52 33.53,13.64 9.47,9.03 14.15,19.81 14.15,32.22 0,13.21 -4.43,24.15 -13.38,32.58 -8.94,8.51 -20.32,12.77 -34.31,12.77 -13.9,0 -25.37,-4.26 -34.32,-12.77 -8.94,-8.43 -13.38,-19.37 -13.38,-32.58 0,-12.41 4.7,-23.19 14.16,-32.22 9.47,-9.12 20.58,-13.64 33.53,-13.64z"/>
  <path id="8" class="fil14" d="M8269.38 582.94l-144.28 0c-2,-7.3 -3.04,-13.89 -3.04,-19.97 0,-8.43 1.47,-16.76 4.34,-24.85l48.38 0c-3.39,-19.1 -13.98,-28.67 -31.79,-28.67 -11.9,0 -21.54,5.04 -29.01,15.2 -7.47,10.08 -11.21,23.11 -11.21,38.92 0,16.5 3.56,29.79 10.78,40.04 7.2,10.16 16.67,15.29 28.4,15.29 9.47,0 18.67,-4.77 27.45,-14.33l54.21 65.24c-25.28,19.89 -53.43,29.88 -84.35,29.88 -37.61,0 -69.31,-12.68 -94.94,-37.96 -25.62,-25.37 -38.49,-56.64 -38.49,-94.08 0,-37.18 12.95,-68.62 38.83,-94.25 25.97,-25.62 57.76,-38.48 95.46,-38.48 36.83,0 67.84,12.51 92.85,37.61 25.11,25.02 37.62,55.85 37.62,92.6 0,3.73 -0.44,9.64 -1.22,17.8z"/>
  <path id="9" class="fil14" d="M8534.92 694.47l-95.37 0 0 -143.33c0,-14.59 -5.91,-21.89 -17.81,-21.89 -11.72,0 -17.64,7.3 -17.64,21.89l0 143.33 -95.37 0 0 -141.59c0,-33.02 10.94,-60.89 32.83,-83.48 21.89,-22.67 48.65,-33.96 80.44,-33.96 36.22,0 65.32,13.12 87.21,39.43 17.11,20.5 25.71,49.08 25.71,85.65l0 133.94z"/>
  <path id="10" class="fil14" d="M8746.78 346.84l95.38 0 0 211.69c0,38.92 -10.16,70.54 -30.57,95.03 -11.73,14.07 -26.67,25.28 -44.74,33.61 -18.07,8.34 -36.65,12.51 -55.68,12.51 -37.87,0 -69.84,-12.77 -95.81,-38.22 -25.97,-25.46 -39,-56.72 -39,-93.82 0,-35.78 12.95,-66.8 38.74,-92.95 25.8,-26.14 56.29,-39.26 91.65,-39.26 5.56,0 14.07,0.51 25.45,1.65l0 104.85c-7.81,-6 -15.63,-9.04 -23.44,-9.04 -9.91,0 -18.34,3.65 -25.37,10.86 -7.04,7.2 -10.59,15.89 -10.59,26.15 0,9.81 3.65,18.33 10.94,25.36 7.39,7.04 16.07,10.59 26.33,10.59 24.49,0 36.74,-16.93 36.74,-50.89l0 -208.13z"/>
  <path id="11" class="fil14" d="M9012.51 435.45c36.05,0 66.88,12.94 92.59,38.83 25.8,25.89 38.66,56.9 38.66,93.03 0,36.65 -13.03,67.93 -39.09,93.72 -26.15,25.8 -57.59,38.66 -94.42,38.66 -36.92,0 -68.44,-12.94 -94.59,-38.83 -26.15,-25.89 -39.26,-57.07 -39.26,-93.55 0,-37.18 13.12,-68.44 39.26,-93.82 26.15,-25.36 58.46,-38.04 96.86,-38.04zm-2.53 93.81c-10.24,0 -18.84,3.73 -25.97,11.12 -7.12,7.38 -10.68,16.42 -10.68,27.19 0,10.51 3.56,19.54 10.78,27.1 7.2,7.47 15.8,11.2 25.88,11.2 10.17,0 18.85,-3.73 26.06,-11.2 7.2,-7.56 10.77,-16.6 10.77,-27.1 0,-10.77 -3.56,-19.81 -10.68,-27.19 -7.12,-7.39 -15.81,-11.12 -26.15,-11.12z"/>
  <path id="12" class="fil14" d="M9562.96 582.94l-144.28 0c-2,-7.3 -3.04,-13.89 -3.04,-19.97 0,-8.43 1.47,-16.76 4.34,-24.85l48.38 0c-3.39,-19.1 -13.98,-28.67 -31.79,-28.67 -11.9,0 -21.54,5.04 -29.01,15.2 -7.47,10.08 -11.21,23.11 -11.21,38.92 0,16.5 3.56,29.79 10.78,40.04 7.2,10.16 16.67,15.29 28.4,15.29 9.47,0 18.67,-4.77 27.45,-14.33l54.21 65.24c-25.28,19.89 -53.43,29.88 -84.35,29.88 -37.61,0 -69.31,-12.68 -94.94,-37.96 -25.62,-25.37 -38.49,-56.64 -38.49,-94.08 0,-37.18 12.95,-68.62 38.83,-94.25 25.97,-25.62 57.76,-38.48 95.46,-38.48 36.83,0 67.84,12.51 92.85,37.61 25.11,25.02 37.62,55.85 37.62,92.6 0,3.73 -0.44,9.64 -1.22,17.8z"/>
  <polygon id="13" class="fil14" points="9697.68,346.84 9697.68,694.47 9602.31,694.47 9602.31,346.84 "/>
  <polygon id="14" class="fil14" points="5618.73,936.73 5467.32,1304.17 5316.96,936.73 5436.58,936.73 5468.37,1045.31 5503.46,936.73 "/>
  <path id="15" class="fil14" d="M5775.44 1189.16l0 98.5c-7.82,1.3 -14.94,1.91 -21.37,1.91 -38.13,0 -69.84,-12.59 -95.29,-37.7 -25.45,-25.1 -38.13,-56.54 -38.13,-94.42 0,-36.83 12.85,-68.01 38.57,-93.64 25.62,-25.62 56.89,-38.48 93.72,-38.48 41,0 73.31,11.98 97.03,36.05 23.63,24.06 35.44,56.89 35.44,98.5l0 124.47 -95.37 0 0 -117.62c0,-13.38 -3.22,-24.06 -9.73,-32.05 -6.43,-7.91 -15.2,-11.9 -26.15,-11.9 -9.91,0 -18.51,3.65 -25.71,10.95 -7.21,7.3 -10.86,15.89 -10.86,25.89 0,10.51 3.3,19.2 9.81,25.97 6.6,6.77 14.94,10.16 25.02,10.16 8.25,0 15.99,-2.17 23.02,-6.6z"/>
  <polygon id="16" class="fil14" points="6035.94,936.73 6035.94,1284.36 5940.57,1284.36 5940.57,936.73 "/>
  <path id="17" class="fil14" d="M6211.93 1025.34c36.05,0 66.88,12.94 92.59,38.83 25.8,25.89 38.66,56.9 38.66,93.03 0,36.65 -13.03,67.93 -39.09,93.72 -26.15,25.8 -57.59,38.66 -94.42,38.66 -36.92,0 -68.44,-12.94 -94.59,-38.83 -26.15,-25.89 -39.26,-57.07 -39.26,-93.55 0,-37.18 13.12,-68.44 39.26,-93.82 26.15,-25.36 58.46,-38.04 96.86,-38.04zm-2.53 93.81c-10.24,0 -18.84,3.73 -25.97,11.12 -7.12,7.38 -10.68,16.42 -10.68,27.19 0,10.51 3.56,19.54 10.78,27.1 7.2,7.47 15.8,11.2 25.88,11.2 10.17,0 18.85,-3.73 26.06,-11.2 7.2,-7.56 10.77,-16.6 10.77,-27.1 0,-10.77 -3.56,-19.81 -10.68,-27.19 -7.12,-7.39 -15.81,-11.12 -26.15,-11.12z"/>
  <path id="18" class="fil14" d="M6521.78 1028.02l0 101.81c-6.6,-3.65 -12.59,-5.47 -17.98,-5.47 -17.2,0 -25.8,13.21 -25.8,39.61l0 120.4 -95.37 0 0 -138.72c0,-36.65 9.98,-65.84 30.05,-87.64 19.98,-21.81 46.73,-32.66 80.09,-32.66 7.47,0 17.11,0.86 29.01,2.69z"/>
  <path id="19" class="fil14" d="M6836.47 936.73l95.38 0 0 211.69c0,38.92 -10.16,70.54 -30.57,95.03 -11.73,14.07 -26.67,25.28 -44.74,33.61 -18.07,8.34 -36.65,12.51 -55.68,12.51 -37.87,0 -69.84,-12.77 -95.81,-38.22 -25.97,-25.46 -39,-56.72 -39,-93.82 0,-35.78 12.95,-66.8 38.74,-92.95 25.8,-26.14 56.29,-39.26 91.65,-39.26 5.56,0 14.07,0.51 25.45,1.65l0 104.85c-7.81,-6 -15.63,-9.04 -23.44,-9.04 -9.91,0 -18.34,3.65 -25.37,10.86 -7.04,7.2 -10.59,15.89 -10.59,26.15 0,9.81 3.65,18.33 10.94,25.36 7.39,7.04 16.07,10.59 26.33,10.59 24.49,0 36.74,-16.93 36.74,-50.89l0 -208.13z"/>
  <path id="20" class="fil14" d="M7231.19 1172.83l-144.28 0c-2,-7.3 -3.04,-13.89 -3.04,-19.97 0,-8.43 1.47,-16.76 4.34,-24.85l48.38 0c-3.39,-19.1 -13.98,-28.67 -31.79,-28.67 -11.9,0 -21.54,5.04 -29.01,15.2 -7.47,10.08 -11.21,23.11 -11.21,38.92 0,16.5 3.56,29.79 10.78,40.04 7.2,10.16 16.67,15.29 28.4,15.29 9.47,0 18.67,-4.77 27.45,-14.33l54.21 65.24c-25.28,19.89 -53.43,29.88 -84.35,29.88 -37.61,0 -69.31,-12.68 -94.94,-37.96 -25.62,-25.37 -38.49,-56.64 -38.49,-94.08 0,-37.18 12.95,-68.62 38.83,-94.25 25.97,-25.62 57.76,-38.48 95.46,-38.48 36.83,0 67.84,12.51 92.85,37.61 25.11,25.02 37.62,55.85 37.62,92.6 0,3.73 -0.44,9.64 -1.22,17.8z"/>
  <path id="21" class="fil14" d="M7485.78 936.73l0 97.47 42.74 0 0 100.59 -42.74 0c0,20.15 3.12,34.04 9.47,41.69 6.34,7.64 17.98,11.47 34.83,11.47l0 99.98c-4.95,0.08 -8.6,0.08 -10.94,0.08 -21.55,0 -41.87,-5.04 -60.89,-15.02 -19.11,-9.99 -34.4,-23.55 -45.95,-40.66 -14.59,-21.8 -21.89,-50.81 -21.89,-86.86l0 -208.74 95.38 0z"/>
  <path id="22" class="fil14" d="M7575.17 1034.2l95.37 0 0 143.33c0,14.59 5.91,21.88 17.81,21.88 11.72,0 17.64,-7.29 17.64,-21.88l0 -143.33 95.37 0 0 141.5c0,33.01 -10.95,60.8 -32.83,83.47 -21.89,22.68 -48.65,34.05 -80.35,34.05 -36.13,0 -65.24,-13.2 -87.3,-39.53 -17.11,-20.58 -25.71,-49.07 -25.71,-85.64l0 -133.86z"/>
  <path id="23" class="fil14" d="M8107.55 1164.23l0 -91.21c20.85,0 31.28,-7.91 31.28,-23.8 0,-14.51 -7.99,-21.81 -24.06,-21.81 -16.24,0 -24.41,9.99 -24.41,29.88l0 227.07 -103.19 0 0 -216.38c0,-22.41 2.25,-40.73 6.77,-55.07 4.43,-14.33 12.16,-27.63 23.01,-40.04 12.25,-13.72 27.54,-24.59 45.87,-32.49 18.33,-7.99 37.26,-11.98 56.72,-11.98 35.35,0 65.06,11.9 89.04,35.62 24.06,23.71 36.05,53.16 36.05,88.25 0,34.14 -10.77,61.76 -32.31,82.95 -19.64,19.54 -49.34,29.27 -88.95,29.27l-15.81 -0.26z"/>
  <path id="24" class="fil14" d="M8419.22 1028.02l0 101.81c-6.6,-3.65 -12.59,-5.47 -17.98,-5.47 -17.2,0 -25.8,13.21 -25.8,39.61l0 120.4 -95.37 0 0 -138.72c0,-36.65 9.98,-65.84 30.05,-87.64 19.98,-21.81 46.73,-32.66 80.09,-32.66 7.47,0 17.11,0.86 29.01,2.69z"/>
  <path id="25" class="fil14" d="M8567.76 1025.34c36.05,0 66.88,12.94 92.59,38.83 25.8,25.89 38.66,56.9 38.66,93.03 0,36.65 -13.03,67.93 -39.09,93.72 -26.15,25.8 -57.59,38.66 -94.42,38.66 -36.92,0 -68.44,-12.94 -94.59,-38.83 -26.15,-25.89 -39.26,-57.07 -39.26,-93.55 0,-37.18 13.12,-68.44 39.26,-93.82 26.15,-25.36 58.46,-38.04 96.86,-38.04zm-2.53 93.81c-10.24,0 -18.84,3.73 -25.97,11.12 -7.12,7.38 -10.68,16.42 -10.68,27.19 0,10.51 3.56,19.54 10.78,27.1 7.2,7.47 15.8,11.2 25.88,11.2 10.17,0 18.85,-3.73 26.06,-11.2 7.2,-7.56 10.77,-16.6 10.77,-27.1 0,-10.77 -3.56,-19.81 -10.68,-27.19 -7.12,-7.39 -15.81,-11.12 -26.15,-11.12z"/>
  <path id="26" class="fil14" d="M8894.79 936.73l95.38 0 0 211.69c0,38.92 -10.16,70.54 -30.57,95.03 -11.73,14.07 -26.67,25.28 -44.74,33.61 -18.07,8.34 -36.65,12.51 -55.68,12.51 -37.87,0 -69.84,-12.77 -95.81,-38.22 -25.97,-25.46 -39,-56.72 -39,-93.82 0,-35.78 12.95,-66.8 38.74,-92.95 25.8,-26.14 56.29,-39.26 91.65,-39.26 5.56,0 14.07,0.51 25.45,1.65l0 104.85c-7.81,-6 -15.63,-9.04 -23.44,-9.04 -9.91,0 -18.34,3.65 -25.37,10.86 -7.04,7.2 -10.59,15.89 -10.59,26.15 0,9.81 3.65,18.33 10.94,25.36 7.39,7.04 16.07,10.59 26.33,10.59 24.49,0 36.74,-16.93 36.74,-50.89l0 -208.13z"/>
  <path id="27" class="fil14" d="M9040.04 1034.2l95.37 0 0 143.33c0,14.59 5.91,21.88 17.81,21.88 11.72,0 17.64,-7.29 17.64,-21.88l0 -143.33 95.37 0 0 141.5c0,33.01 -10.95,60.8 -32.83,83.47 -21.89,22.68 -48.65,34.05 -80.35,34.05 -36.13,0 -65.24,-13.2 -87.3,-39.53 -17.11,-20.58 -25.71,-49.07 -25.71,-85.64l0 -133.86z"/>
  <path id="28" class="fil14" d="M9477.57 1167.53l94.42 -3.56c-2.69,36.57 -16.33,66.71 -40.91,90.25 -24.59,23.54 -54.55,35.35 -89.81,35.35 -37.36,0 -68.8,-12.94 -94.51,-38.92 -25.72,-25.97 -38.57,-57.76 -38.57,-95.37 0,-35.79 12.95,-66.37 38.92,-91.81 25.97,-25.46 57.07,-38.13 93.38,-38.13 31.71,0 59.68,9.98 83.99,29.97 24.24,20.07 39.35,45.51 45.26,76.53l-96.42 3.56c-8.35,-10.86 -18.85,-16.25 -31.54,-16.25 -10.85,0 -19.81,3.56 -26.76,10.68 -6.94,7.13 -10.42,16.16 -10.42,27.02 0,11.03 3.65,20.24 11.03,27.71 7.39,7.47 16.6,11.2 27.63,11.2 16.07,0 27.53,-9.37 34.32,-28.23z"/>
  <path id="29" class="fil14" d="M9698.29 936.73l0 97.47 42.74 0 0 100.59 -42.74 0c0,20.15 3.12,34.04 9.47,41.69 6.34,7.64 17.98,11.47 34.83,11.47l0 99.98c-4.95,0.08 -8.6,0.08 -10.94,0.08 -21.55,0 -41.87,-5.04 -60.89,-15.02 -19.11,-9.99 -34.4,-23.55 -45.95,-40.66 -14.59,-21.8 -21.89,-50.81 -21.89,-86.86l0 -208.74 95.38 0z"/>
  <path id="30" class="fil14" d="M9908.16 1025.34c36.05,0 66.88,12.94 92.59,38.83 25.8,25.89 38.66,56.9 38.66,93.03 0,36.65 -13.03,67.93 -39.09,93.72 -26.15,25.8 -57.59,38.66 -94.42,38.66 -36.92,0 -68.44,-12.94 -94.59,-38.83 -26.15,-25.89 -39.26,-57.07 -39.26,-93.55 0,-37.18 13.12,-68.44 39.26,-93.82 26.15,-25.36 58.46,-38.04 96.86,-38.04zm-2.53 93.81c-10.24,0 -18.84,3.73 -25.97,11.12 -7.12,7.38 -10.68,16.42 -10.68,27.19 0,10.51 3.56,19.54 10.78,27.1 7.2,7.47 15.8,11.2 25.88,11.2 10.17,0 18.85,-3.73 26.06,-11.2 7.2,-7.56 10.77,-16.6 10.77,-27.1 0,-10.77 -3.56,-19.81 -10.68,-27.19 -7.12,-7.39 -15.81,-11.12 -26.15,-11.12z"/>
  <path id="31" class="fil14" d="M10147.12 1068.07l0 -18.67c-17.02,-0.96 -31,-6.95 -41.69,-17.9 -10.78,-10.95 -16.16,-24.59 -16.16,-40.91 0,-17.11 5.73,-31.54 17.2,-43.18 11.47,-11.64 25.71,-17.46 42.74,-17.46 16.5,0 30.32,5.82 41.52,17.54 11.21,11.73 16.86,26.33 16.86,43.61 0,17.98 -5.47,33.97 -16.42,47.96 -10.86,13.89 -25.54,23.54 -44.05,29.01zm138.64 0l0 -18.67c-16.93,-0.96 -30.66,-6.95 -41.35,-17.9 -10.68,-10.95 -15.98,-24.59 -15.98,-40.91 0,-17.11 5.73,-31.54 17.2,-43.18 11.47,-11.64 25.72,-17.46 42.75,-17.46 16.5,0 30.31,5.82 41.52,17.54 11.2,11.73 16.85,26.33 16.85,43.61 0,17.98 -5.47,33.97 -16.5,47.96 -11.03,13.89 -25.89,23.54 -44.48,29.01z"/>
 </g>
</svg>
