<?xml version="1.0" encoding="UTF-8"?>
<!DOCTYPE svg PUBLIC "-//W3C//DTD SVG 1.1//EN" "http://www.w3.org/Graphics/SVG/1.1/DTD/svg11.dtd">
<!-- Creator: CorelDRAW 2018 (64 Bit Versión de evaluación) -->
<svg xmlns="http://www.w3.org/2000/svg" xml:space="preserve" width="102.447mm" height="16.9334mm" version="1.1" style="shape-rendering:geometricPrecision; text-rendering:geometricPrecision; image-rendering:optimizeQuality; fill-rule:evenodd; clip-rule:evenodd"
viewBox="0 0 8878.16 1467.47"
 xmlns:xlink="http://www.w3.org/1999/xlink">
 <defs>
  <style type="text/css">
   <![CDATA[
    .fil0 {fill:none}
    .fil12 {fill:#ED3237}
    .fil4 {fill:#DBA438}
    .fil8 {fill:#7A2D2E}
    .fil6 {fill:#52658C}
    .fil11 {fill:#00A859}
    .fil3 {fill:#0A5E5D}
    .fil1 {fill:#FEFEFE}
    .fil14 {fill:#FEFEFE;fill-rule:nonzero}
    .fil13 {fill:#ED3237;fill-rule:nonzero}
    .fil9 {fill:#DBA438;fill-rule:nonzero}
    .fil7 {fill:#7A2D2E;fill-rule:nonzero}
    .fil5 {fill:#52658C;fill-rule:nonzero}
    .fil10 {fill:#00A859;fill-rule:nonzero}
    .fil2 {fill:#0A5E5D;fill-rule:nonzero}
   ]]>
  </style>
 </defs>
 <g id="Capa_x0020_1">
  <metadata id="CorelCorpID_0Corel-Layer"/>
  <rect class="fil0" x="-0" y="-0" width="8878.16" height="1465.67"/>
  <g id="_2166248790160">
   <circle class="fil1" cx="2684" cy="733.73" r="729.53"/>
   <g>
    <path class="fil2" d="M2684 311.89c116.49,0 221.95,47.21 298.29,123.55 76.34,76.34 123.55,181.8 123.55,298.29 0,116.49 -47.21,221.95 -123.55,298.29 -76.34,76.34 -181.8,123.55 -298.29,123.55 -116.49,0 -221.95,-47.21 -298.29,-123.55 -76.34,-76.34 -123.55,-181.8 -123.55,-298.29 0,-116.49 47.21,-221.95 123.55,-298.29 76.34,-76.34 181.8,-123.55 298.29,-123.55zm290.17 131.67c-74.26,-74.25 -176.85,-120.18 -290.17,-120.18 -113.32,0 -215.91,45.93 -290.17,120.18 -74.25,74.26 -120.18,176.85 -120.18,290.17 0,113.32 45.93,215.91 120.18,290.17 74.26,74.25 176.85,120.18 290.17,120.18 113.32,0 215.91,-45.93 290.17,-120.18 74.25,-74.26 120.18,-176.85 120.18,-290.17 0,-113.32 -45.93,-215.91 -120.18,-290.17z"/>
    <path class="fil2" d="M2684 0c202.61,0 386.05,82.13 518.82,214.91 132.78,132.77 214.91,316.21 214.91,518.82 0,202.61 -82.13,386.05 -214.91,518.82 -132.77,132.78 -316.21,214.9 -518.82,214.9 -202.61,0 -386.05,-82.12 -518.82,-214.9 -132.78,-132.77 -214.9,-316.21 -214.9,-518.82 0,-202.61 82.12,-386.05 214.9,-518.82 132.77,-132.78 316.21,-214.91 518.82,-214.91zm510.7 223.03c-130.7,-130.69 -311.26,-211.54 -510.7,-211.54 -199.44,0 -380,80.85 -510.7,211.54 -130.69,130.7 -211.54,311.26 -211.54,510.7 0,199.44 80.85,380 211.54,510.7 130.7,130.69 311.26,211.54 510.7,211.54 199.44,0 380,-80.85 510.7,-211.54 130.69,-130.7 211.54,-311.26 211.54,-510.7 0,-199.44 -80.85,-380 -211.54,-510.7z"/>
    <path class="fil3" d="M2684 32.85c387.09,0 700.88,313.79 700.88,700.88 0,387.09 -313.79,700.88 -700.88,700.88 -387.09,0 -700.88,-313.79 -700.88,-700.88 0,-387.09 313.79,-700.88 700.88,-700.88zm-523.23 673.51c0.4,0.2 0.9,0.23 1.52,0.09 0.62,-0.14 1.11,-0.42 1.48,-0.87 1.49,-1.75 3.07,-3.93 4.72,-6.53 1.66,-2.61 3.3,-5.57 4.94,-8.88 1.64,-3.31 3.11,-6.87 4.4,-10.69 1.29,-3.82 2.31,-7.75 3.06,-11.79 1.85,-9.92 2.11,-18.68 0.81,-26.28 -1.3,-7.59 -3.73,-14.07 -7.27,-19.41 -3.55,-5.35 -7.96,-9.62 -13.22,-12.82 -5.27,-3.19 -10.95,-5.36 -17.03,-6.48 -11.04,-2.05 -20.71,-0.82 -29.01,3.66 -8.29,4.48 -15.76,12.38 -22.4,23.7 -4.07,6.98 -7.25,12.09 -9.54,15.35 -2.29,3.25 -4.85,4.62 -7.68,4.09 -2.41,-0.45 -4,-1.95 -4.77,-4.5 -0.77,-2.55 -0.76,-5.97 0.03,-10.26 1.22,-6.62 3.1,-12.2 5.62,-16.73 2.53,-4.54 4.76,-8.09 6.7,-10.65 0.98,-1.33 0.6,-2.42 -1.15,-3.25l-28.94 -13.35c-1.34,-0.63 -2.42,-0.38 -3.22,0.74 -3.27,4.21 -6.16,9.16 -8.67,14.84 -2.52,5.68 -4.57,12.76 -6.13,21.21 -1.51,8.09 -1.72,15.59 -0.67,22.51 1.07,6.92 3.22,13.05 6.47,18.41 3.26,5.36 7.45,9.78 12.59,13.27 5.13,3.48 11.03,5.85 17.68,7.08 6.23,1.15 11.94,1.14 17.14,-0.05 5.2,-1.2 9.98,-3.26 14.33,-6.19 4.35,-2.94 8.27,-6.52 11.76,-10.75 3.5,-4.23 6.57,-8.76 9.22,-13.6 6.24,-11.52 11.41,-16.9 15.51,-16.14 5.67,1.05 7.59,6.47 5.77,16.28 -1.25,6.74 -3.41,12.87 -6.48,18.38 -3.08,5.52 -6.11,10.03 -9.1,13.53 -0.54,0.54 -0.68,1.11 -0.43,1.72 0.25,0.62 0.78,1.13 1.59,1.53l30.35 12.85zm46.69 -228.45l32.81 7.05c0.57,0.16 1.12,0.12 1.64,-0.1 0.52,-0.23 0.87,-0.5 1.03,-0.83l17.42 -33.73c0.4,-0.77 0.36,-1.49 -0.1,-2.15 -0.47,-0.67 -1.07,-1.05 -1.83,-1.16l-143.9 -28.23c-1.14,-0.3 -1.97,0.04 -2.48,1.04l-21.36 41.36c-0.52,1 -0.32,1.87 0.59,2.62l107.44 98.83c0.52,0.55 1.2,0.83 2,0.83 0.81,0 1.42,-0.39 1.82,-1.17l16.47 -31.9c0.57,-1.1 0.35,-2.06 -0.69,-2.89 -4.22,-3.43 -8.42,-6.98 -12.63,-10.62 -4.19,-3.64 -8.47,-7.21 -12.81,-10.72l14.59 -28.24zm-41.78 7.47c-3.25,-2.81 -6.05,-5.23 -8.39,-7.29 -2.35,-2.05 -5.17,-4.42 -8.48,-7.11l-0.09 0.17c-1.5,-1.48 -3.13,-2.96 -4.89,-4.42 -1.75,-1.46 -3.61,-2.98 -5.55,-4.55 -0.59,-0.44 -1.28,-0.98 -2.09,-1.6 -0.81,-0.63 -1.51,-1.17 -2.09,-1.6 0.75,0.1 1.24,0.18 1.46,0.23 0.23,0.04 0.34,0.06 0.34,0.06 -0.06,0.11 0.03,0.19 0.24,0.23 0.22,0.04 0.83,0.19 1.85,0.43l-0.28 0.06c2.46,0.57 5.03,1.09 7.7,1.56 2.67,0.47 5.17,0.95 7.5,1.46 3.53,0.7 7.12,1.51 10.79,2.42 3.67,0.91 7.32,1.74 10.98,2.51l-9.01 17.44zm129.98 -79.74c1.2,1.24 2.35,1.33 3.41,0.29l24.53 -23.87c0.98,-0.96 0.87,-2.05 -0.34,-3.29l-35.1 -36.06 33.23 -32.34c0.98,-0.95 0.92,-2 -0.19,-3.14l-22.14 -22.75c-1.2,-1.24 -2.3,-1.38 -3.28,-0.42l-33.23 32.34 -13.56 -13.93 35.38 -34.43c1.07,-1.04 1.06,-2.13 -0.05,-3.27l-22.14 -22.75c-1.2,-1.24 -2.34,-1.33 -3.41,-0.29l-61.36 59.73c-1.07,1.04 -1.01,2.18 0.2,3.42l98.06 100.75zm151.89 -214.42c-0.71,-1.42 -1.67,-1.82 -2.9,-1.2l-42.33 21.12 -7.43 -14.87 45 -22.46c1.33,-0.67 1.66,-1.72 0.94,-3.13l-14.18 -28.41c-0.77,-1.54 -1.83,-1.98 -3.16,-1.32l-77.62 38.75c-1.23,0.62 -1.46,1.69 -0.68,3.23l62.79 125.8c0.77,1.55 1.78,2.01 3,1.4l80.14 -40c1.22,-0.61 1.46,-1.69 0.68,-3.23l-14.18 -28.41c-0.71,-1.41 -1.68,-1.82 -2.9,-1.2l-47.52 23.71 -8.48 -17 42.33 -21.13c1.23,-0.61 1.46,-1.69 0.68,-3.23l-14.18 -28.41zm124.65 52.45c0.29,1.7 1.12,2.43 2.47,2.19l33.7 -5.91c1.47,-0.25 2.06,-1.24 1.76,-2.94l-18.31 -104.44 32.23 -5.65c1.47,-0.26 2.07,-1.17 1.8,-2.73l-5.56 -31.69c-0.29,-1.71 -1.19,-2.43 -2.65,-2.17l-102.03 17.89c-1.34,0.24 -1.87,1.2 -1.58,2.91l5.56 31.69c0.27,1.56 1.08,2.22 2.44,1.98l31.86 -5.58 18.32 104.44zm196.11 -1.85c1.48,0.2 2.34,-0.56 2.57,-2.28l7.69 -58.89 53.9 -73.55c0.5,-0.95 0.65,-1.84 0.44,-2.67 -0.21,-0.82 -0.8,-1.3 -1.79,-1.43l-39.12 -5.1c-0.99,-0.13 -1.67,0.29 -2.05,1.26l-15.39 29.79c-1.19,2.32 -2.31,4.42 -3.37,6.32 -1.07,1.89 -2.1,3.79 -3.1,5.69 -1.06,2.33 -2.16,4.51 -3.3,6.53 -0.41,-1.65 -0.75,-2.93 -1.01,-3.83 -0.26,-0.9 -0.47,-1.73 -0.62,-2.48 -0.15,-0.75 -0.33,-1.53 -0.54,-2.36 -0.21,-0.82 -0.45,-2.05 -0.75,-3.69 -0.35,-1.2 -0.64,-2.51 -0.9,-3.93 -0.25,-1.41 -0.6,-2.88 -1.03,-4.39l-7.25 -32.52c-0.36,-1.07 -0.92,-1.65 -1.66,-1.74l-39.67 -5.18c-0.99,-0.13 -1.69,0.18 -2.1,0.93 -0.42,0.75 -0.5,1.64 -0.26,2.69 5.29,14.34 10.49,28.67 15.61,42.98 5.1,14.32 10.3,28.71 15.57,43.19l-7.49 57.4c-0.23,1.72 0.34,2.66 1.7,2.83l33.93 4.43zm185.26 24.61c0.12,-0.89 -0.01,-1.61 -0.38,-2.17 -0.37,-0.55 -0.89,-0.82 -1.59,-0.81 -3.03,0.09 -6.82,-0.35 -11.36,-1.31 -4.54,-0.96 -8.93,-2.37 -13.16,-4.21 -10.97,-4.78 -17.96,-11.76 -20.96,-20.92 -3.01,-9.17 -2.24,-18.96 2.31,-29.39 2.65,-6.07 5.83,-10.88 9.57,-14.44 3.73,-3.56 7.74,-6.14 12.03,-7.71 4.3,-1.59 8.74,-2.19 13.35,-1.84 4.61,0.36 9.13,1.51 13.59,3.46 5.15,2.24 9.47,4.71 12.98,7.43 3.51,2.7 6.32,5.38 8.42,8.03 0.46,0.51 1.01,0.72 1.67,0.62 0.66,-0.11 1.25,-0.44 1.76,-1.01l18.69 -25.07c0.81,-1.22 0.87,-2.29 0.18,-3.22 -2.05,-3.09 -5.72,-6.54 -11,-10.34 -5.28,-3.8 -11.69,-7.34 -19.23,-10.62 -9.49,-4.13 -19.06,-6.51 -28.72,-7.11 -9.67,-0.61 -18.95,0.72 -27.85,3.99 -8.91,3.27 -17.12,8.52 -24.63,15.76 -7.51,7.24 -13.8,16.68 -18.87,28.29 -3.92,8.97 -6.3,18.1 -7.16,27.38 -0.85,9.29 0.12,18.2 2.93,26.73 2.81,8.53 7.68,16.47 14.6,23.81 6.93,7.34 16.22,13.55 27.87,18.64 7.89,3.44 15,5.68 21.34,6.72 6.35,1.04 11.01,1.43 13.99,1.15 0.46,-0.11 0.93,-0.34 1.41,-0.68 0.49,-0.34 0.79,-0.8 0.91,-1.37l7.29 -29.81zm112.24 92.94l-15.87 29.59c-0.3,0.5 -0.42,1.03 -0.36,1.59 0.08,0.56 0.24,0.97 0.52,1.23l27.58 26.07c0.63,0.6 1.33,0.76 2.1,0.5 0.77,-0.27 1.31,-0.75 1.62,-1.45l66.96 -130.46c0.61,-1.01 0.5,-1.9 -0.31,-2.67l-33.83 -31.98c-0.81,-0.77 -1.71,-0.82 -2.69,-0.16l-124.71 75.88c-0.68,0.36 -1.13,0.92 -1.35,1.7 -0.22,0.78 -0.02,1.46 0.62,2.06l26.09 24.66c0.9,0.86 1.9,0.9 2.96,0.13 4.48,-3.1 9.04,-6.17 13.7,-9.19 4.66,-3.02 9.28,-6.14 13.85,-9.34l23.1 21.83zm4.39 -42.2c3.59,-2.35 6.69,-4.37 9.32,-6.05 2.62,-1.69 5.68,-3.74 9.19,-6.18l-0.14 -0.13c1.84,-1.04 3.7,-2.19 5.6,-3.48 1.9,-1.28 3.87,-2.63 5.91,-4.07 0.58,-0.43 1.29,-0.96 2.11,-1.56 0.83,-0.61 1.53,-1.13 2.12,-1.57 -0.31,0.7 -0.52,1.14 -0.62,1.34 -0.1,0.2 -0.16,0.3 -0.16,0.3 -0.09,-0.09 -0.18,-0.03 -0.29,0.17 -0.1,0.2 -0.42,0.75 -0.93,1.66l0.02 -0.29c-1.23,2.21 -2.44,4.53 -3.63,6.98 -1.2,2.44 -2.36,4.71 -3.48,6.81 -1.65,3.2 -3.41,6.43 -5.3,9.7 -1.89,3.27 -3.7,6.55 -5.45,9.85l-14.26 -13.48zm43 145.75c-1.54,0.77 -1.98,1.83 -1.32,3.17l15.11 30.28c0.62,1.22 1.69,1.45 3.24,0.68l39.41 -19.67c0.32,0.95 0.75,1.99 1.31,3.11 0.56,1.11 1.12,2.23 1.67,3.35 4.23,8.48 9.26,15.57 15.1,21.3 5.83,5.73 12.36,9.85 19.58,12.38 5.57,1.81 11.74,2.24 18.52,1.31 6.77,-0.94 13.24,-2.96 19.43,-6.04 7.21,-3.61 12.99,-8.23 17.33,-13.88 4.34,-5.64 7.21,-11.26 8.61,-16.84 1.14,-5.44 1.18,-11.66 0.1,-18.65 -1.07,-6.98 -3.7,-14.66 -7.88,-23.03 -4.9,-9.81 -9.24,-17.78 -13.02,-23.9 -3.78,-6.13 -7.11,-11.12 -10,-14.97 -0.81,-0.99 -1.8,-1.2 -2.96,-0.62l-124.25 62.01zm115.2 -14.86c0.7,0.76 1.39,1.81 2.05,3.15 0.67,1.33 1.47,2.96 2.42,4.84 2.73,5.47 3.61,10.11 2.62,13.95 -0.98,3.83 -3.47,6.75 -7.46,8.74 -4.9,2.44 -9.52,2.59 -13.89,0.45 -4.37,-2.14 -7.89,-5.88 -10.56,-11.24 -0.73,-1.45 -1.31,-2.62 -1.76,-3.51 -0.39,-0.78 -0.74,-1.65 -1.06,-2.61l27.64 -13.79zm-44.26 154.71c-0.45,-0.04 -0.94,0.1 -1.46,0.45 -0.52,0.34 -0.88,0.78 -1.08,1.33 -0.79,2.16 -1.51,4.76 -2.14,7.78 -0.64,3.02 -1.15,6.37 -1.53,10.04 -0.38,3.67 -0.5,7.52 -0.38,11.55 0.12,4.02 0.54,8.06 1.25,12.12 1.74,9.95 4.55,18.25 8.42,24.91 3.87,6.66 8.41,11.88 13.6,15.65 5.19,3.77 10.82,6.24 16.86,7.39 6.05,1.15 12.12,1.2 18.22,0.12 11.07,-1.94 19.7,-6.46 25.91,-13.55 6.2,-7.11 10.44,-17.12 12.71,-30.05 1.38,-7.96 2.57,-13.87 3.58,-17.7 1.01,-3.85 2.93,-6.02 5.76,-6.52 2.41,-0.42 4.43,0.42 6.04,2.55 1.61,2.12 2.8,5.33 3.55,9.63 1.16,6.63 1.35,12.51 0.57,17.64 -0.78,5.14 -1.63,9.24 -2.56,12.31 -0.45,1.59 0.29,2.48 2.22,2.65l31.78 2.39c1.48,0.12 2.39,-0.48 2.75,-1.8 1.59,-5.1 2.57,-10.74 2.96,-16.94 0.37,-6.2 -0.18,-13.54 -1.67,-22.01 -1.42,-8.1 -3.83,-15.21 -7.24,-21.32 -3.41,-6.11 -7.57,-11.1 -12.5,-14.98 -4.92,-3.89 -10.4,-6.56 -16.43,-8.04 -6.03,-1.46 -12.38,-1.62 -19.04,-0.45 -6.24,1.09 -11.59,3.1 -16.05,6.04 -4.45,2.93 -8.21,6.53 -11.26,10.8 -3.05,4.27 -5.48,9 -7.27,14.19 -1.79,5.18 -3.09,10.5 -3.89,15.96 -1.81,12.97 -4.78,19.82 -8.89,20.54 -5.68,1 -9.37,-3.41 -11.09,-13.24 -1.19,-6.75 -1.3,-13.25 -0.35,-19.49 0.94,-6.24 2.22,-11.53 3.8,-15.85 0.32,-0.69 0.25,-1.28 -0.2,-1.77 -0.45,-0.49 -1.13,-0.79 -2.02,-0.88l-32.92 -1.44zm-966.71 486.58l4.78 14.68c-8.09,2.92 -15.31,3.37 -21.65,1.39 -6.33,-2 -11.81,-6.3 -16.47,-12.92 -5.76,-8.21 -7.7,-16.92 -5.81,-26.15 1.9,-9.21 7.7,-17.25 17.43,-24.08 10.28,-7.22 20.14,-10.18 29.56,-8.87 9.41,1.3 17.17,6.28 23.25,14.94 5.31,7.56 7.38,15.27 6.23,23.12 -0.67,4.68 -2.99,9.45 -6.96,14.33l-11.6 -10.27c2.68,-2.97 4.13,-6.27 4.36,-9.89 0.22,-3.64 -0.84,-7.1 -3.16,-10.4 -3.22,-4.58 -7.48,-7.16 -12.77,-7.69 -5.29,-0.56 -11.6,1.75 -18.96,6.92 -7.79,5.48 -12.37,10.8 -13.7,15.92 -1.33,5.15 -0.42,9.97 2.74,14.46 2.33,3.32 5.39,5.44 9.18,6.34 3.8,0.89 8.31,0.29 13.56,-1.85zm40.75 87.69l-11.32 -11.96 8 -16.54 -20.81 -21.98 -16.79 7.25 -11.11 -11.73 74.94 -30.6 11.1 11.73 -34.02 73.84zm2.54 -40.86l13.07 -26.82 -27.28 11.8 14.21 15.02zm3.57 46.28l49.31 -57.13 18.49 15.97c7.01,6.05 11.34,10.26 12.96,12.67 2.53,3.69 3.66,7.91 3.39,12.69 -0.27,4.78 -2.37,9.45 -6.3,14 -3.02,3.51 -6.2,5.89 -9.53,7.2 -3.34,1.29 -6.57,1.78 -9.71,1.46 -3.13,-0.33 -5.9,-1.14 -8.3,-2.45 -3.22,-1.83 -7.44,-4.98 -12.65,-9.48l-7.5 -6.47 -18.6 21.54 -11.57 -9.98zm52.55 -37.48l-14.06 16.27 6.29 5.42c4.53,3.92 7.82,6.21 9.86,6.93 2.05,0.73 4.05,0.82 6.02,0.29 1.97,-0.53 3.68,-1.63 5.16,-3.34 1.79,-2.08 2.66,-4.32 2.63,-6.72 -0.05,-2.42 -0.85,-4.58 -2.42,-6.55 -1.15,-1.43 -3.8,-3.94 -7.95,-7.52l-5.54 -4.78zm10.43 60.76l13.35 6.7c-1.9,4.68 -2.33,8.71 -1.28,12.14 1.05,3.43 3.54,6.38 7.44,8.85 4.13,2.61 7.8,3.71 11,3.28 3.21,-0.42 5.55,-1.81 7.04,-4.16 0.96,-1.51 1.33,-3.07 1.13,-4.69 -0.21,-1.61 -1.17,-3.51 -2.88,-5.67 -1.16,-1.48 -4,-4.57 -8.49,-9.28 -5.78,-6.07 -9.27,-11.24 -10.46,-15.5 -1.67,-5.99 -0.9,-11.51 2.31,-16.57 2.05,-3.25 4.91,-5.73 8.53,-7.4 3.64,-1.67 7.64,-2.16 12.04,-1.45 4.4,0.7 9.03,2.59 13.93,5.69 7.96,5.04 12.86,10.62 14.64,16.72 1.79,6.1 0.91,12.15 -2.63,18.21l-13.2 -7.73c1.53,-3.65 1.86,-6.74 0.97,-9.32 -0.88,-2.57 -3.12,-5.01 -6.72,-7.29 -3.71,-2.35 -7.11,-3.41 -10.17,-3.2 -1.98,0.14 -3.5,1.03 -4.56,2.69 -0.95,1.52 -1.14,3.22 -0.54,5.09 0.75,2.41 3.78,6.33 9.09,11.76 5.31,5.42 8.95,9.9 10.95,13.35 1.99,3.48 2.97,7.12 2.92,10.95 -0.04,3.81 -1.33,7.73 -3.88,11.75 -2.31,3.66 -5.49,6.45 -9.54,8.35 -4.06,1.91 -8.42,2.47 -13.11,1.66 -4.7,-0.8 -9.82,-2.96 -15.36,-6.46 -8.06,-5.1 -13.07,-10.88 -15.04,-17.34 -1.97,-6.44 -1.11,-13.48 2.55,-21.13zm84.54 -6.5l13.56 7.05 -18.87 36.28c-3,5.77 -4.77,9.58 -5.32,11.45 -0.85,3.04 -0.65,5.96 0.64,8.74 1.3,2.79 3.81,5.15 7.56,7.1 3.79,1.97 7.05,2.68 9.81,2.11 2.75,-0.57 4.9,-1.89 6.48,-3.98 1.59,-2.09 3.75,-5.77 6.51,-11.07l19.28 -37.06 13.55 7.05 -18.31 35.2c-4.19,8.04 -7.5,13.55 -9.96,16.48 -2.46,2.94 -5.26,5.04 -8.41,6.32 -3.15,1.27 -6.7,1.72 -10.68,1.37 -4,-0.36 -8.62,-1.89 -13.91,-4.64 -6.37,-3.31 -10.82,-6.56 -13.34,-9.75 -2.51,-3.19 -4.13,-6.46 -4.81,-9.83 -0.68,-3.37 -0.65,-6.48 0.1,-9.4 1.11,-4.29 3.62,-10.19 7.52,-17.69l18.6 -35.75zm33.76 100.85l26.97 -69.8 14.26 5.5 -22.38 57.91 35.3 13.64 -4.59 11.9 -49.55 -19.15zm126.11 38.13l-16.05 -3.67 -2.53 -18.2 -29.51 -6.73 -9.94 15.36 -15.75 -3.6 45.36 -67.05 15.75 3.59 12.68 80.3zm-20.57 -35.4l-4 -29.56 -16.15 24.96 20.16 4.6zm27.94 11.76l14.92 0.51c0.23,5.04 1.52,8.89 3.91,11.57 2.39,2.68 5.88,4.32 10.45,4.93 4.84,0.65 8.63,0.11 11.36,-1.62 2.73,-1.72 4.29,-3.96 4.66,-6.71 0.23,-1.78 -0.09,-3.35 -0.94,-4.73 -0.86,-1.38 -2.53,-2.7 -4.98,-3.95 -1.67,-0.86 -5.53,-2.48 -11.59,-4.89 -7.79,-3.1 -13.12,-6.33 -15.98,-9.71 -4.02,-4.75 -5.63,-10.08 -4.84,-16.02 0.51,-3.81 2.07,-7.25 4.66,-10.29 2.6,-3.03 6.04,-5.15 10.33,-6.34 4.29,-1.2 9.28,-1.41 15.03,-0.64 9.35,1.26 16.13,4.27 20.29,9.06 4.18,4.8 5.9,10.67 5.22,17.64l-15.22 -1.51c-0.13,-3.95 -1.13,-6.91 -3.01,-8.87 -1.88,-1.98 -4.94,-3.25 -9.15,-3.82 -4.35,-0.58 -7.89,-0.13 -10.58,1.35 -1.74,0.95 -2.76,2.39 -3.02,4.34 -0.23,1.78 0.31,3.39 1.64,4.84 1.68,1.88 6.07,4.17 13.16,6.89 7.1,2.71 12.27,5.24 15.53,7.57 3.26,2.33 5.68,5.23 7.23,8.71 1.55,3.48 2.01,7.59 1.38,12.31 -0.57,4.28 -2.3,8.15 -5.18,11.56 -2.89,3.43 -6.63,5.76 -11.22,6.98 -4.59,1.25 -10.15,1.42 -16.65,0.55 -9.45,-1.27 -16.41,-4.42 -20.89,-9.47 -4.49,-5.04 -6.65,-11.79 -6.52,-20.26zm166.37 22.99l-8.56 11.32c-4.32,-2.02 -8.5,-4.83 -12.51,-8.42 -2.99,2.79 -6.2,4.87 -9.61,6.23 -3.4,1.37 -7.46,2.09 -12.2,2.18 -9.38,0.16 -16.49,-2.36 -21.33,-7.56 -3.74,-4.01 -5.65,-8.68 -5.75,-14 -0.1,-4.85 1.27,-9.23 4.1,-13.15 2.81,-3.92 7.07,-7.35 12.77,-10.3 -2.64,-3.01 -4.64,-5.89 -5.99,-8.64 -1.37,-2.76 -2.06,-5.36 -2.11,-7.83 -0.09,-4.57 1.67,-8.48 5.27,-11.73 3.57,-3.25 8.76,-4.94 15.5,-5.06 6.5,-0.11 11.62,1.46 15.36,4.71 3.73,3.27 5.63,7.3 5.71,12.11 0.06,3.06 -0.79,5.97 -2.54,8.74 -1.76,2.77 -5.35,5.94 -10.76,9.51l10.63 13.77c1.19,-2.19 2.19,-5.08 3.02,-8.61l13.16 2.7c-1.21,4.66 -2.3,8.09 -3.22,10.25 -0.91,2.16 -1.92,3.98 -2.99,5.44 1.64,1.48 3.76,3.09 6.35,4.86 2.6,1.76 4.5,2.92 5.7,3.48zm-40.1 -40.38l3.83 -3.08c2.83,-2.28 4.2,-4.52 4.17,-6.72 -0.03,-1.86 -0.75,-3.43 -2.16,-4.71 -1.4,-1.29 -3.27,-1.91 -5.62,-1.86 -2.28,0.03 -4.06,0.65 -5.35,1.81 -1.26,1.19 -1.88,2.53 -1.85,4.05 0.03,1.79 1.16,3.93 3.38,6.44l3.61 4.06zm-5.37 15.83c-3.27,1.75 -5.71,3.83 -7.31,6.23 -1.59,2.4 -2.37,4.84 -2.33,7.3 0.06,3.13 1.12,5.68 3.2,7.6 2.05,1.95 4.79,2.89 8.22,2.83 2.25,-0.04 4.42,-0.52 6.47,-1.46 2.08,-0.93 4.32,-2.44 6.73,-4.57l-14.98 -17.93zm100.6 23.88l-10.57 -61.81 -22.02 3.76 -2.15 -12.57 59.01 -10.09 2.15 12.57 -21.92 3.74 10.56 61.82 -15.06 2.57zm103.46 -29.01l-15.6 5.23 -11.64 -14.22 -28.7 9.62 -0.49 18.28 -15.33 5.14 3.81 -80.86 15.3 -5.13 52.64 61.95zm-35.99 -19.52l-18.81 -23.15 -0.79 29.72 19.6 -6.57zm43.68 16.75l-31.07 -68.77 22.26 -10.06c8.44,-3.8 14.08,-5.95 16.95,-6.42 4.41,-0.75 8.72,0.01 12.94,2.27 4.22,2.25 7.57,6.12 10.04,11.6 1.91,4.23 2.74,8.11 2.52,11.68 -0.23,3.57 -1.15,6.71 -2.76,9.42 -1.61,2.7 -3.53,4.87 -5.72,6.5 -3.02,2.15 -7.65,4.65 -13.93,7.48l-9.03 4.08 11.72 25.94 -13.93 6.29zm-11.89 -63.44l8.85 19.59 7.57 -3.42c5.46,-2.46 8.93,-4.47 10.44,-6.02 1.52,-1.56 2.45,-3.33 2.79,-5.35 0.35,-2.01 0.07,-4.03 -0.86,-6.07 -1.14,-2.51 -2.8,-4.25 -5,-5.22 -2.2,-0.97 -4.52,-1.16 -6.96,-0.55 -1.79,0.43 -5.17,1.78 -10.17,4.03l-6.67 3.02zm53.32 5.05c-4.18,-6.46 -6.72,-12.51 -7.63,-18.16 -0.66,-4.15 -0.55,-8.34 0.28,-12.51 0.83,-4.18 2.33,-7.85 4.48,-11.02 2.88,-4.22 6.9,-8.01 12.05,-11.34 9.35,-6.05 18.7,-7.96 28.07,-5.81 9.36,2.19 17.38,8.45 24.07,18.79 6.63,10.25 9.03,20.08 7.21,29.46 -1.81,9.39 -7.39,17.1 -16.7,23.12 -9.43,6.09 -18.8,8.07 -28.09,5.9 -9.28,-2.16 -17.2,-8.29 -23.75,-18.42zm12.91 -8.95c4.65,7.18 9.83,11.55 15.56,13.12 5.71,1.56 11.13,0.69 16.23,-2.61 5.12,-3.31 8.12,-7.87 9.03,-13.67 0.89,-5.81 -1.04,-12.38 -5.8,-19.74 -4.7,-7.27 -9.8,-11.67 -15.31,-13.17 -5.5,-1.53 -10.89,-0.57 -16.19,2.85 -5.28,3.41 -8.37,7.99 -9.26,13.69 -0.88,5.72 1.02,12.22 5.75,19.52zm78.51 -6.46l-46.13 -59.72 11.7 -9.05 55.5 21.04 -30.92 -40.03 11.18 -8.63 46.14 59.72 -12.09 9.33 -54.53 -20.56 30.33 39.26 -11.18 8.63zm59.36 -47.74l-54.78 -51.9 38.42 -40.55 9.26 8.77 -27.9 29.46 12.17 11.53 25.95 -27.39 9.26 8.77 -25.96 27.39 14.85 14.06 28.92 -30.52 9.26 8.77 -39.44 41.62zm26.22 -63.93l8.22 -12.46c4.43,2.44 8.38,3.35 11.91,2.7 3.54,-0.63 6.75,-2.76 9.66,-6.33 3.08,-3.8 4.6,-7.31 4.56,-10.54 -0.04,-3.23 -1.14,-5.73 -3.29,-7.48 -1.4,-1.13 -2.89,-1.67 -4.53,-1.66 -1.62,0.02 -3.62,0.75 -5.97,2.18 -1.6,0.98 -5,3.43 -10.22,7.34 -6.71,5.03 -12.25,7.88 -16.62,8.55 -6.14,0.96 -11.53,-0.46 -16.19,-4.24 -2.98,-2.43 -5.1,-5.55 -6.34,-9.34 -1.23,-3.81 -1.23,-7.84 -0.01,-12.12 1.21,-4.29 3.64,-8.66 7.29,-13.16 5.95,-7.32 12.06,-11.52 18.33,-12.57 6.27,-1.06 12.18,0.53 17.77,4.76l-9.23 12.19c-3.43,-1.96 -6.47,-2.64 -9.14,-2.07 -2.66,0.58 -5.35,2.51 -8.02,5.81 -2.77,3.41 -4.24,6.66 -4.39,9.73 -0.1,1.98 0.62,3.6 2.14,4.84 1.39,1.13 3.05,1.51 4.98,1.14 2.48,-0.46 6.72,-3.01 12.75,-7.63 6.01,-4.65 10.88,-7.73 14.55,-9.3 3.7,-1.56 7.43,-2.11 11.21,-1.61 3.78,0.49 7.52,2.24 11.21,5.24 3.35,2.73 5.75,6.22 7.17,10.47 1.41,4.25 1.45,8.66 0.1,13.22 -1.33,4.57 -4.08,9.39 -8.22,14.48 -6.02,7.4 -12.34,11.7 -18.99,12.89 -6.64,1.2 -13.53,-0.49 -20.69,-5.03zm-446.15 -830.37c245.47,0 444.47,199 444.47,444.47 0,245.47 -199,444.47 -444.47,444.47 -245.47,0 -444.47,-199 -444.47,-444.47 0,-245.47 199,-444.47 444.47,-444.47z"/>
    <path class="fil4" d="M2572.73 690.51l0.25 -0.05 0 4.05 0.16 -0.02 0.23 -0.03 0.08 0 0.31 -0.03 0.01 0 0.31 -0.03 0.09 -0.01 0.23 -0.02 0.17 -0.02 0.14 -0.01 0.27 -0.03 0.05 0 0.32 -0.03 0.03 0 0.28 -0.03 0.13 -0.01 0.19 -0.02 0.22 -0.02 0.1 -0.01 0.65 -0.04 0.06 0 0.26 -0.03 0.15 -0.01 0.17 -0.01 0.24 -0.02 0.08 -0.01 0.33 -0.02 0 0 0.32 -0.02 0.1 -0.01 0.23 -0.02 0.18 -0.01 0.14 -0.01 0.28 -0.02 0.05 0 0.33 -0.02 0.03 0 0.29 -0.02 0.12 -0.01 0.2 -0.01 0.22 -0.01 0.11 -0.01 0.3 -0.02 0.03 0 0.33 -0.02 0.07 0 0.26 -0.01 0.16 -0.01 0.18 -0.01 0.24 -0.01 0.09 -0.01 0.33 -0.01 0 0 0.33 -0.02 0.1 0 0.42 -0.01 0.15 -0.01 0.28 -0.01 0.06 0 0.33 -0.02 0.03 0 0.3 -0.01 0.12 0 0.21 -0.01 0.22 0 0.12 -0.01 0.31 0 0.03 -0.01 0.34 -0.01 0.06 0 0.28 0 0.16 -0.01 0.18 0 0.24 -0.01 0.1 0 0.68 -0.01 0.1 0 0.24 0 0.18 -0.01 0.16 0 0.28 0 0.06 0 0.35 0 0.03 0 0.31 -0.01 0.12 0 0.22 0 0.23 0 0.81 0 0.06 0 0.28 0 0.16 0.01 0.18 0 0.25 0 0.1 0 0.35 0c9.35,0.1 18.25,0.83 26.35,2.11 8.45,1.32 16.04,3.21 22.38,5.52 5.92,2.17 10.69,4.63 13.98,7.26 3.39,2.71 7.28,5.67 7.25,8.74 0,4.16 0.09,8.28 0.05,12.45l-0.4 48.08c2.99,0.2 6,0.37 9,0.5 4.06,0.17 8.15,0.28 12.29,0.31 15.56,0.14 30.39,-0.71 43.94,-2.37 14.03,-1.72 26.63,-4.31 37.13,-7.57 9.63,-2.99 17.38,-6.41 22.66,-10.08 4.81,-3.34 7.47,-6.8 7.5,-10.23l1.01 -112.88c-2.83,2.51 -6.26,4.88 -10.24,7.06 -5.27,2.9 -11.53,5.5 -18.61,7.77 -10.84,3.47 -23.73,6.21 -38.02,8.04 -13.74,1.75 -28.75,2.66 -44.48,2.51 -15.75,-0.14 -30.76,-1.31 -44.44,-3.31 -14.25,-2.08 -27.09,-5.06 -37.86,-8.72 -7.04,-2.39 -13.25,-5.11 -18.47,-8.1 -3.95,-2.26 -7.34,-4.69 -10.12,-7.26l-0.51 56.95z"/>
    <path class="fil5" d="M2949.3 805.22c-4.19,-2.08 -9.06,-4.05 -14.55,-5.88l0 0c-10.5,-3.5 -23.05,-6.35 -37.01,-8.35 -13.42,-1.92 -28.17,-3.03 -43.68,-3.17 -15.52,-0.13 -30.29,0.73 -43.72,2.4 -4.66,0.58 -9.18,1.27 -13.5,2.03l1.19 -130.3c6.61,0.93 12.32,1.5 19.43,2.03 7.46,0.56 15.21,0.88 23.17,0.96 16.2,0.14 31.69,-0.8 45.86,-2.63 14.76,-1.91 28.09,-4.77 39.3,-8.37 5.67,-1.83 10.82,-3.87 15.37,-6.08 3.55,-1.73 6.76,-3.59 9.6,-5.55l-1.46 162.91z"/>
    <path class="fil6" d="M2731.37 589.5c1.92,0.27 3.85,0.6 5.71,0.97l0 -65.58c0,-1.13 0.92,-2.04 2.04,-2.04 1.13,0 2.04,0.91 2.04,2.04l0 66.36c5.72,1.17 11.08,2.44 16.07,3.88l0 -62.34c0,-1.13 0.91,-2.04 2.04,-2.04 1.13,0 2.04,0.91 2.04,2.04l0 63.57c0.96,0.3 1.91,0.61 2.83,0.93 4.93,1.65 9.37,3.46 13.23,5.35l0 -64.61c0,-1.13 0.91,-2.04 2.04,-2.04 1.12,0 2.04,0.91 2.04,2.04l0 66.75c1.95,1.11 3.7,2.24 5.25,3.39 4.61,3.44 7.43,7.11 8.09,10.91l3.07 9.63 -0.33 -9.45 0 -77.86c0,-1.13 0.92,-2.05 2.04,-2.05 1.13,0 2.04,0.92 2.04,2.05l0 96.17c0,1.13 -0.91,2.04 -2.04,2.04 -0.49,0 -0.94,-0.17 -1.3,-0.48l0 6.95c13.55,1.92 28.46,3.03 44.12,3.18 31.9,0.29 60.71,-3.56 81.5,-10.01 5.55,-1.72 10.49,-3.58 14.7,-5.55 2.87,-1.38 5.38,-2.81 7.5,-4.27 4.8,-3.35 7.47,-6.81 7.5,-10.23l1.01 -112.88c-2.82,2.51 -6.26,4.88 -10.24,7.07 -5.27,2.89 -11.53,5.5 -18.61,7.76 -10.83,3.47 -23.73,6.21 -38.02,8.04 -13.73,1.76 -28.75,2.66 -44.48,2.51 -15.75,-0.14 -30.76,-1.31 -44.44,-3.31 -14.25,-2.08 -27.09,-5.06 -37.86,-8.72 -7.04,-2.39 -13.25,-5.11 -18.47,-8.1 -3.94,-2.26 -7.34,-4.69 -10.12,-7.26l-0.76 85.24 -0.19 -0.03zm207.14 -60.52c0,-1.12 0.91,-2.04 2.04,-2.04 1.13,0 2.04,0.92 2.04,2.04l0 97.53c0,1.13 -0.91,2.04 -2.04,2.04 -1.13,0 -2.04,-0.91 -2.04,-2.04l0 -97.53zm-20.13 6.42c0,-1.13 0.91,-2.04 2.04,-2.04 1.12,0 2.04,0.91 2.04,2.04l0 97.42c0,1.13 -0.92,2.04 -2.04,2.04 -1.13,0 -2.04,-0.91 -2.04,-2.04l0 -97.42zm-20.14 4.35c0,-1.13 0.91,-2.05 2.04,-2.05 1.13,0 2.04,0.92 2.04,2.05l0 96.97c0,1.13 -0.91,2.04 -2.04,2.04 -1.13,0 -2.04,-0.91 -2.04,-2.04l0 -96.97zm-20.16 2.67c0,-1.13 0.92,-2.04 2.04,-2.04 1.13,0 2.04,0.91 2.04,2.04l0 96.35c0,1.13 -0.91,2.04 -2.04,2.04 -1.12,0 -2.04,-0.91 -2.04,-2.04l0 -96.35zm-20.13 1.34c0,-1.13 0.91,-2.04 2.04,-2.04 1.12,0 2.04,0.91 2.04,2.04l0 95.78c0,1.13 -0.92,2.04 -2.04,2.04 -1.13,0 -2.04,-0.91 -2.04,-2.04l0 -95.78zm-20.16 0.26c0,-1.12 0.91,-2.04 2.04,-2.04 1.12,0 2.04,0.92 2.04,2.04l0 95.59c0,1.13 -0.92,2.04 -2.04,2.04 -1.13,0 -2.04,-0.91 -2.04,-2.04l0 -95.59zm-20.14 -0.74c0,-1.12 0.91,-2.04 2.04,-2.04 1.13,0 2.04,0.92 2.04,2.04l0 95.82c0,1.13 -0.91,2.04 -2.04,2.04 -1.13,0 -2.04,-0.91 -2.04,-2.04l0 -95.82z"/>
    <path class="fil5" d="M2799.89 461.18c-13.59,1.72 -25.81,4.32 -36.02,7.58 -9.32,2.98 -16.83,6.4 -21.94,10.06 -4.65,3.35 -7.24,6.81 -7.27,10.26 -0.03,3.44 2.49,6.97 7.08,10.39 5.04,3.75 12.49,7.3 21.77,10.45 10.15,3.44 22.31,6.26 35.87,8.22 13.09,1.9 27.45,3.01 42.53,3.15 15.11,0.14 29.49,-0.72 42.59,-2.38 13.6,-1.72 25.81,-4.32 36.02,-7.57 9.32,-2.98 16.83,-6.4 21.94,-10.07 4.65,-3.34 7.24,-6.81 7.27,-10.25 0.03,-3.45 -2.49,-6.97 -7.08,-10.39 -5.04,-3.75 -12.49,-7.31 -21.77,-10.46 -10.15,-3.44 -22.32,-6.25 -35.87,-8.22 -13.09,-1.91 -27.45,-3.02 -42.53,-3.15 -15.1,-0.14 -29.48,0.71 -42.59,2.37z"/>
    <path class="fil7" d="M2570.1 694.79c-1.4,0.16 -2.79,0.33 -4.16,0.52 -8.48,1.15 -16.1,2.89 -22.47,5.09 -5.94,2.05 -10.75,4.42 -14.09,6.99 -3.14,2.43 -5,5.08 -5.31,7.86l-1.74 0 -1.45 203.07c-3.28,0.17 -6.57,0.29 -9.87,0.37 -3.74,0.09 -7.53,0.12 -11.36,0.09 -15.5,-0.14 -30.25,-1.29 -43.69,-3.25 -13.91,-2.03 -26.38,-4.92 -36.77,-8.48 -9.39,-3.21 -16.92,-6.79 -22,-10.56 -4.65,-3.44 -7.2,-6.96 -7.17,-10.37l1.88 -210.14c2.8,2.01 5.97,3.92 9.49,5.71 4.52,2.31 9.65,4.45 15.28,6.37 11.14,3.8 24.41,6.91 39.13,9.07 14.12,2.08 29.59,3.3 45.81,3.45 12.83,0.11 25.2,-0.45 36.81,-1.59 11.38,-1.13 22.03,-2.8 31.68,-4.94l0 0.74z"/>
    <path class="fil8" d="M2391.9 542.03l-1.01 111.45 0.33 0 -0.01 1.43c-0.03,3.44 2.57,6.95 7.31,10.37 5.2,3.75 12.9,7.31 22.49,10.48 10.46,3.45 23,6.27 36.98,8.24 13.5,1.9 28.33,3.02 43.89,3.15 12.82,0.11 25.14,-0.44 36.64,-1.56 11.44,-1.13 22.07,-2.81 31.57,-4.97l0 -65.68 0.1 0c0.55,-3.98 3.48,-7.78 8.36,-11.29 5.34,-3.83 13.13,-7.38 22.76,-10.46l0 0c0.97,-0.31 1.94,-0.61 2.91,-0.9 0.11,0 0.84,-0.24 1.01,-0.29l0.01 -0.01c0.97,-0.28 1.94,-0.55 2.92,-0.81l0 0c0.68,-0.18 1.34,-0.36 2.01,-0.53l0.01 0c1.04,-0.27 2.09,-0.52 3.14,-0.77l0 -0.01 0.41 -0.1 0.41 -45.76c-2.82,2.51 -6.26,4.88 -10.24,7.06 -5.27,2.9 -11.53,5.5 -18.61,7.77 -10.83,3.47 -23.73,6.21 -38.02,8.04 -13.73,1.75 -28.75,2.66 -44.48,2.51 -15.75,-0.14 -30.76,-1.31 -44.44,-3.31 -14.25,-2.08 -27.09,-5.06 -37.86,-8.72 -7.04,-2.39 -13.25,-5.11 -18.47,-8.1 -3.94,-2.26 -7.34,-4.69 -10.11,-7.26z"/>
    <path class="fil7" d="M2460.86 496.83c-13.59,1.72 -25.81,4.32 -36.01,7.58 -9.32,2.98 -16.83,6.4 -21.95,10.06 -4.65,3.35 -7.24,6.81 -7.27,10.26 -0.03,3.44 2.5,6.97 7.08,10.39 5.04,3.75 12.49,7.3 21.77,10.45 10.15,3.44 22.32,6.26 35.87,8.22 13.09,1.9 27.46,3.01 42.54,3.15 15.1,0.14 29.47,-0.72 42.59,-2.38 13.6,-1.72 25.81,-4.32 36.02,-7.57 9.32,-2.98 16.83,-6.4 21.94,-10.07 4.66,-3.34 7.24,-6.81 7.27,-10.25 0.03,-3.45 -2.49,-6.97 -7.08,-10.39 -5.04,-3.75 -12.49,-7.31 -21.77,-10.45 -10.15,-3.45 -22.31,-6.26 -35.86,-8.22 -13.09,-1.9 -27.46,-3.02 -42.54,-3.15 -15.1,-0.14 -29.48,0.71 -42.59,2.37z"/>
    <path class="fil9" d="M2670.71 791.79c-3.6,-0.16 -5.55,-0.25 -8.98,-0.49l-0.6 147.99c3.22,0.22 5.48,0.34 8.7,0.47 3.69,0.15 7.41,0.24 11.15,0.28 10.96,0.1 21.6,-0.32 31.67,-1.19 9.93,-0.85 19.29,-2.13 27.88,-3.79l0 -114.56 0.88 0c0.24,-4.28 3.28,-8.37 8.6,-12.12 5.44,-3.83 13.36,-7.38 23.15,-10.46 5.92,-1.85 12.49,-3.5 19.59,-4.89l0.31 -23.54c-2.83,1.96 -6.04,3.8 -9.58,5.54 -4.56,2.22 -9.71,4.26 -15.37,6.08 -11.21,3.6 -24.54,6.46 -39.3,8.37 -14.17,1.83 -29.66,2.76 -45.86,2.63 -4.15,-0.04 -8.23,-0.15 -12.24,-0.32l0 0z"/>
    <path class="fil10" d="M2523.71 921.03l0.01 -0.82 0.86 -103.42c1.51,1.09 3.17,2.14 4.97,3.13 2.8,1.54 5.96,2.96 9.43,4.24 6.85,2.51 15.01,4.58 24.06,6.01 8.68,1.38 18.18,2.18 28.13,2.28 9.96,0.1 19.47,-0.52 28.16,-1.73 9.06,-1.26 17.25,-3.15 24.15,-5.55 3.5,-1.21 6.68,-2.57 9.5,-4.05 1.55,-0.81 2.99,-1.66 4.32,-2.56l0 84 -0.44 52.98c-0.02,2.1 -1.54,4.26 -4.3,6.37 -3.12,2.4 -7.71,4.65 -13.42,6.63 -6.35,2.2 -13.98,3.95 -22.48,5.11 -8.22,1.13 -17.23,1.71 -26.68,1.62 -9.46,-0.1 -18.46,-0.85 -26.65,-2.13 -8.46,-1.33 -16.05,-3.23 -22.38,-5.55 -5.68,-2.1 -10.24,-4.43 -13.31,-6.88 -2.72,-2.17 -4.22,-4.36 -4.19,-6.46l0.27 -33.21z"/>
    <path class="fil11" d="M2525.08 729.13l-0.44 62.6c0.16,0.1 0.31,0.23 0.45,0.36 0.54,0.55 1.11,1.07 1.72,1.59l0 -14.7 0 -0.02c0.02,-0.75 0.32,-1.43 0.81,-1.92 0.49,-0.48 1.16,-0.78 1.92,-0.78l0 0 0.02 0 0.02 0c0.75,0.01 1.44,0.33 1.93,0.82 0.49,0.5 0.8,1.19 0.8,1.94l0 15.59 -0.01 0.02c-0.01,0.75 -0.31,1.42 -0.81,1.91 -0.13,0.13 -0.27,0.24 -0.42,0.34 1.72,1.14 3.6,2.21 5.6,3.22 0.83,0.42 1.68,0.82 2.55,1.21l0 -16.42 0.01 -0.01c0.01,-0.75 0.32,-1.43 0.81,-1.92 0.49,-0.49 1.17,-0.78 1.92,-0.78l0 -0.01 0.02 0 0.02 0.01c0.76,0.01 1.44,0.33 1.93,0.82 0.49,0.5 0.81,1.19 0.81,1.94l0 16.73 -0.01 0.02c-0.01,0.62 -0.23,1.19 -0.58,1.64 2.4,0.9 4.91,1.72 7.53,2.47l0 -16.47 0.01 -0.02c0.01,-0.75 0.31,-1.42 0.81,-1.91 0.49,-0.49 1.17,-0.79 1.92,-0.79l0.02 0 0.02 0c0.75,0.02 1.44,0.33 1.93,0.82 0.49,0.5 0.8,1.19 0.8,1.94l0 17.84c1.18,0.28 2.36,0.54 3.54,0.78 1.11,0.23 2.25,0.45 3.41,0.66l0 -16.83 0.01 -0.02c0.01,-0.75 0.32,-1.42 0.81,-1.91 0.49,-0.49 1.16,-0.78 1.92,-0.78l0 -0.01 0.02 0 0.02 0.01c0.75,0.01 1.44,0.32 1.93,0.81 0.49,0.5 0.8,1.19 0.8,1.94l0 17.66c1.19,0.16 2.38,0.32 3.59,0.47 1.1,0.13 2.21,0.25 3.35,0.36l0.01 -17.15 -0.01 0 0 -0.02 0.01 -0.02c0.01,-0.75 0.32,-1.42 0.81,-1.91 0.49,-0.49 1.16,-0.78 1.91,-0.78l0.02 0 0.02 0c0.75,0.01 1.44,0.33 1.93,0.82 0.49,0.5 0.79,1.19 0.79,1.93l0 0 -0.01 17.57c1.25,0.08 2.47,0.15 3.67,0.2l0 0c1.25,0.05 2.49,0.09 3.71,0.11 -0.13,-5.7 -0.41,-11.57 -0.41,-17.26 -0.01,-0.75 0.29,-1.42 0.76,-1.92 0.48,-0.49 1.14,-0.81 1.9,-0.83l0.03 0c0.75,-0.01 1.44,0.29 1.94,0.77 0.5,0.49 0.82,1.17 0.84,1.92l0.41 17.35c1.1,-0.01 2.19,-0.03 3.3,-0.06 1.06,-0.03 2.13,-0.08 3.22,-0.13 -0.19,-5.63 -0.6,-11.6 -0.6,-17.2 -0.02,-0.75 0.26,-1.42 0.74,-1.92 0.48,-0.5 1.14,-0.82 1.89,-0.85l0.03 0c0.75,-0.02 1.44,0.27 1.95,0.75l0 0.01c0.51,0.48 0.83,1.15 0.86,1.91l0.6 16.96c1.16,-0.1 2.31,-0.21 3.42,-0.32 1.2,-0.13 2.39,-0.26 3.57,-0.42l0.01 -16.87 0 0 0 -0.02 0 -0.02c0.01,-0.75 0.32,-1.42 0.81,-1.91 0.49,-0.48 1.16,-0.78 1.91,-0.78l0 0 0.02 0 0.02 0c0.75,0.01 1.44,0.33 1.93,0.82 0.49,0.5 0.8,1.19 0.8,1.93l-0.01 0 -0.01 16.03c1.08,-0.18 2.19,-0.39 3.31,-0.6 1.22,-0.24 2.45,-0.49 3.67,-0.77l0.02 -16.15 -0.01 0 0 -0.02 0.01 -0.02c0.01,-0.75 0.31,-1.42 0.81,-1.91 0.49,-0.49 1.17,-0.79 1.91,-0.79l0.02 0 0.02 0.01c0.76,0.01 1.44,0.32 1.93,0.82 0.49,0.49 0.8,1.18 0.8,1.93l-0.01 0 -0.01 14.75c1.1,-0.3 2.2,-0.62 3.3,-0.97 1.26,-0.39 2.49,-0.81 3.67,-1.22l0.01 -16.4 0 0 0 -0.02 0 -0.02c0.01,-0.75 0.32,-1.42 0.81,-1.91 0.49,-0.49 1.16,-0.78 1.91,-0.78l0 -0.01 0.02 0 0.02 0.01c0.75,0.01 1.44,0.32 1.93,0.82 0.49,0.49 0.8,1.18 0.8,1.93l-0.01 0 -0.01 14.19c2.53,-1.12 4.93,-2.35 7.18,-3.68l0.55 -0.34c-0.49,-0.5 -0.8,-1.18 -0.8,-1.93l0.01 0 0.03 -14.87 -0.01 0 0 -0.02 0.01 -0.02c0.01,-0.75 0.31,-1.42 0.81,-1.91 0.49,-0.49 1.17,-0.78 1.91,-0.78l0.03 0 0.02 0.01c0.75,0.01 1.43,0.32 1.92,0.81 0.49,0.5 0.8,1.19 0.8,1.93l-0.01 0 -0.02 13.55c0.72,-0.56 1.42,-1.14 2.09,-1.73 0.07,-0.06 0.15,-0.12 0.22,-0.17l0.53 -62.86c-1.56,1.35 -3.36,2.63 -5.4,3.84 -3.27,1.94 -7.13,3.67 -11.5,5.17 -6.66,2.3 -14.59,4.12 -23.38,5.33 -8.42,1.16 -17.65,1.75 -27.31,1.66 -9.66,-0.1 -18.87,-0.88 -27.28,-2.19 -8.78,-1.38 -16.67,-3.35 -23.29,-5.78 -4.34,-1.59 -8.18,-3.4 -11.41,-5.4 -1.8,-1.1 -3.41,-2.27 -4.83,-3.49zm-0.49 69.84l-0.03 4.78c0.62,1.52 1.95,3.05 3.91,4.58 3.14,2.44 7.79,4.76 13.6,6.81 6.36,2.26 14,4.11 22.52,5.4 8.25,1.26 17.29,1.99 26.77,2.08 9.51,0.1 18.56,-0.47 26.81,-1.55 8.54,-1.14 16.21,-2.83 22.61,-4.97 5.84,-1.95 10.53,-4.18 13.71,-6.55 2.81,-2.11 4.38,-4.27 4.39,-6.39l0.03 -3.25c-7.19,5.29 -16.42,9.27 -26.73,12.02 -12.43,3.31 -26.46,4.85 -40.38,4.75 -14.68,-0.11 -29.27,-2.05 -41.76,-5.64 -10.19,-2.93 -19.02,-6.98 -25.44,-12.06z"/>
    <path class="fil12" d="M2744.4 838.27l-0.88 98.15c0.14,0.05 0.29,0.12 0.42,0.19 32.6,17.18 69.23,25.87 106.52,26.85 38.89,1.02 78.52,-6.31 115.15,-21.09l0.11 -0.05 0.92 -102.05c-2.83,2.52 -6.26,4.89 -10.24,7.07 -5.27,2.9 -11.53,5.51 -18.61,7.77 -10.84,3.46 -23.74,6.21 -38.02,8.04 -13.74,1.75 -28.76,2.65 -44.48,2.51 -15.75,-0.14 -30.76,-1.31 -44.44,-3.31 -14.25,-2.08 -27.09,-5.06 -37.87,-8.72 -7.04,-2.39 -13.24,-5.11 -18.47,-8.1 -3.94,-2.26 -7.33,-4.69 -10.11,-7.26zm-0.96 107.23l-0.03 4.22 0.33 0.01 -0.02 1.42c-0.03,3.44 2.57,6.95 7.31,10.37 5.2,3.75 12.9,7.31 22.49,10.48 10.47,3.45 23.01,6.27 36.99,8.23 13.5,1.91 28.32,3.02 43.89,3.16 15.55,0.14 30.39,-0.71 43.94,-2.37 14.03,-1.72 26.62,-4.31 37.13,-7.57 9.63,-2.99 17.38,-6.4 22.66,-10.08 4.81,-3.34 7.47,-6.8 7.5,-10.23l0.02 -2.06c-36.78,14.39 -76.43,21.51 -115.37,20.49 -37.3,-0.99 -73.96,-9.43 -106.84,-26.08z"/>
    <path class="fil10" d="M2566.95 698.14c-8.39,1.13 -15.95,2.83 -22.26,4.97 -5.75,1.95 -10.36,4.17 -13.48,6.53 -2.76,2.11 -4.31,4.28 -4.32,6.4 -0.02,2.12 1.49,4.32 4.22,6.48 3.09,2.44 7.65,4.74 13.36,6.79 6.28,2.26 13.81,4.11 22.19,5.39 8.1,1.25 17,1.98 26.35,2.07 9.35,0.09 18.26,-0.48 26.39,-1.57 8.4,-1.13 15.95,-2.83 22.26,-4.97 5.75,-1.95 10.36,-4.17 13.48,-6.54 2.76,-2.11 4.31,-4.27 4.32,-6.4 0.02,-2.13 -1.48,-4.32 -4.22,-6.49 -3.09,-2.43 -7.65,-4.74 -13.36,-6.79 -6.27,-2.26 -13.8,-4.1 -22.19,-5.39 -8.1,-1.25 -17,-1.98 -26.35,-2.06 -9.34,-0.1 -18.26,0.47 -26.39,1.56z"/>
    <path class="fil9" d="M2642.22 591.02c-13.6,1.72 -25.82,4.32 -36.03,7.58 -9.32,2.97 -16.83,6.4 -21.94,10.06 -4.65,3.34 -7.24,6.81 -7.27,10.25 -0.03,3.45 2.49,6.98 7.08,10.39 5.04,3.75 12.49,7.31 21.77,10.46 10.15,3.44 22.32,6.25 35.87,8.22 13.09,1.91 27.46,3.02 42.54,3.15 15.09,0.13 29.47,-0.72 42.59,-2.38 13.59,-1.72 25.81,-4.32 36.02,-7.58 9.32,-2.97 16.83,-6.4 21.94,-10.06 4.65,-3.34 7.24,-6.81 7.27,-10.26 0.03,-3.44 -2.49,-6.97 -7.08,-10.38 -5.04,-3.75 -12.49,-7.31 -21.77,-10.46 -10.15,-3.44 -22.32,-6.26 -35.87,-8.22 -13.09,-1.9 -27.46,-3.01 -42.53,-3.15 -15.1,-0.13 -29.48,0.72 -42.59,2.38z"/>
    <path class="fil13" d="M2810.69 793.08c-13.84,1.72 -26.28,4.32 -36.66,7.57 -9.51,2.99 -17.15,6.4 -22.35,10.07 -4.74,3.34 -7.37,6.81 -7.4,10.25 -0.03,3.44 2.54,6.96 7.21,10.38 5.14,3.76 12.72,7.31 22.16,10.46 10.32,3.44 22.71,6.26 36.52,8.22 13.32,1.9 27.95,3.01 43.3,3.15 15.34,0.14 29.98,-0.72 43.35,-2.38 13.84,-1.72 26.28,-4.32 36.66,-7.58 9.51,-2.98 17.15,-6.4 22.35,-10.06 4.74,-3.35 7.37,-6.82 7.4,-10.25 0.03,-3.44 -2.54,-6.97 -7.21,-10.39 -5.13,-3.75 -12.71,-7.31 -22.17,-10.46 -10.31,-3.43 -22.7,-6.25 -36.51,-8.22 -13.33,-1.91 -27.95,-3.02 -43.3,-3.15 -15.34,-0.13 -29.98,0.73 -43.35,2.39z"/>
   </g>
  </g>
  <path class="fil14" d="M4735.19 314.53l0 17.38c15.77,0.96 28.73,6.52 38.62,16.73 9.97,10.3 14.97,22.93 14.97,38.06 0,15.93 -5.31,29.28 -15.93,40.07 -10.62,10.78 -23.82,16.17 -39.6,16.17 -15.29,0 -28.08,-5.48 -38.46,-16.34 -10.37,-10.87 -15.61,-24.38 -15.61,-40.39 0,-16.73 5.07,-31.54 15.21,-44.5 10.05,-12.95 23.74,-21.96 40.79,-27.19zm-128.41 0.49l0 16.9c15.69,0.96 28.4,6.52 38.3,16.73 9.9,10.3 14.81,22.93 14.81,38.06 0,15.93 -5.31,29.28 -15.94,40.07 -10.62,10.78 -23.81,16.17 -39.59,16.17 -15.29,0 -28.08,-5.39 -38.46,-16.26 -10.38,-10.86 -15.61,-24.38 -15.61,-40.39 0,-16.66 5.07,-31.46 15.29,-44.41 10.22,-12.88 23.98,-21.8 41.2,-26.87z"/>
  <path id="1" class="fil14" d="M4960.73 532.02l0 -84.49c19.32,0 28.97,-7.32 28.97,-22.05 0,-13.44 -7.4,-20.2 -22.29,-20.2 -15.04,0 -22.61,9.26 -22.61,27.68l0 210.34 -95.59 0 0 -200.44c0,-20.76 2.09,-37.73 6.27,-51.01 4.1,-13.28 11.27,-25.59 21.32,-37.09 11.34,-12.71 25.51,-22.77 42.49,-30.1 16.98,-7.4 34.52,-11.1 52.54,-11.1 32.75,0 60.26,11.02 82.48,32.99 22.29,21.96 33.39,49.24 33.39,81.75 0,31.62 -9.97,57.21 -29.93,76.84 -18.19,18.1 -45.71,27.12 -82.4,27.12l-14.65 -0.24z"/>
  <path id="2" class="fil14" d="M5249.43 405.85l0 94.3c-6.12,-3.38 -11.66,-5.07 -16.66,-5.07 -15.93,0 -23.9,12.24 -23.9,36.69l0 111.52 -88.34 0 0 -128.5c0,-33.95 9.25,-60.99 27.84,-81.18 18.51,-20.2 43.29,-30.25 74.19,-30.25 6.92,0 15.85,0.8 26.87,2.49z"/>
  <path id="3" class="fil14" d="M5387.02 403.36c33.39,0 61.95,11.99 85.77,35.96 23.9,23.98 35.81,52.71 35.81,86.18 0,33.95 -12.07,62.92 -36.21,86.82 -24.22,23.9 -53.35,35.81 -87.47,35.81 -34.2,0 -63.4,-11.99 -87.62,-35.96 -24.22,-23.98 -36.37,-52.86 -36.37,-86.66 0,-34.44 12.15,-63.4 36.37,-86.9 24.22,-23.49 54.15,-35.24 89.72,-35.24zm-2.34 86.9c-9.49,0 -17.45,3.46 -24.06,10.3 -6.59,6.84 -9.9,15.21 -9.9,25.18 0,9.73 3.3,18.1 9.98,25.11 6.67,6.92 14.64,10.37 23.97,10.37 9.42,0 17.46,-3.46 24.14,-10.37 6.67,-7 9.97,-15.37 9.97,-25.11 0,-9.97 -3.3,-18.35 -9.9,-25.18 -6.59,-6.85 -14.65,-10.3 -24.22,-10.3z"/>
  <path id="4" class="fil14" d="M5623.82 321.29l0 90.28 39.59 0 0 93.18 -39.59 0c0,18.67 2.89,31.54 8.77,38.62 5.88,7.08 16.66,10.62 32.26,10.62l0 92.61c-4.58,0.08 -7.96,0.08 -10.13,0.08 -19.96,0 -38.79,-4.67 -56.41,-13.92 -17.7,-9.26 -31.87,-21.81 -42.57,-37.66 -13.52,-20.19 -20.28,-47.07 -20.28,-80.46l0 -193.36 88.35 0z"/>
  <path id="5" class="fil14" d="M5937.72 539.99l-133.65 0c-1.85,-6.76 -2.82,-12.87 -2.82,-18.5 0,-7.81 1.36,-15.53 4.02,-23.02l44.81 0c-3.14,-17.7 -12.95,-26.55 -29.45,-26.55 -11.02,0 -19.95,4.67 -26.87,14.08 -6.92,9.33 -10.38,21.41 -10.38,36.05 0,15.29 3.3,27.59 9.98,37.09 6.67,9.41 15.44,14.16 26.31,14.16 8.77,0 17.3,-4.42 25.43,-13.28l50.21 60.43c-23.42,18.42 -49.49,27.68 -78.13,27.68 -34.84,0 -64.21,-11.74 -87.94,-35.16 -23.74,-23.5 -35.65,-52.46 -35.65,-87.15 0,-34.44 11.99,-63.57 35.97,-87.3 24.06,-23.74 53.5,-35.64 88.43,-35.64 34.12,0 62.84,11.59 86.01,34.84 23.26,23.17 34.85,51.74 34.85,85.78 0,3.46 -0.41,8.93 -1.13,16.49z"/>
  <path id="6" class="fil14" d="M6099.69 546.35l0 80.94c-12.71,4.59 -24.86,6.85 -36.45,6.85 -28.41,0 -52.46,-10.79 -72.09,-32.27 -19.72,-21.48 -29.53,-47.79 -29.53,-78.85 0,-33.63 11.83,-61.95 35.49,-85.05 23.74,-23.1 52.79,-34.6 87.3,-34.6 18.35,0 35.89,3.7 52.7,11.1 16.74,7.32 29.93,17.22 39.51,29.69 16.01,20.52 23.98,50.37 23.98,89.48l0 77.32c0,42 -11.91,76.05 -35.64,102.19 -23.74,26.15 -54.63,39.27 -92.77,39.27 -11.6,0 -26.23,-2.89 -43.94,-8.77l0 -80.06c11.42,6.11 22.93,9.17 34.6,9.17 15.77,0 27.92,-5.23 36.54,-15.61 8.61,-10.38 12.87,-25.35 12.87,-44.73l0 -88.43c0,-24.71 -9.81,-37.1 -29.45,-37.1 -8.37,0 -15.69,3.3 -21.97,9.82 -6.27,6.52 -9.41,14 -9.41,22.53 0,8.93 2.98,16.41 9.01,22.45 5.95,5.95 13.35,8.93 22.21,8.93 5.95,0 11.59,-1.45 17.05,-4.26z"/>
  <path id="7" class="fil14" d="M6340.92 408.19l0 235.11 -88.34 0 0 -235.11 88.34 0zm-43.69 -104.76c11.99,0 22.29,4.19 31.06,12.64 8.77,8.36 13.11,18.35 13.11,29.85 0,12.24 -4.1,22.37 -12.39,30.18 -8.28,7.89 -18.82,11.83 -31.78,11.83 -12.88,0 -23.5,-3.94 -31.79,-11.83 -8.28,-7.81 -12.39,-17.94 -12.39,-30.18 0,-11.5 4.35,-21.48 13.12,-29.85 8.77,-8.45 19.07,-12.64 31.06,-12.64z"/>
  <path id="8" class="fil14" d="M6623.67 539.99l-133.65 0c-1.85,-6.76 -2.82,-12.87 -2.82,-18.5 0,-7.81 1.36,-15.53 4.02,-23.02l44.81 0c-3.14,-17.7 -12.95,-26.55 -29.45,-26.55 -11.02,0 -19.95,4.67 -26.87,14.08 -6.92,9.33 -10.38,21.41 -10.38,36.05 0,15.29 3.3,27.59 9.98,37.09 6.67,9.41 15.44,14.16 26.31,14.16 8.77,0 17.3,-4.42 25.43,-13.28l50.21 60.43c-23.42,18.42 -49.49,27.68 -78.13,27.68 -34.84,0 -64.21,-11.74 -87.94,-35.16 -23.74,-23.5 -35.65,-52.46 -35.65,-87.15 0,-34.44 11.99,-63.57 35.97,-87.3 24.06,-23.74 53.5,-35.64 88.43,-35.64 34.12,0 62.84,11.59 86.01,34.84 23.26,23.17 34.85,51.74 34.85,85.78 0,3.46 -0.41,8.93 -1.13,16.49z"/>
  <path id="9" class="fil14" d="M6869.65 643.3l-88.34 0 0 -132.76c0,-13.52 -5.48,-20.28 -16.5,-20.28 -10.86,0 -16.34,6.76 -16.34,20.28l0 132.76 -88.34 0 0 -131.15c0,-30.58 10.13,-56.41 30.41,-77.33 20.28,-21 45.06,-31.46 74.51,-31.46 33.56,0 60.51,12.15 80.79,36.53 15.85,18.99 23.81,45.46 23.81,79.34l0 124.07z"/>
  <path id="10" class="fil14" d="M7065.9 321.29l88.35 0 0 196.09c0,36.05 -9.41,65.34 -28.32,88.03 -10.87,13.03 -24.71,23.42 -41.44,31.14 -16.73,7.72 -33.95,11.59 -51.58,11.59 -35.08,0 -64.69,-11.83 -88.75,-35.4 -24.06,-23.58 -36.13,-52.54 -36.13,-86.9 0,-33.15 11.99,-61.88 35.89,-86.1 23.9,-24.21 52.14,-36.36 84.89,-36.36 5.15,0 13.03,0.48 23.57,1.53l0 97.12c-7.24,-5.55 -14.48,-8.37 -21.72,-8.37 -9.18,0 -16.99,3.38 -23.5,10.06 -6.52,6.67 -9.81,14.72 -9.81,24.22 0,9.09 3.38,16.98 10.13,23.49 6.85,6.52 14.89,9.81 24.39,9.81 22.69,0 34.03,-15.69 34.03,-47.14l0 -192.8z"/>
  <path id="11" class="fil14" d="M7312.04 403.36c33.39,0 61.95,11.99 85.77,35.96 23.9,23.98 35.81,52.71 35.81,86.18 0,33.95 -12.07,62.92 -36.21,86.82 -24.22,23.9 -53.35,35.81 -87.47,35.81 -34.2,0 -63.4,-11.99 -87.62,-35.96 -24.22,-23.98 -36.37,-52.86 -36.37,-86.66 0,-34.44 12.15,-63.4 36.37,-86.9 24.22,-23.49 54.15,-35.24 89.72,-35.24zm-2.34 86.9c-9.49,0 -17.45,3.46 -24.06,10.3 -6.59,6.84 -9.9,15.21 -9.9,25.18 0,9.73 3.3,18.1 9.98,25.11 6.67,6.92 14.64,10.37 23.97,10.37 9.42,0 17.46,-3.46 24.14,-10.37 6.67,-7 9.97,-15.37 9.97,-25.11 0,-9.97 -3.3,-18.35 -9.9,-25.18 -6.59,-6.85 -14.65,-10.3 -24.22,-10.3z"/>
  <path id="12" class="fil14" d="M7821.94 539.99l-133.65 0c-1.85,-6.76 -2.82,-12.87 -2.82,-18.5 0,-7.81 1.36,-15.53 4.02,-23.02l44.81 0c-3.14,-17.7 -12.95,-26.55 -29.45,-26.55 -11.02,0 -19.95,4.67 -26.87,14.08 -6.92,9.33 -10.38,21.41 -10.38,36.05 0,15.29 3.3,27.59 9.98,37.09 6.67,9.41 15.44,14.16 26.31,14.16 8.77,0 17.3,-4.42 25.43,-13.28l50.21 60.43c-23.42,18.42 -49.49,27.68 -78.13,27.68 -34.84,0 -64.21,-11.74 -87.94,-35.16 -23.74,-23.5 -35.65,-52.46 -35.65,-87.15 0,-34.44 11.99,-63.57 35.97,-87.3 24.06,-23.74 53.5,-35.64 88.43,-35.64 34.12,0 62.84,11.59 86.01,34.84 23.26,23.17 34.85,51.74 34.85,85.78 0,3.46 -0.41,8.93 -1.13,16.49z"/>
  <polygon id="13" class="fil14" points="7946.73,321.29 7946.73,643.3 7858.39,643.3 7858.39,321.29 "/>
  <polygon id="14" class="fil14" points="4168.33,867.71 4028.08,1208.07 3888.8,867.71 3999.6,867.71 4029.05,968.29 4061.56,867.71 "/>
  <path id="15" class="fil14" d="M4313.49 1101.54l0 91.25c-7.24,1.2 -13.84,1.77 -19.79,1.77 -35.32,0 -64.69,-11.66 -88.27,-34.92 -23.57,-23.25 -35.32,-52.38 -35.32,-87.46 0,-34.12 11.91,-63 35.73,-86.74 23.74,-23.74 52.7,-35.64 86.82,-35.64 37.97,0 67.91,11.1 89.88,33.39 21.89,22.29 32.83,52.7 32.83,91.25l0 115.3 -88.34 0 0 -108.95c0,-12.39 -2.98,-22.29 -9.01,-29.69 -5.95,-7.32 -14.08,-11.02 -24.22,-11.02 -9.18,0 -17.14,3.38 -23.81,10.14 -6.68,6.76 -10.06,14.72 -10.06,23.98 0,9.73 3.06,17.78 9.09,24.06 6.12,6.27 13.84,9.41 23.17,9.41 7.64,0 14.81,-2.01 21.33,-6.11z"/>
  <polygon id="16" class="fil14" points="4554.8,867.71 4554.8,1189.73 4466.45,1189.73 4466.45,867.71 "/>
  <path id="17" class="fil14" d="M4717.82 949.79c33.39,0 61.95,11.99 85.77,35.96 23.9,23.98 35.81,52.71 35.81,86.18 0,33.95 -12.07,62.92 -36.21,86.82 -24.22,23.9 -53.35,35.81 -87.47,35.81 -34.2,0 -63.4,-11.99 -87.62,-35.96 -24.22,-23.98 -36.37,-52.86 -36.37,-86.66 0,-34.44 12.15,-63.4 36.37,-86.9 24.22,-23.49 54.15,-35.24 89.72,-35.24zm-2.34 86.9c-9.49,0 -17.45,3.46 -24.06,10.3 -6.59,6.84 -9.9,15.21 -9.9,25.18 0,9.73 3.3,18.1 9.98,25.11 6.67,6.92 14.64,10.37 23.97,10.37 9.42,0 17.46,-3.46 24.14,-10.37 6.67,-7 9.97,-15.37 9.97,-25.11 0,-9.97 -3.3,-18.35 -9.9,-25.18 -6.59,-6.85 -14.65,-10.3 -24.22,-10.3z"/>
  <path id="18" class="fil14" d="M5004.84 952.28l0 94.3c-6.12,-3.38 -11.66,-5.07 -16.66,-5.07 -15.93,0 -23.9,12.24 -23.9,36.69l0 111.52 -88.34 0 0 -128.5c0,-33.95 9.25,-60.99 27.84,-81.18 18.51,-20.2 43.29,-30.25 74.19,-30.25 6.92,0 15.85,0.8 26.87,2.49z"/>
  <path id="19" class="fil14" d="M5296.35 867.71l88.35 0 0 196.09c0,36.05 -9.41,65.34 -28.32,88.03 -10.87,13.03 -24.71,23.42 -41.44,31.14 -16.73,7.72 -33.95,11.59 -51.58,11.59 -35.08,0 -64.69,-11.83 -88.75,-35.4 -24.06,-23.58 -36.13,-52.54 -36.13,-86.9 0,-33.15 11.99,-61.88 35.89,-86.1 23.9,-24.21 52.14,-36.36 84.89,-36.36 5.15,0 13.03,0.48 23.57,1.53l0 97.12c-7.24,-5.55 -14.48,-8.37 -21.72,-8.37 -9.18,0 -16.99,3.38 -23.5,10.06 -6.52,6.67 -9.81,14.72 -9.81,24.22 0,9.09 3.38,16.98 10.13,23.49 6.85,6.52 14.89,9.81 24.39,9.81 22.69,0 34.03,-15.69 34.03,-47.14l0 -192.8z"/>
  <path id="20" class="fil14" d="M5661.98 1086.41l-133.65 0c-1.85,-6.76 -2.82,-12.87 -2.82,-18.5 0,-7.81 1.36,-15.53 4.02,-23.02l44.81 0c-3.14,-17.7 -12.95,-26.55 -29.45,-26.55 -11.02,0 -19.95,4.67 -26.87,14.08 -6.92,9.33 -10.38,21.41 -10.38,36.05 0,15.29 3.3,27.59 9.98,37.09 6.67,9.41 15.44,14.16 26.31,14.16 8.77,0 17.3,-4.42 25.43,-13.28l50.21 60.43c-23.42,18.42 -49.49,27.68 -78.13,27.68 -34.84,0 -64.21,-11.74 -87.94,-35.16 -23.74,-23.5 -35.65,-52.46 -35.65,-87.15 0,-34.44 11.99,-63.57 35.97,-87.3 24.06,-23.74 53.5,-35.64 88.43,-35.64 34.12,0 62.84,11.59 86.01,34.84 23.26,23.17 34.85,51.74 34.85,85.78 0,3.46 -0.41,8.93 -1.13,16.49z"/>
  <path id="21" class="fil14" d="M5897.81 867.71l0 90.28 39.59 0 0 93.18 -39.59 0c0,18.67 2.89,31.54 8.77,38.62 5.88,7.08 16.66,10.62 32.26,10.62l0 92.61c-4.58,0.08 -7.96,0.08 -10.13,0.08 -19.96,0 -38.79,-4.67 -56.41,-13.92 -17.7,-9.26 -31.87,-21.81 -42.57,-37.66 -13.52,-20.19 -20.28,-47.07 -20.28,-80.46l0 -193.36 88.35 0z"/>
  <path id="22" class="fil14" d="M5980.61 958l88.34 0 0 132.76c0,13.52 5.48,20.27 16.5,20.27 10.86,0 16.34,-6.75 16.34,-20.27l0 -132.76 88.34 0 0 131.07c0,30.57 -10.14,56.32 -30.41,77.32 -20.28,21.01 -45.06,31.54 -74.43,31.54 -33.47,0 -60.43,-12.23 -80.86,-36.61 -15.85,-19.07 -23.81,-45.45 -23.81,-79.33l0 -123.99z"/>
  <path id="23" class="fil14" d="M6473.77 1078.45l0 -84.49c19.32,0 28.97,-7.32 28.97,-22.05 0,-13.44 -7.4,-20.2 -22.29,-20.2 -15.04,0 -22.61,9.26 -22.61,27.68l0 210.34 -95.59 0 0 -200.44c0,-20.76 2.09,-37.73 6.27,-51.01 4.1,-13.28 11.27,-25.59 21.32,-37.09 11.34,-12.71 25.51,-22.77 42.49,-30.1 16.98,-7.4 34.52,-11.1 52.54,-11.1 32.75,0 60.26,11.02 82.48,32.99 22.29,21.96 33.39,49.24 33.39,81.75 0,31.62 -9.97,57.21 -29.93,76.84 -18.19,18.1 -45.71,27.12 -82.4,27.12l-14.65 -0.24z"/>
  <path id="24" class="fil14" d="M6762.47 952.28l0 94.3c-6.12,-3.38 -11.66,-5.07 -16.66,-5.07 -15.93,0 -23.9,12.24 -23.9,36.69l0 111.52 -88.34 0 0 -128.5c0,-33.95 9.25,-60.99 27.84,-81.18 18.51,-20.2 43.29,-30.25 74.19,-30.25 6.92,0 15.85,0.8 26.87,2.49z"/>
  <path id="25" class="fil14" d="M6900.06 949.79c33.39,0 61.95,11.99 85.77,35.96 23.9,23.98 35.81,52.71 35.81,86.18 0,33.95 -12.07,62.92 -36.21,86.82 -24.22,23.9 -53.35,35.81 -87.47,35.81 -34.2,0 -63.4,-11.99 -87.62,-35.96 -24.22,-23.98 -36.37,-52.86 -36.37,-86.66 0,-34.44 12.15,-63.4 36.37,-86.9 24.22,-23.49 54.15,-35.24 89.72,-35.24zm-2.34 86.9c-9.49,0 -17.45,3.46 -24.06,10.3 -6.59,6.84 -9.9,15.21 -9.9,25.18 0,9.73 3.3,18.1 9.98,25.11 6.67,6.92 14.64,10.37 23.97,10.37 9.42,0 17.46,-3.46 24.14,-10.37 6.67,-7 9.97,-15.37 9.97,-25.11 0,-9.97 -3.3,-18.35 -9.9,-25.18 -6.59,-6.85 -14.65,-10.3 -24.22,-10.3z"/>
  <path id="26" class="fil14" d="M7203 867.71l88.35 0 0 196.09c0,36.05 -9.41,65.34 -28.32,88.03 -10.87,13.03 -24.71,23.42 -41.44,31.14 -16.73,7.72 -33.95,11.59 -51.58,11.59 -35.08,0 -64.69,-11.83 -88.75,-35.4 -24.06,-23.58 -36.13,-52.54 -36.13,-86.9 0,-33.15 11.99,-61.88 35.89,-86.1 23.9,-24.21 52.14,-36.36 84.89,-36.36 5.15,0 13.03,0.48 23.57,1.53l0 97.12c-7.24,-5.55 -14.48,-8.37 -21.72,-8.37 -9.18,0 -16.99,3.38 -23.5,10.06 -6.52,6.67 -9.81,14.72 -9.81,24.22 0,9.09 3.38,16.98 10.13,23.49 6.85,6.52 14.89,9.81 24.39,9.81 22.69,0 34.03,-15.69 34.03,-47.14l0 -192.8z"/>
  <path id="27" class="fil14" d="M7337.55 958l88.34 0 0 132.76c0,13.52 5.48,20.27 16.5,20.27 10.86,0 16.34,-6.75 16.34,-20.27l0 -132.76 88.34 0 0 131.07c0,30.57 -10.14,56.32 -30.41,77.32 -20.28,21.01 -45.06,31.54 -74.43,31.54 -33.47,0 -60.43,-12.23 -80.86,-36.61 -15.85,-19.07 -23.81,-45.45 -23.81,-79.33l0 -123.99z"/>
  <path id="28" class="fil14" d="M7742.84 1081.5l87.46 -3.3c-2.5,33.88 -15.12,61.8 -37.9,83.6 -22.77,21.8 -50.53,32.75 -83.19,32.75 -34.6,0 -63.73,-11.99 -87.55,-36.05 -23.82,-24.06 -35.73,-53.5 -35.73,-88.34 0,-33.16 11.99,-61.48 36.05,-85.05 24.06,-23.58 52.86,-35.32 86.5,-35.32 29.37,0 55.28,9.25 77.8,27.76 22.45,18.59 36.45,42.16 41.93,70.89l-89.31 3.3c-7.73,-10.06 -17.46,-15.05 -29.21,-15.05 -10.05,0 -18.35,3.3 -24.79,9.9 -6.43,6.6 -9.65,14.97 -9.65,25.03 0,10.22 3.38,18.74 10.22,25.67 6.85,6.92 15.37,10.37 25.59,10.37 14.89,0 25.5,-8.68 31.79,-26.15z"/>
  <path id="29" class="fil14" d="M7947.29 867.71l0 90.28 39.59 0 0 93.18 -39.59 0c0,18.67 2.89,31.54 8.77,38.62 5.88,7.08 16.66,10.62 32.26,10.62l0 92.61c-4.58,0.08 -7.96,0.08 -10.13,0.08 -19.96,0 -38.79,-4.67 -56.41,-13.92 -17.7,-9.26 -31.87,-21.81 -42.57,-37.66 -13.52,-20.19 -20.28,-47.07 -20.28,-80.46l0 -193.36 88.35 0z"/>
  <path id="30" class="fil14" d="M8141.7 949.79c33.39,0 61.95,11.99 85.77,35.96 23.9,23.98 35.81,52.71 35.81,86.18 0,33.95 -12.07,62.92 -36.21,86.82 -24.22,23.9 -53.35,35.81 -87.47,35.81 -34.2,0 -63.4,-11.99 -87.62,-35.96 -24.22,-23.98 -36.37,-52.86 -36.37,-86.66 0,-34.44 12.15,-63.4 36.37,-86.9 24.22,-23.49 54.15,-35.24 89.72,-35.24zm-2.34 86.9c-9.49,0 -17.45,3.46 -24.06,10.3 -6.59,6.84 -9.9,15.21 -9.9,25.18 0,9.73 3.3,18.1 9.98,25.11 6.67,6.92 14.64,10.37 23.97,10.37 9.42,0 17.46,-3.46 24.14,-10.37 6.67,-7 9.97,-15.37 9.97,-25.11 0,-9.97 -3.3,-18.35 -9.9,-25.18 -6.59,-6.85 -14.65,-10.3 -24.22,-10.3z"/>
  <path id="31" class="fil14" d="M8363.05 989.38l0 -17.3c-15.76,-0.89 -28.72,-6.44 -38.62,-16.58 -9.98,-10.14 -14.97,-22.77 -14.97,-37.9 0,-15.85 5.31,-29.21 15.93,-39.99 10.62,-10.78 23.81,-16.17 39.59,-16.17 15.29,0 28.09,5.39 38.46,16.25 10.38,10.87 15.62,24.39 15.62,40.39 0,16.66 -5.07,31.47 -15.21,44.42 -10.06,12.87 -23.66,21.8 -40.8,26.87zm128.42 0l0 -17.3c-15.69,-0.89 -28.4,-6.44 -38.3,-16.58 -9.9,-10.14 -14.8,-22.77 -14.8,-37.9 0,-15.85 5.31,-29.21 15.93,-39.99 10.62,-10.78 23.82,-16.17 39.6,-16.17 15.29,0 28.08,5.39 38.46,16.25 10.37,10.87 15.61,24.39 15.61,40.39 0,16.66 -5.07,31.47 -15.29,44.42 -10.22,12.87 -23.98,21.8 -41.2,26.87z"/>
 </g>
</svg>
