<?xml version="1.0" encoding="UTF-8"?>
<!DOCTYPE svg PUBLIC "-//W3C//DTD SVG 1.1//EN" "http://www.w3.org/Graphics/SVG/1.1/DTD/svg11.dtd">
<!-- Creator: CorelDRAW 2018 (64 Bit Versión de evaluación) -->
<svg xmlns="http://www.w3.org/2000/svg" xml:space="preserve" width="86.4659mm" height="16.9334mm" version="1.1" style="shape-rendering:geometricPrecision; text-rendering:geometricPrecision; image-rendering:optimizeQuality; fill-rule:evenodd; clip-rule:evenodd"
viewBox="0 0 8667.87 1697.51"
 xmlns:xlink="http://www.w3.org/1999/xlink">
 <defs>
  <style type="text/css">
   <![CDATA[
    .fil0 {fill:none}
    .fil12 {fill:#ED3237}
    .fil4 {fill:#DBA438}
    .fil8 {fill:#7A2D2E}
    .fil6 {fill:#52658C}
    .fil11 {fill:#00A859}
    .fil3 {fill:#0A5E5D}
    .fil1 {fill:#FEFEFE}
    .fil14 {fill:#FEFEFE;fill-rule:nonzero}
    .fil13 {fill:#ED3237;fill-rule:nonzero}
    .fil9 {fill:#DBA438;fill-rule:nonzero}
    .fil7 {fill:#7A2D2E;fill-rule:nonzero}
    .fil5 {fill:#52658C;fill-rule:nonzero}
    .fil10 {fill:#00A859;fill-rule:nonzero}
    .fil2 {fill:#0A5E5D;fill-rule:nonzero}
   ]]>
  </style>
 </defs>
 <g id="Capa_x0020_1">
  <metadata id="CorelCorpID_0Corel-Layer"/>
  <rect class="fil0" x="-0" y="-0" width="8667.87" height="1695.43"/>
  <g id="_2166025201232">
   <circle class="fil1" cx="1502.72" cy="848.75" r="843.89"/>
   <g>
    <path class="fil2" d="M1502.72 360.79c134.75,0 256.74,54.61 345.05,142.92 88.31,88.31 142.92,210.3 142.92,345.05 0,134.75 -54.61,256.74 -142.92,345.05 -88.31,88.31 -210.3,142.92 -345.05,142.92 -134.75,0 -256.74,-54.61 -345.05,-142.92 -88.31,-88.31 -142.92,-210.3 -142.92,-345.05 0,-134.75 54.61,-256.74 142.92,-345.05 88.31,-88.31 210.3,-142.92 345.05,-142.92zm335.65 152.31c-85.9,-85.89 -204.57,-139.02 -335.65,-139.02 -131.08,0 -249.75,53.13 -335.65,139.02 -85.89,85.9 -139.02,204.57 -139.02,335.65 0,131.08 53.13,249.75 139.02,335.65 85.9,85.89 204.57,139.02 335.65,139.02 131.08,0 249.75,-53.13 335.65,-139.02 85.89,-85.9 139.02,-204.57 139.02,-335.65 0,-131.08 -53.13,-249.75 -139.02,-335.65z"/>
    <path class="fil2" d="M1502.72 0c234.38,0 446.57,95 600.15,248.6 153.6,153.59 248.6,365.78 248.6,600.15 0,234.38 -95,446.57 -248.6,600.15 -153.59,153.6 -365.78,248.59 -600.15,248.59 -234.38,0 -446.57,-94.99 -600.15,-248.59 -153.6,-153.59 -248.59,-365.78 -248.59,-600.15 0,-234.38 94.99,-446.57 248.59,-600.15 153.59,-153.6 365.78,-248.6 600.15,-248.6zm590.76 257.99c-151.19,-151.18 -360.05,-244.7 -590.76,-244.7 -230.71,0 -439.57,93.52 -590.76,244.7 -151.18,151.19 -244.7,360.05 -244.7,590.76 0,230.71 93.52,439.57 244.7,590.76 151.19,151.18 360.05,244.7 590.76,244.7 230.71,0 439.57,-93.52 590.76,-244.7 151.18,-151.19 244.7,-360.05 244.7,-590.76 0,-230.71 -93.52,-439.57 -244.7,-590.76z"/>
    <path class="fil3" d="M1502.72 38c447.77,0 810.75,362.98 810.75,810.75 0,447.77 -362.98,810.75 -810.75,810.75 -447.77,0 -810.75,-362.98 -810.75,-810.75 0,-447.77 362.98,-810.75 810.75,-810.75zm-605.26 779.09c0.46,0.23 1.04,0.27 1.75,0.1 0.71,-0.16 1.28,-0.49 1.71,-1 1.72,-2.02 3.55,-4.54 5.46,-7.56 1.91,-3.02 3.82,-6.45 5.71,-10.28 1.89,-3.83 3.6,-7.95 5.09,-12.36 1.49,-4.42 2.68,-8.96 3.54,-13.64 2.14,-11.48 2.45,-21.61 0.94,-30.4 -1.5,-8.78 -4.31,-16.27 -8.41,-22.46 -4.11,-6.19 -9.2,-11.13 -15.3,-14.83 -6.09,-3.69 -12.66,-6.2 -19.7,-7.5 -12.77,-2.37 -23.96,-0.95 -33.56,4.23 -9.59,5.18 -18.23,14.33 -25.91,27.42 -4.71,8.07 -8.39,13.98 -11.04,17.75 -2.65,3.76 -5.61,5.34 -8.88,4.73 -2.79,-0.52 -4.62,-2.26 -5.51,-5.2 -0.89,-2.95 -0.88,-6.91 0.04,-11.87 1.41,-7.66 3.59,-14.11 6.51,-19.36 2.93,-5.25 5.5,-9.35 7.75,-12.32 1.13,-1.54 0.69,-2.8 -1.33,-3.76l-33.47 -15.45c-1.55,-0.73 -2.8,-0.44 -3.72,0.85 -3.78,4.87 -7.13,10.6 -10.03,17.16 -2.92,6.58 -5.28,14.76 -7.09,24.54 -1.74,9.35 -1.99,18.03 -0.77,26.03 1.23,8 3.73,15.1 7.49,21.29 3.77,6.2 8.62,11.31 14.57,15.35 5.93,4.03 12.76,6.77 20.45,8.19 7.21,1.33 13.81,1.31 19.83,-0.06 6.01,-1.38 11.55,-3.77 16.58,-7.16 5.03,-3.4 9.56,-7.54 13.6,-12.44 4.05,-4.89 7.6,-10.13 10.67,-15.73 7.22,-13.32 13.2,-19.55 17.94,-18.67 6.56,1.21 8.78,7.49 6.68,18.84 -1.44,7.8 -3.95,14.89 -7.5,21.26 -3.56,6.39 -7.07,11.6 -10.53,15.65 -0.62,0.62 -0.79,1.28 -0.5,1.99 0.29,0.72 0.9,1.3 1.83,1.77l35.11 14.87zm54.01 -264.26l37.95 8.16c0.66,0.18 1.29,0.14 1.89,-0.12 0.6,-0.26 1,-0.58 1.19,-0.96l20.15 -39.02c0.46,-0.89 0.42,-1.72 -0.12,-2.49 -0.54,-0.77 -1.24,-1.21 -2.12,-1.34l-166.46 -32.65c-1.32,-0.35 -2.28,0.05 -2.87,1.2l-24.71 47.85c-0.6,1.15 -0.37,2.17 0.68,3.03l124.29 114.32c0.6,0.64 1.38,0.96 2.32,0.96 0.94,0 1.64,-0.45 2.11,-1.35l19.05 -36.9c0.66,-1.27 0.4,-2.39 -0.8,-3.34 -4.88,-3.97 -9.74,-8.07 -14.61,-12.28 -4.85,-4.21 -9.79,-8.34 -14.82,-12.4l16.87 -32.67zm-48.33 8.64c-3.76,-3.25 -7,-6.05 -9.7,-8.43 -2.72,-2.37 -5.98,-5.11 -9.81,-8.23l-0.1 0.2c-1.73,-1.71 -3.62,-3.42 -5.65,-5.11 -2.02,-1.69 -4.17,-3.45 -6.42,-5.26 -0.68,-0.51 -1.48,-1.13 -2.42,-1.85 -0.94,-0.73 -1.74,-1.35 -2.42,-1.85 0.87,0.12 1.43,0.21 1.68,0.26 0.26,0.05 0.39,0.07 0.39,0.07 -0.07,0.13 0.03,0.22 0.28,0.27 0.25,0.05 0.96,0.22 2.14,0.5l-0.32 0.07c2.85,0.66 5.81,1.26 8.91,1.8 3.09,0.54 5.98,1.1 8.68,1.68 4.08,0.81 8.24,1.74 12.48,2.8 4.24,1.05 8.47,2.01 12.7,2.91l-10.43 20.18zm150.36 -92.24c1.39,1.43 2.72,1.54 3.95,0.34l28.37 -27.61c1.13,-1.11 1,-2.38 -0.39,-3.81l-40.6 -41.71 38.44 -37.41c1.13,-1.1 1.06,-2.32 -0.22,-3.63l-25.61 -26.31c-1.39,-1.43 -2.66,-1.59 -3.79,-0.49l-38.43 37.41 -15.69 -16.11 40.92 -39.83c1.24,-1.2 1.22,-2.47 -0.06,-3.78l-25.61 -26.31c-1.39,-1.43 -2.71,-1.54 -3.95,-0.34l-70.98 69.09c-1.24,1.2 -1.16,2.53 0.23,3.96l113.43 116.55zm175.7 -248.03c-0.82,-1.64 -1.93,-2.11 -3.36,-1.39l-48.96 24.43 -8.59 -17.2 52.06 -25.98c1.54,-0.77 1.91,-1.98 1.09,-3.62l-16.4 -32.86c-0.89,-1.78 -2.12,-2.3 -3.66,-1.52l-89.79 44.82c-1.42,0.71 -1.68,1.95 -0.79,3.74l72.63 145.52c0.89,1.79 2.06,2.33 3.47,1.62l92.7 -46.27c1.41,-0.7 1.68,-1.95 0.79,-3.74l-16.4 -32.86c-0.82,-1.63 -1.94,-2.11 -3.36,-1.39l-54.96 27.43 -9.81 -19.67 48.96 -24.44c1.42,-0.7 1.68,-1.95 0.79,-3.74l-16.4 -32.86zm144.19 60.67c0.34,1.96 1.29,2.81 2.86,2.54l38.99 -6.84c1.7,-0.29 2.39,-1.43 2.03,-3.4l-21.18 -120.82 37.28 -6.54c1.7,-0.3 2.4,-1.35 2.09,-3.16l-6.44 -36.66c-0.34,-1.97 -1.37,-2.81 -3.07,-2.51l-118.03 20.69c-1.55,0.28 -2.17,1.39 -1.82,3.37l6.44 36.66c0.31,1.8 1.25,2.57 2.82,2.3l36.85 -6.46 21.19 120.82zm226.86 -2.15c1.71,0.23 2.71,-0.65 2.97,-2.64l8.89 -68.12 62.35 -85.08c0.58,-1.1 0.75,-2.13 0.51,-3.09 -0.24,-0.95 -0.92,-1.5 -2.08,-1.65l-45.25 -5.9c-1.14,-0.15 -1.93,0.33 -2.37,1.45l-17.8 34.45c-1.37,2.69 -2.67,5.11 -3.9,7.31 -1.23,2.19 -2.43,4.38 -3.59,6.59 -1.22,2.7 -2.5,5.21 -3.82,7.56 -0.47,-1.9 -0.86,-3.39 -1.16,-4.43 -0.3,-1.04 -0.54,-2 -0.72,-2.87 -0.17,-0.86 -0.38,-1.77 -0.62,-2.73 -0.24,-0.95 -0.52,-2.38 -0.86,-4.27 -0.4,-1.39 -0.74,-2.91 -1.04,-4.54 -0.29,-1.63 -0.69,-3.33 -1.19,-5.07l-8.39 -37.62c-0.42,-1.23 -1.06,-1.9 -1.92,-2.01l-45.89 -5.99c-1.14,-0.15 -1.95,0.21 -2.43,1.07 -0.48,0.86 -0.58,1.89 -0.3,3.11 6.13,16.59 12.14,33.16 18.05,49.72 5.9,16.56 11.91,33.21 18.01,49.96l-8.66 66.39c-0.26,1.98 0.39,3.08 1.96,3.28l39.25 5.12zm214.31 28.47c0.14,-1.03 -0.01,-1.86 -0.44,-2.51 -0.43,-0.64 -1.03,-0.95 -1.83,-0.93 -3.51,0.1 -7.89,-0.4 -13.14,-1.51 -5.25,-1.11 -10.33,-2.74 -15.22,-4.87 -12.69,-5.53 -20.77,-13.6 -24.25,-24.2 -3.48,-10.61 -2.59,-21.93 2.68,-33.99 3.07,-7.03 6.75,-12.59 11.07,-16.7 4.31,-4.12 8.95,-7.1 13.91,-8.92 4.97,-1.83 10.11,-2.54 15.44,-2.13 5.33,0.41 10.57,1.74 15.72,4 5.95,2.59 10.96,5.45 15.02,8.59 4.06,3.13 7.31,6.23 9.74,9.29 0.53,0.59 1.17,0.83 1.93,0.71 0.76,-0.13 1.44,-0.51 2.03,-1.16l21.62 -29c0.93,-1.41 1,-2.65 0.21,-3.72 -2.38,-3.58 -6.62,-7.57 -12.72,-11.96 -6.1,-4.39 -13.52,-8.49 -22.24,-12.29 -10.98,-4.78 -22.04,-7.53 -33.22,-8.22 -11.19,-0.7 -21.92,0.83 -32.22,4.61 -10.31,3.78 -19.8,9.85 -28.49,18.23 -8.69,8.38 -15.96,19.3 -21.82,32.73 -4.53,10.38 -7.29,20.94 -8.28,31.68 -0.98,10.75 0.14,21.05 3.39,30.92 3.25,9.86 8.88,19.05 16.89,27.54 8.02,8.49 18.77,15.68 32.24,21.56 9.12,3.98 17.35,6.57 24.69,7.77 7.35,1.2 12.74,1.65 16.18,1.33 0.53,-0.13 1.07,-0.39 1.63,-0.78 0.56,-0.39 0.91,-0.92 1.05,-1.58l8.43 -34.48zm129.84 107.5l-18.36 34.22c-0.35,0.58 -0.48,1.19 -0.41,1.84 0.09,0.65 0.28,1.12 0.6,1.42l31.91 30.15c0.73,0.69 1.54,0.88 2.43,0.58 0.89,-0.31 1.51,-0.87 1.87,-1.67l77.46 -150.91c0.7,-1.16 0.58,-2.2 -0.36,-3.09l-39.14 -36.99c-0.94,-0.89 -1.97,-0.95 -3.11,-0.18l-144.25 87.78c-0.78,0.41 -1.3,1.06 -1.56,1.96 -0.25,0.9 -0.02,1.69 0.71,2.39l30.18 28.53c1.04,0.99 2.2,1.04 3.43,0.15 5.18,-3.59 10.46,-7.14 15.85,-10.64 5.39,-3.5 10.74,-7.1 16.02,-10.81l26.73 25.25zm5.08 -48.82c4.15,-2.72 7.74,-5.05 10.78,-7 3.03,-1.95 6.58,-4.33 10.63,-7.15l-0.16 -0.15c2.13,-1.2 4.28,-2.54 6.48,-4.02 2.2,-1.48 4.47,-3.05 6.84,-4.71 0.67,-0.5 1.49,-1.11 2.45,-1.8 0.96,-0.7 1.77,-1.3 2.46,-1.81 -0.36,0.81 -0.6,1.32 -0.72,1.55 -0.12,0.23 -0.18,0.35 -0.18,0.35 -0.1,-0.1 -0.21,-0.03 -0.33,0.2 -0.12,0.23 -0.48,0.86 -1.07,1.91l0.02 -0.34c-1.42,2.56 -2.83,5.24 -4.2,8.07 -1.38,2.82 -2.73,5.44 -4.03,7.88 -1.9,3.7 -3.95,7.44 -6.14,11.22 -2.19,3.78 -4.28,7.58 -6.31,11.4l-16.5 -15.6zm49.74 168.59c-1.78,0.89 -2.3,2.12 -1.52,3.67l17.48 35.03c0.71,1.41 1.95,1.67 3.75,0.78l45.59 -22.76c0.37,1.1 0.87,2.31 1.51,3.6 0.65,1.28 1.29,2.58 1.93,3.87 4.89,9.8 10.72,18.01 17.46,24.64 6.75,6.63 14.3,11.4 22.65,14.33 6.45,2.1 13.58,2.6 21.42,1.51 7.83,-1.09 15.32,-3.42 22.48,-6.99 8.34,-4.17 15.03,-9.52 20.05,-16.06 5.02,-6.53 8.34,-13.02 9.96,-19.48 1.32,-6.3 1.36,-13.48 0.12,-21.57 -1.24,-8.08 -4.28,-16.96 -9.11,-26.64 -5.66,-11.35 -10.69,-20.57 -15.06,-27.65 -4.37,-7.09 -8.23,-12.86 -11.57,-17.31 -0.94,-1.14 -2.09,-1.38 -3.43,-0.71l-143.72 71.74zm133.26 -17.19c0.81,0.88 1.6,2.1 2.38,3.65 0.77,1.54 1.7,3.42 2.8,5.6 3.16,6.33 4.17,11.7 3.03,16.14 -1.13,4.43 -4.01,7.81 -8.63,10.11 -5.66,2.83 -11.02,3 -16.07,0.52 -5.05,-2.48 -9.12,-6.81 -12.21,-13 -0.84,-1.67 -1.51,-3.03 -2.03,-4.06 -0.45,-0.9 -0.85,-1.9 -1.22,-3.02l31.97 -15.95zm-51.2 178.96c-0.52,-0.05 -1.08,0.12 -1.68,0.52 -0.6,0.39 -1.02,0.9 -1.25,1.53 -0.91,2.5 -1.74,5.5 -2.48,9 -0.74,3.49 -1.33,7.37 -1.77,11.62 -0.44,4.24 -0.58,8.7 -0.44,13.36 0.14,4.65 0.62,9.32 1.44,14.01 2.01,11.51 5.26,21.11 9.74,28.81 4.48,7.71 9.72,13.74 15.73,18.1 6,4.36 12.51,7.22 19.51,8.55 7,1.33 14.02,1.38 21.07,0.14 12.8,-2.25 22.79,-7.47 29.97,-15.68 7.18,-8.22 12.08,-19.8 14.71,-34.76 1.59,-9.2 2.98,-16.04 4.14,-20.48 1.16,-4.45 3.39,-6.97 6.67,-7.54 2.79,-0.49 5.12,0.49 6.99,2.95 1.86,2.46 3.24,6.17 4.11,11.14 1.34,7.67 1.56,14.48 0.66,20.41 -0.9,5.94 -1.88,10.69 -2.96,14.24 -0.52,1.84 0.33,2.87 2.57,3.07l36.76 2.77c1.71,0.14 2.77,-0.55 3.18,-2.09 1.84,-5.89 2.98,-12.42 3.42,-19.6 0.43,-7.18 -0.21,-15.66 -1.93,-25.46 -1.64,-9.37 -4.43,-17.59 -8.38,-24.66 -3.94,-7.07 -8.76,-12.84 -14.46,-17.33 -5.69,-4.5 -12.03,-7.59 -19.01,-9.3 -6.98,-1.69 -14.32,-1.87 -22.02,-0.52 -7.22,1.26 -13.4,3.59 -18.57,6.99 -5.15,3.39 -9.49,7.56 -13.02,12.49 -3.53,4.94 -6.34,10.41 -8.41,16.41 -2.08,5.99 -3.58,12.15 -4.5,18.47 -2.1,15.01 -5.53,22.93 -10.29,23.76 -6.57,1.15 -10.84,-3.95 -12.83,-15.32 -1.37,-7.81 -1.5,-15.33 -0.4,-22.55 1.09,-7.22 2.57,-13.33 4.39,-18.34 0.37,-0.8 0.29,-1.48 -0.23,-2.05 -0.52,-0.57 -1.3,-0.91 -2.34,-1.02l-38.08 -1.66zm-1118.26 562.86l5.52 16.98c-9.36,3.38 -17.71,3.9 -25.04,1.6 -7.32,-2.32 -13.66,-7.29 -19.06,-14.95 -6.67,-9.49 -8.9,-19.57 -6.73,-30.24 2.2,-10.66 8.91,-19.95 20.16,-27.86 11.89,-8.35 23.3,-11.78 34.19,-10.27 10.89,1.5 19.86,7.27 26.9,17.28 6.15,8.74 8.54,17.66 7.21,26.75 -0.77,5.41 -3.46,10.93 -8.05,16.58l-13.41 -11.88c3.1,-3.44 4.78,-7.26 5.04,-11.44 0.25,-4.21 -0.97,-8.21 -3.66,-12.03 -3.73,-5.3 -8.65,-8.28 -14.77,-8.89 -6.12,-0.65 -13.42,2.02 -21.93,8.01 -9.01,6.34 -14.31,12.49 -15.85,18.42 -1.54,5.95 -0.49,11.53 3.17,16.73 2.7,3.84 6.24,6.3 10.62,7.34 4.39,1.03 9.61,0.34 15.69,-2.14zm47.14 101.44l-13.09 -13.83 9.25 -19.14 -24.07 -25.42 -19.42 8.39 -12.85 -13.57 86.69 -35.4 12.84 13.56 -39.36 85.41zm2.94 -47.27l15.12 -31.03 -31.56 13.65 16.44 17.37zm4.13 53.53l57.04 -66.08 21.39 18.48c8.11,7 13.11,11.87 15,14.66 2.93,4.27 4.23,9.15 3.92,14.68 -0.31,5.53 -2.75,10.93 -7.29,16.19 -3.5,4.06 -7.18,6.82 -11.03,8.33 -3.86,1.49 -7.6,2.06 -11.23,1.68 -3.62,-0.38 -6.83,-1.32 -9.6,-2.84 -3.73,-2.12 -8.6,-5.76 -14.64,-10.97l-8.67 -7.49 -21.51 24.91 -13.38 -11.55zm60.79 -43.36l-16.26 18.83 7.28 6.28c5.24,4.53 9.04,7.19 11.41,8.02 2.37,0.84 4.68,0.95 6.97,0.33 2.28,-0.61 4.26,-1.88 5.96,-3.86 2.08,-2.41 3.08,-5 3.04,-7.78 -0.06,-2.8 -0.98,-5.3 -2.8,-7.58 -1.33,-1.65 -4.39,-4.56 -9.19,-8.7l-6.41 -5.53zm12.06 70.28l15.44 7.75c-2.2,5.41 -2.7,10.07 -1.48,14.04 1.21,3.97 4.09,7.38 8.6,10.24 4.77,3.02 9.02,4.29 12.72,3.8 3.71,-0.49 6.43,-2.1 8.14,-4.81 1.11,-1.74 1.53,-3.55 1.3,-5.42 -0.24,-1.86 -1.35,-4.06 -3.33,-6.56 -1.34,-1.71 -4.62,-5.28 -9.82,-10.74 -6.69,-7.03 -10.73,-13 -12.1,-17.93 -1.93,-6.93 -1.04,-13.31 2.67,-19.17 2.38,-3.76 5.68,-6.63 9.86,-8.56 4.21,-1.93 8.84,-2.5 13.92,-1.67 5.09,0.81 10.45,3 16.11,6.59 9.21,5.83 14.88,12.28 16.93,19.34 2.08,7.06 1.05,14.05 -3.04,21.06l-15.27 -8.94c1.77,-4.22 2.16,-7.8 1.12,-10.79 -1.02,-2.98 -3.61,-5.79 -7.77,-8.43 -4.29,-2.72 -8.22,-3.95 -11.77,-3.7 -2.3,0.16 -4.05,1.19 -5.27,3.11 -1.1,1.75 -1.31,3.72 -0.62,5.88 0.86,2.79 4.37,7.32 10.52,13.6 6.15,6.28 10.36,11.45 12.66,15.45 2.31,4.03 3.44,8.24 3.38,12.66 -0.05,4.41 -1.54,8.94 -4.49,13.59 -2.68,4.23 -6.36,7.46 -11.04,9.65 -4.69,2.21 -9.74,2.86 -15.17,1.92 -5.43,-0.92 -11.36,-3.42 -17.76,-7.47 -9.32,-5.9 -15.12,-12.58 -17.39,-20.06 -2.28,-7.45 -1.28,-15.6 2.95,-24.44zm97.79 -7.52l15.69 8.16 -21.83 41.96c-3.47,6.68 -5.51,11.09 -6.16,13.24 -0.98,3.52 -0.75,6.9 0.74,10.1 1.5,3.23 4.41,5.95 8.74,8.21 4.38,2.28 8.16,3.1 11.35,2.45 3.18,-0.66 5.66,-2.19 7.5,-4.6 1.83,-2.42 4.34,-6.68 7.53,-12.8l22.3 -42.87 15.68 8.16 -21.18 40.72c-4.84,9.3 -8.68,15.67 -11.52,19.07 -2.85,3.4 -6.08,5.83 -9.73,7.31 -3.64,1.47 -7.75,1.98 -12.35,1.58 -4.62,-0.41 -9.97,-2.19 -16.09,-5.36 -7.37,-3.83 -12.51,-7.59 -15.43,-11.28 -2.91,-3.69 -4.77,-7.48 -5.56,-11.37 -0.79,-3.9 -0.75,-7.5 0.11,-10.88 1.28,-4.96 4.19,-11.79 8.7,-20.46l21.51 -41.35zm39.06 116.66l31.2 -80.74 16.49 6.37 -25.88 66.98 40.83 15.78 -5.31 13.76 -57.32 -22.15zm145.88 44.11l-18.57 -4.24 -2.93 -21.05 -34.13 -7.79 -11.5 17.76 -18.22 -4.16 52.47 -77.56 18.21 4.15 14.67 92.89zm-23.8 -40.95l-4.63 -34.19 -18.69 28.87 23.32 5.32zm32.32 13.6l17.26 0.59c0.26,5.83 1.75,10.29 4.52,13.38 2.77,3.1 6.8,4.99 12.09,5.7 5.59,0.75 9.98,0.13 13.14,-1.87 3.16,-1.98 4.96,-4.58 5.39,-7.76 0.27,-2.06 -0.1,-3.87 -1.09,-5.47 -0.99,-1.59 -2.93,-3.12 -5.76,-4.57 -1.93,-0.99 -6.4,-2.87 -13.4,-5.65 -9.01,-3.59 -15.18,-7.33 -18.49,-11.23 -4.65,-5.49 -6.52,-11.66 -5.59,-18.54 0.59,-4.41 2.4,-8.39 5.39,-11.9 3.01,-3.51 6.99,-5.95 11.95,-7.34 4.96,-1.38 10.74,-1.63 17.38,-0.74 10.82,1.45 18.66,4.94 23.47,10.49 4.83,5.55 6.83,12.34 6.03,20.41l-17.6 -1.74c-0.15,-4.57 -1.3,-7.99 -3.48,-10.27 -2.18,-2.29 -5.71,-3.76 -10.59,-4.42 -5.03,-0.67 -9.12,-0.15 -12.24,1.56 -2.01,1.1 -3.19,2.77 -3.49,5.02 -0.27,2.06 0.36,3.92 1.89,5.6 1.94,2.18 7.03,4.82 15.23,7.97 8.21,3.14 14.19,6.06 17.96,8.75 3.77,2.7 6.57,6.04 8.36,10.07 1.79,4.03 2.33,8.78 1.59,14.24 -0.66,4.95 -2.66,9.42 -5.99,13.37 -3.35,3.97 -7.67,6.67 -12.98,8.08 -5.31,1.44 -11.74,1.64 -19.26,0.64 -10.93,-1.46 -18.99,-5.11 -24.17,-10.96 -5.19,-5.82 -7.69,-13.64 -7.54,-23.44zm192.45 26.6l-9.9 13.09c-5,-2.34 -9.83,-5.58 -14.48,-9.74 -3.46,3.23 -7.18,5.63 -11.12,7.21 -3.93,1.58 -8.63,2.42 -14.11,2.52 -10.85,0.19 -19.08,-2.73 -24.67,-8.74 -4.33,-4.64 -6.54,-10.04 -6.65,-16.2 -0.11,-5.61 1.46,-10.68 4.74,-15.21 3.25,-4.53 8.18,-8.5 14.77,-11.91 -3.06,-3.48 -5.36,-6.82 -6.93,-9.99 -1.58,-3.19 -2.39,-6.21 -2.44,-9.06 -0.1,-5.28 1.93,-9.81 6.09,-13.56 4.13,-3.76 10.13,-5.71 17.93,-5.85 7.52,-0.13 13.44,1.68 17.76,5.45 4.31,3.78 6.52,8.44 6.61,14 0.07,3.54 -0.91,6.91 -2.94,10.11 -2.03,3.21 -6.19,6.88 -12.45,11l12.3 15.93c1.37,-2.54 2.54,-5.87 3.5,-9.95l15.22 3.12c-1.4,5.39 -2.66,9.35 -3.73,11.86 -1.05,2.5 -2.22,4.6 -3.46,6.3 1.89,1.71 4.35,3.58 7.35,5.62 3.01,2.03 5.2,3.38 6.6,4.02zm-46.38 -46.71l4.43 -3.56c3.27,-2.64 4.86,-5.22 4.82,-7.77 -0.04,-2.16 -0.86,-3.97 -2.5,-5.44 -1.61,-1.49 -3.78,-2.21 -6.51,-2.16 -2.64,0.04 -4.7,0.75 -6.19,2.1 -1.45,1.37 -2.18,2.93 -2.15,4.68 0.04,2.07 1.34,4.54 3.91,7.45l4.17 4.7zm-6.22 18.31c-3.78,2.02 -6.61,4.43 -8.46,7.21 -1.84,2.78 -2.75,5.6 -2.7,8.44 0.07,3.62 1.29,6.57 3.7,8.79 2.38,2.26 5.54,3.34 9.5,3.27 2.61,-0.05 5.11,-0.6 7.49,-1.68 2.41,-1.07 4.99,-2.83 7.79,-5.28l-17.32 -20.74zm116.38 27.62l-12.23 -71.5 -25.47 4.35 -2.49 -14.55 68.26 -11.67 2.49 14.55 -25.35 4.33 12.22 71.51 -17.42 2.98zm119.67 -33.55l-18.04 6.04 -13.46 -16.45 -33.2 11.13 -0.56 21.14 -17.73 5.94 4.41 -93.54 17.7 -5.93 60.89 71.67zm-41.63 -22.58l-21.76 -26.78 -0.91 34.37 22.68 -7.6zm50.52 19.38l-35.94 -79.56 25.75 -11.64c9.76,-4.4 16.29,-6.89 19.61,-7.43 5.1,-0.86 10.08,0.01 14.97,2.63 4.88,2.61 8.75,7.08 11.62,13.41 2.21,4.89 3.17,9.38 2.92,13.51 -0.27,4.13 -1.33,7.76 -3.2,10.9 -1.86,3.12 -4.08,5.63 -6.62,7.52 -3.49,2.49 -8.85,5.37 -16.11,8.65l-10.45 4.72 13.55 30 -16.11 7.28zm-13.75 -73.39l10.24 22.67 8.76 -3.96c6.32,-2.85 10.33,-5.17 12.08,-6.97 1.75,-1.8 2.84,-3.85 3.23,-6.19 0.4,-2.33 0.08,-4.66 -0.99,-7.03 -1.31,-2.91 -3.24,-4.91 -5.78,-6.03 -2.55,-1.12 -5.22,-1.34 -8.05,-0.64 -2.07,0.5 -5.97,2.06 -11.76,4.66l-7.72 3.49zm61.68 5.84c-4.83,-7.47 -7.77,-14.48 -8.82,-21.01 -0.76,-4.8 -0.64,-9.64 0.32,-14.48 0.96,-4.83 2.7,-9.08 5.18,-12.75 3.33,-4.88 7.98,-9.26 13.94,-13.12 10.82,-7 21.63,-9.21 32.47,-6.72 10.83,2.54 20.1,9.77 27.84,21.73 7.67,11.86 10.45,23.23 8.34,34.07 -2.1,10.87 -8.55,19.78 -19.32,26.75 -10.91,7.05 -21.74,9.33 -32.49,6.83 -10.74,-2.5 -19.9,-9.59 -27.47,-21.3zm14.94 -10.36c5.37,8.31 11.37,13.36 17.99,15.18 6.61,1.8 12.87,0.8 18.78,-3.02 5.92,-3.83 9.39,-9.1 10.45,-15.81 1.03,-6.72 -1.2,-14.33 -6.71,-22.84 -5.43,-8.41 -11.34,-13.5 -17.71,-15.24 -6.37,-1.76 -12.6,-0.66 -18.73,3.3 -6.1,3.95 -9.68,9.24 -10.72,15.84 -1.02,6.62 1.18,14.13 6.65,22.59zm90.81 -7.48l-53.36 -69.08 13.53 -10.47 64.2 24.34 -35.77 -46.3 12.93 -9.98 53.37 69.08 -13.98 10.8 -63.07 -23.78 35.09 45.41 -12.93 9.98zm68.67 -55.23l-63.37 -60.04 44.44 -46.91 10.71 10.14 -32.28 34.07 14.07 13.33 30.01 -31.69 10.72 10.14 -30.02 31.69 17.17 16.26 33.45 -35.31 10.72 10.14 -45.62 48.15zm30.33 -73.95l9.51 -14.42c5.12,2.83 9.69,3.87 13.77,3.13 4.09,-0.73 7.81,-3.19 11.18,-7.33 3.56,-4.39 5.32,-8.45 5.27,-12.19 -0.05,-3.74 -1.32,-6.63 -3.81,-8.65 -1.61,-1.3 -3.35,-1.93 -5.24,-1.92 -1.87,0.02 -4.19,0.86 -6.91,2.53 -1.85,1.13 -5.78,3.97 -11.82,8.49 -7.76,5.81 -14.16,9.11 -19.23,9.89 -7.11,1.11 -13.34,-0.53 -18.73,-4.9 -3.45,-2.81 -5.9,-6.43 -7.34,-10.81 -1.42,-4.41 -1.42,-9.07 -0.01,-14.02 1.4,-4.96 4.21,-10.01 8.43,-15.22 6.89,-8.47 13.95,-13.32 21.2,-14.54 7.25,-1.22 14.08,0.61 20.55,5.5l-10.68 14.1c-3.97,-2.27 -7.49,-3.06 -10.58,-2.4 -3.08,0.67 -6.19,2.91 -9.28,6.73 -3.21,3.94 -4.9,7.7 -5.07,11.26 -0.11,2.29 0.71,4.16 2.48,5.59 1.6,1.3 3.53,1.74 5.76,1.31 2.87,-0.53 7.78,-3.48 14.75,-8.83 6.96,-5.37 12.59,-8.94 16.83,-10.76 4.28,-1.8 8.59,-2.44 12.97,-1.86 4.37,0.57 8.7,2.6 12.97,6.06 3.88,3.16 6.66,7.2 8.29,12.11 1.63,4.91 1.67,10.01 0.11,15.29 -1.54,5.28 -4.72,10.87 -9.5,16.75 -6.97,8.56 -14.28,13.53 -21.96,14.91 -7.68,1.38 -15.65,-0.57 -23.93,-5.81zm-516.09 -960.54c283.95,0 514.14,230.2 514.14,514.14 0,283.95 -230.2,514.14 -514.14,514.14 -283.95,0 -514.14,-230.2 -514.14,-514.14 0,-283.95 230.2,-514.14 514.14,-514.14z"/>
    <path class="fil4" d="M1374 798.75l0.29 -0.06 0 4.68 0.19 -0.02 0.27 -0.03 0.09 0 0.36 -0.04 0.01 0 0.36 -0.03 0.1 -0.01 0.27 -0.02 0.2 -0.02 0.16 -0.01 0.31 -0.03 0.06 0 0.37 -0.03 0.04 0 0.32 -0.03 0.15 -0.01 0.22 -0.02 0.25 -0.02 0.12 -0.01 0.75 -0.05 0.07 0 0.3 -0.03 0.17 -0.01 0.2 -0.01 0.28 -0.02 0.09 -0.01 0.38 -0.02 0 0 0.37 -0.02 0.11 -0.01 0.27 -0.02 0.21 -0.01 0.16 -0.01 0.32 -0.02 0.06 0 0.38 -0.02 0.04 0 0.34 -0.02 0.14 -0.01 0.23 -0.01 0.25 -0.01 0.13 -0.01 0.35 -0.02 0.03 0 0.38 -0.02 0.08 0 0.3 -0.01 0.18 -0.01 0.21 -0.01 0.28 -0.01 0.1 -0.01 0.38 -0.01 0 0 0.38 -0.02 0.11 0 0.49 -0.01 0.17 -0.01 0.32 -0.01 0.07 0 0.38 -0.02 0.04 0 0.35 -0.01 0.14 0 0.24 -0.01 0.25 0 0.14 -0.01 0.36 0 0.03 -0.01 0.39 -0.01 0.07 0 0.32 0 0.18 -0.01 0.21 0 0.28 -0.01 0.11 0 0.78 -0.01 0.11 0 0.28 0 0.21 -0.01 0.18 0 0.32 0 0.07 0 0.4 0 0.03 0 0.36 -0.01 0.14 0 0.25 0 0.26 0 0.93 0 0.07 0 0.32 0 0.19 0.01 0.21 0 0.29 0 0.11 0 0.4 0c10.82,0.11 21.11,0.96 30.48,2.44 9.77,1.52 18.56,3.71 25.88,6.39 6.85,2.51 12.37,5.35 16.17,8.4 3.92,3.14 8.42,6.56 8.39,10.1 0,4.81 0.1,9.57 0.06,14.41l-0.46 55.62c3.46,0.23 6.94,0.43 10.42,0.58 4.69,0.2 9.43,0.32 14.21,0.36 17.99,0.16 35.16,-0.82 50.82,-2.75 16.23,-1.98 30.81,-4.98 42.96,-8.75 11.14,-3.46 20.11,-7.42 26.21,-11.66 5.56,-3.86 8.64,-7.87 8.68,-11.83l1.17 -130.58c-3.27,2.91 -7.24,5.64 -11.85,8.17 -6.09,3.36 -13.33,6.37 -21.53,8.99 -12.54,4.01 -27.45,7.19 -43.98,9.3 -15.89,2.02 -33.26,3.08 -51.46,2.91 -18.21,-0.16 -35.58,-1.51 -51.41,-3.83 -16.48,-2.41 -31.34,-5.85 -43.8,-10.08 -8.14,-2.77 -15.33,-5.91 -21.36,-9.37 -4.57,-2.62 -8.49,-5.42 -11.71,-8.4l-0.59 65.88z"/>
    <path class="fil5" d="M1809.61 931.45c-4.84,-2.41 -10.49,-4.68 -16.83,-6.8l0 0c-12.15,-4.05 -26.67,-7.35 -42.82,-9.65 -15.52,-2.22 -32.59,-3.51 -50.52,-3.67 -17.95,-0.15 -35.04,0.84 -50.57,2.78 -5.39,0.67 -10.62,1.46 -15.62,2.35l1.37 -150.73c7.65,1.07 14.26,1.73 22.48,2.35 8.63,0.65 17.59,1.02 26.81,1.11 18.74,0.16 36.66,-0.92 53.05,-3.04 17.07,-2.21 32.49,-5.51 45.46,-9.68 6.56,-2.12 12.51,-4.47 17.78,-7.04 4.11,-2 7.82,-4.15 11.11,-6.42l-1.69 188.44z"/>
    <path class="fil6" d="M1557.51 681.91c2.23,0.31 4.45,0.69 6.61,1.12l0 -75.86c0,-1.3 1.06,-2.36 2.36,-2.36 1.3,0 2.36,1.05 2.36,2.36l0 76.76c6.62,1.35 12.81,2.82 18.59,4.49l0 -72.12c0,-1.3 1.05,-2.36 2.36,-2.36 1.3,0 2.36,1.05 2.36,2.36l0 73.54c1.11,0.35 2.21,0.7 3.28,1.07 5.7,1.9 10.84,4 15.31,6.19l0 -74.74c0,-1.3 1.05,-2.36 2.36,-2.36 1.29,0 2.36,1.05 2.36,2.36l0 77.21c2.26,1.28 4.28,2.59 6.07,3.92 5.33,3.98 8.59,8.23 9.35,12.62l3.55 11.14 -0.38 -10.94 0 -90.06c0,-1.3 1.06,-2.37 2.36,-2.37 1.3,0 2.36,1.06 2.36,2.37l0 111.24c0,1.3 -1.05,2.36 -2.36,2.36 -0.57,0 -1.09,-0.2 -1.5,-0.55l0 8.04c15.68,2.22 32.92,3.51 51.04,3.68 36.9,0.33 70.23,-4.12 94.28,-11.58 6.42,-1.98 12.13,-4.14 17,-6.43 3.32,-1.59 6.23,-3.25 8.67,-4.94 5.55,-3.87 8.64,-7.88 8.67,-11.84l1.17 -130.58c-3.26,2.91 -7.24,5.64 -11.85,8.18 -6.09,3.35 -13.33,6.37 -21.53,8.98 -12.53,4.01 -27.45,7.19 -43.98,9.3 -15.88,2.03 -33.26,3.08 -51.46,2.91 -18.21,-0.16 -35.58,-1.51 -51.41,-3.83 -16.48,-2.41 -31.34,-5.85 -43.8,-10.08 -8.14,-2.77 -15.33,-5.91 -21.36,-9.37 -4.56,-2.62 -8.49,-5.42 -11.71,-8.4l-0.88 98.6 -0.22 -0.03zm239.61 -70c0,-1.29 1.05,-2.36 2.36,-2.36 1.3,0 2.36,1.06 2.36,2.36l0 112.82c0,1.3 -1.05,2.36 -2.36,2.36 -1.3,0 -2.36,-1.05 -2.36,-2.36l0 -112.82zm-23.29 7.43c0,-1.3 1.05,-2.36 2.36,-2.36 1.29,0 2.36,1.05 2.36,2.36l0 112.69c0,1.3 -1.06,2.36 -2.36,2.36 -1.3,0 -2.36,-1.05 -2.36,-2.36l0 -112.69zm-23.3 5.03c0,-1.3 1.05,-2.37 2.36,-2.37 1.3,0 2.36,1.06 2.36,2.37l0 112.17c0,1.3 -1.05,2.36 -2.36,2.36 -1.3,0 -2.36,-1.05 -2.36,-2.36l0 -112.17zm-23.32 3.09c0,-1.3 1.06,-2.36 2.36,-2.36 1.3,0 2.36,1.05 2.36,2.36l0 111.45c0,1.3 -1.05,2.36 -2.36,2.36 -1.29,0 -2.36,-1.05 -2.36,-2.36l0 -111.45zm-23.29 1.55c0,-1.3 1.05,-2.36 2.36,-2.36 1.29,0 2.36,1.05 2.36,2.36l0 110.79c0,1.3 -1.06,2.36 -2.36,2.36 -1.3,0 -2.36,-1.05 -2.36,-2.36l0 -110.79zm-23.32 0.3c0,-1.29 1.05,-2.36 2.36,-2.36 1.29,0 2.36,1.06 2.36,2.36l0 110.57c0,1.3 -1.06,2.36 -2.36,2.36 -1.3,0 -2.36,-1.05 -2.36,-2.36l0 -110.57zm-23.3 -0.85c0,-1.29 1.05,-2.36 2.36,-2.36 1.3,0 2.36,1.06 2.36,2.36l0 110.84c0,1.3 -1.05,2.36 -2.36,2.36 -1.3,0 -2.36,-1.05 -2.36,-2.36l0 -110.84z"/>
    <path class="fil5" d="M1636.78 533.48c-15.72,1.99 -29.85,5 -41.66,8.77 -10.78,3.45 -19.47,7.4 -25.38,11.64 -5.38,3.87 -8.37,7.88 -8.41,11.87 -0.03,3.98 2.88,8.06 8.19,12.02 5.83,4.34 14.45,8.44 25.18,12.09 11.74,3.98 25.8,7.24 41.49,9.51 15.14,2.2 31.76,3.48 49.2,3.64 17.47,0.16 34.11,-0.83 49.27,-2.76 15.73,-1.99 29.85,-4.99 41.66,-8.76 10.78,-3.45 19.47,-7.4 25.38,-11.65 5.38,-3.86 8.38,-7.88 8.41,-11.86 0.04,-3.99 -2.88,-8.06 -8.19,-12.02 -5.83,-4.34 -14.45,-8.45 -25.18,-12.1 -11.74,-3.98 -25.81,-7.23 -41.49,-9.5 -15.14,-2.21 -31.76,-3.49 -49.2,-3.64 -17.46,-0.16 -34.1,0.82 -49.27,2.75z"/>
    <path class="fil7" d="M1370.97 803.7c-1.62,0.18 -3.23,0.38 -4.81,0.6 -9.8,1.33 -18.63,3.35 -25.99,5.88 -6.87,2.37 -12.44,5.11 -16.3,8.09 -3.63,2.81 -5.78,5.87 -6.15,9.09l-2.01 0 -1.67 234.91c-3.79,0.2 -7.6,0.34 -11.42,0.43 -4.33,0.1 -8.71,0.14 -13.14,0.1 -17.92,-0.16 -35,-1.49 -50.53,-3.76 -16.09,-2.35 -30.51,-5.69 -42.53,-9.8 -10.86,-3.71 -19.57,-7.86 -25.45,-12.22 -5.38,-3.98 -8.33,-8.05 -8.29,-12l2.18 -243.08c3.24,2.33 6.91,4.53 10.98,6.61 5.23,2.68 11.16,5.14 17.67,7.37 12.89,4.4 28.24,7.99 45.26,10.5 16.33,2.41 34.22,3.82 52.99,3.99 14.84,0.13 29.15,-0.52 42.58,-1.84 13.16,-1.3 25.48,-3.24 36.65,-5.71l0 0.85z"/>
    <path class="fil8" d="M1164.83 627l-1.16 128.93 0.38 0 -0.01 1.65c-0.04,3.98 2.97,8.04 8.46,12 6.01,4.34 14.92,8.46 26.01,12.12 12.1,3.99 26.61,7.25 42.78,9.53 15.62,2.2 32.77,3.49 50.77,3.65 14.83,0.13 29.08,-0.51 42.38,-1.8 13.23,-1.3 25.53,-3.25 36.52,-5.74l0 -75.98 0.12 0c0.63,-4.6 4.02,-9 9.67,-13.06 6.18,-4.43 15.19,-8.54 26.32,-12.1l0 0c1.12,-0.36 2.25,-0.7 3.37,-1.04 0.13,0 0.97,-0.28 1.16,-0.33l0.01 -0.01c1.12,-0.32 2.25,-0.63 3.38,-0.94l0 0c0.78,-0.21 1.55,-0.41 2.33,-0.61l0.01 0c1.2,-0.31 2.42,-0.6 3.63,-0.89l0 -0.01 0.47 -0.11 0.47 -52.93c-3.26,2.91 -7.24,5.64 -11.85,8.17 -6.09,3.36 -13.33,6.37 -21.53,8.99 -12.53,4.01 -27.45,7.19 -43.98,9.3 -15.88,2.02 -33.26,3.08 -51.46,2.91 -18.21,-0.16 -35.58,-1.51 -51.41,-3.83 -16.48,-2.41 -31.34,-5.85 -43.8,-10.08 -8.14,-2.77 -15.33,-5.91 -21.36,-9.37 -4.56,-2.62 -8.49,-5.42 -11.7,-8.4z"/>
    <path class="fil7" d="M1244.61 574.71c-15.72,1.99 -29.85,5 -41.65,8.77 -10.79,3.45 -19.47,7.4 -25.39,11.64 -5.38,3.87 -8.37,7.88 -8.41,11.87 -0.03,3.98 2.89,8.06 8.19,12.02 5.83,4.34 14.45,8.44 25.18,12.09 11.74,3.98 25.81,7.24 41.49,9.51 15.15,2.2 31.77,3.48 49.21,3.64 17.46,0.16 34.09,-0.83 49.26,-2.76 15.73,-1.99 29.85,-4.99 41.66,-8.76 10.79,-3.45 19.47,-7.4 25.38,-11.65 5.39,-3.86 8.38,-7.88 8.41,-11.86 0.04,-3.99 -2.88,-8.06 -8.19,-12.02 -5.82,-4.34 -14.45,-8.45 -25.18,-12.09 -11.74,-3.99 -25.8,-7.24 -41.48,-9.51 -15.15,-2.2 -31.77,-3.49 -49.21,-3.64 -17.46,-0.16 -34.1,0.82 -49.27,2.75z"/>
    <path class="fil9" d="M1487.35 915.91c-4.16,-0.18 -6.43,-0.29 -10.39,-0.57l-0.69 171.19c3.72,0.25 6.34,0.39 10.06,0.54 4.27,0.17 8.57,0.28 12.9,0.32 12.68,0.11 24.98,-0.37 36.64,-1.37 11.49,-0.98 22.31,-2.47 32.25,-4.38l0 -132.52 1.02 0c0.28,-4.95 3.79,-9.68 9.94,-14.02 6.3,-4.43 15.46,-8.54 26.78,-12.1 6.85,-2.15 14.45,-4.05 22.66,-5.65l0.36 -27.23c-3.28,2.27 -6.99,4.4 -11.09,6.41 -5.27,2.57 -11.23,4.92 -17.78,7.04 -12.97,4.16 -28.39,7.48 -45.46,9.68 -16.39,2.12 -34.31,3.2 -53.05,3.04 -4.8,-0.05 -9.52,-0.17 -14.15,-0.37l0 0z"/>
    <path class="fil10" d="M1317.3 1065.41l0.01 -0.95 0.99 -119.63c1.74,1.26 3.67,2.48 5.75,3.62 3.24,1.78 6.9,3.43 10.91,4.9 7.92,2.91 17.36,5.29 27.83,6.95 10.04,1.59 21.03,2.53 32.54,2.64 11.52,0.11 22.53,-0.6 32.58,-2 10.48,-1.45 19.95,-3.65 27.94,-6.42 4.05,-1.4 7.73,-2.97 10.99,-4.68 1.79,-0.93 3.46,-1.92 5,-2.96l0 97.17 -0.51 61.29c-0.02,2.43 -1.78,4.93 -4.97,7.37 -3.61,2.78 -8.92,5.37 -15.53,7.67 -7.35,2.55 -16.17,4.57 -26,5.91 -9.5,1.3 -19.93,1.97 -30.87,1.87 -10.95,-0.11 -21.35,-0.98 -30.83,-2.47 -9.78,-1.53 -18.57,-3.74 -25.89,-6.43 -6.58,-2.43 -11.85,-5.12 -15.4,-7.96 -3.15,-2.51 -4.88,-5.04 -4.85,-7.48l0.31 -38.41z"/>
    <path class="fil11" d="M1318.89 843.43l-0.51 72.42c0.18,0.12 0.36,0.26 0.52,0.42 0.62,0.63 1.28,1.24 1.98,1.84l0 -17 0 -0.02c0.02,-0.87 0.37,-1.65 0.94,-2.22 0.57,-0.55 1.34,-0.9 2.22,-0.9l0 0 0.02 0 0.02 0c0.87,0.01 1.66,0.38 2.24,0.95 0.57,0.58 0.92,1.37 0.92,2.25l0 18.03 -0.01 0.02c-0.01,0.86 -0.36,1.64 -0.93,2.21 -0.15,0.15 -0.31,0.28 -0.49,0.39 1.99,1.31 4.16,2.56 6.48,3.72 0.96,0.48 1.94,0.95 2.95,1.4l0 -19 0.01 -0.01c0.01,-0.87 0.37,-1.65 0.93,-2.22 0.57,-0.56 1.35,-0.9 2.22,-0.9l0 -0.01 0.02 0 0.02 0.01c0.88,0.01 1.66,0.38 2.24,0.95 0.57,0.58 0.93,1.37 0.93,2.25l0 19.35 -0.01 0.02c-0.01,0.72 -0.26,1.37 -0.67,1.89 2.78,1.04 5.68,1.99 8.71,2.86l0 -19.05 0.01 -0.02c0.01,-0.87 0.36,-1.64 0.93,-2.21 0.57,-0.57 1.35,-0.91 2.22,-0.91l0.02 0 0.02 0c0.87,0.02 1.66,0.38 2.24,0.95 0.57,0.58 0.92,1.37 0.92,2.25l0 20.64c1.36,0.32 2.73,0.62 4.1,0.9 1.28,0.27 2.61,0.52 3.95,0.76l0 -19.47 0.01 -0.02c0.01,-0.86 0.37,-1.64 0.94,-2.21 0.56,-0.56 1.34,-0.9 2.22,-0.9l0 -0.01 0.02 0 0.02 0.01c0.87,0.01 1.66,0.37 2.24,0.94 0.56,0.58 0.92,1.37 0.92,2.25l0 20.43c1.37,0.19 2.76,0.37 4.15,0.54 1.27,0.15 2.56,0.29 3.87,0.41l0.01 -19.84 -0.01 0 0 -0.02 0.01 -0.02c0.01,-0.86 0.37,-1.64 0.94,-2.21 0.56,-0.56 1.34,-0.9 2.21,-0.9l0.02 0 0.02 0c0.87,0.01 1.66,0.38 2.24,0.95 0.56,0.58 0.91,1.37 0.91,2.24l0 0 -0.01 20.32c1.44,0.09 2.86,0.17 4.25,0.23l0 0c1.44,0.06 2.88,0.1 4.29,0.13 -0.15,-6.6 -0.47,-13.38 -0.47,-19.97 -0.01,-0.86 0.33,-1.64 0.88,-2.22 0.55,-0.57 1.32,-0.94 2.2,-0.96l0.04 0c0.87,-0.01 1.66,0.33 2.25,0.89 0.58,0.56 0.95,1.35 0.97,2.23l0.47 20.07c1.27,-0.01 2.54,-0.04 3.82,-0.07 1.22,-0.04 2.47,-0.09 3.72,-0.15 -0.22,-6.52 -0.69,-13.42 -0.69,-19.9 -0.02,-0.86 0.3,-1.64 0.85,-2.23 0.55,-0.58 1.31,-0.95 2.19,-0.98l0.04 0c0.87,-0.02 1.66,0.31 2.26,0.86l0 0.01c0.59,0.55 0.96,1.33 0.99,2.21l0.69 19.62c1.34,-0.11 2.67,-0.24 3.96,-0.37 1.38,-0.15 2.77,-0.3 4.13,-0.48l0.01 -19.52 0 0 0 -0.02 0 -0.02c0.01,-0.86 0.37,-1.64 0.94,-2.21 0.56,-0.55 1.34,-0.9 2.21,-0.9l0 0 0.02 0 0.02 0c0.87,0.01 1.66,0.38 2.24,0.95 0.56,0.58 0.92,1.37 0.92,2.24l-0.01 0 -0.01 18.55c1.25,-0.21 2.54,-0.45 3.83,-0.69 1.41,-0.28 2.84,-0.57 4.24,-0.89l0.02 -18.69 -0.01 0 0 -0.02 0.01 -0.02c0.01,-0.87 0.36,-1.64 0.93,-2.21 0.57,-0.56 1.35,-0.91 2.21,-0.91l0.02 0 0.02 0.01c0.88,0.01 1.66,0.37 2.24,0.95 0.57,0.57 0.92,1.36 0.92,2.24l-0.01 0 -0.01 17.06c1.27,-0.35 2.55,-0.72 3.82,-1.12 1.45,-0.45 2.88,-0.93 4.24,-1.41l0.01 -18.97 0 0 0 -0.02 0 -0.02c0.01,-0.87 0.37,-1.64 0.94,-2.21 0.56,-0.56 1.34,-0.9 2.21,-0.9l0 -0.01 0.02 0 0.02 0.01c0.87,0.01 1.66,0.37 2.24,0.95 0.57,0.57 0.92,1.36 0.92,2.24l-0.01 0 -0.01 16.41c2.93,-1.29 5.7,-2.72 8.3,-4.26l0.64 -0.39c-0.57,-0.58 -0.92,-1.36 -0.92,-2.24l0.01 0 0.03 -17.2 -0.01 0 0 -0.02 0.01 -0.02c0.01,-0.86 0.36,-1.64 0.93,-2.21 0.57,-0.56 1.35,-0.9 2.21,-0.9l0.03 0 0.02 0.01c0.87,0.01 1.65,0.37 2.23,0.94 0.57,0.58 0.92,1.37 0.92,2.24l-0.01 0 -0.02 15.67c0.83,-0.65 1.64,-1.32 2.42,-2 0.08,-0.07 0.17,-0.14 0.25,-0.2l0.61 -72.71c-1.8,1.56 -3.89,3.05 -6.25,4.44 -3.78,2.25 -8.25,4.25 -13.3,5.98 -7.7,2.66 -16.87,4.76 -27.05,6.17 -9.74,1.34 -20.42,2.02 -31.59,1.92 -11.18,-0.11 -21.83,-1.01 -31.56,-2.54 -10.15,-1.59 -19.29,-3.88 -26.95,-6.69 -5.02,-1.83 -9.46,-3.93 -13.2,-6.25 -2.09,-1.27 -3.95,-2.63 -5.58,-4.04zm-0.57 80.79l-0.04 5.52c0.71,1.75 2.26,3.53 4.52,5.29 3.63,2.82 9.01,5.5 15.73,7.88 7.36,2.62 16.19,4.75 26.05,6.25 9.54,1.45 20,2.31 30.97,2.41 11,0.11 21.47,-0.54 31.02,-1.79 9.87,-1.31 18.75,-3.28 26.15,-5.74 6.76,-2.26 12.18,-4.83 15.86,-7.58 3.25,-2.44 5.06,-4.94 5.07,-7.39l0.04 -3.76c-8.32,6.12 -19,10.73 -30.93,13.9 -14.38,3.83 -30.61,5.61 -46.7,5.49 -16.98,-0.13 -33.85,-2.37 -48.31,-6.53 -11.79,-3.39 -22,-8.08 -29.43,-13.95z"/>
    <path class="fil12" d="M1572.59 969.68l-1.01 113.54c0.16,0.06 0.33,0.14 0.49,0.22 37.71,19.88 80.09,29.92 123.22,31.06 44.99,1.18 90.83,-7.3 133.2,-24.4l0.13 -0.06 1.06 -118.05c-3.27,2.92 -7.24,5.65 -11.85,8.18 -6.09,3.36 -13.34,6.38 -21.53,8.99 -12.54,4 -27.46,7.19 -43.98,9.3 -15.89,2.02 -33.27,3.07 -51.46,2.91 -18.21,-0.16 -35.58,-1.51 -51.41,-3.83 -16.48,-2.41 -31.34,-5.85 -43.81,-10.08 -8.14,-2.77 -15.32,-5.91 -21.36,-9.37 -4.56,-2.62 -8.48,-5.42 -11.7,-8.4zm-1.11 124.04l-0.04 4.88 0.38 0.01 -0.02 1.64c-0.03,3.98 2.98,8.04 8.46,12 6.01,4.34 14.92,8.46 26.01,12.12 12.11,3.99 26.62,7.25 42.79,9.52 15.62,2.21 32.76,3.5 50.77,3.66 17.98,0.16 35.16,-0.82 50.82,-2.75 16.23,-1.99 30.8,-4.98 42.96,-8.75 11.14,-3.46 20.11,-7.41 26.21,-11.66 5.56,-3.86 8.64,-7.87 8.68,-11.83l0.02 -2.39c-42.54,16.65 -88.41,24.88 -133.46,23.7 -43.15,-1.14 -85.55,-10.91 -123.59,-30.16z"/>
    <path class="fil10" d="M1367.32 807.58c-9.7,1.3 -18.45,3.28 -25.75,5.75 -6.66,2.26 -11.99,4.82 -15.6,7.56 -3.2,2.44 -4.98,4.95 -5,7.41 -0.02,2.46 1.72,5 4.88,7.5 3.57,2.82 8.85,5.48 15.46,7.86 7.27,2.62 15.97,4.75 25.66,6.24 9.37,1.44 19.67,2.3 30.48,2.4 10.82,0.1 21.12,-0.55 30.52,-1.81 9.71,-1.3 18.45,-3.27 25.75,-5.74 6.66,-2.26 11.99,-4.82 15.6,-7.57 3.2,-2.44 4.98,-4.94 5,-7.4 0.02,-2.47 -1.71,-5 -4.88,-7.51 -3.57,-2.81 -8.85,-5.48 -15.46,-7.86 -7.26,-2.62 -15.96,-4.74 -25.66,-6.24 -9.37,-1.44 -19.67,-2.29 -30.48,-2.39 -10.81,-0.11 -21.12,0.54 -30.52,1.8z"/>
    <path class="fil9" d="M1454.39 683.67c-15.73,1.99 -29.86,4.99 -41.67,8.77 -10.78,3.44 -19.47,7.4 -25.38,11.64 -5.38,3.86 -8.37,7.88 -8.41,11.86 -0.03,3.99 2.88,8.07 8.19,12.02 5.83,4.34 14.45,8.45 25.18,12.1 11.74,3.98 25.81,7.23 41.49,9.5 15.15,2.21 31.77,3.49 49.21,3.65 17.45,0.15 34.09,-0.83 49.26,-2.76 15.72,-1.99 29.85,-4.99 41.66,-8.77 10.78,-3.44 19.47,-7.4 25.38,-11.64 5.38,-3.86 8.37,-7.88 8.41,-11.87 0.04,-3.98 -2.88,-8.06 -8.19,-12.01 -5.83,-4.34 -14.45,-8.45 -25.18,-12.1 -11.74,-3.98 -25.81,-7.24 -41.49,-9.51 -15.15,-2.2 -31.77,-3.48 -49.2,-3.64 -17.46,-0.15 -34.1,0.83 -49.26,2.76z"/>
    <path class="fil13" d="M1649.27 917.4c-16.01,1.99 -30.39,4.99 -42.4,8.76 -11,3.46 -19.84,7.41 -25.85,11.65 -5.48,3.86 -8.52,7.88 -8.56,11.86 -0.04,3.98 2.94,8.05 8.34,12.01 5.94,4.35 14.72,8.46 25.63,12.1 11.94,3.98 26.26,7.24 42.24,9.51 15.41,2.2 32.33,3.48 50.08,3.64 17.74,0.16 34.69,-0.83 50.14,-2.76 16.01,-1.99 30.39,-5 42.4,-8.77 11,-3.45 19.84,-7.41 25.85,-11.64 5.48,-3.87 8.52,-7.89 8.56,-11.86 0.03,-3.98 -2.94,-8.06 -8.34,-12.02 -5.93,-4.34 -14.71,-8.45 -25.64,-12.1 -11.93,-3.97 -26.25,-7.23 -42.23,-9.5 -15.42,-2.21 -32.33,-3.49 -50.08,-3.65 -17.74,-0.15 -34.69,0.84 -50.14,2.77z"/>
   </g>
  </g>
  <path class="fil14" d="M3875.46 363.83l0 20.11c18.24,1.11 33.23,7.54 44.68,19.36 11.54,11.91 17.31,26.53 17.31,44.03 0,18.43 -6.15,33.87 -18.43,46.35 -12.29,12.47 -27.56,18.71 -45.8,18.71 -17.68,0 -32.48,-6.34 -44.49,-18.9 -12,-12.57 -18.05,-28.2 -18.05,-46.72 0,-19.36 5.86,-36.49 17.59,-51.48 11.63,-14.98 27.46,-25.4 47.19,-31.46zm-148.54 0.56l0 19.55c18.14,1.11 32.85,7.54 44.3,19.36 11.45,11.91 17.13,26.53 17.13,44.03 0,18.43 -6.15,33.87 -18.44,46.35 -12.28,12.47 -27.55,18.71 -45.79,18.71 -17.68,0 -32.48,-6.24 -44.49,-18.81 -12.01,-12.56 -18.05,-28.2 -18.05,-46.72 0,-19.27 5.86,-36.39 17.68,-51.38 11.82,-14.9 27.74,-25.22 47.66,-31.09z"/>
  <path id="1" class="fil14" d="M4136.35 615.42l0 -97.73c22.34,0 33.51,-8.47 33.51,-25.5 0,-15.55 -8.56,-23.37 -25.78,-23.37 -17.4,0 -26.15,10.71 -26.15,32.02l0 243.31 -110.57 0 0 -231.86c0,-24.01 2.42,-43.65 7.26,-59 4.74,-15.36 13.03,-29.6 24.66,-42.91 13.12,-14.71 29.51,-26.34 49.15,-34.82 19.64,-8.56 39.93,-12.84 60.78,-12.84 37.88,0 69.71,12.75 95.4,38.16 25.78,25.4 38.62,56.96 38.62,94.56 0,36.58 -11.54,66.17 -34.63,88.89 -21.04,20.94 -52.87,31.37 -95.31,31.37l-16.94 -0.28z"/>
  <path id="2" class="fil14" d="M4470.31 469.47l0 109.09c-7.08,-3.91 -13.49,-5.86 -19.27,-5.86 -18.43,0 -27.65,14.15 -27.65,42.44l0 129.01 -102.19 0 0 -148.64c0,-39.28 10.7,-70.55 32.2,-93.91 21.41,-23.37 50.07,-35 85.82,-35 8,0 18.34,0.92 31.09,2.88z"/>
  <path id="3" class="fil14" d="M4629.47 466.6c38.62,0 71.67,13.86 99.21,41.6 27.65,27.74 41.42,60.97 41.42,99.68 0,39.28 -13.96,72.79 -41.88,100.43 -28.02,27.65 -61.71,41.42 -101.18,41.42 -39.56,0 -73.34,-13.86 -101.36,-41.6 -28.02,-27.74 -42.07,-61.15 -42.07,-100.25 0,-39.84 14.05,-73.34 42.07,-100.53 28.02,-27.18 62.64,-40.76 103.78,-40.76zm-2.71 100.52c-10.98,0 -20.19,4 -27.83,11.92 -7.63,7.91 -11.45,17.59 -11.45,29.13 0,11.26 3.82,20.94 11.55,29.04 7.72,8 16.93,12 27.73,12 10.9,0 20.2,-4 27.93,-12 7.72,-8.1 11.54,-17.78 11.54,-29.04 0,-11.54 -3.82,-21.22 -11.45,-29.13 -7.63,-7.92 -16.94,-11.92 -28.02,-11.92z"/>
  <path id="4" class="fil14" d="M4903.39 371.65l0 104.44 45.79 0 0 107.78 -45.79 0c0,21.59 3.35,36.48 10.14,44.67 6.8,8.19 19.27,12.29 37.32,12.29l0 107.13c-5.3,0.09 -9.21,0.09 -11.72,0.09 -23.09,0 -44.87,-5.4 -65.25,-16.1 -20.48,-10.71 -36.86,-25.23 -49.24,-43.57 -15.64,-23.36 -23.46,-54.44 -23.46,-93.07l0 -223.67 102.2 0z"/>
  <path id="5" class="fil14" d="M5266.49 624.63l-154.6 0c-2.15,-7.82 -3.26,-14.89 -3.26,-21.4 0,-9.03 1.57,-17.96 4.65,-26.63l51.84 0c-3.63,-20.47 -14.98,-30.72 -34.06,-30.72 -12.75,0 -23.08,5.4 -31.09,16.29 -8,10.8 -12.01,24.76 -12.01,41.7 0,17.68 3.82,31.92 11.55,42.91 7.72,10.89 17.86,16.38 30.43,16.38 10.14,0 20.01,-5.11 29.41,-15.36l58.08 69.9c-27.09,21.31 -57.25,32.02 -90.38,32.02 -40.3,0 -74.27,-13.58 -101.73,-40.67 -27.46,-27.19 -41.24,-60.69 -41.24,-100.81 0,-39.84 13.87,-73.53 41.61,-100.99 27.83,-27.46 61.89,-41.23 102.29,-41.23 39.47,0 72.69,13.4 99.49,40.3 26.91,26.81 40.31,59.85 40.31,99.22 0,4 -0.47,10.33 -1.3,19.08z"/>
  <path id="6" class="fil14" d="M5453.85 631.99l0 93.63c-14.71,5.31 -28.76,7.92 -42.16,7.92 -32.86,0 -60.69,-12.48 -83.39,-37.33 -22.81,-24.85 -34.16,-55.29 -34.16,-91.21 0,-38.91 13.68,-71.67 41.05,-98.38 27.46,-26.72 61.06,-40.02 100.99,-40.02 21.22,0 41.51,4.28 60.96,12.84 19.37,8.47 34.63,19.92 45.7,34.34 18.53,23.74 27.74,58.26 27.74,103.5l0 89.44c0,48.59 -13.77,87.97 -41.23,118.21 -27.46,30.25 -63.2,45.42 -107.31,45.42 -13.41,0 -30.34,-3.35 -50.82,-10.14l0 -92.61c13.21,7.07 26.53,10.61 40.02,10.61 18.24,0 32.3,-6.04 42.26,-18.05 9.95,-12.01 14.89,-29.32 14.89,-51.75l0 -102.29c0,-28.58 -11.35,-42.92 -34.06,-42.92 -9.68,0 -18.14,3.82 -25.41,11.36 -7.26,7.54 -10.89,16.2 -10.89,26.06 0,10.33 3.45,18.99 10.43,25.96 6.89,6.89 15.45,10.34 25.69,10.34 6.89,0 13.4,-1.67 19.73,-4.93z"/>
  <path id="7" class="fil14" d="M5732.9 472.18l0 271.97 -102.19 0 0 -271.97 102.19 0zm-50.53 -121.19c13.86,0 25.78,4.84 35.93,14.62 10.14,9.67 15.17,21.22 15.17,34.52 0,14.15 -4.74,25.87 -14.34,34.91 -9.58,9.12 -21.77,13.68 -36.76,13.68 -14.9,0 -27.19,-4.56 -36.77,-13.68 -9.58,-9.03 -14.34,-20.75 -14.34,-34.91 0,-13.3 5.03,-24.85 15.18,-34.52 10.14,-9.77 22.05,-14.62 35.93,-14.62z"/>
  <path id="8" class="fil14" d="M6059.98 624.63l-154.6 0c-2.15,-7.82 -3.26,-14.89 -3.26,-21.4 0,-9.03 1.57,-17.96 4.65,-26.63l51.84 0c-3.63,-20.47 -14.98,-30.72 -34.06,-30.72 -12.75,0 -23.08,5.4 -31.09,16.29 -8,10.8 -12.01,24.76 -12.01,41.7 0,17.68 3.82,31.92 11.55,42.91 7.72,10.89 17.86,16.38 30.43,16.38 10.14,0 20.01,-5.11 29.41,-15.36l58.08 69.9c-27.09,21.31 -57.25,32.02 -90.38,32.02 -40.3,0 -74.27,-13.58 -101.73,-40.67 -27.46,-27.19 -41.24,-60.69 -41.24,-100.81 0,-39.84 13.87,-73.53 41.61,-100.99 27.83,-27.46 61.89,-41.23 102.29,-41.23 39.47,0 72.69,13.4 99.49,40.3 26.91,26.81 40.31,59.85 40.31,99.22 0,4 -0.47,10.33 -1.3,19.08z"/>
  <path id="9" class="fil14" d="M6344.51 744.15l-102.19 0 0 -153.58c0,-15.64 -6.34,-23.46 -19.09,-23.46 -12.56,0 -18.9,7.82 -18.9,23.46l0 153.58 -102.19 0 0 -151.71c0,-35.38 11.72,-65.25 35.18,-89.45 23.46,-24.29 52.13,-36.39 86.19,-36.39 38.82,0 69.99,14.05 93.45,42.25 18.34,21.96 27.55,52.59 27.55,91.78l0 143.52z"/>
  <path id="10" class="fil14" d="M6571.53 371.65l102.2 0 0 226.83c0,41.7 -10.89,75.59 -32.76,101.83 -12.57,15.08 -28.58,27.09 -47.94,36.02 -19.36,8.93 -39.28,13.4 -59.67,13.4 -40.58,0 -74.83,-13.68 -102.66,-40.95 -27.83,-27.28 -41.79,-60.78 -41.79,-100.53 0,-38.34 13.87,-71.58 41.51,-99.59 27.65,-28.01 60.32,-42.06 98.2,-42.06 5.95,0 15.08,0.55 27.27,1.76l0 112.35c-8.37,-6.43 -16.75,-9.68 -25.12,-9.68 -10.62,0 -19.65,3.91 -27.19,11.64 -7.54,7.72 -11.35,17.03 -11.35,28.02 0,10.52 3.91,19.64 11.72,27.18 7.92,7.54 17.22,11.35 28.21,11.35 26.24,0 39.37,-18.14 39.37,-54.53l0 -223.02z"/>
  <path id="11" class="fil14" d="M6856.25 466.6c38.62,0 71.67,13.86 99.21,41.6 27.65,27.74 41.42,60.97 41.42,99.68 0,39.28 -13.96,72.79 -41.88,100.43 -28.02,27.65 -61.71,41.42 -101.18,41.42 -39.56,0 -73.34,-13.86 -101.36,-41.6 -28.02,-27.74 -42.07,-61.15 -42.07,-100.25 0,-39.84 14.05,-73.34 42.07,-100.53 28.02,-27.18 62.64,-40.76 103.78,-40.76zm-2.71 100.52c-10.98,0 -20.19,4 -27.83,11.92 -7.63,7.91 -11.45,17.59 -11.45,29.13 0,11.26 3.82,20.94 11.55,29.04 7.72,8 16.93,12 27.73,12 10.9,0 20.2,-4 27.93,-12 7.72,-8.1 11.54,-17.78 11.54,-29.04 0,-11.54 -3.82,-21.22 -11.45,-29.13 -7.63,-7.92 -16.94,-11.92 -28.02,-11.92z"/>
  <path id="12" class="fil14" d="M7446.08 624.63l-154.6 0c-2.15,-7.82 -3.26,-14.89 -3.26,-21.4 0,-9.03 1.57,-17.96 4.65,-26.63l51.84 0c-3.63,-20.47 -14.98,-30.72 -34.06,-30.72 -12.75,0 -23.08,5.4 -31.09,16.29 -8,10.8 -12.01,24.76 -12.01,41.7 0,17.68 3.82,31.92 11.55,42.91 7.72,10.89 17.86,16.38 30.43,16.38 10.14,0 20.01,-5.11 29.41,-15.36l58.08 69.9c-27.09,21.31 -57.25,32.02 -90.38,32.02 -40.3,0 -74.27,-13.58 -101.73,-40.67 -27.46,-27.19 -41.24,-60.69 -41.24,-100.81 0,-39.84 13.87,-73.53 41.61,-100.99 27.83,-27.46 61.89,-41.23 102.29,-41.23 39.47,0 72.69,13.4 99.49,40.3 26.91,26.81 40.31,59.85 40.31,99.22 0,4 -0.47,10.33 -1.3,19.08z"/>
  <polygon id="13" class="fil14" points="7590.44,371.65 7590.44,744.15 7488.25,744.15 7488.25,371.65 "/>
  <polygon id="14" class="fil14" points="3219.74,1003.73 3057.5,1397.45 2896.38,1003.73 3024.56,1003.73 3058.62,1120.08 3096.22,1003.73 "/>
  <path id="15" class="fil14" d="M3387.65 1274.22l0 105.55c-8.38,1.39 -16.01,2.05 -22.9,2.05 -40.86,0 -74.83,-13.49 -102.11,-40.4 -27.27,-26.9 -40.86,-60.59 -40.86,-101.17 0,-39.47 13.77,-72.88 41.33,-100.34 27.46,-27.46 60.96,-41.23 100.43,-41.23 43.93,0 78.55,12.84 103.97,38.62 25.32,25.78 37.97,60.96 37.97,105.55l0 133.38 -102.19 0 0 -126.03c0,-14.34 -3.45,-25.78 -10.43,-34.34 -6.89,-8.47 -16.29,-12.75 -28.02,-12.75 -10.62,0 -19.83,3.91 -27.55,11.73 -7.73,7.82 -11.64,17.03 -11.64,27.74 0,11.26 3.54,20.57 10.52,27.83 7.08,7.26 16.01,10.89 26.81,10.89 8.84,0 17.13,-2.33 24.67,-7.07z"/>
  <polygon id="16" class="fil14" points="3666.78,1003.73 3666.78,1376.23 3564.59,1376.23 3564.59,1003.73 "/>
  <path id="17" class="fil14" d="M3855.37 1098.68c38.62,0 71.67,13.86 99.21,41.6 27.65,27.74 41.42,60.97 41.42,99.68 0,39.28 -13.96,72.79 -41.88,100.43 -28.02,27.65 -61.71,41.42 -101.18,41.42 -39.56,0 -73.34,-13.86 -101.36,-41.6 -28.02,-27.74 -42.07,-61.15 -42.07,-100.25 0,-39.84 14.05,-73.34 42.07,-100.53 28.02,-27.18 62.64,-40.76 103.78,-40.76zm-2.71 100.52c-10.98,0 -20.19,4 -27.83,11.92 -7.63,7.91 -11.45,17.59 -11.45,29.13 0,11.26 3.82,20.94 11.55,29.04 7.72,8 16.93,12 27.73,12 10.9,0 20.2,-4 27.93,-12 7.72,-8.1 11.54,-17.78 11.54,-29.04 0,-11.54 -3.82,-21.22 -11.45,-29.13 -7.63,-7.92 -16.94,-11.92 -28.02,-11.92z"/>
  <path id="18" class="fil14" d="M4187.37 1101.55l0 109.09c-7.08,-3.91 -13.49,-5.86 -19.27,-5.86 -18.43,0 -27.65,14.15 -27.65,42.44l0 129.01 -102.19 0 0 -148.64c0,-39.28 10.7,-70.55 32.2,-93.91 21.41,-23.37 50.07,-35 85.82,-35 8,0 18.34,0.92 31.09,2.88z"/>
  <path id="19" class="fil14" d="M4524.58 1003.73l102.2 0 0 226.83c0,41.7 -10.89,75.59 -32.76,101.83 -12.57,15.08 -28.58,27.09 -47.94,36.02 -19.36,8.93 -39.28,13.4 -59.67,13.4 -40.58,0 -74.83,-13.68 -102.66,-40.95 -27.83,-27.28 -41.79,-60.78 -41.79,-100.53 0,-38.34 13.87,-71.58 41.51,-99.59 27.65,-28.01 60.32,-42.06 98.2,-42.06 5.95,0 15.08,0.55 27.27,1.76l0 112.35c-8.37,-6.43 -16.75,-9.68 -25.12,-9.68 -10.62,0 -19.65,3.91 -27.19,11.64 -7.54,7.72 -11.35,17.03 -11.35,28.02 0,10.52 3.91,19.64 11.72,27.18 7.92,7.54 17.22,11.35 28.21,11.35 26.24,0 39.37,-18.14 39.37,-54.53l0 -223.02z"/>
  <path id="20" class="fil14" d="M4947.53 1256.72l-154.6 0c-2.15,-7.82 -3.26,-14.89 -3.26,-21.4 0,-9.03 1.57,-17.96 4.65,-26.63l51.84 0c-3.63,-20.47 -14.98,-30.72 -34.06,-30.72 -12.75,0 -23.08,5.4 -31.09,16.29 -8,10.8 -12.01,24.76 -12.01,41.7 0,17.68 3.82,31.92 11.55,42.91 7.72,10.89 17.86,16.38 30.43,16.38 10.14,0 20.01,-5.11 29.41,-15.36l58.08 69.9c-27.09,21.31 -57.25,32.02 -90.38,32.02 -40.3,0 -74.27,-13.58 -101.73,-40.67 -27.46,-27.19 -41.24,-60.69 -41.24,-100.81 0,-39.84 13.87,-73.53 41.61,-100.99 27.83,-27.46 61.89,-41.23 102.29,-41.23 39.47,0 72.69,13.4 99.49,40.3 26.91,26.81 40.31,59.85 40.31,99.22 0,4 -0.47,10.33 -1.3,19.08z"/>
  <path id="21" class="fil14" d="M5220.33 1003.73l0 104.44 45.79 0 0 107.78 -45.79 0c0,21.59 3.35,36.48 10.14,44.67 6.8,8.19 19.27,12.29 37.32,12.29l0 107.13c-5.3,0.09 -9.21,0.09 -11.72,0.09 -23.09,0 -44.87,-5.4 -65.25,-16.1 -20.48,-10.71 -36.86,-25.23 -49.24,-43.57 -15.64,-23.36 -23.46,-54.44 -23.46,-93.07l0 -223.67 102.2 0z"/>
  <path id="22" class="fil14" d="M5316.11 1108.17l102.19 0 0 153.58c0,15.64 6.34,23.45 19.09,23.45 12.56,0 18.9,-7.81 18.9,-23.45l0 -153.58 102.19 0 0 151.62c0,35.37 -11.73,65.15 -35.18,89.44 -23.46,24.3 -52.13,36.49 -86.1,36.49 -38.72,0 -69.9,-14.14 -93.54,-42.35 -18.34,-22.05 -27.55,-52.58 -27.55,-91.77l0 -143.43z"/>
  <path id="23" class="fil14" d="M5886.57 1247.5l0 -97.73c22.34,0 33.51,-8.47 33.51,-25.5 0,-15.55 -8.56,-23.37 -25.78,-23.37 -17.4,0 -26.15,10.71 -26.15,32.02l0 243.31 -110.57 0 0 -231.86c0,-24.01 2.42,-43.65 7.26,-59 4.74,-15.36 13.03,-29.6 24.66,-42.91 13.12,-14.71 29.51,-26.34 49.15,-34.82 19.64,-8.56 39.93,-12.84 60.78,-12.84 37.88,0 69.71,12.75 95.4,38.16 25.78,25.4 38.62,56.96 38.62,94.56 0,36.58 -11.54,66.17 -34.63,88.89 -21.04,20.94 -52.87,31.37 -95.31,31.37l-16.94 -0.28z"/>
  <path id="24" class="fil14" d="M6220.53 1101.55l0 109.09c-7.08,-3.91 -13.49,-5.86 -19.27,-5.86 -18.43,0 -27.65,14.15 -27.65,42.44l0 129.01 -102.19 0 0 -148.64c0,-39.28 10.7,-70.55 32.2,-93.91 21.41,-23.37 50.07,-35 85.82,-35 8,0 18.34,0.92 31.09,2.88z"/>
  <path id="25" class="fil14" d="M6379.69 1098.68c38.62,0 71.67,13.86 99.21,41.6 27.65,27.74 41.42,60.97 41.42,99.68 0,39.28 -13.96,72.79 -41.88,100.43 -28.02,27.65 -61.71,41.42 -101.18,41.42 -39.56,0 -73.34,-13.86 -101.36,-41.6 -28.02,-27.74 -42.07,-61.15 -42.07,-100.25 0,-39.84 14.05,-73.34 42.07,-100.53 28.02,-27.18 62.64,-40.76 103.78,-40.76zm-2.71 100.52c-10.98,0 -20.19,4 -27.83,11.92 -7.63,7.91 -11.45,17.59 -11.45,29.13 0,11.26 3.82,20.94 11.55,29.04 7.72,8 16.93,12 27.73,12 10.9,0 20.2,-4 27.93,-12 7.72,-8.1 11.54,-17.78 11.54,-29.04 0,-11.54 -3.82,-21.22 -11.45,-29.13 -7.63,-7.92 -16.94,-11.92 -28.02,-11.92z"/>
  <path id="26" class="fil14" d="M6730.12 1003.73l102.2 0 0 226.83c0,41.7 -10.89,75.59 -32.76,101.83 -12.57,15.08 -28.58,27.09 -47.94,36.02 -19.36,8.93 -39.28,13.4 -59.67,13.4 -40.58,0 -74.83,-13.68 -102.66,-40.95 -27.83,-27.28 -41.79,-60.78 -41.79,-100.53 0,-38.34 13.87,-71.58 41.51,-99.59 27.65,-28.01 60.32,-42.06 98.2,-42.06 5.95,0 15.08,0.55 27.27,1.76l0 112.35c-8.37,-6.43 -16.75,-9.68 -25.12,-9.68 -10.62,0 -19.65,3.91 -27.19,11.64 -7.54,7.72 -11.35,17.03 -11.35,28.02 0,10.52 3.91,19.64 11.72,27.18 7.92,7.54 17.22,11.35 28.21,11.35 26.24,0 39.37,-18.14 39.37,-54.53l0 -223.02z"/>
  <path id="27" class="fil14" d="M6885.76 1108.17l102.19 0 0 153.58c0,15.64 6.34,23.45 19.09,23.45 12.56,0 18.9,-7.81 18.9,-23.45l0 -153.58 102.19 0 0 151.62c0,35.37 -11.73,65.15 -35.18,89.44 -23.46,24.3 -52.13,36.49 -86.1,36.49 -38.72,0 -69.9,-14.14 -93.54,-42.35 -18.34,-22.05 -27.55,-52.58 -27.55,-91.77l0 -143.43z"/>
  <path id="28" class="fil14" d="M7354.59 1251.04l101.17 -3.82c-2.89,39.19 -17.49,71.49 -43.84,96.71 -26.34,25.22 -58.45,37.88 -96.24,37.88 -40.03,0 -73.72,-13.86 -101.27,-41.7 -27.56,-27.83 -41.33,-61.89 -41.33,-102.19 0,-38.35 13.87,-71.11 41.7,-98.38 27.83,-27.28 61.15,-40.86 100.06,-40.86 33.97,0 63.95,10.7 90,32.11 25.97,21.5 42.16,48.77 48.5,82l-103.31 3.82c-8.94,-11.64 -20.2,-17.41 -33.79,-17.41 -11.63,0 -21.22,3.82 -28.67,11.45 -7.44,7.64 -11.17,17.31 -11.17,28.95 0,11.82 3.91,21.68 11.82,29.69 7.92,8 17.78,12 29.6,12 17.22,0 29.5,-10.04 36.77,-30.24z"/>
  <path id="29" class="fil14" d="M7591.09 1003.73l0 104.44 45.79 0 0 107.78 -45.79 0c0,21.59 3.35,36.48 10.14,44.67 6.8,8.19 19.27,12.29 37.32,12.29l0 107.13c-5.3,0.09 -9.21,0.09 -11.72,0.09 -23.09,0 -44.87,-5.4 -65.25,-16.1 -20.48,-10.71 -36.86,-25.23 -49.24,-43.57 -15.64,-23.36 -23.46,-54.44 -23.46,-93.07l0 -223.67 102.2 0z"/>
  <path id="30" class="fil14" d="M7815.97 1098.68c38.62,0 71.67,13.86 99.21,41.6 27.65,27.74 41.42,60.97 41.42,99.68 0,39.28 -13.96,72.79 -41.88,100.43 -28.02,27.65 -61.71,41.42 -101.18,41.42 -39.56,0 -73.34,-13.86 -101.36,-41.6 -28.02,-27.74 -42.07,-61.15 -42.07,-100.25 0,-39.84 14.05,-73.34 42.07,-100.53 28.02,-27.18 62.64,-40.76 103.78,-40.76zm-2.71 100.52c-10.98,0 -20.19,4 -27.83,11.92 -7.63,7.91 -11.45,17.59 -11.45,29.13 0,11.26 3.82,20.94 11.55,29.04 7.72,8 16.93,12 27.73,12 10.9,0 20.2,-4 27.93,-12 7.72,-8.1 11.54,-17.78 11.54,-29.04 0,-11.54 -3.82,-21.22 -11.45,-29.13 -7.63,-7.92 -16.94,-11.92 -28.02,-11.92z"/>
  <path id="31" class="fil14" d="M8072.02 1144.47l0 -20.01c-18.23,-1.03 -33.22,-7.45 -44.67,-19.18 -11.55,-11.73 -17.31,-26.34 -17.31,-43.84 0,-18.34 6.15,-33.79 18.43,-46.26 12.29,-12.47 27.55,-18.71 45.79,-18.71 17.68,0 32.49,6.24 44.49,18.8 12.01,12.57 18.06,28.21 18.06,46.72 0,19.27 -5.86,36.4 -17.59,51.39 -11.64,14.89 -27.37,25.22 -47.2,31.09zm148.55 0l0 -20.01c-18.14,-1.03 -32.85,-7.45 -44.31,-19.18 -11.45,-11.73 -17.12,-26.34 -17.12,-43.84 0,-18.34 6.15,-33.79 18.43,-46.26 12.29,-12.47 27.56,-18.71 45.8,-18.71 17.68,0 32.48,6.24 44.49,18.8 12,12.57 18.05,28.21 18.05,46.72 0,19.27 -5.86,36.4 -17.68,51.39 -11.82,14.89 -27.74,25.22 -47.66,31.09z"/>
 </g>
</svg>
