<?xml version="1.0" encoding="UTF-8"?>
<!DOCTYPE svg PUBLIC "-//W3C//DTD SVG 1.1//EN" "http://www.w3.org/Graphics/SVG/1.1/DTD/svg11.dtd">
<!-- Creator: CorelDRAW 2018 (64 Bit Versión de evaluación) -->
<svg xmlns="http://www.w3.org/2000/svg" xml:space="preserve" width="16.9334mm" height="16.9334mm" version="1.1" style="shape-rendering:geometricPrecision; text-rendering:geometricPrecision; image-rendering:optimizeQuality; fill-rule:evenodd; clip-rule:evenodd"
viewBox="0 0 882.09 882.09"
 xmlns:xlink="http://www.w3.org/1999/xlink">
 <defs>
  <style type="text/css">
   <![CDATA[
    .fil11 {fill:#ED3237}
    .fil3 {fill:#DBA438}
    .fil7 {fill:#7A2D2E}
    .fil5 {fill:#52658C}
    .fil10 {fill:#00A859}
    .fil2 {fill:#0A5E5D}
    .fil0 {fill:#FEFEFE}
    .fil12 {fill:#ED3237;fill-rule:nonzero}
    .fil8 {fill:#DBA438;fill-rule:nonzero}
    .fil6 {fill:#7A2D2E;fill-rule:nonzero}
    .fil4 {fill:#52658C;fill-rule:nonzero}
    .fil9 {fill:#00A859;fill-rule:nonzero}
    .fil1 {fill:#0A5E5D;fill-rule:nonzero}
   ]]>
  </style>
 </defs>
 <g id="Capa_x0020_1">
  <metadata id="CorelCorpID_0Corel-Layer"/>
  <g id="_2166248238208">
   <circle class="fil0" cx="441.04" cy="441.04" r="438.51"/>
   <g>
    <path class="fil1" d="M441.04 187.48c70.02,0 133.41,28.38 179.3,74.27 45.89,45.89 74.27,109.28 74.27,179.3 0,70.02 -28.38,133.41 -74.27,179.3 -45.89,45.89 -109.28,74.27 -179.3,74.27 -70.02,0 -133.41,-28.38 -179.3,-74.27 -45.89,-45.89 -74.27,-109.28 -74.27,-179.3 0,-70.02 28.38,-133.41 74.27,-179.3 45.89,-45.89 109.28,-74.27 179.3,-74.27zm174.42 79.15c-44.64,-44.63 -106.3,-72.24 -174.42,-72.24 -68.11,0 -129.78,27.61 -174.42,72.24 -44.63,44.64 -72.24,106.3 -72.24,174.42 0,68.11 27.61,129.78 72.24,174.42 44.64,44.63 106.3,72.24 174.42,72.24 68.11,0 129.78,-27.61 174.42,-72.24 44.63,-44.64 72.24,-106.3 72.24,-174.42 0,-68.11 -27.61,-129.78 -72.24,-174.42z"/>
    <path class="fil1" d="M441.04 0c121.79,0 232.05,49.37 311.86,129.18 79.81,79.81 129.18,190.07 129.18,311.86 0,121.79 -49.37,232.05 -129.18,311.86 -79.81,79.81 -190.07,129.18 -311.86,129.18 -121.79,0 -232.05,-49.36 -311.86,-129.18 -79.81,-79.81 -129.18,-190.07 -129.18,-311.86 0,-121.79 49.37,-232.05 129.18,-311.86 79.81,-79.81 190.07,-129.18 311.86,-129.18zm306.98 134.06c-78.56,-78.56 -187.1,-127.16 -306.98,-127.16 -119.88,0 -228.42,48.6 -306.98,127.16 -78.56,78.56 -127.16,187.1 -127.16,306.98 0,119.88 48.6,228.42 127.16,306.98 78.56,78.56 187.1,127.16 306.98,127.16 119.88,0 228.42,-48.6 306.98,-127.16 78.56,-78.56 127.16,-187.1 127.16,-306.98 0,-119.88 -48.6,-228.42 -127.16,-306.98z"/>
    <path class="fil2" d="M441.04 19.75c232.68,0 421.3,188.62 421.3,421.3 0,232.68 -188.62,421.3 -421.3,421.3 -232.68,0 -421.3,-188.62 -421.3,-421.3 0,-232.68 188.62,-421.3 421.3,-421.3zm-314.51 404.85c0.24,0.12 0.54,0.14 0.91,0.05 0.37,-0.08 0.67,-0.26 0.89,-0.52 0.9,-1.05 1.84,-2.36 2.84,-3.93 0.99,-1.57 1.98,-3.35 2.97,-5.34 0.98,-1.99 1.87,-4.13 2.65,-6.42 0.78,-2.3 1.39,-4.66 1.84,-7.09 1.11,-5.96 1.27,-11.23 0.49,-15.8 -0.78,-4.56 -2.24,-8.45 -4.37,-11.67 -2.14,-3.21 -4.78,-5.78 -7.95,-7.7 -3.17,-1.92 -6.58,-3.22 -10.24,-3.9 -6.64,-1.23 -12.45,-0.49 -17.44,2.2 -4.99,2.69 -9.48,7.44 -13.47,14.25 -2.45,4.19 -4.36,7.27 -5.74,9.23 -1.38,1.95 -2.92,2.78 -4.62,2.46 -1.45,-0.27 -2.4,-1.17 -2.87,-2.7 -0.46,-1.53 -0.46,-3.59 0.02,-6.17 0.73,-3.98 1.86,-7.33 3.38,-10.06 1.52,-2.73 2.86,-4.86 4.03,-6.4 0.59,-0.8 0.36,-1.45 -0.69,-1.95l-17.39 -8.03c-0.81,-0.38 -1.45,-0.23 -1.93,0.44 -1.96,2.53 -3.7,5.51 -5.21,8.92 -1.52,3.42 -2.75,7.67 -3.68,12.75 -0.91,4.86 -1.04,9.37 -0.4,13.53 0.64,4.16 1.94,7.84 3.89,11.06 1.96,3.22 4.48,5.88 7.57,7.98 3.08,2.09 6.63,3.52 10.63,4.26 3.75,0.69 7.18,0.68 10.3,-0.03 3.13,-0.72 6,-1.96 8.61,-3.72 2.62,-1.77 4.97,-3.92 7.07,-6.46 2.1,-2.54 3.95,-5.27 5.54,-8.17 3.75,-6.92 6.86,-10.16 9.32,-9.7 3.41,0.63 4.56,3.89 3.47,9.79 -0.75,4.05 -2.05,7.74 -3.9,11.05 -1.85,3.32 -3.67,6.03 -5.47,8.13 -0.32,0.32 -0.41,0.67 -0.26,1.04 0.15,0.38 0.47,0.68 0.95,0.92l18.24 7.73zm28.07 -137.32l19.72 4.24c0.34,0.09 0.67,0.07 0.98,-0.06 0.31,-0.14 0.52,-0.3 0.62,-0.5l10.47 -20.27c0.24,-0.46 0.22,-0.9 -0.06,-1.29 -0.28,-0.4 -0.65,-0.63 -1.1,-0.7l-86.5 -16.97c-0.69,-0.18 -1.18,0.03 -1.49,0.63l-12.84 24.86c-0.31,0.6 -0.19,1.13 0.35,1.57l64.58 59.41c0.31,0.33 0.71,0.5 1.2,0.5 0.49,0 0.85,-0.23 1.09,-0.7l9.9 -19.17c0.34,-0.66 0.21,-1.24 -0.42,-1.73 -2.54,-2.06 -5.06,-4.19 -7.59,-6.38 -2.52,-2.19 -5.09,-4.33 -7.7,-6.44l8.77 -16.98zm-25.11 4.49c-1.95,-1.69 -3.64,-3.15 -5.04,-4.38 -1.41,-1.23 -3.11,-2.66 -5.1,-4.28l-0.05 0.1c-0.9,-0.89 -1.88,-1.78 -2.94,-2.66 -1.05,-0.88 -2.17,-1.79 -3.33,-2.73 -0.35,-0.27 -0.77,-0.59 -1.26,-0.96 -0.49,-0.38 -0.91,-0.7 -1.26,-0.96 0.45,0.06 0.74,0.11 0.88,0.14 0.14,0.03 0.2,0.04 0.2,0.04 -0.04,0.07 0.02,0.11 0.15,0.14 0.13,0.03 0.5,0.11 1.11,0.26l-0.17 0.04c1.48,0.34 3.02,0.66 4.63,0.94 1.6,0.28 3.11,0.57 4.51,0.88 2.12,0.42 4.28,0.91 6.49,1.45 2.2,0.55 4.4,1.05 6.6,1.51l-5.42 10.49zm78.13 -47.93c0.72,0.74 1.41,0.8 2.05,0.18l14.74 -14.35c0.59,-0.58 0.52,-1.23 -0.2,-1.98l-21.1 -21.68 19.98 -19.44c0.59,-0.57 0.55,-1.2 -0.11,-1.89l-13.31 -13.67c-0.72,-0.74 -1.38,-0.83 -1.97,-0.26l-19.98 19.44 -8.15 -8.37 21.26 -20.7c0.64,-0.63 0.64,-1.28 -0.03,-1.96l-13.31 -13.67c-0.72,-0.74 -1.41,-0.8 -2.05,-0.18l-36.89 35.9c-0.65,0.63 -0.6,1.31 0.12,2.06l58.94 60.56zm91.3 -128.88c-0.43,-0.85 -1.01,-1.09 -1.75,-0.72l-25.44 12.69 -4.46 -8.94 27.05 -13.5c0.8,-0.4 0.99,-1.03 0.57,-1.88l-8.52 -17.08c-0.46,-0.93 -1.1,-1.19 -1.9,-0.79l-46.66 23.29c-0.74,0.37 -0.88,1.02 -0.41,1.94l37.74 75.62c0.46,0.93 1.07,1.21 1.8,0.84l48.17 -24.05c0.73,-0.36 0.88,-1.02 0.41,-1.94l-8.52 -17.08c-0.43,-0.85 -1.01,-1.09 -1.75,-0.72l-28.56 14.25 -5.1 -10.22 25.44 -12.7c0.74,-0.36 0.88,-1.02 0.41,-1.94l-8.52 -17.08zm74.93 31.53c0.18,1.02 0.67,1.46 1.48,1.32l20.26 -3.55c0.89,-0.15 1.24,-0.74 1.06,-1.77l-11.01 -62.78 19.37 -3.4c0.89,-0.16 1.24,-0.7 1.08,-1.64l-3.34 -19.05c-0.18,-1.03 -0.71,-1.46 -1.59,-1.3l-61.33 10.75c-0.81,0.15 -1.13,0.72 -0.95,1.75l3.34 19.05c0.16,0.94 0.65,1.33 1.46,1.19l19.15 -3.35 11.01 62.78zm117.88 -1.11c0.89,0.12 1.41,-0.34 1.54,-1.37l4.62 -35.4 32.4 -44.21c0.3,-0.57 0.39,-1.1 0.27,-1.6 -0.13,-0.49 -0.48,-0.78 -1.08,-0.86l-23.51 -3.07c-0.59,-0.08 -1.01,0.17 -1.23,0.76l-9.25 17.9c-0.71,1.4 -1.39,2.66 -2.03,3.8 -0.64,1.14 -1.26,2.28 -1.86,3.42 -0.64,1.4 -1.3,2.71 -1.98,3.93 -0.25,-0.99 -0.45,-1.76 -0.6,-2.3 -0.16,-0.54 -0.28,-1.04 -0.38,-1.49 -0.09,-0.45 -0.2,-0.92 -0.32,-1.42 -0.13,-0.49 -0.27,-1.23 -0.45,-2.22 -0.21,-0.72 -0.39,-1.51 -0.54,-2.36 -0.15,-0.85 -0.36,-1.73 -0.62,-2.64l-4.36 -19.55c-0.22,-0.64 -0.55,-0.99 -1,-1.05l-23.85 -3.12c-0.59,-0.08 -1.02,0.11 -1.26,0.56 -0.25,0.45 -0.3,0.98 -0.16,1.61 3.18,8.62 6.31,17.23 9.38,25.84 3.07,8.61 6.19,17.26 9.36,25.96l-4.5 34.5c-0.14,1.03 0.2,1.6 1.02,1.7l20.39 2.66zm111.36 14.79c0.07,-0.54 -0.01,-0.97 -0.23,-1.3 -0.22,-0.33 -0.54,-0.49 -0.95,-0.48 -1.82,0.05 -4.1,-0.21 -6.83,-0.79 -2.73,-0.58 -5.37,-1.42 -7.91,-2.53 -6.59,-2.88 -10.79,-7.07 -12.6,-12.57 -1.81,-5.51 -1.34,-11.4 1.39,-17.66 1.59,-3.65 3.51,-6.54 5.75,-8.68 2.24,-2.14 4.65,-3.69 7.23,-4.64 2.58,-0.95 5.26,-1.32 8.02,-1.1 2.77,0.21 5.49,0.91 8.17,2.08 3.09,1.34 5.69,2.83 7.8,4.46 2.11,1.63 3.8,3.23 5.06,4.83 0.28,0.31 0.61,0.43 1.01,0.37 0.4,-0.07 0.75,-0.27 1.06,-0.6l11.24 -15.07c0.48,-0.73 0.52,-1.38 0.11,-1.93 -1.23,-1.86 -3.44,-3.93 -6.61,-6.21 -3.17,-2.28 -7.03,-4.41 -11.56,-6.39 -5.7,-2.48 -11.45,-3.91 -17.26,-4.27 -5.81,-0.36 -11.39,0.43 -16.74,2.4 -5.36,1.96 -10.29,5.12 -14.8,9.48 -4.52,4.35 -8.3,10.03 -11.34,17.01 -2.35,5.39 -3.79,10.88 -4.3,16.46 -0.51,5.58 0.07,10.94 1.76,16.07 1.69,5.13 4.62,9.9 8.78,14.31 4.17,4.41 9.75,8.15 16.75,11.2 4.74,2.07 9.02,3.41 12.83,4.04 3.82,0.63 6.62,0.86 8.41,0.69 0.28,-0.07 0.56,-0.2 0.85,-0.41 0.29,-0.2 0.47,-0.48 0.55,-0.82l4.38 -17.92zm67.47 55.86l-9.54 17.78c-0.18,0.3 -0.26,0.62 -0.21,0.96 0.05,0.34 0.15,0.58 0.31,0.74l16.58 15.67c0.38,0.36 0.8,0.46 1.26,0.3 0.46,-0.16 0.79,-0.45 0.97,-0.87l40.25 -78.42c0.36,-0.6 0.3,-1.14 -0.19,-1.6l-20.34 -19.22c-0.49,-0.46 -1.03,-0.49 -1.61,-0.09l-74.96 45.61c-0.41,0.21 -0.68,0.55 -0.81,1.02 -0.13,0.47 -0.01,0.88 0.37,1.24l15.68 14.83c0.54,0.52 1.14,0.54 1.78,0.08 2.69,-1.86 5.43,-3.71 8.24,-5.53 2.8,-1.82 5.58,-3.69 8.32,-5.62l13.89 13.12zm2.64 -25.37c2.16,-1.41 4.02,-2.63 5.6,-3.64 1.57,-1.02 3.42,-2.25 5.52,-3.71l-0.08 -0.08c1.1,-0.63 2.22,-1.32 3.37,-2.09 1.14,-0.77 2.32,-1.58 3.55,-2.45 0.35,-0.26 0.78,-0.58 1.27,-0.94 0.5,-0.36 0.92,-0.68 1.28,-0.94 -0.19,0.42 -0.31,0.69 -0.38,0.81 -0.06,0.12 -0.09,0.18 -0.09,0.18 -0.05,-0.05 -0.11,-0.02 -0.17,0.1 -0.06,0.12 -0.25,0.45 -0.56,0.99l0.01 -0.18c-0.74,1.33 -1.47,2.72 -2.18,4.19 -0.72,1.46 -1.42,2.83 -2.09,4.09 -0.99,1.92 -2.05,3.87 -3.19,5.83 -1.14,1.96 -2.22,3.94 -3.28,5.92l-8.57 -8.11zm25.85 87.61c-0.93,0.46 -1.19,1.1 -0.79,1.91l9.08 18.2c0.37,0.73 1.02,0.87 1.95,0.41l23.69 -11.82c0.19,0.57 0.45,1.2 0.79,1.87 0.34,0.67 0.67,1.34 1.01,2.01 2.54,5.09 5.57,9.36 9.07,12.8 3.51,3.44 7.43,5.92 11.77,7.44 3.35,1.09 7.06,1.35 11.13,0.79 4.07,-0.57 7.96,-1.78 11.68,-3.63 4.33,-2.17 7.81,-4.95 10.42,-8.35 2.61,-3.39 4.33,-6.77 5.18,-10.12 0.69,-3.27 0.71,-7.01 0.06,-11.21 -0.65,-4.2 -2.22,-8.81 -4.74,-13.84 -2.94,-5.9 -5.55,-10.69 -7.82,-14.37 -2.27,-3.68 -4.28,-6.68 -6.01,-9 -0.49,-0.59 -1.08,-0.72 -1.78,-0.37l-74.68 37.28zm69.25 -8.93c0.42,0.46 0.83,1.09 1.23,1.9 0.4,0.8 0.89,1.78 1.45,2.91 1.64,3.29 2.17,6.08 1.57,8.39 -0.59,2.3 -2.08,4.06 -4.49,5.26 -2.94,1.47 -5.72,1.56 -8.35,0.27 -2.63,-1.29 -4.74,-3.54 -6.34,-6.76 -0.44,-0.87 -0.79,-1.57 -1.06,-2.11 -0.23,-0.47 -0.45,-0.99 -0.64,-1.57l16.61 -8.29zm-26.6 92.99c-0.27,-0.03 -0.56,0.06 -0.88,0.27 -0.31,0.2 -0.53,0.47 -0.65,0.8 -0.47,1.3 -0.91,2.86 -1.29,4.68 -0.39,1.81 -0.69,3.83 -0.92,6.04 -0.23,2.2 -0.3,4.52 -0.23,6.94 0.07,2.42 0.32,4.84 0.75,7.28 1.05,5.98 2.73,10.97 5.06,14.97 2.33,4.01 5.05,7.14 8.17,9.41 3.12,2.27 6.5,3.75 10.14,4.44 3.64,0.69 7.29,0.72 10.95,0.07 6.65,-1.17 11.84,-3.88 15.58,-8.15 3.73,-4.27 6.28,-10.29 7.64,-18.06 0.83,-4.78 1.55,-8.33 2.15,-10.64 0.6,-2.31 1.76,-3.62 3.46,-3.92 1.45,-0.26 2.66,0.26 3.63,1.53 0.97,1.28 1.68,3.2 2.14,5.79 0.7,3.99 0.81,7.52 0.34,10.61 -0.47,3.09 -0.98,5.55 -1.54,7.4 -0.27,0.96 0.17,1.49 1.33,1.59l19.1 1.44c0.89,0.07 1.44,-0.29 1.65,-1.08 0.96,-3.06 1.55,-6.45 1.78,-10.18 0.22,-3.73 -0.11,-8.14 -1.01,-13.23 -0.85,-4.87 -2.3,-9.14 -4.35,-12.81 -2.05,-3.67 -4.55,-6.67 -7.51,-9.01 -2.96,-2.34 -6.25,-3.94 -9.88,-4.83 -3.63,-0.88 -7.44,-0.97 -11.44,-0.27 -3.75,0.66 -6.96,1.86 -9.65,3.63 -2.68,1.76 -4.93,3.93 -6.77,6.49 -1.83,2.57 -3.29,5.41 -4.37,8.53 -1.08,3.12 -1.86,6.31 -2.34,9.6 -1.09,7.8 -2.88,11.91 -5.34,12.35 -3.41,0.6 -5.63,-2.05 -6.67,-7.96 -0.71,-4.06 -0.78,-7.96 -0.21,-11.72 0.57,-3.75 1.33,-6.93 2.28,-9.53 0.19,-0.42 0.15,-0.77 -0.12,-1.06 -0.27,-0.3 -0.68,-0.47 -1.21,-0.53l-19.79 -0.86zm-581.09 292.48l2.87 8.82c-4.87,1.76 -9.2,2.03 -13.01,0.83 -3.8,-1.2 -7.1,-3.79 -9.9,-7.77 -3.46,-4.93 -4.63,-10.17 -3.5,-15.72 1.14,-5.54 4.63,-10.37 10.48,-14.48 6.18,-4.34 12.11,-6.12 17.77,-5.33 5.66,0.78 10.32,3.78 13.98,8.98 3.19,4.54 4.44,9.18 3.75,13.9 -0.4,2.81 -1.8,5.68 -4.18,8.62l-6.97 -6.17c1.61,-1.79 2.48,-3.77 2.62,-5.94 0.13,-2.19 -0.51,-4.27 -1.9,-6.25 -1.94,-2.76 -4.5,-4.3 -7.67,-4.62 -3.18,-0.34 -6.98,1.05 -11.4,4.16 -4.68,3.29 -7.43,6.49 -8.24,9.57 -0.8,3.09 -0.26,5.99 1.65,8.69 1.4,2 3.24,3.27 5.52,3.81 2.28,0.54 5,0.18 8.15,-1.11zm24.49 52.71l-6.8 -7.19 4.81 -9.94 -12.51 -13.21 -10.09 4.36 -6.68 -7.05 45.05 -18.39 6.67 7.05 -20.45 44.38zm1.53 -24.56l7.86 -16.12 -16.4 7.09 8.54 9.03zm2.15 27.82l29.64 -34.34 11.12 9.6c4.21,3.64 6.81,6.17 7.79,7.62 1.52,2.22 2.2,4.76 2.04,7.63 -0.16,2.88 -1.43,5.68 -3.79,8.41 -1.82,2.11 -3.73,3.54 -5.73,4.33 -2.01,0.78 -3.95,1.07 -5.83,0.88 -1.88,-0.2 -3.55,-0.69 -4.99,-1.47 -1.94,-1.1 -4.47,-3 -7.61,-5.7l-4.51 -3.89 -11.18 12.94 -6.95 -6zm31.59 -22.53l-8.45 9.78 3.78 3.26c2.72,2.35 4.7,3.73 5.93,4.17 1.23,0.44 2.43,0.49 3.62,0.17 1.18,-0.32 2.21,-0.98 3.1,-2.01 1.08,-1.25 1.6,-2.6 1.58,-4.04 -0.03,-1.45 -0.51,-2.76 -1.45,-3.94 -0.69,-0.86 -2.28,-2.37 -4.78,-4.52l-3.33 -2.88zm6.27 36.52l8.02 4.03c-1.14,2.81 -1.4,5.24 -0.77,7.3 0.63,2.06 2.13,3.83 4.47,5.32 2.48,1.57 4.69,2.23 6.61,1.97 1.93,-0.26 3.34,-1.09 4.23,-2.5 0.58,-0.91 0.8,-1.84 0.68,-2.82 -0.13,-0.97 -0.7,-2.11 -1.73,-3.41 -0.7,-0.89 -2.4,-2.75 -5.1,-5.58 -3.47,-3.65 -5.57,-6.76 -6.29,-9.32 -1.01,-3.6 -0.54,-6.92 1.39,-9.96 1.23,-1.95 2.95,-3.44 5.13,-4.45 2.19,-1.01 4.59,-1.3 7.24,-0.87 2.65,0.42 5.43,1.56 8.37,3.42 4.79,3.03 7.73,6.38 8.8,10.05 1.08,3.67 0.55,7.3 -1.58,10.94l-7.93 -4.65c0.92,-2.19 1.12,-4.05 0.58,-5.61 -0.53,-1.55 -1.88,-3.01 -4.04,-4.38 -2.23,-1.41 -4.27,-2.05 -6.12,-1.92 -1.19,0.08 -2.1,0.62 -2.74,1.61 -0.57,0.91 -0.68,1.93 -0.32,3.06 0.45,1.45 2.27,3.8 5.46,7.07 3.19,3.26 5.38,5.95 6.58,8.03 1.2,2.09 1.79,4.28 1.76,6.58 -0.03,2.29 -0.8,4.65 -2.33,7.06 -1.39,2.2 -3.3,3.88 -5.74,5.02 -2.44,1.15 -5.06,1.48 -7.88,1 -2.82,-0.48 -5.9,-1.78 -9.23,-3.88 -4.84,-3.07 -7.86,-6.54 -9.04,-10.42 -1.18,-3.87 -0.67,-8.11 1.53,-12.7zm50.82 -3.91l8.15 4.24 -11.35 21.81c-1.8,3.47 -2.87,5.76 -3.2,6.88 -0.52,1.83 -0.39,3.58 0.39,5.25 0.78,1.68 2.29,3.09 4.54,4.27 2.28,1.18 4.24,1.61 5.9,1.27 1.65,-0.34 2.94,-1.14 3.9,-2.39 0.95,-1.26 2.26,-3.47 3.91,-6.65l11.59 -22.27 8.15 4.24 -11.01 21.16c-2.52,4.83 -4.51,8.14 -5.99,9.91 -1.48,1.77 -3.16,3.03 -5.06,3.8 -1.89,0.77 -4.03,1.03 -6.42,0.82 -2.4,-0.21 -5.18,-1.14 -8.36,-2.79 -3.83,-1.99 -6.5,-3.94 -8.02,-5.86 -1.51,-1.92 -2.48,-3.89 -2.89,-5.91 -0.41,-2.03 -0.39,-3.9 0.06,-5.65 0.67,-2.58 2.18,-6.13 4.52,-10.63l11.18 -21.49zm20.29 60.62l16.21 -41.95 8.57 3.31 -13.45 34.81 21.22 8.2 -2.76 7.15 -29.79 -11.51zm75.8 22.92l-9.65 -2.2 -1.52 -10.94 -17.74 -4.05 -5.97 9.23 -9.47 -2.16 27.26 -40.3 9.47 2.16 7.62 48.27zm-12.37 -21.28l-2.41 -17.77 -9.71 15 12.12 2.77zm16.79 7.07l8.97 0.31c0.14,3.03 0.91,5.34 2.35,6.95 1.44,1.61 3.53,2.59 6.28,2.96 2.91,0.39 5.19,0.07 6.83,-0.97 1.64,-1.03 2.58,-2.38 2.8,-4.03 0.14,-1.07 -0.05,-2.01 -0.57,-2.84 -0.52,-0.83 -1.52,-1.62 -3,-2.38 -1.01,-0.52 -3.32,-1.49 -6.96,-2.94 -4.68,-1.86 -7.89,-3.81 -9.61,-5.83 -2.42,-2.85 -3.39,-6.06 -2.91,-9.63 0.31,-2.29 1.24,-4.36 2.8,-6.18 1.56,-1.82 3.63,-3.09 6.21,-3.81 2.58,-0.72 5.58,-0.85 9.03,-0.39 5.62,0.76 9.69,2.57 12.19,5.45 2.51,2.89 3.55,6.41 3.14,10.61l-9.15 -0.91c-0.08,-2.38 -0.68,-4.15 -1.81,-5.33 -1.13,-1.19 -2.97,-1.95 -5.5,-2.3 -2.61,-0.35 -4.74,-0.08 -6.36,0.81 -1.05,0.57 -1.66,1.44 -1.81,2.61 -0.14,1.07 0.19,2.04 0.98,2.91 1.01,1.13 3.65,2.51 7.91,4.14 4.27,1.63 7.38,3.15 9.33,4.55 1.96,1.4 3.41,3.14 4.34,5.24 0.93,2.09 1.21,4.56 0.83,7.4 -0.34,2.57 -1.38,4.9 -3.12,6.95 -1.74,2.06 -3.99,3.46 -6.75,4.2 -2.76,0.75 -6.1,0.85 -10.01,0.33 -5.68,-0.76 -9.87,-2.66 -12.56,-5.69 -2.7,-3.03 -4,-7.09 -3.92,-12.18zm100.01 13.82l-5.15 6.8c-2.6,-1.21 -5.11,-2.9 -7.52,-5.06 -1.8,1.68 -3.73,2.93 -5.78,3.75 -2.04,0.82 -4.49,1.26 -7.33,1.31 -5.64,0.1 -9.91,-1.42 -12.82,-4.54 -2.25,-2.41 -3.4,-5.22 -3.45,-8.42 -0.06,-2.92 0.76,-5.55 2.46,-7.9 1.69,-2.35 4.25,-4.42 7.67,-6.19 -1.59,-1.81 -2.79,-3.54 -3.6,-5.19 -0.82,-1.66 -1.24,-3.22 -1.27,-4.71 -0.05,-2.75 1.01,-5.1 3.17,-7.05 2.15,-1.95 5.27,-2.97 9.32,-3.04 3.91,-0.07 6.99,0.88 9.23,2.83 2.24,1.96 3.39,4.39 3.43,7.28 0.04,1.84 -0.47,3.59 -1.53,5.26 -1.06,1.67 -3.21,3.57 -6.47,5.71l6.39 8.28c0.71,-1.32 1.32,-3.05 1.82,-5.17l7.91 1.62c-0.73,2.8 -1.38,4.86 -1.94,6.16 -0.55,1.3 -1.15,2.39 -1.8,3.27 0.98,0.89 2.26,1.86 3.82,2.92 1.56,1.06 2.7,1.76 3.43,2.09zm-24.1 -24.27l2.3 -1.85c1.7,-1.37 2.53,-2.71 2.51,-4.04 -0.02,-1.12 -0.45,-2.06 -1.3,-2.83 -0.84,-0.78 -1.96,-1.15 -3.38,-1.12 -1.37,0.02 -2.44,0.39 -3.21,1.09 -0.76,0.71 -1.13,1.52 -1.11,2.43 0.02,1.07 0.7,2.36 2.03,3.87l2.17 2.44zm-3.23 9.52c-1.96,1.05 -3.43,2.3 -4.4,3.75 -0.96,1.44 -1.43,2.91 -1.4,4.39 0.04,1.88 0.67,3.41 1.92,4.57 1.23,1.17 2.88,1.73 4.94,1.7 1.35,-0.03 2.66,-0.31 3.89,-0.88 1.25,-0.56 2.59,-1.47 4.05,-2.75l-9 -10.78zm60.47 14.35l-6.36 -37.15 -13.24 2.26 -1.29 -7.56 35.47 -6.06 1.29 7.56 -13.17 2.25 6.35 37.16 -9.05 1.55zm62.19 -17.44l-9.38 3.14 -7 -8.55 -17.25 5.78 -0.29 10.99 -9.21 3.09 2.29 -48.61 9.2 -3.08 31.64 37.24zm-21.63 -11.73l-11.31 -13.91 -0.47 17.86 11.78 -3.95zm26.25 10.07l-18.67 -41.34 13.38 -6.05c5.07,-2.29 8.46,-3.58 10.19,-3.86 2.65,-0.45 5.24,0.01 7.78,1.36 2.54,1.35 4.55,3.68 6.04,6.97 1.15,2.54 1.65,4.88 1.52,7.02 -0.14,2.15 -0.69,4.03 -1.66,5.66 -0.97,1.62 -2.12,2.93 -3.44,3.91 -1.81,1.29 -4.6,2.79 -8.37,4.5l-5.43 2.45 7.04 15.59 -8.37 3.78zm-7.15 -38.14l5.32 11.78 4.55 -2.06c3.28,-1.48 5.37,-2.69 6.28,-3.62 0.91,-0.94 1.47,-2 1.68,-3.21 0.21,-1.21 0.04,-2.42 -0.52,-3.65 -0.68,-1.51 -1.68,-2.55 -3.01,-3.14 -1.33,-0.58 -2.71,-0.7 -4.18,-0.33 -1.07,0.26 -3.1,1.07 -6.11,2.42l-4.01 1.81zm32.05 3.04c-2.51,-3.88 -4.04,-7.52 -4.58,-10.92 -0.4,-2.5 -0.33,-5.01 0.17,-7.52 0.5,-2.51 1.4,-4.72 2.69,-6.63 1.73,-2.54 4.15,-4.81 7.25,-6.82 5.62,-3.64 11.24,-4.79 16.87,-3.49 5.63,1.32 10.44,5.08 14.47,11.29 3.99,6.16 5.43,12.07 4.33,17.71 -1.09,5.65 -4.44,10.28 -10.04,13.9 -5.67,3.66 -11.3,4.85 -16.88,3.55 -5.58,-1.3 -10.34,-4.99 -14.27,-11.07zm7.76 -5.38c2.79,4.32 5.91,6.94 9.35,7.89 3.43,0.94 6.69,0.42 9.76,-1.57 3.08,-1.99 4.88,-4.73 5.43,-8.21 0.54,-3.49 -0.63,-7.44 -3.48,-11.87 -2.82,-4.37 -5.89,-7.02 -9.2,-7.92 -3.31,-0.92 -6.55,-0.34 -9.73,1.71 -3.17,2.05 -5.03,4.8 -5.57,8.23 -0.53,3.44 0.61,7.34 3.45,11.74zm47.19 -3.89l-27.73 -35.9 7.03 -5.44 33.36 12.65 -18.59 -24.06 6.72 -5.19 27.73 35.9 -7.27 5.61 -32.78 -12.36 18.23 23.6 -6.72 5.19zm35.68 -28.7l-32.93 -31.2 23.09 -24.37 5.56 5.27 -16.77 17.71 7.31 6.93 15.6 -16.47 5.57 5.27 -15.6 16.47 8.92 8.45 17.38 -18.35 5.57 5.27 -23.71 25.02zm15.76 -38.43l4.94 -7.49c2.66,1.47 5.04,2.01 7.16,1.63 2.13,-0.38 4.06,-1.66 5.81,-3.81 1.85,-2.28 2.77,-4.39 2.74,-6.33 -0.03,-1.94 -0.69,-3.44 -1.98,-4.5 -0.84,-0.68 -1.74,-1.01 -2.72,-1 -0.97,0.01 -2.18,0.45 -3.59,1.31 -0.96,0.59 -3.01,2.06 -6.14,4.41 -4.03,3.02 -7.36,4.74 -9.99,5.14 -3.69,0.58 -6.93,-0.28 -9.73,-2.55 -1.79,-1.46 -3.07,-3.34 -3.81,-5.62 -0.74,-2.29 -0.74,-4.71 -0.01,-7.29 0.73,-2.58 2.19,-5.2 4.38,-7.91 3.58,-4.4 7.25,-6.92 11.02,-7.55 3.77,-0.64 7.32,0.32 10.68,2.86l-5.55 7.33c-2.06,-1.18 -3.89,-1.59 -5.5,-1.24 -1.6,0.35 -3.21,1.51 -4.82,3.5 -1.67,2.05 -2.55,4 -2.64,5.85 -0.06,1.19 0.37,2.16 1.29,2.91 0.83,0.68 1.83,0.91 3,0.68 1.49,-0.28 4.04,-1.81 7.66,-4.59 3.62,-2.79 6.54,-4.65 8.75,-5.59 2.22,-0.94 4.46,-1.27 6.74,-0.97 2.27,0.3 4.52,1.35 6.74,3.15 2.02,1.64 3.46,3.74 4.31,6.29 0.85,2.55 0.87,5.2 0.06,7.94 -0.8,2.75 -2.45,5.65 -4.94,8.7 -3.62,4.45 -7.42,7.03 -11.41,7.75 -3.99,0.72 -8.13,-0.3 -12.43,-3.02zm-268.18 -499.13c147.55,0 267.17,119.62 267.17,267.17 0,147.55 -119.62,267.17 -267.17,267.17 -147.55,0 -267.17,-119.62 -267.17,-267.17 0,-147.55 119.62,-267.17 267.17,-267.17z"/>
    <path class="fil3" d="M374.16 415.06l0.15 -0.03 0 2.43 0.1 -0.01 0.14 -0.02 0.05 0 0.19 -0.02 0.01 0 0.19 -0.02 0.05 -0.01 0.14 -0.01 0.1 -0.01 0.08 -0.01 0.16 -0.02 0.03 0 0.19 -0.02 0.02 0 0.17 -0.02 0.08 -0.01 0.11 -0.01 0.13 -0.01 0.06 -0.01 0.39 -0.03 0.04 0 0.16 -0.02 0.09 -0.01 0.1 -0.01 0.15 -0.01 0.05 -0.01 0.2 -0.01 0 0 0.19 -0.01 0.06 -0.01 0.14 -0.01 0.11 -0.01 0.08 -0.01 0.17 -0.01 0.03 0 0.2 -0.01 0.02 0 0.18 -0.01 0.07 -0.01 0.12 -0.01 0.13 -0.01 0.07 -0.01 0.18 -0.01 0.02 0 0.2 -0.01 0.04 0 0.16 -0.01 0.09 -0.01 0.11 -0.01 0.15 -0.01 0.05 -0.01 0.2 -0.01 0 0 0.2 -0.01 0.06 0 0.26 -0.01 0.09 -0.01 0.17 -0.01 0.04 0 0.2 -0.01 0.02 0 0.18 -0.01 0.07 0 0.13 -0.01 0.13 0 0.07 -0.01 0.19 0 0.02 -0.01 0.2 -0.01 0.04 0 0.17 0 0.09 -0.01 0.11 0 0.15 -0.01 0.06 0 0.41 -0.01 0.06 0 0.15 0 0.11 -0.01 0.09 0 0.17 0 0.04 0 0.21 0 0.02 0 0.19 -0.01 0.07 0 0.13 0 0.14 0 0.48 0 0.04 0 0.17 0 0.1 0.01 0.11 0 0.15 0 0.06 0 0.21 0c5.62,0.06 10.97,0.5 15.84,1.27 5.08,0.79 9.64,1.93 13.45,3.32 3.56,1.3 6.43,2.78 8.4,4.37 2.04,1.63 4.38,3.41 4.36,5.25 0,2.5 0.05,4.97 0.03,7.49l-0.24 28.9c1.8,0.12 3.6,0.22 5.41,0.3 2.44,0.1 4.9,0.17 7.39,0.19 9.35,0.08 18.27,-0.43 26.41,-1.43 8.43,-1.03 16.01,-2.59 22.32,-4.55 5.79,-1.8 10.45,-3.85 13.62,-6.06 2.89,-2.01 4.49,-4.09 4.51,-6.15l0.61 -67.85c-1.7,1.51 -3.76,2.93 -6.16,4.25 -3.17,1.75 -6.93,3.31 -11.19,4.67 -6.52,2.08 -14.26,3.73 -22.85,4.83 -8.26,1.05 -17.28,1.6 -26.74,1.51 -9.47,-0.08 -18.49,-0.79 -26.71,-1.99 -8.56,-1.25 -16.28,-3.04 -22.76,-5.24 -4.23,-1.44 -7.96,-3.07 -11.1,-4.87 -2.38,-1.36 -4.41,-2.82 -6.08,-4.37l-0.31 34.23z"/>
    <path class="fil4" d="M600.52 484.01c-2.52,-1.25 -5.45,-2.43 -8.75,-3.53l0 0c-6.31,-2.1 -13.86,-3.82 -22.25,-5.02 -8.06,-1.15 -16.93,-1.82 -26.25,-1.91 -9.33,-0.08 -18.21,0.44 -26.28,1.44 -2.81,0.35 -5.52,0.76 -8.12,1.22l0.71 -78.32c3.97,0.56 7.41,0.9 11.68,1.22 4.49,0.34 9.14,0.53 13.93,0.58 9.74,0.08 19.05,-0.48 27.57,-1.58 8.87,-1.15 16.88,-2.87 23.62,-5.03 3.41,-1.1 6.5,-2.32 9.24,-3.66 2.14,-1.04 4.06,-2.16 5.77,-3.33l-0.88 97.92z"/>
    <path class="fil5" d="M469.52 354.35c1.16,0.16 2.31,0.36 3.43,0.58l0 -39.42c0,-0.68 0.55,-1.22 1.22,-1.22 0.68,0 1.22,0.55 1.22,1.22l0 39.89c3.44,0.7 6.66,1.46 9.66,2.33l0 -37.47c0,-0.68 0.55,-1.22 1.22,-1.22 0.68,0 1.22,0.55 1.22,1.22l0 38.21c0.58,0.18 1.15,0.36 1.7,0.56 2.96,0.99 5.63,2.08 7.95,3.21l0 -38.84c0,-0.68 0.55,-1.22 1.22,-1.22 0.68,0 1.23,0.55 1.23,1.22l0 40.12c1.17,0.67 2.22,1.34 3.16,2.04 2.77,2.07 4.46,4.28 4.86,6.56l1.84 5.79 -0.2 -5.68 0 -46.8c0,-0.68 0.55,-1.23 1.22,-1.23 0.68,0 1.22,0.55 1.22,1.23l0 57.81c0,0.68 -0.55,1.22 -1.22,1.22 -0.3,0 -0.57,-0.1 -0.78,-0.29l0 4.18c8.15,1.15 17.11,1.82 26.52,1.91 19.17,0.17 36.5,-2.14 48.99,-6.02 3.33,-1.03 6.3,-2.15 8.83,-3.34 1.72,-0.83 3.23,-1.69 4.51,-2.57 2.89,-2.01 4.49,-4.09 4.51,-6.15l0.61 -67.85c-1.69,1.51 -3.76,2.93 -6.16,4.25 -3.17,1.74 -6.93,3.31 -11.19,4.67 -6.51,2.08 -14.26,3.73 -22.85,4.83 -8.25,1.06 -17.28,1.6 -26.74,1.51 -9.47,-0.08 -18.49,-0.79 -26.71,-1.99 -8.56,-1.25 -16.28,-3.04 -22.76,-5.24 -4.23,-1.44 -7.96,-3.07 -11.1,-4.87 -2.37,-1.36 -4.41,-2.82 -6.08,-4.37l-0.46 51.24 -0.11 -0.02zm124.51 -36.38c0,-0.67 0.55,-1.22 1.22,-1.22 0.68,0 1.22,0.55 1.22,1.22l0 58.62c0,0.68 -0.55,1.22 -1.22,1.22 -0.68,0 -1.22,-0.55 -1.22,-1.22l0 -58.62zm-12.1 3.86c0,-0.68 0.55,-1.22 1.22,-1.22 0.67,0 1.22,0.55 1.22,1.22l0 58.56c0,0.68 -0.55,1.22 -1.22,1.22 -0.68,0 -1.22,-0.55 -1.22,-1.22l0 -58.56zm-12.11 2.61c0,-0.68 0.55,-1.23 1.22,-1.23 0.68,0 1.22,0.55 1.22,1.23l0 58.29c0,0.68 -0.55,1.22 -1.22,1.22 -0.68,0 -1.22,-0.55 -1.22,-1.22l0 -58.29zm-12.12 1.6c0,-0.68 0.55,-1.22 1.22,-1.22 0.68,0 1.22,0.55 1.22,1.22l0 57.92c0,0.68 -0.55,1.22 -1.22,1.22 -0.67,0 -1.22,-0.55 -1.22,-1.22l0 -57.92zm-12.11 0.81c0,-0.68 0.55,-1.22 1.22,-1.22 0.68,0 1.23,0.55 1.23,1.22l0 57.57c0,0.68 -0.55,1.22 -1.23,1.22 -0.67,0 -1.22,-0.55 -1.22,-1.22l0 -57.57zm-12.11 0.16c0,-0.67 0.55,-1.22 1.22,-1.22 0.67,0 1.22,0.55 1.22,1.22l0 57.46c0,0.68 -0.55,1.22 -1.22,1.22 -0.68,0 -1.22,-0.55 -1.22,-1.22l0 -57.46zm-12.11 -0.44c0,-0.67 0.55,-1.22 1.22,-1.22 0.68,0 1.22,0.55 1.22,1.22l0 57.6c0,0.68 -0.55,1.22 -1.22,1.22 -0.68,0 -1.22,-0.55 -1.22,-1.22l0 -57.6z"/>
    <path class="fil4" d="M510.71 277.22c-8.17,1.04 -15.51,2.6 -21.65,4.56 -5.6,1.79 -10.12,3.84 -13.19,6.05 -2.8,2.01 -4.35,4.09 -4.37,6.17 -0.02,2.07 1.5,4.19 4.26,6.25 3.03,2.26 7.51,4.39 13.09,6.28 6.1,2.07 13.41,3.76 21.56,4.94 7.87,1.14 16.5,1.81 25.57,1.89 9.08,0.08 17.73,-0.43 25.6,-1.43 8.17,-1.04 15.51,-2.59 21.65,-4.55 5.6,-1.79 10.12,-3.84 13.19,-6.05 2.8,-2.01 4.35,-4.09 4.37,-6.16 0.02,-2.07 -1.5,-4.19 -4.26,-6.25 -3.03,-2.26 -7.51,-4.39 -13.09,-6.29 -6.1,-2.07 -13.41,-3.76 -21.56,-4.94 -7.87,-1.15 -16.5,-1.81 -25.57,-1.89 -9.07,-0.08 -17.72,0.43 -25.6,1.43z"/>
    <path class="fil6" d="M372.58 417.63c-0.84,0.09 -1.68,0.2 -2.5,0.31 -5.09,0.69 -9.68,1.74 -13.51,3.06 -3.57,1.23 -6.46,2.66 -8.47,4.2 -1.89,1.46 -3.01,3.05 -3.19,4.72l-1.05 0 -0.87 122.07c-1.97,0.1 -3.95,0.18 -5.93,0.22 -2.25,0.05 -4.53,0.07 -6.83,0.05 -9.31,-0.08 -18.19,-0.78 -26.26,-1.95 -8.36,-1.22 -15.86,-2.96 -22.1,-5.09 -5.64,-1.93 -10.17,-4.08 -13.23,-6.35 -2.8,-2.07 -4.33,-4.18 -4.31,-6.24l1.13 -126.31c1.68,1.21 3.59,2.35 5.7,3.43 2.72,1.39 5.8,2.67 9.18,3.83 6.7,2.29 14.67,4.15 23.51,5.45 8.49,1.25 17.79,1.98 27.54,2.07 7.71,0.07 15.15,-0.27 22.13,-0.96 6.83,-0.68 13.24,-1.68 19.04,-2.97l0 0.44z"/>
    <path class="fil7" d="M265.46 325.81l-0.6 66.99 0.2 0 -0.01 0.86c-0.02,2.07 1.54,4.18 4.4,6.24 3.13,2.26 7.75,4.4 13.52,6.3 6.29,2.07 13.83,3.77 22.23,4.95 8.12,1.14 17.02,1.81 26.38,1.9 7.7,0.07 15.11,-0.27 22.02,-0.94 6.88,-0.68 13.27,-1.69 18.98,-2.98l0 -39.48 0.06 0c0.33,-2.39 2.09,-4.68 5.03,-6.79 3.21,-2.3 7.89,-4.44 13.68,-6.29l0 0c0.58,-0.19 1.17,-0.36 1.75,-0.54 0.07,0 0.51,-0.15 0.6,-0.17l0.01 -0.01c0.58,-0.17 1.17,-0.33 1.76,-0.49l0 0c0.41,-0.11 0.81,-0.21 1.21,-0.32l0.01 0c0.63,-0.16 1.26,-0.31 1.89,-0.46l0 -0.01 0.24 -0.06 0.24 -27.5c-1.69,1.51 -3.76,2.93 -6.16,4.25 -3.17,1.75 -6.93,3.31 -11.19,4.67 -6.51,2.08 -14.26,3.73 -22.85,4.83 -8.25,1.05 -17.28,1.6 -26.74,1.51 -9.47,-0.08 -18.49,-0.79 -26.71,-1.99 -8.56,-1.25 -16.28,-3.04 -22.76,-5.24 -4.23,-1.44 -7.96,-3.07 -11.1,-4.87 -2.37,-1.36 -4.41,-2.82 -6.08,-4.37z"/>
    <path class="fil6" d="M306.92 298.64c-8.17,1.04 -15.51,2.6 -21.64,4.56 -5.61,1.79 -10.12,3.84 -13.19,6.05 -2.8,2.01 -4.35,4.09 -4.37,6.17 -0.02,2.07 1.5,4.19 4.26,6.25 3.03,2.26 7.51,4.39 13.09,6.28 6.1,2.07 13.41,3.76 21.56,4.94 7.87,1.14 16.51,1.81 25.57,1.89 9.07,0.08 17.72,-0.43 25.6,-1.43 8.17,-1.04 15.51,-2.59 21.65,-4.55 5.61,-1.79 10.12,-3.84 13.19,-6.05 2.8,-2.01 4.35,-4.09 4.37,-6.16 0.02,-2.07 -1.5,-4.19 -4.26,-6.25 -3.03,-2.26 -7.51,-4.39 -13.09,-6.28 -6.1,-2.07 -13.41,-3.76 -21.56,-4.94 -7.87,-1.14 -16.51,-1.81 -25.57,-1.89 -9.07,-0.08 -17.72,0.43 -25.6,1.43z"/>
    <path class="fil8" d="M433.06 475.94c-2.16,-0.09 -3.34,-0.15 -5.4,-0.3l-0.36 88.96c1.93,0.13 3.29,0.2 5.23,0.28 2.22,0.09 4.45,0.15 6.7,0.17 6.59,0.06 12.98,-0.19 19.04,-0.71 5.97,-0.51 11.6,-1.28 16.76,-2.28l0 -68.86 0.53 0c0.15,-2.57 1.97,-5.03 5.17,-7.29 3.27,-2.3 8.03,-4.44 13.91,-6.29 3.56,-1.11 7.51,-2.1 11.77,-2.94l0.19 -14.15c-1.7,1.18 -3.63,2.29 -5.76,3.33 -2.74,1.33 -5.83,2.56 -9.24,3.66 -6.74,2.16 -14.75,3.89 -23.62,5.03 -8.52,1.1 -17.83,1.66 -27.57,1.58 -2.5,-0.03 -4.95,-0.09 -7.36,-0.19l0 0z"/>
    <path class="fil9" d="M344.69 553.62l0.01 -0.49 0.52 -62.17c0.91,0.66 1.91,1.29 2.99,1.88 1.68,0.93 3.58,1.78 5.67,2.55 4.12,1.51 9.02,2.75 14.46,3.61 5.22,0.83 10.93,1.31 16.91,1.37 5.99,0.06 11.7,-0.31 16.93,-1.04 5.44,-0.76 10.37,-1.9 14.52,-3.33 2.1,-0.73 4.02,-1.54 5.71,-2.43 0.93,-0.48 1.8,-1 2.6,-1.54l0 50.49 -0.27 31.85c-0.01,1.26 -0.93,2.56 -2.58,3.83 -1.88,1.44 -4.64,2.79 -8.07,3.99 -3.81,1.32 -8.4,2.38 -13.51,3.07 -4.94,0.68 -10.36,1.03 -16.04,0.97 -5.69,-0.06 -11.1,-0.51 -16.02,-1.28 -5.08,-0.8 -9.65,-1.94 -13.46,-3.34 -3.42,-1.26 -6.16,-2.66 -8,-4.14 -1.64,-1.3 -2.54,-2.62 -2.53,-3.89l0.17 -19.96z"/>
    <path class="fil10" d="M345.52 438.28l-0.27 37.63c0.09,0.06 0.19,0.14 0.27,0.22 0.32,0.33 0.67,0.65 1.03,0.96l0 -8.83 0 -0.01c0.01,-0.45 0.19,-0.86 0.49,-1.15 0.3,-0.29 0.7,-0.47 1.15,-0.47l0 0 0.01 0 0.01 0c0.45,0.01 0.86,0.2 1.16,0.49 0.3,0.3 0.48,0.71 0.48,1.17l0 9.37 -0.01 0.01c-0.01,0.45 -0.19,0.85 -0.48,1.15 -0.08,0.08 -0.16,0.15 -0.26,0.2 1.04,0.68 2.16,1.33 3.37,1.93 0.5,0.25 1.01,0.49 1.53,0.73l0 -9.87 0.01 -0.01c0.01,-0.45 0.19,-0.86 0.48,-1.15 0.3,-0.29 0.7,-0.47 1.15,-0.47l0 -0.01 0.01 0 0.01 0.01c0.46,0.01 0.86,0.2 1.16,0.49 0.3,0.3 0.48,0.71 0.48,1.17l0 10.05 -0.01 0.01c-0.01,0.38 -0.14,0.71 -0.35,0.98 1.44,0.54 2.95,1.04 4.53,1.48l0 -9.9 0.01 -0.01c0.01,-0.45 0.19,-0.85 0.48,-1.15 0.3,-0.3 0.7,-0.47 1.15,-0.47l0.01 0 0.01 0c0.45,0.01 0.86,0.2 1.16,0.49 0.3,0.3 0.48,0.71 0.48,1.17l0 10.73c0.71,0.17 1.42,0.32 2.13,0.47 0.67,0.14 1.35,0.27 2.05,0.4l0 -10.12 0.01 -0.01c0.01,-0.45 0.19,-0.85 0.49,-1.15 0.29,-0.29 0.7,-0.47 1.15,-0.47l0 -0.01 0.01 0 0.01 0.01c0.46,0.01 0.87,0.19 1.17,0.49 0.29,0.3 0.48,0.71 0.48,1.17l0 10.62c0.71,0.1 1.43,0.19 2.15,0.28 0.67,0.08 1.33,0.15 2.02,0.21l0.01 -10.31 -0.01 0 0 -0.01 0.01 -0.01c0.01,-0.45 0.19,-0.85 0.49,-1.15 0.29,-0.29 0.7,-0.47 1.15,-0.47l0.01 0 0.01 0c0.45,0.01 0.86,0.2 1.16,0.49 0.29,0.3 0.47,0.71 0.47,1.16l0 0 -0.01 10.56c0.75,0.05 1.48,0.09 2.2,0.12l0.01 0c0.75,0.03 1.5,0.05 2.23,0.07 -0.08,-3.43 -0.24,-6.95 -0.24,-10.38 -0.01,-0.45 0.17,-0.85 0.46,-1.15 0.29,-0.3 0.69,-0.49 1.14,-0.5l0.02 0c0.45,-0.01 0.86,0.17 1.17,0.46 0.3,0.29 0.49,0.7 0.51,1.16l0.24 10.43c0.66,-0.01 1.32,-0.02 1.98,-0.04 0.64,-0.02 1.28,-0.05 1.93,-0.08 -0.11,-3.39 -0.36,-6.98 -0.36,-10.34 -0.01,-0.45 0.16,-0.85 0.44,-1.16 0.29,-0.3 0.68,-0.49 1.14,-0.51l0.02 0c0.45,-0.01 0.86,0.16 1.17,0.45l0 0.01c0.31,0.29 0.5,0.69 0.52,1.15l0.36 10.19c0.7,-0.06 1.39,-0.13 2.06,-0.19 0.72,-0.08 1.44,-0.16 2.15,-0.25l0.01 -10.14 0 0 0 -0.01 0 -0.01c0.01,-0.45 0.19,-0.85 0.49,-1.15 0.29,-0.29 0.7,-0.47 1.15,-0.47l0 0 0.01 0 0.01 0c0.45,0.01 0.86,0.2 1.16,0.49 0.29,0.3 0.48,0.71 0.48,1.16l-0.01 0 -0.01 9.64c0.65,-0.11 1.32,-0.23 1.99,-0.36 0.73,-0.15 1.47,-0.3 2.2,-0.46l0.01 -9.71 -0.01 0 0 -0.01 0.01 -0.01c0.01,-0.45 0.19,-0.85 0.48,-1.15 0.3,-0.29 0.7,-0.47 1.15,-0.47l0.01 0 0.01 0.01c0.46,0.01 0.86,0.19 1.16,0.49 0.3,0.3 0.48,0.71 0.48,1.16l-0.01 0 -0.01 8.87c0.66,-0.18 1.32,-0.38 1.98,-0.58 0.76,-0.23 1.5,-0.48 2.2,-0.73l0.01 -9.86 0 0 0 -0.01 0 -0.01c0.01,-0.45 0.19,-0.85 0.49,-1.15 0.29,-0.29 0.7,-0.47 1.15,-0.47l0 -0.01 0.01 0 0.01 0.01c0.45,0.01 0.86,0.19 1.16,0.49 0.3,0.3 0.48,0.71 0.48,1.16l-0.01 0 -0.01 8.53c1.52,-0.67 2.96,-1.41 4.31,-2.21l0.33 -0.2c-0.3,-0.3 -0.48,-0.71 -0.48,-1.16l0.01 0 0.02 -8.94 -0.01 0 0 -0.01 0.01 -0.01c0.01,-0.45 0.19,-0.85 0.48,-1.15 0.3,-0.29 0.7,-0.47 1.15,-0.47l0.02 0 0.01 0.01c0.45,0.01 0.86,0.19 1.16,0.49 0.3,0.3 0.48,0.71 0.48,1.16l-0.01 0 -0.01 8.14c0.43,-0.34 0.85,-0.69 1.26,-1.04 0.04,-0.04 0.09,-0.07 0.13,-0.1l0.32 -37.78c-0.94,0.81 -2.02,1.58 -3.25,2.31 -1.96,1.17 -4.29,2.21 -6.91,3.11 -4,1.38 -8.77,2.47 -14.05,3.2 -5.06,0.7 -10.61,1.05 -16.41,1 -5.81,-0.06 -11.35,-0.53 -16.4,-1.32 -5.28,-0.83 -10.02,-2.02 -14,-3.47 -2.61,-0.95 -4.92,-2.04 -6.86,-3.25 -1.08,-0.66 -2.05,-1.36 -2.9,-2.1zm-0.3 41.98l-0.02 2.87c0.37,0.91 1.17,1.83 2.35,2.75 1.89,1.46 4.68,2.86 8.17,4.09 3.82,1.36 8.41,2.47 13.54,3.25 4.96,0.76 10.39,1.2 16.09,1.25 5.71,0.06 11.16,-0.28 16.12,-0.93 5.13,-0.68 9.74,-1.7 13.59,-2.98 3.52,-1.17 6.33,-2.51 8.25,-3.94 1.69,-1.27 2.63,-2.57 2.64,-3.84l0.02 -1.95c-4.32,3.18 -9.87,5.57 -16.07,7.23 -7.47,1.99 -15.9,2.92 -24.27,2.85 -8.82,-0.07 -17.59,-1.23 -25.1,-3.39 -6.13,-1.76 -11.43,-4.2 -15.29,-7.25z"/>
    <path class="fil11" d="M477.35 503.88l-0.53 59c0.08,0.03 0.17,0.07 0.26,0.11 19.6,10.33 41.62,15.55 64.03,16.14 23.38,0.61 47.2,-3.79 69.21,-12.68l0.07 -0.03 0.55 -61.34c-1.7,1.52 -3.76,2.94 -6.16,4.25 -3.17,1.75 -6.93,3.31 -11.19,4.67 -6.52,2.08 -14.27,3.73 -22.85,4.83 -8.26,1.05 -17.29,1.59 -26.74,1.51 -9.47,-0.08 -18.49,-0.79 -26.71,-1.99 -8.56,-1.25 -16.28,-3.04 -22.76,-5.24 -4.23,-1.44 -7.96,-3.07 -11.1,-4.87 -2.37,-1.36 -4.41,-2.82 -6.08,-4.37zm-0.58 64.46l-0.02 2.54 0.2 0.01 -0.01 0.85c-0.02,2.07 1.55,4.18 4.4,6.24 3.13,2.26 7.75,4.4 13.52,6.3 6.29,2.07 13.83,3.77 22.23,4.95 8.12,1.15 17.02,1.82 26.38,1.9 9.35,0.08 18.27,-0.43 26.41,-1.43 8.43,-1.04 16,-2.59 22.32,-4.55 5.79,-1.8 10.45,-3.85 13.62,-6.06 2.89,-2.01 4.49,-4.09 4.51,-6.15l0.01 -1.24c-22.11,8.65 -45.94,12.93 -69.35,12.31 -22.42,-0.59 -44.45,-5.67 -64.22,-15.67z"/>
    <path class="fil9" d="M370.68 419.65c-5.04,0.68 -9.58,1.7 -13.38,2.99 -3.46,1.17 -6.23,2.51 -8.11,3.93 -1.66,1.27 -2.59,2.57 -2.6,3.85 -0.01,1.28 0.9,2.6 2.54,3.9 1.85,1.46 4.6,2.85 8.03,4.08 3.78,1.36 8.3,2.47 13.34,3.24 4.87,0.75 10.22,1.19 15.84,1.24 5.62,0.05 10.98,-0.29 15.86,-0.94 5.05,-0.68 9.58,-1.7 13.38,-2.98 3.46,-1.17 6.23,-2.51 8.11,-3.93 1.66,-1.27 2.59,-2.57 2.6,-3.84 0.01,-1.28 -0.89,-2.6 -2.54,-3.9 -1.85,-1.46 -4.6,-2.85 -8.03,-4.08 -3.77,-1.36 -8.29,-2.46 -13.34,-3.24 -4.87,-0.75 -10.22,-1.19 -15.84,-1.24 -5.62,-0.06 -10.98,0.28 -15.86,0.94z"/>
    <path class="fil8" d="M415.93 355.26c-8.17,1.04 -15.52,2.59 -21.65,4.56 -5.6,1.79 -10.12,3.84 -13.19,6.05 -2.8,2.01 -4.35,4.09 -4.37,6.16 -0.02,2.07 1.5,4.19 4.26,6.25 3.03,2.26 7.51,4.39 13.09,6.29 6.1,2.07 13.41,3.76 21.56,4.94 7.87,1.15 16.5,1.81 25.57,1.9 9.07,0.08 17.72,-0.43 25.6,-1.43 8.17,-1.04 15.51,-2.59 21.65,-4.56 5.6,-1.79 10.12,-3.84 13.19,-6.05 2.8,-2.01 4.35,-4.09 4.37,-6.17 0.02,-2.07 -1.5,-4.19 -4.26,-6.24 -3.03,-2.26 -7.51,-4.39 -13.09,-6.29 -6.1,-2.07 -13.41,-3.76 -21.56,-4.94 -7.87,-1.14 -16.51,-1.81 -25.57,-1.89 -9.07,-0.08 -17.72,0.43 -25.6,1.43z"/>
    <path class="fil12" d="M517.2 476.72c-8.32,1.04 -15.79,2.59 -22.03,4.55 -5.71,1.8 -10.31,3.85 -13.43,6.05 -2.85,2.01 -4.43,4.09 -4.45,6.16 -0.02,2.07 1.53,4.18 4.33,6.24 3.09,2.26 7.65,4.4 13.32,6.29 6.2,2.07 13.65,3.76 21.95,4.94 8.01,1.14 16.8,1.81 26.02,1.89 9.22,0.08 18.02,-0.43 26.06,-1.43 8.32,-1.04 15.79,-2.6 22.03,-4.56 5.71,-1.79 10.31,-3.85 13.43,-6.05 2.85,-2.01 4.43,-4.1 4.45,-6.16 0.02,-2.07 -1.53,-4.19 -4.33,-6.25 -3.08,-2.26 -7.64,-4.39 -13.33,-6.29 -6.2,-2.06 -13.64,-3.76 -21.95,-4.94 -8.01,-1.15 -16.8,-1.81 -26.02,-1.9 -9.22,-0.08 -18.02,0.44 -26.06,1.44z"/>
   </g>
  </g>
 </g>
</svg>
