<?xml version="1.0" encoding="UTF-8"?>
<!DOCTYPE svg PUBLIC "-//W3C//DTD SVG 1.1//EN" "http://www.w3.org/Graphics/SVG/1.1/DTD/svg11.dtd">
<!-- Creator: CorelDRAW 2018 (64 Bit Versión de evaluación) -->
<svg xmlns="http://www.w3.org/2000/svg" xml:space="preserve" width="70.4852mm" height="16.9334mm" version="1.1" style="shape-rendering:geometricPrecision; text-rendering:geometricPrecision; image-rendering:optimizeQuality; fill-rule:evenodd; clip-rule:evenodd"
viewBox="0 0 5759.95 1383.77"
 xmlns:xlink="http://www.w3.org/1999/xlink">
 <defs>
  <style type="text/css">
   <![CDATA[
    .fil0 {fill:none}
    .fil12 {fill:#ED3237}
    .fil4 {fill:#DBA438}
    .fil8 {fill:#7A2D2E}
    .fil6 {fill:#52658C}
    .fil11 {fill:#00A859}
    .fil3 {fill:#0A5E5D}
    .fil1 {fill:#FEFEFE}
    .fil14 {fill:#FEFEFE;fill-rule:nonzero}
    .fil13 {fill:#ED3237;fill-rule:nonzero}
    .fil9 {fill:#DBA438;fill-rule:nonzero}
    .fil7 {fill:#7A2D2E;fill-rule:nonzero}
    .fil5 {fill:#52658C;fill-rule:nonzero}
    .fil10 {fill:#00A859;fill-rule:nonzero}
    .fil2 {fill:#0A5E5D;fill-rule:nonzero}
   ]]>
  </style>
 </defs>
 <g id="Capa_x0020_1">
  <metadata id="CorelCorpID_0Corel-Layer"/>
  <rect class="fil0" x="-0" y="-0" width="5759.95" height="1382.08"/>
  <g id="_2166027268624">
   <circle class="fil1" cx="1224.99" cy="691.89" r="687.92"/>
   <g>
    <path class="fil2" d="M1224.99 294.11c109.85,0 209.29,44.52 281.28,116.51 71.99,71.99 116.51,171.43 116.51,281.28 0,109.85 -44.52,209.29 -116.51,281.28 -71.99,71.99 -171.43,116.51 -281.28,116.51 -109.85,0 -209.29,-44.52 -281.28,-116.51 -71.99,-71.99 -116.51,-171.43 -116.51,-281.28 0,-109.85 44.52,-209.29 116.51,-281.28 71.99,-71.99 171.43,-116.51 281.28,-116.51zm273.62 124.16c-70.02,-70.02 -166.76,-113.33 -273.62,-113.33 -106.86,0 -203.59,43.31 -273.62,113.33 -70.02,70.02 -113.33,166.76 -113.33,273.62 0,106.86 43.31,203.59 113.33,273.62 70.02,70.02 166.76,113.33 273.62,113.33 106.86,0 203.59,-43.31 273.62,-113.33 70.02,-70.02 113.33,-166.76 113.33,-273.62 0,-106.86 -43.31,-203.59 -113.33,-273.62z"/>
    <path class="fil2" d="M1224.99 0c191.06,0 364.03,77.44 489.23,202.65 125.21,125.2 202.65,298.17 202.65,489.23 0,191.06 -77.44,364.03 -202.65,489.23 -125.2,125.21 -298.17,202.65 -489.23,202.65 -191.06,0 -364.03,-77.44 -489.23,-202.65 -125.21,-125.2 -202.65,-298.17 -202.65,-489.23 0,-191.06 77.44,-364.03 202.65,-489.23 125.2,-125.21 298.17,-202.65 489.23,-202.65zm481.58 210.31c-123.25,-123.24 -293.51,-199.48 -481.58,-199.48 -188.07,0 -358.33,76.24 -481.58,199.48 -123.24,123.25 -199.48,293.51 -199.48,481.58 0,188.07 76.24,358.33 199.48,481.58 123.25,123.24 293.51,199.48 481.58,199.48 188.07,0 358.33,-76.24 481.58,-199.48 123.24,-123.25 199.48,-293.51 199.48,-481.58 0,-188.07 -76.24,-358.33 -199.48,-481.58z"/>
    <path class="fil3" d="M1224.99 30.98c365.01,0 660.91,295.89 660.91,660.91 0,365.01 -295.89,660.91 -660.91,660.91 -365.01,0 -660.91,-295.89 -660.91,-660.91 0,-365.01 295.89,-660.91 660.91,-660.91zm-493.39 635.1c0.38,0.19 0.85,0.22 1.43,0.08 0.58,-0.13 1.05,-0.4 1.4,-0.82 1.41,-1.65 2.89,-3.7 4.45,-6.16 1.56,-2.46 3.11,-5.25 4.66,-8.38 1.54,-3.12 2.93,-6.48 4.15,-10.08 1.22,-3.6 2.18,-7.31 2.88,-11.12 1.74,-9.36 1.99,-17.62 0.77,-24.79 -1.23,-7.16 -3.51,-13.26 -6.86,-18.3 -3.35,-5.04 -7.5,-9.07 -12.47,-12.09 -4.97,-3.01 -10.32,-5.05 -16.06,-6.11 -10.41,-1.93 -19.53,-0.78 -27.36,3.45 -7.82,4.22 -14.86,11.68 -21.12,22.35 -3.84,6.58 -6.84,11.4 -9,14.47 -2.16,3.06 -4.58,4.36 -7.24,3.86 -2.27,-0.42 -3.77,-1.84 -4.49,-4.24 -0.73,-2.4 -0.72,-5.63 0.03,-9.68 1.15,-6.24 2.93,-11.51 5.3,-15.78 2.39,-4.28 4.49,-7.62 6.32,-10.04 0.92,-1.26 0.56,-2.28 -1.09,-3.06l-27.29 -12.59c-1.27,-0.6 -2.28,-0.36 -3.03,0.69 -3.08,3.97 -5.81,8.64 -8.18,13.99 -2.38,5.36 -4.31,12.03 -5.78,20 -1.42,7.62 -1.63,14.7 -0.63,21.22 1.01,6.52 3.04,12.31 6.1,17.36 3.07,5.05 7.03,9.22 11.87,12.51 4.84,3.29 10.4,5.52 16.67,6.68 5.88,1.09 11.26,1.07 16.16,-0.05 4.9,-1.13 9.41,-3.07 13.52,-5.83 4.1,-2.77 7.8,-6.15 11.09,-10.14 3.3,-3.99 6.19,-8.26 8.69,-12.82 5.88,-10.86 10.76,-15.94 14.63,-15.22 5.34,0.99 7.16,6.1 5.44,15.35 -1.18,6.36 -3.22,12.14 -6.11,17.33 -2.9,5.21 -5.76,9.45 -8.58,12.76 -0.51,0.51 -0.65,1.05 -0.41,1.63 0.24,0.59 0.74,1.06 1.5,1.45l28.62 12.12zm44.03 -215.42l30.94 6.65c0.54,0.15 1.05,0.11 1.54,-0.1 0.49,-0.21 0.82,-0.47 0.97,-0.78l16.43 -31.8c0.38,-0.73 0.34,-1.41 -0.1,-2.03 -0.44,-0.63 -1.01,-0.99 -1.72,-1.1l-135.69 -26.62c-1.08,-0.29 -1.86,0.04 -2.34,0.98l-20.14 39c-0.49,0.94 -0.3,1.77 0.56,2.47l101.31 93.19c0.49,0.52 1.13,0.78 1.89,0.78 0.77,0 1.34,-0.37 1.72,-1.1l15.53 -30.08c0.54,-1.04 0.33,-1.94 -0.65,-2.72 -3.98,-3.24 -7.94,-6.58 -11.91,-10.01 -3.96,-3.43 -7.98,-6.8 -12.08,-10.11l13.75 -26.63zm-39.4 7.04c-3.06,-2.65 -5.7,-4.94 -7.91,-6.87 -2.21,-1.93 -4.88,-4.17 -8,-6.71l-0.08 0.16c-1.41,-1.4 -2.95,-2.79 -4.61,-4.17 -1.65,-1.38 -3.4,-2.81 -5.23,-4.29 -0.56,-0.42 -1.21,-0.92 -1.97,-1.51 -0.77,-0.6 -1.42,-1.1 -1.97,-1.51 0.71,0.1 1.17,0.17 1.37,0.21 0.21,0.04 0.32,0.06 0.32,0.06 -0.06,0.11 0.02,0.18 0.23,0.22 0.2,0.04 0.78,0.18 1.74,0.41l-0.26 0.06c2.32,0.54 4.74,1.03 7.26,1.47 2.52,0.44 4.88,0.9 7.08,1.37 3.33,0.66 6.72,1.42 10.17,2.28 3.46,0.86 6.91,1.64 10.35,2.37l-8.5 16.45zm122.57 -75.19c1.14,1.17 2.21,1.26 3.22,0.28l23.13 -22.51c0.92,-0.91 0.82,-1.94 -0.32,-3.11l-33.1 -34 31.34 -30.5c0.92,-0.9 0.87,-1.89 -0.18,-2.96l-20.88 -21.45c-1.14,-1.17 -2.17,-1.3 -3.09,-0.4l-31.33 30.5 -12.79 -13.13 33.36 -32.47c1.01,-0.98 1,-2.01 -0.05,-3.08l-20.88 -21.45c-1.14,-1.17 -2.21,-1.26 -3.22,-0.28l-57.86 56.32c-1.01,0.98 -0.95,2.06 0.19,3.23l92.46 95.01zm143.23 -202.19c-0.67,-1.34 -1.58,-1.72 -2.74,-1.14l-39.91 19.91 -7 -14.02 42.44 -21.18c1.26,-0.63 1.56,-1.62 0.89,-2.95l-13.37 -26.79c-0.73,-1.45 -1.72,-1.87 -2.98,-1.24l-73.2 36.54c-1.16,0.58 -1.37,1.59 -0.65,3.05l59.21 118.62c0.73,1.46 1.68,1.9 2.83,1.32l75.57 -37.72c1.15,-0.57 1.37,-1.59 0.65,-3.05l-13.37 -26.79c-0.67,-1.33 -1.59,-1.72 -2.74,-1.14l-44.81 22.36 -8 -16.03 39.91 -19.92c1.16,-0.57 1.37,-1.59 0.65,-3.05l-13.37 -26.79zm117.54 49.46c0.28,1.6 1.05,2.29 2.33,2.07l31.78 -5.57c1.39,-0.24 1.94,-1.17 1.66,-2.77l-17.27 -98.49 30.39 -5.33c1.39,-0.25 1.95,-1.1 1.7,-2.57l-5.25 -29.88c-0.28,-1.61 -1.12,-2.29 -2.5,-2.04l-96.22 16.87c-1.27,0.23 -1.77,1.14 -1.49,2.75l5.25 29.88c0.25,1.47 1.02,2.09 2.3,1.87l30.04 -5.26 17.28 98.49zm184.93 -1.75c1.4,0.19 2.21,-0.53 2.42,-2.15l7.25 -55.53 50.83 -69.35c0.47,-0.9 0.61,-1.73 0.42,-2.52 -0.2,-0.78 -0.75,-1.23 -1.69,-1.35l-36.89 -4.81c-0.93,-0.12 -1.58,0.27 -1.93,1.18l-14.51 28.09c-1.12,2.19 -2.17,4.17 -3.18,5.96 -1.01,1.78 -1.98,3.57 -2.93,5.37 -1,2.2 -2.03,4.25 -3.11,6.16 -0.38,-1.55 -0.7,-2.76 -0.95,-3.61 -0.25,-0.85 -0.44,-1.63 -0.59,-2.34 -0.14,-0.7 -0.31,-1.45 -0.51,-2.22 -0.2,-0.78 -0.42,-1.94 -0.7,-3.48 -0.33,-1.14 -0.6,-2.37 -0.85,-3.7 -0.24,-1.33 -0.56,-2.71 -0.97,-4.13l-6.84 -30.67c-0.34,-1.01 -0.87,-1.55 -1.57,-1.64l-37.41 -4.89c-0.93,-0.12 -1.59,0.17 -1.98,0.87 -0.39,0.7 -0.47,1.54 -0.25,2.53 4.99,13.52 9.9,27.03 14.72,40.53 4.81,13.5 9.71,27.07 14.68,40.73l-7.06 54.12c-0.21,1.62 0.32,2.51 1.6,2.67l31.99 4.18zm174.7 23.21c0.11,-0.84 -0.01,-1.52 -0.36,-2.04 -0.35,-0.52 -0.84,-0.78 -1.5,-0.76 -2.86,0.08 -6.43,-0.33 -10.71,-1.23 -4.28,-0.91 -8.42,-2.23 -12.4,-3.97 -10.35,-4.51 -16.93,-11.09 -19.77,-19.73 -2.84,-8.65 -2.11,-17.88 2.18,-27.71 2.5,-5.73 5.5,-10.26 9.02,-13.61 3.51,-3.36 7.3,-5.79 11.34,-7.27 4.05,-1.5 8.25,-2.07 12.58,-1.73 4.35,0.34 8.61,1.42 12.81,3.26 4.85,2.11 8.93,4.45 12.24,7 3.31,2.55 5.96,5.07 7.94,7.58 0.43,0.48 0.96,0.68 1.58,0.58 0.62,-0.11 1.18,-0.42 1.66,-0.95l17.63 -23.64c0.76,-1.15 0.82,-2.16 0.17,-3.03 -1.94,-2.92 -5.39,-6.17 -10.37,-9.75 -4.98,-3.58 -11.02,-6.92 -18.13,-10.02 -8.95,-3.9 -17.97,-6.14 -27.08,-6.7 -9.12,-0.57 -17.87,0.68 -26.26,3.76 -8.4,3.08 -16.14,8.03 -23.22,14.86 -7.08,6.83 -13.01,15.73 -17.79,26.68 -3.69,8.46 -5.94,17.07 -6.75,25.82 -0.8,8.76 0.11,17.16 2.76,25.2 2.65,8.04 7.24,15.53 13.77,22.45 6.54,6.92 15.3,12.78 26.28,17.58 7.44,3.24 14.15,5.35 20.13,6.33 5.99,0.98 10.39,1.35 13.19,1.09 0.43,-0.11 0.87,-0.32 1.33,-0.64 0.46,-0.32 0.74,-0.75 0.86,-1.29l6.87 -28.11zm105.84 87.63l-14.96 27.9c-0.29,0.47 -0.39,0.97 -0.34,1.5 0.07,0.53 0.23,0.92 0.49,1.16l26.01 24.58c0.6,0.56 1.26,0.72 1.98,0.47 0.73,-0.25 1.23,-0.71 1.53,-1.36l63.14 -123.02c0.57,-0.95 0.47,-1.79 -0.29,-2.52l-31.9 -30.15c-0.77,-0.73 -1.61,-0.78 -2.53,-0.15l-117.59 71.55c-0.64,0.34 -1.06,0.87 -1.27,1.6 -0.2,0.74 -0.02,1.38 0.58,1.94l24.61 23.26c0.85,0.81 1.79,0.85 2.79,0.12 4.22,-2.93 8.52,-5.82 12.92,-8.67 4.4,-2.85 8.75,-5.79 13.06,-8.81l21.79 20.58zm4.14 -39.8c3.38,-2.21 6.31,-4.12 8.78,-5.7 2.47,-1.59 5.36,-3.53 8.66,-5.83l-0.13 -0.12c1.73,-0.98 3.49,-2.07 5.28,-3.28 1.79,-1.21 3.64,-2.48 5.57,-3.84 0.55,-0.41 1.22,-0.91 1.99,-1.47 0.78,-0.57 1.45,-1.06 2,-1.48 -0.29,0.66 -0.49,1.08 -0.59,1.27 -0.1,0.19 -0.15,0.29 -0.15,0.29 -0.08,-0.08 -0.17,-0.02 -0.27,0.16 -0.1,0.19 -0.39,0.7 -0.87,1.56l0.02 -0.28c-1.16,2.08 -2.3,4.27 -3.42,6.58 -1.13,2.3 -2.22,4.44 -3.29,6.42 -1.55,3.02 -3.22,6.06 -5,9.14 -1.78,3.08 -3.49,6.18 -5.14,9.29l-13.45 -12.72zm40.55 137.43c-1.45,0.73 -1.87,1.72 -1.24,2.99l14.25 28.55c0.58,1.15 1.59,1.36 3.06,0.64l37.17 -18.55c0.3,0.9 0.71,1.88 1.23,2.93 0.53,1.05 1.05,2.1 1.58,3.15 3.99,7.99 8.74,14.68 14.24,20.09 5.5,5.4 11.65,9.29 18.46,11.68 5.25,1.71 11.07,2.12 17.46,1.23 6.38,-0.89 12.49,-2.79 18.32,-5.7 6.8,-3.4 12.25,-7.76 16.34,-13.09 4.09,-5.32 6.8,-10.62 8.12,-15.88 1.08,-5.13 1.11,-10.99 0.1,-17.59 -1.01,-6.59 -3.49,-13.83 -7.43,-21.71 -4.62,-9.25 -8.71,-16.77 -12.27,-22.54 -3.56,-5.78 -6.71,-10.48 -9.43,-14.11 -0.77,-0.93 -1.7,-1.13 -2.79,-0.58l-117.16 58.48zm108.63 -14.01c0.66,0.72 1.31,1.71 1.94,2.97 0.63,1.26 1.39,2.79 2.28,4.57 2.57,5.16 3.4,9.54 2.47,13.16 -0.92,3.61 -3.27,6.37 -7.04,8.25 -4.62,2.3 -8.98,2.44 -13.1,0.42 -4.12,-2.02 -7.44,-5.55 -9.95,-10.6 -0.69,-1.36 -1.23,-2.47 -1.66,-3.31 -0.37,-0.74 -0.69,-1.55 -1,-2.46l26.06 -13zm-41.73 145.88c-0.42,-0.04 -0.88,0.1 -1.37,0.42 -0.49,0.32 -0.83,0.74 -1.02,1.25 -0.74,2.03 -1.42,4.49 -2.02,7.34 -0.6,2.84 -1.09,6.01 -1.45,9.47 -0.36,3.46 -0.47,7.09 -0.36,10.89 0.11,3.79 0.51,7.6 1.18,11.42 1.64,9.38 4.29,17.21 7.94,23.49 3.65,6.28 7.93,11.2 12.82,14.76 4.89,3.55 10.2,5.88 15.9,6.97 5.7,1.09 11.43,1.13 17.18,0.11 10.44,-1.83 18.57,-6.09 24.43,-12.78 5.85,-6.7 9.85,-16.14 11.99,-28.33 1.3,-7.5 2.43,-13.07 3.37,-16.7 0.95,-3.63 2.76,-5.68 5.43,-6.15 2.27,-0.4 4.18,0.4 5.7,2.4 1.52,2 2.64,5.03 3.35,9.08 1.1,6.25 1.27,11.8 0.54,16.64 -0.74,4.85 -1.54,8.71 -2.41,11.61 -0.42,1.5 0.27,2.34 2.09,2.5l29.97 2.26c1.4,0.11 2.26,-0.45 2.59,-1.7 1.5,-4.81 2.43,-10.12 2.79,-15.98 0.35,-5.85 -0.17,-12.76 -1.58,-20.76 -1.34,-7.64 -3.61,-14.34 -6.83,-20.1 -3.21,-5.76 -7.14,-10.47 -11.78,-14.13 -4.64,-3.67 -9.81,-6.19 -15.49,-7.58 -5.69,-1.38 -11.67,-1.53 -17.95,-0.42 -5.88,1.03 -10.93,2.93 -15.13,5.7 -4.2,2.76 -7.74,6.16 -10.62,10.18 -2.88,4.03 -5.16,8.48 -6.86,13.38 -1.69,4.89 -2.92,9.9 -3.67,15.05 -1.71,12.23 -4.51,18.69 -8.38,19.37 -5.35,0.94 -8.83,-3.22 -10.46,-12.49 -1.12,-6.37 -1.23,-12.49 -0.33,-18.38 0.89,-5.88 2.09,-10.87 3.58,-14.95 0.3,-0.65 0.24,-1.21 -0.19,-1.67 -0.42,-0.47 -1.06,-0.74 -1.9,-0.83l-31.04 -1.36zm-911.58 458.83l4.5 13.84c-7.63,2.75 -14.44,3.18 -20.41,1.31 -5.97,-1.89 -11.14,-5.94 -15.53,-12.18 -5.43,-7.74 -7.26,-15.95 -5.48,-24.65 1.79,-8.69 7.26,-16.26 16.43,-22.71 9.69,-6.81 18.99,-9.6 27.87,-8.37 8.87,1.23 16.19,5.92 21.93,14.09 5.01,7.13 6.96,14.4 5.88,21.8 -0.63,4.41 -2.82,8.91 -6.56,13.52l-10.93 -9.68c2.53,-2.8 3.9,-5.92 4.11,-9.32 0.2,-3.43 -0.79,-6.69 -2.98,-9.81 -3.04,-4.32 -7.05,-6.75 -12.04,-7.25 -4.98,-0.53 -10.94,1.65 -17.88,6.53 -7.35,5.16 -11.66,10.18 -12.92,15.01 -1.26,4.85 -0.4,9.4 2.58,13.64 2.2,3.13 5.08,5.13 8.65,5.98 3.58,0.84 7.84,0.28 12.79,-1.74zm38.42 82.69l-10.67 -11.28 7.54 -15.6 -19.62 -20.72 -15.83 6.84 -10.48 -11.06 70.67 -28.85 10.47 11.06 -32.08 69.62zm2.39 -38.53l12.32 -25.29 -25.73 11.13 13.4 14.16zm3.37 43.64l46.5 -53.87 17.44 15.06c6.61,5.7 10.69,9.68 12.23,11.95 2.39,3.48 3.45,7.46 3.2,11.96 -0.25,4.51 -2.24,8.91 -5.94,13.2 -2.85,3.31 -5.85,5.56 -8.99,6.79 -3.15,1.22 -6.19,1.68 -9.15,1.37 -2.95,-0.31 -5.57,-1.08 -7.83,-2.31 -3.04,-1.72 -7.01,-4.7 -11.93,-8.94l-7.07 -6.1 -17.54 20.31 -10.91 -9.41zm49.55 -35.34l-13.25 15.35 5.93 5.12c4.27,3.69 7.37,5.86 9.3,6.54 1.93,0.69 3.82,0.78 5.68,0.27 1.86,-0.5 3.47,-1.54 4.86,-3.15 1.69,-1.96 2.51,-4.08 2.48,-6.34 -0.05,-2.28 -0.8,-4.32 -2.28,-6.18 -1.09,-1.35 -3.58,-3.72 -7.49,-7.09l-5.22 -4.51zm9.83 57.29l12.58 6.32c-1.79,4.41 -2.2,8.21 -1.21,11.45 0.99,3.24 3.33,6.01 7.01,8.34 3.89,2.46 7.35,3.5 10.37,3.1 3.02,-0.4 5.24,-1.71 6.64,-3.92 0.91,-1.42 1.25,-2.89 1.06,-4.42 -0.2,-1.52 -1.1,-3.31 -2.71,-5.34 -1.1,-1.4 -3.77,-4.31 -8.01,-8.75 -5.45,-5.73 -8.74,-10.6 -9.86,-14.62 -1.58,-5.65 -0.85,-10.85 2.17,-15.62 1.94,-3.06 4.63,-5.4 8.04,-6.98 3.43,-1.58 7.21,-2.03 11.35,-1.36 4.15,0.66 8.52,2.44 13.13,5.37 7.51,4.76 12.13,10.01 13.8,15.76 1.69,5.75 0.86,11.46 -2.48,17.17l-12.45 -7.29c1.45,-3.44 1.76,-6.36 0.92,-8.79 -0.83,-2.43 -2.94,-4.72 -6.33,-6.87 -3.5,-2.21 -6.7,-3.22 -9.59,-3.02 -1.87,0.13 -3.3,0.97 -4.3,2.53 -0.9,1.43 -1.07,3.03 -0.51,4.8 0.7,2.27 3.56,5.97 8.57,11.09 5.01,5.12 8.44,9.33 10.32,12.59 1.88,3.29 2.8,6.72 2.75,10.32 -0.04,3.6 -1.26,7.29 -3.66,11.08 -2.18,3.45 -5.18,6.08 -9,7.87 -3.82,1.8 -7.94,2.33 -12.36,1.57 -4.43,-0.75 -9.26,-2.79 -14.48,-6.09 -7.6,-4.81 -12.32,-10.26 -14.18,-16.35 -1.86,-6.07 -1.05,-12.72 2.4,-19.92zm79.72 -6.13l12.79 6.65 -17.8 34.21c-2.83,5.44 -4.49,9.04 -5.02,10.8 -0.8,2.87 -0.61,5.62 0.6,8.24 1.23,2.63 3.6,4.85 7.13,6.69 3.57,1.86 6.65,2.53 9.25,1.99 2.59,-0.54 4.62,-1.78 6.11,-3.75 1.5,-1.97 3.54,-5.44 6.14,-10.44l18.18 -34.94 12.78 6.65 -17.27 33.19c-3.95,7.58 -7.08,12.77 -9.39,15.54 -2.32,2.77 -4.96,4.76 -7.93,5.96 -2.97,1.2 -6.32,1.62 -10.07,1.29 -3.77,-0.34 -8.13,-1.78 -13.12,-4.37 -6.01,-3.12 -10.2,-6.19 -12.58,-9.19 -2.37,-3.01 -3.89,-6.1 -4.54,-9.27 -0.65,-3.18 -0.61,-6.11 0.09,-8.87 1.05,-4.05 3.42,-9.61 7.09,-16.68l17.54 -33.71zm31.84 95.1l25.43 -65.82 13.44 5.19 -21.1 54.6 33.28 12.86 -4.33 11.22 -46.73 -18.06zm118.92 35.96l-15.13 -3.46 -2.39 -17.16 -27.83 -6.35 -9.37 14.48 -14.86 -3.39 42.77 -63.23 14.85 3.38 11.96 75.72zm-19.4 -33.38l-3.78 -27.87 -15.23 23.53 19.01 4.34zm26.35 11.09l14.07 0.48c0.21,4.76 1.43,8.38 3.69,10.91 2.26,2.53 5.54,4.07 9.86,4.65 4.56,0.61 8.14,0.11 10.71,-1.53 2.57,-1.62 4.05,-3.73 4.4,-6.33 0.22,-1.68 -0.08,-3.15 -0.89,-4.46 -0.81,-1.3 -2.39,-2.54 -4.7,-3.73 -1.58,-0.81 -5.21,-2.34 -10.93,-4.61 -7.35,-2.93 -12.37,-5.97 -15.07,-9.15 -3.79,-4.48 -5.31,-9.5 -4.56,-15.11 0.48,-3.6 1.95,-6.84 4.4,-9.7 2.45,-2.86 5.7,-4.85 9.74,-5.98 4.05,-1.13 8.75,-1.33 14.17,-0.6 8.82,1.18 15.21,4.03 19.13,8.55 3.94,4.53 5.57,10.06 4.92,16.64l-14.35 -1.42c-0.12,-3.73 -1.06,-6.51 -2.84,-8.37 -1.77,-1.86 -4.66,-3.06 -8.63,-3.6 -4.1,-0.55 -7.44,-0.12 -9.98,1.27 -1.64,0.9 -2.6,2.26 -2.84,4.09 -0.22,1.68 0.29,3.2 1.54,4.57 1.59,1.77 5.73,3.93 12.41,6.5 6.69,2.56 11.57,4.94 14.64,7.13 3.07,2.2 5.35,4.93 6.82,8.21 1.46,3.29 1.9,7.16 1.3,11.61 -0.54,4.04 -2.17,7.68 -4.89,10.9 -2.73,3.24 -6.25,5.43 -10.58,6.59 -4.33,1.18 -9.57,1.34 -15.7,0.52 -8.91,-1.19 -15.48,-4.17 -19.7,-8.93 -4.23,-4.75 -6.27,-11.12 -6.15,-19.11zm156.88 21.68l-8.07 10.67c-4.08,-1.9 -8.02,-4.55 -11.8,-7.94 -2.82,2.63 -5.85,4.59 -9.06,5.88 -3.2,1.29 -7.04,1.97 -11.51,2.05 -8.84,0.16 -15.55,-2.22 -20.11,-7.13 -3.53,-3.78 -5.33,-8.19 -5.42,-13.21 -0.09,-4.58 1.19,-8.7 3.87,-12.4 2.65,-3.69 6.67,-6.93 12.04,-9.71 -2.49,-2.84 -4.37,-5.56 -5.65,-8.15 -1.29,-2.6 -1.94,-5.06 -1.99,-7.39 -0.08,-4.31 1.58,-8 4.97,-11.06 3.37,-3.06 8.26,-4.66 14.62,-4.77 6.13,-0.11 10.96,1.37 14.48,4.45 3.51,3.08 5.31,6.88 5.39,11.42 0.06,2.88 -0.74,5.63 -2.39,8.25 -1.66,2.61 -5.04,5.61 -10.15,8.96l10.03 12.99c1.12,-2.07 2.07,-4.79 2.85,-8.11l12.4 2.54c-1.14,4.4 -2.17,7.62 -3.04,9.67 -0.86,2.03 -1.81,3.75 -2.82,5.13 1.54,1.4 3.55,2.92 5.99,4.58 2.45,1.66 4.24,2.75 5.38,3.28zm-37.81 -38.08l3.61 -2.9c2.66,-2.15 3.96,-4.26 3.93,-6.33 -0.03,-1.76 -0.7,-3.24 -2.03,-4.44 -1.32,-1.22 -3.08,-1.8 -5.3,-1.76 -2.15,0.03 -3.83,0.61 -5.04,1.71 -1.18,1.12 -1.77,2.39 -1.75,3.82 0.03,1.68 1.1,3.7 3.19,6.07l3.4 3.83zm-5.07 14.93c-3.08,1.65 -5.39,3.61 -6.9,5.88 -1.5,2.26 -2.24,4.57 -2.2,6.88 0.06,2.95 1.05,5.35 3.02,7.17 1.94,1.84 4.52,2.72 7.75,2.66 2.12,-0.04 4.17,-0.49 6.1,-1.37 1.96,-0.87 4.07,-2.3 6.35,-4.31l-14.12 -16.91zm94.87 22.51l-9.97 -58.28 -20.76 3.55 -2.03 -11.86 55.64 -9.51 2.03 11.86 -20.67 3.53 9.96 58.29 -14.2 2.43zm97.56 -27.35l-14.71 4.93 -10.97 -13.41 -27.07 9.07 -0.46 17.23 -14.46 4.85 3.6 -76.25 14.43 -4.84 49.64 58.42zm-33.94 -18.4l-17.74 -21.83 -0.74 28.02 18.48 -6.19zm41.19 15.8l-29.3 -64.85 20.99 -9.49c7.96,-3.59 13.28,-5.61 15.98,-6.06 4.16,-0.7 8.22,0.01 12.2,2.14 3.98,2.12 7.13,5.77 9.47,10.93 1.8,3.99 2.58,7.65 2.38,11.02 -0.22,3.37 -1.09,6.33 -2.61,8.88 -1.52,2.54 -3.33,4.59 -5.39,6.13 -2.84,2.03 -7.22,4.38 -13.13,7.05l-8.52 3.85 11.05 24.46 -13.13 5.93zm-11.21 -59.83l8.34 18.48 7.14 -3.23c5.15,-2.32 8.42,-4.22 9.85,-5.68 1.43,-1.47 2.31,-3.14 2.63,-5.04 0.33,-1.9 0.07,-3.8 -0.81,-5.73 -1.07,-2.37 -2.64,-4 -4.72,-4.92 -2.08,-0.92 -4.26,-1.1 -6.56,-0.52 -1.68,0.41 -4.87,1.68 -9.59,3.8l-6.29 2.84zm50.28 4.76c-3.94,-6.09 -6.33,-11.8 -7.19,-17.13 -0.62,-3.91 -0.52,-7.86 0.26,-11.8 0.78,-3.94 2.2,-7.4 4.22,-10.39 2.71,-3.98 6.5,-7.55 11.37,-10.7 8.82,-5.7 17.63,-7.51 26.47,-5.48 8.83,2.07 16.38,7.97 22.69,17.72 6.25,9.67 8.52,18.93 6.8,27.78 -1.71,8.86 -6.97,16.12 -15.75,21.8 -8.89,5.74 -17.72,7.61 -26.48,5.57 -8.75,-2.03 -16.22,-7.82 -22.39,-17.37zm12.18 -8.44c4.38,6.77 9.27,10.89 14.67,12.37 5.39,1.47 10.49,0.65 15.31,-2.46 4.83,-3.12 7.66,-7.42 8.52,-12.89 0.84,-5.48 -0.98,-11.68 -5.47,-18.62 -4.43,-6.86 -9.24,-11.01 -14.44,-12.42 -5.19,-1.44 -10.27,-0.54 -15.27,2.69 -4.98,3.22 -7.89,7.53 -8.74,12.91 -0.83,5.39 0.96,11.52 5.42,18.41zm74.03 -6.1l-43.5 -56.31 11.03 -8.53 52.33 19.84 -29.16 -37.75 10.54 -8.14 43.51 56.31 -11.4 8.8 -51.42 -19.38 28.6 37.02 -10.54 8.14zm55.98 -45.02l-51.65 -48.94 36.23 -38.24 8.73 8.27 -26.31 27.78 11.47 10.87 24.47 -25.83 8.74 8.27 -24.47 25.83 14 13.25 27.27 -28.78 8.74 8.27 -37.19 39.25zm24.73 -60.28l7.76 -11.75c4.18,2.3 7.9,3.15 11.23,2.55 3.33,-0.6 6.37,-2.6 9.11,-5.97 2.9,-3.58 4.34,-6.89 4.3,-9.94 -0.04,-3.05 -1.08,-5.4 -3.11,-7.05 -1.32,-1.06 -2.73,-1.58 -4.27,-1.57 -1.53,0.02 -3.42,0.7 -5.63,2.06 -1.51,0.92 -4.72,3.24 -9.63,6.92 -6.33,4.74 -11.55,7.43 -15.67,8.07 -5.79,0.91 -10.88,-0.43 -15.27,-4 -2.81,-2.29 -4.81,-5.24 -5.98,-8.81 -1.16,-3.6 -1.16,-7.4 -0.01,-11.43 1.14,-4.05 3.43,-8.16 6.87,-12.4 5.61,-6.91 11.38,-10.86 17.28,-11.85 5.91,-1 11.48,0.5 16.75,4.49l-8.7 11.5c-3.24,-1.85 -6.1,-2.49 -8.62,-1.95 -2.51,0.55 -5.04,2.37 -7.57,5.48 -2.61,3.21 -4,6.28 -4.13,9.18 -0.09,1.86 0.58,3.39 2.02,4.56 1.31,1.06 2.88,1.42 4.7,1.07 2.34,-0.43 6.34,-2.84 12.02,-7.2 5.67,-4.38 10.26,-7.29 13.72,-8.77 3.49,-1.47 7,-1.99 10.57,-1.52 3.56,0.47 7.09,2.12 10.57,4.94 3.16,2.57 5.43,5.87 6.76,9.87 1.33,4 1.36,8.16 0.09,12.46 -1.26,4.31 -3.85,8.86 -7.75,13.66 -5.68,6.98 -11.64,11.03 -17.9,12.15 -6.26,1.13 -12.76,-0.47 -19.51,-4.74zm-420.7 -783.01c231.47,0 419.12,187.65 419.12,419.12 0,231.47 -187.65,419.12 -419.12,419.12 -231.47,0 -419.12,-187.65 -419.12,-419.12 0,-231.47 187.65,-419.12 419.12,-419.12z"/>
    <path class="fil4" d="M1120.06 651.13l0.24 -0.05 0 3.82 0.16 -0.02 0.22 -0.02 0.07 0 0.29 -0.03 0.01 0 0.29 -0.02 0.08 -0.01 0.22 -0.02 0.16 -0.02 0.13 -0.01 0.25 -0.02 0.05 0 0.3 -0.02 0.03 0 0.26 -0.02 0.12 -0.01 0.18 -0.02 0.2 -0.02 0.1 -0.01 0.61 -0.04 0.06 0 0.25 -0.02 0.14 -0.01 0.16 -0.01 0.23 -0.02 0.07 -0.01 0.31 -0.02 0 0 0.3 -0.02 0.09 -0.01 0.22 -0.02 0.17 -0.01 0.13 -0.01 0.26 -0.02 0.05 0 0.31 -0.02 0.03 0 0.28 -0.02 0.11 -0.01 0.19 -0.01 0.2 -0.01 0.11 -0.01 0.29 -0.02 0.02 0 0.31 -0.02 0.07 0 0.25 -0.01 0.15 -0.01 0.17 -0.01 0.23 -0.01 0.08 -0.01 0.31 -0.01 0 0 0.31 -0.02 0.09 0 0.4 -0.01 0.14 -0.01 0.26 -0.01 0.06 0 0.31 -0.02 0.03 0 0.29 -0.01 0.11 0 0.2 -0.01 0.2 0 0.11 -0.01 0.29 0 0.02 -0.01 0.32 -0.01 0.06 0 0.26 0 0.15 -0.01 0.17 0 0.23 -0.01 0.09 0 0.64 -0.01 0.09 0 0.23 0 0.17 -0.01 0.15 0 0.26 0 0.06 0 0.33 0 0.02 0 0.29 -0.01 0.11 0 0.2 0 0.21 0 0.76 0 0.06 0 0.26 0 0.16 0.01 0.17 0 0.24 0 0.09 0 0.33 0c8.82,0.09 17.21,0.78 24.85,1.99 7.97,1.24 15.13,3.02 21.1,5.21 5.58,2.04 10.08,4.36 13.18,6.85 3.2,2.56 6.86,5.34 6.84,8.24 0,3.92 0.08,7.8 0.05,11.74l-0.38 45.34c2.82,0.19 5.65,0.35 8.49,0.47 3.82,0.16 7.69,0.26 11.59,0.29 14.67,0.13 28.66,-0.67 41.43,-2.24 13.23,-1.62 25.11,-4.06 35.02,-7.13 9.08,-2.82 16.39,-6.05 21.37,-9.5 4.54,-3.15 7.04,-6.41 7.08,-9.64l0.96 -106.45c-2.66,2.37 -5.9,4.6 -9.66,6.66 -4.97,2.74 -10.87,5.19 -17.55,7.33 -10.22,3.27 -22.37,5.86 -35.85,7.58 -12.95,1.65 -27.11,2.51 -41.95,2.37 -14.85,-0.13 -29,-1.23 -41.91,-3.12 -13.43,-1.96 -25.55,-4.77 -35.7,-8.22 -6.64,-2.26 -12.49,-4.82 -17.41,-7.64 -3.73,-2.13 -6.92,-4.42 -9.54,-6.85l-0.48 53.71z"/>
    <path class="fil5" d="M1475.16 759.3c-3.95,-1.96 -8.55,-3.82 -13.72,-5.54l0 0c-9.9,-3.3 -21.74,-5.99 -34.9,-7.87 -12.65,-1.81 -26.57,-2.86 -41.19,-2.99 -14.64,-0.12 -28.56,0.69 -41.23,2.26 -4.4,0.55 -8.65,1.19 -12.73,1.91l1.12 -122.87c6.24,0.87 11.62,1.41 18.32,1.91 7.04,0.53 14.34,0.83 21.85,0.91 15.27,0.13 29.88,-0.75 43.25,-2.48 13.92,-1.8 26.48,-4.49 37.06,-7.89 5.34,-1.72 10.2,-3.64 14.5,-5.74 3.35,-1.63 6.37,-3.38 9.05,-5.23l-1.38 153.61z"/>
    <path class="fil6" d="M1269.65 555.88c1.81,0.25 3.63,0.56 5.39,0.92l0 -61.84c0,-1.06 0.87,-1.92 1.92,-1.92 1.06,0 1.92,0.86 1.92,1.92l0 62.57c5.39,1.1 10.44,2.3 15.15,3.66l0 -58.79c0,-1.06 0.86,-1.92 1.92,-1.92 1.06,0 1.92,0.86 1.92,1.92l0 59.95c0.91,0.29 1.8,0.57 2.67,0.87 4.65,1.55 8.83,3.26 12.48,5.04l0 -60.93c0,-1.06 0.86,-1.92 1.92,-1.92 1.05,0 1.92,0.86 1.92,1.92l0 62.94c1.84,1.05 3.49,2.11 4.95,3.2 4.35,3.24 7,6.71 7.62,10.29l2.89 9.08 -0.31 -8.92 0 -73.42c0,-1.06 0.87,-1.93 1.92,-1.93 1.06,0 1.92,0.87 1.92,1.93l0 90.68c0,1.06 -0.86,1.92 -1.92,1.92 -0.47,0 -0.89,-0.16 -1.23,-0.45l0 6.55c12.78,1.81 26.84,2.86 41.6,3 30.08,0.27 57.25,-3.36 76.86,-9.44 5.23,-1.62 9.89,-3.37 13.86,-5.24 2.7,-1.3 5.07,-2.65 7.07,-4.03 4.53,-3.15 7.04,-6.42 7.07,-9.65l0.96 -106.45c-2.66,2.37 -5.9,4.6 -9.66,6.67 -4.97,2.73 -10.87,5.19 -17.55,7.32 -10.21,3.27 -22.37,5.86 -35.85,7.58 -12.94,1.66 -27.11,2.51 -41.95,2.37 -14.85,-0.13 -29,-1.23 -41.91,-3.12 -13.43,-1.96 -25.55,-4.77 -35.7,-8.22 -6.64,-2.26 -12.49,-4.82 -17.41,-7.64 -3.72,-2.13 -6.92,-4.42 -9.54,-6.85l-0.72 80.38 -0.18 -0.02zm195.32 -57.06c0,-1.05 0.86,-1.92 1.92,-1.92 1.06,0 1.92,0.87 1.92,1.92l0 91.97c0,1.06 -0.86,1.92 -1.92,1.92 -1.06,0 -1.92,-0.86 -1.92,-1.92l0 -91.97zm-18.98 6.06c0,-1.06 0.86,-1.92 1.92,-1.92 1.05,0 1.92,0.86 1.92,1.92l0 91.86c0,1.06 -0.87,1.92 -1.92,1.92 -1.06,0 -1.92,-0.86 -1.92,-1.92l0 -91.86zm-18.99 4.1c0,-1.06 0.86,-1.93 1.92,-1.93 1.06,0 1.92,0.87 1.92,1.93l0 91.43c0,1.06 -0.86,1.92 -1.92,1.92 -1.06,0 -1.92,-0.86 -1.92,-1.92l0 -91.43zm-19.01 2.52c0,-1.06 0.87,-1.92 1.92,-1.92 1.06,0 1.92,0.86 1.92,1.92l0 90.85c0,1.06 -0.86,1.92 -1.92,1.92 -1.05,0 -1.92,-0.86 -1.92,-1.92l0 -90.85zm-18.98 1.27c0,-1.06 0.86,-1.92 1.92,-1.92 1.05,0 1.92,0.86 1.92,1.92l0 90.32c0,1.06 -0.87,1.92 -1.92,1.92 -1.06,0 -1.92,-0.86 -1.92,-1.92l0 -90.32zm-19.01 0.25c0,-1.05 0.86,-1.92 1.92,-1.92 1.05,0 1.92,0.87 1.92,1.92l0 90.14c0,1.06 -0.87,1.92 -1.92,1.92 -1.06,0 -1.92,-0.86 -1.92,-1.92l0 -90.14zm-18.99 -0.69c0,-1.05 0.86,-1.92 1.92,-1.92 1.06,0 1.92,0.87 1.92,1.92l0 90.36c0,1.06 -0.86,1.92 -1.92,1.92 -1.06,0 -1.92,-0.86 -1.92,-1.92l0 -90.36z"/>
    <path class="fil5" d="M1334.27 434.88c-12.81,1.63 -24.34,4.08 -33.96,7.15 -8.78,2.81 -15.87,6.03 -20.69,9.49 -4.39,3.15 -6.82,6.42 -6.86,9.68 -0.02,3.24 2.35,6.57 6.68,9.8 4.76,3.54 11.78,6.88 20.53,9.86 9.57,3.24 21.03,5.9 33.82,7.76 12.34,1.79 25.89,2.84 40.11,2.97 14.24,0.13 27.81,-0.68 40.16,-2.25 12.82,-1.63 24.34,-4.07 33.96,-7.14 8.78,-2.81 15.87,-6.03 20.69,-9.5 4.39,-3.15 6.83,-6.42 6.86,-9.67 0.03,-3.25 -2.35,-6.57 -6.68,-9.8 -4.76,-3.54 -11.78,-6.89 -20.53,-9.86 -9.57,-3.24 -21.04,-5.89 -33.82,-7.75 -12.34,-1.8 -25.89,-2.84 -40.11,-2.97 -14.24,-0.13 -27.8,0.67 -40.16,2.24z"/>
    <path class="fil7" d="M1117.58 655.16c-1.32,0.15 -2.63,0.31 -3.92,0.49 -7.99,1.09 -15.18,2.73 -21.19,4.8 -5.6,1.93 -10.14,4.17 -13.29,6.59 -2.96,2.29 -4.72,4.79 -5.01,7.41l-1.64 0 -1.36 191.49c-3.09,0.16 -6.19,0.28 -9.31,0.35 -3.53,0.08 -7.1,0.11 -10.71,0.08 -14.61,-0.13 -28.53,-1.22 -41.19,-3.06 -13.12,-1.91 -24.88,-4.64 -34.67,-7.99 -8.85,-3.02 -15.95,-6.41 -20.75,-9.96 -4.39,-3.24 -6.79,-6.56 -6.76,-9.78l1.77 -198.15c2.64,1.9 5.63,3.69 8.95,5.39 4.27,2.18 9.1,4.19 14.41,6.01 10.51,3.59 23.02,6.51 36.9,8.56 13.31,1.96 27.9,3.11 43.2,3.25 12.09,0.11 23.76,-0.42 34.71,-1.5 10.73,-1.06 20.77,-2.64 29.88,-4.66l0 0.69z"/>
    <path class="fil8" d="M949.55 511.12l-0.95 105.1 0.31 0 -0.01 1.35c-0.03,3.24 2.42,6.55 6.9,9.78 4.9,3.54 12.16,6.9 21.21,9.88 9.86,3.25 21.69,5.91 34.87,7.77 12.73,1.79 26.71,2.84 41.39,2.97 12.09,0.11 23.71,-0.42 34.55,-1.47 10.79,-1.06 20.81,-2.65 29.77,-4.68l0 -61.93 0.1 0c0.51,-3.75 3.28,-7.34 7.89,-10.65 5.03,-3.61 12.38,-6.96 21.46,-9.86l0 0c0.92,-0.29 1.83,-0.57 2.75,-0.85 0.11,0 0.79,-0.23 0.95,-0.27l0.01 -0.01c0.92,-0.26 1.83,-0.51 2.75,-0.77l0 0c0.64,-0.17 1.27,-0.34 1.9,-0.5l0.01 0c0.98,-0.25 1.97,-0.49 2.96,-0.73l0 -0.01 0.38 -0.09 0.38 -43.15c-2.66,2.37 -5.9,4.6 -9.66,6.66 -4.97,2.74 -10.87,5.19 -17.55,7.33 -10.21,3.27 -22.37,5.86 -35.85,7.58 -12.94,1.65 -27.11,2.51 -41.95,2.37 -14.85,-0.13 -29,-1.23 -41.91,-3.12 -13.43,-1.96 -25.55,-4.77 -35.7,-8.22 -6.64,-2.26 -12.49,-4.82 -17.41,-7.64 -3.72,-2.13 -6.92,-4.42 -9.54,-6.85z"/>
    <path class="fil7" d="M1014.58 468.49c-12.81,1.63 -24.34,4.08 -33.95,7.15 -8.79,2.81 -15.87,6.03 -20.7,9.49 -4.39,3.15 -6.82,6.42 -6.86,9.68 -0.02,3.24 2.35,6.57 6.68,9.8 4.76,3.54 11.78,6.88 20.53,9.86 9.57,3.24 21.04,5.9 33.82,7.76 12.35,1.79 25.9,2.84 40.12,2.97 14.24,0.13 27.79,-0.68 40.16,-2.25 12.82,-1.63 24.34,-4.07 33.96,-7.14 8.79,-2.81 15.87,-6.03 20.69,-9.5 4.4,-3.15 6.83,-6.42 6.86,-9.67 0.03,-3.25 -2.35,-6.57 -6.68,-9.8 -4.75,-3.54 -11.78,-6.89 -20.53,-9.86 -9.57,-3.25 -21.03,-5.9 -33.82,-7.76 -12.35,-1.79 -25.9,-2.84 -40.12,-2.97 -14.24,-0.13 -27.8,0.67 -40.16,2.24z"/>
    <path class="fil9" d="M1212.46 746.63c-3.39,-0.15 -5.24,-0.24 -8.47,-0.47l-0.56 139.55c3.03,0.2 5.16,0.32 8.2,0.44 3.48,0.14 6.99,0.23 10.52,0.26 10.34,0.09 20.36,-0.3 29.87,-1.12 9.36,-0.8 18.19,-2.01 26.29,-3.57l0 -108.02 0.83 0c0.23,-4.04 3.09,-7.89 8.11,-11.43 5.13,-3.61 12.6,-6.96 21.83,-9.86 5.58,-1.75 11.78,-3.3 18.47,-4.61l0.29 -22.19c-2.67,1.85 -5.7,3.59 -9.04,5.22 -4.3,2.09 -9.15,4.01 -14.5,5.74 -10.57,3.39 -23.14,6.1 -37.06,7.89 -13.36,1.72 -27.97,2.61 -43.25,2.48 -3.91,-0.04 -7.76,-0.14 -11.54,-0.3l0 0z"/>
    <path class="fil10" d="M1073.84 868.5l0.01 -0.78 0.81 -97.52c1.42,1.03 2.99,2.02 4.69,2.95 2.64,1.45 5.62,2.79 8.89,4 6.46,2.37 14.15,4.31 22.69,5.66 8.19,1.3 17.14,2.06 26.53,2.15 9.39,0.09 18.36,-0.49 26.56,-1.63 8.54,-1.18 16.26,-2.97 22.77,-5.23 3.3,-1.14 6.3,-2.42 8.96,-3.82 1.46,-0.76 2.82,-1.57 4.08,-2.41l0 79.21 -0.42 49.96c-0.02,1.98 -1.45,4.02 -4.05,6.01 -2.94,2.26 -7.27,4.38 -12.66,6.25 -5.99,2.08 -13.18,3.73 -21.2,4.82 -7.75,1.06 -16.25,1.61 -25.16,1.53 -8.92,-0.09 -17.41,-0.8 -25.13,-2.01 -7.98,-1.25 -15.13,-3.05 -21.11,-5.24 -5.36,-1.98 -9.66,-4.18 -12.55,-6.49 -2.57,-2.04 -3.98,-4.11 -3.96,-6.1l0.25 -31.31z"/>
    <path class="fil11" d="M1075.13 687.55l-0.42 59.03c0.15,0.1 0.29,0.21 0.42,0.34 0.51,0.51 1.05,1.01 1.62,1.5l0 -13.86 0 -0.02c0.02,-0.71 0.3,-1.35 0.77,-1.81 0.47,-0.45 1.1,-0.74 1.81,-0.74l0 0 0.02 0 0.02 0c0.71,0.01 1.36,0.31 1.82,0.78 0.47,0.47 0.75,1.12 0.75,1.83l0 14.7 -0.01 0.02c-0.01,0.7 -0.29,1.34 -0.76,1.8 -0.12,0.12 -0.25,0.23 -0.4,0.32 1.63,1.07 3.39,2.08 5.28,3.03 0.78,0.39 1.59,0.78 2.4,1.14l0 -15.49 0.01 -0.01c0.01,-0.71 0.3,-1.35 0.76,-1.81 0.47,-0.46 1.1,-0.74 1.81,-0.74l0 -0.01 0.02 0 0.02 0.01c0.72,0.01 1.36,0.31 1.82,0.78 0.47,0.47 0.76,1.12 0.76,1.83l0 15.77 -0.01 0.02c-0.01,0.59 -0.21,1.12 -0.55,1.54 2.26,0.85 4.63,1.63 7.1,2.33l0 -15.53 0.01 -0.02c0.01,-0.71 0.29,-1.34 0.76,-1.8 0.47,-0.47 1.1,-0.74 1.81,-0.74l0.02 0 0.02 0c0.71,0.02 1.36,0.31 1.82,0.78 0.47,0.47 0.75,1.12 0.75,1.83l0 16.83c1.11,0.26 2.22,0.51 3.34,0.74 1.05,0.22 2.12,0.42 3.22,0.62l0 -15.87 0.01 -0.02c0.01,-0.7 0.3,-1.34 0.77,-1.8 0.46,-0.46 1.1,-0.74 1.81,-0.74l0 -0.01 0.02 0 0.02 0.01c0.71,0.01 1.36,0.3 1.82,0.77 0.46,0.47 0.75,1.12 0.75,1.83l0 16.65c1.12,0.16 2.25,0.3 3.38,0.44 1.04,0.12 2.08,0.24 3.15,0.34l0.01 -16.17 -0.01 0 0 -0.02 0.01 -0.02c0.01,-0.7 0.3,-1.34 0.77,-1.8 0.46,-0.46 1.1,-0.74 1.8,-0.74l0.02 0 0.02 0c0.71,0.01 1.36,0.31 1.82,0.78 0.46,0.47 0.74,1.12 0.74,1.82l0 0 -0.01 16.56c1.18,0.07 2.33,0.14 3.46,0.19l0 0c1.18,0.05 2.35,0.08 3.5,0.11 -0.12,-5.38 -0.38,-10.91 -0.38,-16.28 -0.01,-0.7 0.27,-1.34 0.72,-1.81 0.45,-0.47 1.08,-0.77 1.79,-0.78l0.03 0c0.71,-0.01 1.36,0.27 1.83,0.73 0.47,0.46 0.78,1.1 0.79,1.81l0.38 16.36c1.04,-0.01 2.07,-0.03 3.11,-0.06 1,-0.03 2.01,-0.07 3.03,-0.12 -0.18,-5.31 -0.56,-10.94 -0.56,-16.22 -0.02,-0.7 0.25,-1.34 0.69,-1.81 0.45,-0.47 1.07,-0.78 1.78,-0.8l0.03 0c0.71,-0.02 1.36,0.25 1.84,0.7l0 0.01c0.48,0.45 0.78,1.09 0.81,1.8l0.56 15.99c1.1,-0.09 2.17,-0.2 3.23,-0.3 1.13,-0.12 2.26,-0.25 3.37,-0.39l0.01 -15.91 0 0 0 -0.02 0 -0.02c0.01,-0.7 0.3,-1.34 0.77,-1.8 0.46,-0.45 1.1,-0.74 1.8,-0.74l0 0 0.02 0 0.02 0c0.71,0.01 1.36,0.31 1.82,0.78 0.46,0.47 0.75,1.12 0.75,1.82l-0.01 0 -0.01 15.12c1.02,-0.17 2.07,-0.37 3.12,-0.56 1.15,-0.23 2.31,-0.47 3.46,-0.73l0.02 -15.23 -0.01 0 0 -0.02 0.01 -0.02c0.01,-0.71 0.29,-1.34 0.76,-1.8 0.47,-0.46 1.1,-0.74 1.8,-0.74l0.02 0 0.02 0.01c0.72,0.01 1.36,0.3 1.82,0.78 0.47,0.47 0.75,1.11 0.75,1.82l-0.01 0 -0.01 13.91c1.04,-0.29 2.08,-0.59 3.11,-0.92 1.18,-0.37 2.35,-0.76 3.46,-1.15l0.01 -15.46 0 0 0 -0.02 0 -0.02c0.01,-0.71 0.3,-1.34 0.77,-1.8 0.46,-0.46 1.1,-0.74 1.8,-0.74l0 -0.01 0.02 0 0.02 0.01c0.71,0.01 1.36,0.3 1.82,0.78 0.47,0.47 0.75,1.11 0.75,1.82l-0.01 0 -0.01 13.38c2.39,-1.05 4.65,-2.21 6.77,-3.47l0.52 -0.32c-0.47,-0.47 -0.75,-1.11 -0.75,-1.82l0.01 0 0.02 -14.02 -0.01 0 0 -0.02 0.01 -0.02c0.01,-0.7 0.29,-1.34 0.76,-1.8 0.47,-0.46 1.1,-0.74 1.8,-0.74l0.02 0 0.02 0.01c0.71,0.01 1.35,0.3 1.81,0.77 0.47,0.47 0.75,1.12 0.75,1.82l-0.01 0 -0.02 12.77c0.68,-0.53 1.34,-1.08 1.97,-1.63 0.07,-0.06 0.14,-0.11 0.2,-0.16l0.5 -59.27c-1.47,1.27 -3.17,2.48 -5.09,3.62 -3.08,1.83 -6.73,3.46 -10.84,4.88 -6.28,2.17 -13.75,3.88 -22.05,5.03 -7.94,1.1 -16.65,1.65 -25.75,1.57 -9.11,-0.09 -17.8,-0.83 -25.73,-2.07 -8.28,-1.3 -15.72,-3.16 -21.97,-5.45 -4.09,-1.5 -7.71,-3.2 -10.76,-5.09 -1.7,-1.04 -3.22,-2.14 -4.55,-3.29zm-0.47 65.86l-0.03 4.5c0.58,1.43 1.84,2.88 3.69,4.31 2.96,2.3 7.35,4.49 12.82,6.42 6,2.13 13.2,3.87 21.24,5.09 7.78,1.18 16.3,1.88 25.24,1.96 8.96,0.09 17.5,-0.44 25.28,-1.46 8.05,-1.07 15.28,-2.67 21.32,-4.68 5.51,-1.84 9.93,-3.94 12.93,-6.18 2.65,-1.99 4.13,-4.03 4.13,-6.02l0.03 -3.06c-6.78,4.98 -15.49,8.74 -25.21,11.33 -11.72,3.12 -24.95,4.58 -38.07,4.48 -13.84,-0.11 -27.6,-1.93 -39.38,-5.32 -9.61,-2.76 -17.94,-6.59 -23.99,-11.38z"/>
    <path class="fil12" d="M1281.94 790.46l-0.83 92.55c0.13,0.05 0.27,0.11 0.4,0.18 30.74,16.2 65.28,24.39 100.45,25.32 36.68,0.96 74.05,-5.95 108.58,-19.89l0.11 -0.05 0.87 -96.23c-2.66,2.38 -5.9,4.61 -9.66,6.67 -4.97,2.74 -10.88,5.2 -17.55,7.33 -10.22,3.26 -22.38,5.86 -35.85,7.58 -12.95,1.65 -27.12,2.5 -41.95,2.37 -14.85,-0.13 -29,-1.23 -41.91,-3.12 -13.43,-1.96 -25.55,-4.77 -35.71,-8.22 -6.64,-2.26 -12.49,-4.82 -17.41,-7.64 -3.72,-2.13 -6.91,-4.42 -9.54,-6.85zm-0.91 101.12l-0.03 3.98 0.31 0.01 -0.02 1.34c-0.02,3.24 2.43,6.55 6.9,9.78 4.9,3.54 12.16,6.9 21.21,9.88 9.87,3.25 21.7,5.91 34.88,7.76 12.73,1.8 26.71,2.85 41.39,2.98 14.66,0.13 28.66,-0.67 41.43,-2.24 13.23,-1.63 25.1,-4.06 35.02,-7.13 9.08,-2.82 16.39,-6.04 21.37,-9.5 4.54,-3.15 7.04,-6.41 7.08,-9.64l0.02 -1.94c-34.68,13.57 -72.07,20.28 -108.79,19.32 -35.17,-0.93 -69.74,-8.89 -100.75,-24.59z"/>
    <path class="fil10" d="M1114.61 658.32c-7.91,1.06 -15.04,2.67 -20.99,4.69 -5.43,1.84 -9.77,3.93 -12.72,6.16 -2.61,1.99 -4.06,4.04 -4.08,6.04 -0.02,2 1.41,4.08 3.98,6.11 2.91,2.3 7.22,4.47 12.6,6.41 5.92,2.13 13.02,3.87 20.92,5.08 7.64,1.18 16.03,1.87 24.85,1.95 8.82,0.08 17.22,-0.45 24.88,-1.48 7.92,-1.06 15.04,-2.66 20.99,-4.68 5.43,-1.84 9.77,-3.93 12.72,-6.17 2.61,-1.99 4.06,-4.03 4.08,-6.03 0.02,-2.01 -1.4,-4.08 -3.98,-6.12 -2.91,-2.29 -7.22,-4.47 -12.6,-6.41 -5.92,-2.13 -13.01,-3.87 -20.92,-5.08 -7.64,-1.18 -16.03,-1.86 -24.85,-1.94 -8.81,-0.09 -17.22,0.44 -24.88,1.47z"/>
    <path class="fil9" d="M1185.59 557.31c-12.82,1.63 -24.34,4.07 -33.97,7.15 -8.78,2.8 -15.87,6.03 -20.69,9.49 -4.39,3.15 -6.82,6.42 -6.86,9.67 -0.02,3.25 2.35,6.58 6.68,9.8 4.76,3.54 11.78,6.89 20.53,9.86 9.57,3.24 21.04,5.89 33.82,7.75 12.35,1.8 25.9,2.84 40.12,2.97 14.23,0.12 27.79,-0.68 40.16,-2.25 12.81,-1.63 24.34,-4.07 33.96,-7.15 8.78,-2.8 15.87,-6.03 20.69,-9.49 4.39,-3.15 6.82,-6.42 6.86,-9.68 0.03,-3.24 -2.35,-6.57 -6.68,-9.79 -4.76,-3.54 -11.78,-6.89 -20.53,-9.86 -9.57,-3.24 -21.04,-5.9 -33.82,-7.76 -12.35,-1.79 -25.9,-2.84 -40.11,-2.97 -14.24,-0.12 -27.8,0.68 -40.16,2.25z"/>
    <path class="fil13" d="M1344.45 747.85c-13.05,1.63 -24.78,4.07 -34.57,7.14 -8.96,2.82 -16.17,6.04 -21.08,9.5 -4.47,3.15 -6.95,6.42 -6.98,9.67 -0.03,3.24 2.39,6.56 6.8,9.79 4.85,3.55 12,6.9 20.9,9.86 9.73,3.24 21.41,5.9 34.44,7.76 12.56,1.79 26.35,2.84 40.83,2.97 14.46,0.13 28.27,-0.68 40.88,-2.25 13.05,-1.63 24.78,-4.08 34.57,-7.15 8.96,-2.81 16.17,-6.04 21.08,-9.49 4.47,-3.15 6.95,-6.43 6.98,-9.67 0.02,-3.24 -2.39,-6.57 -6.8,-9.8 -4.84,-3.54 -11.99,-6.89 -20.9,-9.86 -9.72,-3.24 -21.4,-5.89 -34.43,-7.75 -12.57,-1.8 -26.35,-2.84 -40.83,-2.97 -14.46,-0.12 -28.27,0.69 -40.88,2.26z"/>
   </g>
  </g>
  <path class="fil14" d="M2987.98 400.28l0 11.46c10.39,0.64 18.93,4.29 25.46,11.03 6.57,6.78 9.86,15.11 9.86,25.08 0,10.49 -3.5,19.3 -10.49,26.4 -7,7.1 -15.7,10.66 -26.09,10.66 -10.08,0 -18.5,-3.6 -25.34,-10.76 -6.84,-7.16 -10.29,-16.07 -10.29,-26.62 0,-11.03 3.34,-20.79 10.02,-29.33 6.63,-8.53 15.64,-14.47 26.89,-17.92zm-84.63 0.32l0 11.14c10.34,0.64 18.72,4.29 25.24,11.03 6.52,6.78 9.76,15.11 9.76,25.08 0,10.49 -3.51,19.3 -10.5,26.4 -7,7.1 -15.7,10.66 -26.09,10.66 -10.07,0 -18.5,-3.55 -25.34,-10.71 -6.84,-7.16 -10.29,-16.07 -10.29,-26.62 0,-10.97 3.34,-20.73 10.08,-29.27 6.73,-8.48 15.8,-14.37 27.15,-17.71z"/>
  <path id="1" class="fil14" d="M3136.61 543.61l0 -55.67c12.72,0 19.09,-4.82 19.09,-14.53 0,-8.85 -4.88,-13.3 -14.69,-13.3 -9.91,0 -14.9,6.1 -14.9,18.24l0 138.6 -63 0 0 -132.08c0,-13.68 1.38,-24.87 4.14,-33.62 2.7,-8.75 7.42,-16.86 14.05,-24.44 7.48,-8.38 16.81,-15.01 28,-19.83 11.19,-4.88 22.75,-7.32 34.62,-7.32 21.58,0 39.72,7.26 54.35,21.75 14.68,14.47 22.01,32.45 22.01,53.87 0,20.84 -6.58,37.7 -19.73,50.64 -11.98,11.93 -30.12,17.87 -54.29,17.87l-9.65 -0.16z"/>
  <path id="2" class="fil14" d="M3326.86 460.47l0 62.15c-4.03,-2.23 -7.69,-3.34 -10.97,-3.34 -10.5,0 -15.75,8.06 -15.75,24.18l0 73.49 -58.22 0 0 -84.68c0,-22.38 6.1,-40.2 18.35,-53.5 12.2,-13.31 28.53,-19.94 48.89,-19.94 4.56,0 10.44,0.53 17.71,1.64z"/>
  <path id="3" class="fil14" d="M3417.54 458.83c22.01,0 40.83,7.9 56.52,23.7 15.75,15.8 23.6,34.73 23.6,56.79 0,22.37 -7.96,41.46 -23.86,57.21 -15.96,15.75 -35.16,23.59 -57.64,23.59 -22.53,0 -41.78,-7.89 -57.74,-23.7 -15.96,-15.8 -23.97,-34.84 -23.97,-57.1 0,-22.7 8.01,-41.78 23.97,-57.27 15.96,-15.49 35.69,-23.22 59.12,-23.22zm-1.54 57.27c-6.26,0 -11.51,2.28 -15.85,6.78 -4.35,4.51 -6.52,10.02 -6.52,16.6 0,6.41 2.17,11.93 6.57,16.55 4.4,4.56 9.65,6.84 15.8,6.84 6.2,0 11.51,-2.28 15.91,-6.84 4.4,-4.62 6.57,-10.13 6.57,-16.55 0,-6.58 -2.17,-12.09 -6.52,-16.6 -4.35,-4.5 -9.65,-6.78 -15.96,-6.78z"/>
  <path id="4" class="fil14" d="M3573.59 404.74l0 59.5 26.09 0 0 61.4 -26.09 0c0,12.3 1.91,20.78 5.79,25.45 3.87,4.67 10.97,7 21.26,7l0 61.03c-3.02,0.06 -5.25,0.06 -6.68,0.06 -13.15,0 -25.56,-3.08 -37.17,-9.18 -11.66,-6.1 -20.99,-14.37 -28.05,-24.82 -8.91,-13.3 -13.36,-31.02 -13.36,-53.02l0 -127.42 58.22 0z"/>
  <path id="5" class="fil14" d="M3780.44 548.86l-88.08 0c-1.22,-4.45 -1.86,-8.49 -1.86,-12.2 0,-5.14 0.9,-10.23 2.66,-15.17l29.53 0c-2.07,-11.66 -8.54,-17.5 -19.41,-17.5 -7.26,0 -13.15,3.07 -17.71,9.28 -4.56,6.15 -6.84,14.1 -6.84,23.76 0,10.07 2.17,18.18 6.57,24.44 4.4,6.2 10.18,9.33 17.34,9.33 5.78,0 11.4,-2.92 16.75,-8.75l33.09 39.82c-15.43,12.14 -32.61,18.24 -51.48,18.24 -22.96,0 -42.31,-7.74 -57.95,-23.17 -15.64,-15.49 -23.49,-34.58 -23.49,-57.42 0,-22.7 7.9,-41.89 23.71,-57.54 15.85,-15.64 35.26,-23.49 58.27,-23.49 22.48,0 41.41,7.63 56.68,22.95 15.32,15.27 22.96,34.1 22.96,56.52 0,2.28 -0.27,5.89 -0.74,10.88z"/>
  <path id="6" class="fil14" d="M3887.18 553.05l0 53.35c-8.38,3.02 -16.38,4.5 -24.03,4.5 -18.71,0 -34.57,-7.1 -47.5,-21.26 -12.99,-14.15 -19.47,-31.49 -19.47,-51.96 0,-22.16 7.8,-40.83 23.39,-56.04 15.64,-15.22 34.78,-22.8 57.53,-22.8 12.09,0 23.65,2.44 34.73,7.31 11.03,4.83 19.73,11.35 26.04,19.57 10.55,13.52 15.8,33.19 15.8,58.96l0 50.96c0,27.68 -7.85,50.1 -23.49,67.34 -15.64,17.23 -36.01,25.88 -61.13,25.88 -7.64,0 -17.29,-1.91 -28.95,-5.79l0 -52.76c7.53,4.03 15.11,6.05 22.8,6.05 10.39,0 18.39,-3.45 24.07,-10.29 5.67,-6.84 8.48,-16.7 8.48,-29.48l0 -58.27c0,-16.28 -6.47,-24.44 -19.41,-24.44 -5.52,0 -10.34,2.17 -14.47,6.47 -4.13,4.29 -6.2,9.23 -6.2,14.84 0,5.89 1.96,10.82 5.93,14.8 3.92,3.92 8.8,5.88 14.64,5.88 3.92,0 7.63,-0.96 11.24,-2.81z"/>
  <path id="7" class="fil14" d="M4046.15 462l0 154.94 -58.22 0 0 -154.94 58.22 0zm-28.79 -69.04c7.89,0 14.68,2.75 20.46,8.33 5.78,5.51 8.65,12.09 8.65,19.67 0,8.06 -2.7,14.74 -8.16,19.88 -5.47,5.2 -12.41,7.8 -20.94,7.8 -8.49,0 -15.49,-2.6 -20.94,-7.8 -5.47,-5.14 -8.17,-11.82 -8.17,-19.88 0,-7.58 2.87,-14.16 8.65,-19.67 5.78,-5.57 12.57,-8.33 20.47,-8.33z"/>
  <path id="8" class="fil14" d="M4232.47 548.86l-88.08 0c-1.22,-4.45 -1.86,-8.49 -1.86,-12.2 0,-5.14 0.9,-10.23 2.66,-15.17l29.53 0c-2.07,-11.66 -8.54,-17.5 -19.41,-17.5 -7.26,0 -13.15,3.07 -17.71,9.28 -4.56,6.15 -6.84,14.1 -6.84,23.76 0,10.07 2.17,18.18 6.57,24.44 4.4,6.2 10.18,9.33 17.34,9.33 5.78,0 11.4,-2.92 16.75,-8.75l33.09 39.82c-15.43,12.14 -32.61,18.24 -51.48,18.24 -22.96,0 -42.31,-7.74 -57.95,-23.17 -15.64,-15.49 -23.49,-34.58 -23.49,-57.42 0,-22.7 7.9,-41.89 23.71,-57.54 15.85,-15.64 35.26,-23.49 58.27,-23.49 22.48,0 41.41,7.63 56.68,22.95 15.32,15.27 22.96,34.1 22.96,56.52 0,2.28 -0.27,5.89 -0.74,10.88z"/>
  <path id="9" class="fil14" d="M4394.57 616.94l-58.22 0 0 -87.49c0,-8.91 -3.6,-13.36 -10.87,-13.36 -7.16,0 -10.76,4.45 -10.76,13.36l0 87.49 -58.22 0 0 -86.43c0,-20.14 6.68,-37.17 20.05,-50.95 13.36,-13.84 29.7,-20.73 49.1,-20.73 22.1,0 39.87,8.01 53.23,24.07 10.45,12.51 15.7,29.96 15.7,52.28l0 81.77z"/>
  <path id="10" class="fil14" d="M4523.9 404.74l58.22 0 0 129.22c0,23.76 -6.21,43.06 -18.66,58.01 -7.16,8.59 -16.28,15.43 -27.31,20.52 -11.03,5.09 -22.37,7.63 -33.99,7.63 -23.12,0 -42.63,-7.8 -58.49,-23.33 -15.85,-15.53 -23.81,-34.62 -23.81,-57.26 0,-21.85 7.9,-40.78 23.65,-56.74 15.75,-15.96 34.36,-23.97 55.94,-23.97 3.39,0 8.59,0.32 15.53,1.01l0 64c-4.77,-3.66 -9.54,-5.52 -14.32,-5.52 -6.05,0 -11.19,2.23 -15.49,6.63 -4.29,4.4 -6.46,9.71 -6.46,15.96 0,5.99 2.22,11.19 6.68,15.49 4.51,4.3 9.81,6.47 16.07,6.47 14.95,0 22.43,-10.35 22.43,-31.08l0 -127.05z"/>
  <path id="11" class="fil14" d="M4686.1 458.83c22.01,0 40.83,7.9 56.52,23.7 15.75,15.8 23.6,34.73 23.6,56.79 0,22.37 -7.96,41.46 -23.86,57.21 -15.96,15.75 -35.16,23.59 -57.64,23.59 -22.53,0 -41.78,-7.89 -57.74,-23.7 -15.96,-15.8 -23.97,-34.84 -23.97,-57.1 0,-22.7 8.01,-41.78 23.97,-57.27 15.96,-15.49 35.69,-23.22 59.12,-23.22zm-1.54 57.27c-6.26,0 -11.51,2.28 -15.85,6.78 -4.35,4.51 -6.52,10.02 -6.52,16.6 0,6.41 2.17,11.93 6.57,16.55 4.4,4.56 9.65,6.84 15.8,6.84 6.2,0 11.51,-2.28 15.91,-6.84 4.4,-4.62 6.57,-10.13 6.57,-16.55 0,-6.58 -2.17,-12.09 -6.52,-16.6 -4.35,-4.5 -9.65,-6.78 -15.96,-6.78z"/>
  <path id="12" class="fil14" d="M5022.12 548.86l-88.08 0c-1.22,-4.45 -1.86,-8.49 -1.86,-12.2 0,-5.14 0.9,-10.23 2.66,-15.17l29.53 0c-2.07,-11.66 -8.54,-17.5 -19.41,-17.5 -7.26,0 -13.15,3.07 -17.71,9.28 -4.56,6.15 -6.84,14.1 -6.84,23.76 0,10.07 2.17,18.18 6.57,24.44 4.4,6.2 10.18,9.33 17.34,9.33 5.78,0 11.4,-2.92 16.75,-8.75l33.09 39.82c-15.43,12.14 -32.61,18.24 -51.48,18.24 -22.96,0 -42.31,-7.74 -57.95,-23.17 -15.64,-15.49 -23.49,-34.58 -23.49,-57.42 0,-22.7 7.9,-41.89 23.71,-57.54 15.85,-15.64 35.26,-23.49 58.27,-23.49 22.48,0 41.41,7.63 56.68,22.95 15.32,15.27 22.96,34.1 22.96,56.52 0,2.28 -0.27,5.89 -0.74,10.88z"/>
  <polygon id="13" class="fil14" points="5104.36,404.74 5104.36,616.94 5046.14,616.94 5046.14,404.74 "/>
  <polygon id="14" class="fil14" points="2614.41,764.83 2522,989.12 2430.21,764.83 2503.23,764.83 2522.64,831.11 2544.05,764.83 "/>
  <path id="15" class="fil14" d="M2710.07 918.92l0 60.14c-4.77,0.79 -9.12,1.16 -13.04,1.16 -23.28,0 -42.63,-7.69 -58.17,-23.01 -15.53,-15.32 -23.28,-34.52 -23.28,-57.64 0,-22.48 7.84,-41.52 23.54,-57.16 15.64,-15.64 34.73,-23.49 57.21,-23.49 25.03,0 44.76,7.31 59.23,22.01 14.42,14.68 21.64,34.73 21.64,60.13l0 75.98 -58.22 0 0 -71.8c0,-8.16 -1.96,-14.68 -5.94,-19.56 -3.92,-4.82 -9.28,-7.26 -15.96,-7.26 -6.04,0 -11.29,2.23 -15.69,6.68 -4.4,4.45 -6.63,9.7 -6.63,15.8 0,6.41 2.01,11.72 5.99,15.85 4.03,4.14 9.12,6.21 15.27,6.21 5.04,0 9.76,-1.33 14.06,-4.04z"/>
  <polygon id="16" class="fil14" points="2869.1,764.83 2869.1,977.04 2810.87,977.04 2810.87,764.83 "/>
  <path id="17" class="fil14" d="M2976.53 818.92c22.01,0 40.83,7.9 56.52,23.7 15.75,15.8 23.6,34.73 23.6,56.79 0,22.37 -7.96,41.46 -23.86,57.21 -15.96,15.75 -35.16,23.59 -57.64,23.59 -22.53,0 -41.78,-7.89 -57.74,-23.7 -15.96,-15.8 -23.97,-34.84 -23.97,-57.1 0,-22.7 8.01,-41.78 23.97,-57.27 15.96,-15.49 35.69,-23.22 59.12,-23.22zm-1.54 57.27c-6.26,0 -11.51,2.28 -15.85,6.78 -4.35,4.51 -6.52,10.02 -6.52,16.6 0,6.41 2.17,11.93 6.57,16.55 4.4,4.56 9.65,6.84 15.8,6.84 6.2,0 11.51,-2.28 15.91,-6.84 4.4,-4.62 6.57,-10.13 6.57,-16.55 0,-6.58 -2.17,-12.09 -6.52,-16.6 -4.35,-4.5 -9.65,-6.78 -15.96,-6.78z"/>
  <path id="18" class="fil14" d="M3165.66 820.56l0 62.15c-4.03,-2.23 -7.69,-3.34 -10.97,-3.34 -10.5,0 -15.75,8.06 -15.75,24.18l0 73.49 -58.22 0 0 -84.68c0,-22.38 6.1,-40.2 18.35,-53.5 12.2,-13.31 28.53,-19.94 48.89,-19.94 4.56,0 10.44,0.53 17.71,1.64z"/>
  <path id="19" class="fil14" d="M3357.77 764.83l58.22 0 0 129.22c0,23.76 -6.21,43.06 -18.66,58.01 -7.16,8.59 -16.28,15.43 -27.31,20.52 -11.03,5.09 -22.37,7.63 -33.99,7.63 -23.12,0 -42.63,-7.8 -58.49,-23.33 -15.85,-15.53 -23.81,-34.62 -23.81,-57.26 0,-21.85 7.9,-40.78 23.65,-56.74 15.75,-15.96 34.36,-23.97 55.94,-23.97 3.39,0 8.59,0.32 15.53,1.01l0 64c-4.77,-3.66 -9.54,-5.52 -14.32,-5.52 -6.05,0 -11.19,2.23 -15.49,6.63 -4.29,4.4 -6.46,9.71 -6.46,15.96 0,5.99 2.22,11.19 6.68,15.49 4.51,4.3 9.81,6.47 16.07,6.47 14.95,0 22.43,-10.35 22.43,-31.08l0 -127.05z"/>
  <path id="20" class="fil14" d="M3598.72 908.96l-88.08 0c-1.22,-4.45 -1.86,-8.49 -1.86,-12.2 0,-5.14 0.9,-10.23 2.66,-15.17l29.53 0c-2.07,-11.66 -8.54,-17.5 -19.41,-17.5 -7.26,0 -13.15,3.07 -17.71,9.28 -4.56,6.15 -6.84,14.1 -6.84,23.76 0,10.07 2.17,18.18 6.57,24.44 4.4,6.2 10.18,9.33 17.34,9.33 5.78,0 11.4,-2.92 16.75,-8.75l33.09 39.82c-15.43,12.14 -32.61,18.24 -51.48,18.24 -22.96,0 -42.31,-7.74 -57.95,-23.17 -15.64,-15.49 -23.49,-34.58 -23.49,-57.42 0,-22.7 7.9,-41.89 23.71,-57.54 15.85,-15.64 35.26,-23.49 58.27,-23.49 22.48,0 41.41,7.63 56.68,22.95 15.32,15.27 22.96,34.1 22.96,56.52 0,2.28 -0.27,5.89 -0.74,10.88z"/>
  <path id="21" class="fil14" d="M3754.13 764.83l0 59.5 26.09 0 0 61.4 -26.09 0c0,12.3 1.91,20.78 5.79,25.45 3.87,4.67 10.97,7 21.26,7l0 61.03c-3.02,0.06 -5.25,0.06 -6.68,0.06 -13.15,0 -25.56,-3.08 -37.17,-9.18 -11.66,-6.1 -20.99,-14.37 -28.05,-24.82 -8.91,-13.3 -13.36,-31.02 -13.36,-53.02l0 -127.42 58.22 0z"/>
  <path id="22" class="fil14" d="M3808.7 824.33l58.22 0 0 87.49c0,8.91 3.6,13.36 10.87,13.36 7.16,0 10.76,-4.45 10.76,-13.36l0 -87.49 58.22 0 0 86.38c0,20.14 -6.68,37.12 -20.05,50.95 -13.36,13.84 -29.69,20.79 -49.05,20.79 -22.06,0 -39.82,-8.06 -53.29,-24.12 -10.44,-12.57 -15.7,-29.97 -15.7,-52.28l0 -81.71z"/>
  <path id="23" class="fil14" d="M4133.69 903.7l0 -55.67c12.72,0 19.09,-4.82 19.09,-14.53 0,-8.85 -4.88,-13.3 -14.69,-13.3 -9.91,0 -14.9,6.1 -14.9,18.24l0 138.6 -63 0 0 -132.08c0,-13.68 1.38,-24.87 4.14,-33.62 2.7,-8.75 7.42,-16.86 14.05,-24.44 7.48,-8.38 16.81,-15.01 28,-19.83 11.19,-4.88 22.75,-7.32 34.62,-7.32 21.58,0 39.72,7.26 54.35,21.75 14.68,14.47 22.01,32.45 22.01,53.87 0,20.84 -6.58,37.7 -19.73,50.64 -11.98,11.93 -30.12,17.87 -54.29,17.87l-9.65 -0.16z"/>
  <path id="24" class="fil14" d="M4323.94 820.56l0 62.15c-4.03,-2.23 -7.69,-3.34 -10.97,-3.34 -10.5,0 -15.75,8.06 -15.75,24.18l0 73.49 -58.22 0 0 -84.68c0,-22.38 6.1,-40.2 18.35,-53.5 12.2,-13.31 28.53,-19.94 48.89,-19.94 4.56,0 10.44,0.53 17.71,1.64z"/>
  <path id="25" class="fil14" d="M4414.62 818.92c22.01,0 40.83,7.9 56.52,23.7 15.75,15.8 23.6,34.73 23.6,56.79 0,22.37 -7.96,41.46 -23.86,57.21 -15.96,15.75 -35.16,23.59 -57.64,23.59 -22.53,0 -41.78,-7.89 -57.74,-23.7 -15.96,-15.8 -23.97,-34.84 -23.97,-57.1 0,-22.7 8.01,-41.78 23.97,-57.27 15.96,-15.49 35.69,-23.22 59.12,-23.22zm-1.54 57.27c-6.26,0 -11.51,2.28 -15.85,6.78 -4.35,4.51 -6.52,10.02 -6.52,16.6 0,6.41 2.17,11.93 6.57,16.55 4.4,4.56 9.65,6.84 15.8,6.84 6.2,0 11.51,-2.28 15.91,-6.84 4.4,-4.62 6.57,-10.13 6.57,-16.55 0,-6.58 -2.17,-12.09 -6.52,-16.6 -4.35,-4.5 -9.65,-6.78 -15.96,-6.78z"/>
  <path id="26" class="fil14" d="M4614.25 764.83l58.22 0 0 129.22c0,23.76 -6.21,43.06 -18.66,58.01 -7.16,8.59 -16.28,15.43 -27.31,20.52 -11.03,5.09 -22.37,7.63 -33.99,7.63 -23.12,0 -42.63,-7.8 -58.49,-23.33 -15.85,-15.53 -23.81,-34.62 -23.81,-57.26 0,-21.85 7.9,-40.78 23.65,-56.74 15.75,-15.96 34.36,-23.97 55.94,-23.97 3.39,0 8.59,0.32 15.53,1.01l0 64c-4.77,-3.66 -9.54,-5.52 -14.32,-5.52 -6.05,0 -11.19,2.23 -15.49,6.63 -4.29,4.4 -6.46,9.71 -6.46,15.96 0,5.99 2.22,11.19 6.68,15.49 4.51,4.3 9.81,6.47 16.07,6.47 14.95,0 22.43,-10.35 22.43,-31.08l0 -127.05z"/>
  <path id="27" class="fil14" d="M4702.91 824.33l58.22 0 0 87.49c0,8.91 3.6,13.36 10.87,13.36 7.16,0 10.76,-4.45 10.76,-13.36l0 -87.49 58.22 0 0 86.38c0,20.14 -6.68,37.12 -20.05,50.95 -13.36,13.84 -29.69,20.79 -49.05,20.79 -22.06,0 -39.82,-8.06 -53.29,-24.12 -10.44,-12.57 -15.7,-29.97 -15.7,-52.28l0 -81.71z"/>
  <path id="28" class="fil14" d="M4970 905.72l57.64 -2.17c-1.64,22.32 -9.97,40.72 -24.97,55.09 -15,14.37 -33.3,21.58 -54.82,21.58 -22.8,0 -42,-7.89 -57.69,-23.76 -15.7,-15.85 -23.54,-35.26 -23.54,-58.22 0,-21.84 7.9,-40.51 23.76,-56.05 15.85,-15.53 34.84,-23.27 57,-23.27 19.36,0 36.43,6.1 51.28,18.29 14.79,12.25 24.02,27.78 27.63,46.72l-58.86 2.17c-5.09,-6.63 -11.51,-9.91 -19.24,-9.91 -6.63,0 -12.09,2.17 -16.34,6.52 -4.24,4.35 -6.36,9.86 -6.36,16.49 0,6.73 2.22,12.35 6.73,16.92 4.5,4.56 10.12,6.84 16.86,6.84 9.81,0 16.81,-5.73 20.94,-17.23z"/>
  <path id="29" class="fil14" d="M5104.73 764.83l0 59.5 26.09 0 0 61.4 -26.09 0c0,12.3 1.91,20.78 5.79,25.45 3.87,4.67 10.97,7 21.26,7l0 61.03c-3.02,0.06 -5.25,0.06 -6.68,0.06 -13.15,0 -25.56,-3.08 -37.17,-9.18 -11.66,-6.1 -20.99,-14.37 -28.05,-24.82 -8.91,-13.3 -13.36,-31.02 -13.36,-53.02l0 -127.42 58.22 0z"/>
  <path id="30" class="fil14" d="M5232.84 818.92c22.01,0 40.83,7.9 56.52,23.7 15.75,15.8 23.6,34.73 23.6,56.79 0,22.37 -7.96,41.46 -23.86,57.21 -15.96,15.75 -35.16,23.59 -57.64,23.59 -22.53,0 -41.78,-7.89 -57.74,-23.7 -15.96,-15.8 -23.97,-34.84 -23.97,-57.1 0,-22.7 8.01,-41.78 23.97,-57.27 15.96,-15.49 35.69,-23.22 59.12,-23.22zm-1.54 57.27c-6.26,0 -11.51,2.28 -15.85,6.78 -4.35,4.51 -6.52,10.02 -6.52,16.6 0,6.41 2.17,11.93 6.57,16.55 4.4,4.56 9.65,6.84 15.8,6.84 6.2,0 11.51,-2.28 15.91,-6.84 4.4,-4.62 6.57,-10.13 6.57,-16.55 0,-6.58 -2.17,-12.09 -6.52,-16.6 -4.35,-4.5 -9.65,-6.78 -15.96,-6.78z"/>
  <path id="31" class="fil14" d="M5378.71 845l0 -11.4c-10.39,-0.58 -18.93,-4.24 -25.45,-10.93 -6.58,-6.68 -9.86,-15 -9.86,-24.97 0,-10.44 3.5,-19.24 10.5,-26.35 7,-7.1 15.69,-10.66 26.08,-10.66 10.08,0 18.51,3.55 25.35,10.71 6.84,7.16 10.29,16.07 10.29,26.62 0,10.97 -3.34,20.73 -10.03,29.27 -6.63,8.48 -15.58,14.37 -26.89,17.71zm84.63 0l0 -11.4c-10.34,-0.58 -18.71,-4.24 -25.23,-10.93 -6.52,-6.68 -9.76,-15 -9.76,-24.97 0,-10.44 3.5,-19.24 10.5,-26.35 7,-7.1 15.69,-10.66 26.08,-10.66 10.08,0 18.51,3.55 25.35,10.71 6.84,7.16 10.28,16.07 10.28,26.62 0,10.97 -3.33,20.73 -10.07,29.27 -6.73,8.48 -15.8,14.37 -27.16,17.71z"/>
 </g>
</svg>
